<svg width="17" height="18" viewBox="0 0 17 18" fill="none" xmlns="http://www.w3.org/2000/svg">
<path d="M14.069 0.579103C14.4539 0.579103 14.835 0.650461 15.1906 0.789102C15.5462 0.927743 15.8693 1.13095 16.1415 1.38713C16.4137 1.6433 16.6296 1.94743 16.7769 2.28214C16.9242 2.61685 17 2.97559 17 3.33787C17 6.86358 16.0621 10.6155 14.6552 11.4487V17.1317H13.4828V11.4487C12.0993 10.6321 11.1731 6.99601 11.1379 3.52547V3.21649C11.1712 2.50606 11.4946 1.83515 12.0407 1.34375C12.5868 0.852349 13.3134 0.578414 14.069 0.579103ZM8.7931 0.579103V10.5769C10.1531 10.8804 11.1379 12.2322 11.1379 13.8212C11.1379 15.6254 9.86 17.1317 8.2069 17.1317C6.55379 17.1317 5.27586 15.6254 5.27586 13.8212C5.27586 12.2377 6.26069 10.8804 7.62069 10.5769V0.579103H8.7931ZM0 0.579103H0.586207C3.20655 0.579103 4.64862 4.09378 4.68966 10.7866V11.6142H1.17241V17.1317H0V0.579103ZM8.2069 11.6142C7.26897 11.6142 6.44828 12.5798 6.44828 13.8212C6.44828 15.0627 7.26897 16.0282 8.2069 16.0282C9.14483 16.0282 9.96552 15.0627 9.96552 13.8212C9.96552 12.5798 9.14483 11.6142 8.2069 11.6142ZM1.17241 1.81503V10.5107H3.51724L3.50552 9.981L3.48793 9.45683C3.32379 5.08142 2.48552 2.57645 1.30138 1.88124L1.23103 1.84814L1.17241 1.81503ZM12.3103 3.23856V3.50892C12.3397 5.8925 12.9141 8.54644 13.4828 9.7934V1.77641C13.1561 1.88444 12.8706 2.08082 12.6621 2.34092C12.4535 2.60102 12.3312 2.91328 12.3103 3.23856ZM14.6552 1.77641V9.7934C15.2355 8.51885 15.8276 5.76559 15.8276 3.33787C15.8278 2.99543 15.7151 2.66135 15.5051 2.38169C15.2952 2.10204 14.9982 1.89056 14.6552 1.77641Z" fill="#222222"/>
</svg>
