<svg width="13" height="14" viewBox="0 0 13 14" fill="none" xmlns="http://www.w3.org/2000/svg">
<g clip-path="url(#clip0_17817_2927)">
<path d="M12.4232 12.5068H0.0385742" stroke="#222222" stroke-miterlimit="10"/>
<path d="M11.9062 6.46994L6.23083 1.24512L0.55542 6.46994" stroke="#222222" stroke-miterlimit="10"/>
<path d="M3.00727 8.07599L2.29212 8.32479C2.19572 8.02951 1.99152 7.88183 1.67952 7.88183C1.34649 7.88183 1.17997 7.99395 1.17997 8.21817C1.17997 8.30749 1.21064 8.38315 1.27199 8.44514C1.33509 8.50713 1.47619 8.56089 1.69529 8.60647C2.06163 8.68303 2.32981 8.76047 2.49983 8.83887C2.66985 8.91727 2.81271 9.04395 2.92839 9.21895C3.04583 9.39215 3.10455 9.58625 3.10455 9.8014C3.10455 10.1386 2.97922 10.4303 2.72857 10.6764C2.47967 10.9225 2.10983 11.0455 1.61905 11.0455C1.25096 11.0455 0.937208 10.9589 0.677793 10.7858C0.420128 10.6108 0.250107 10.3519 0.167725 10.0092L0.945969 9.82599C1.03361 10.1741 1.27725 10.3482 1.67689 10.3482C1.8697 10.3482 2.01343 10.31 2.10808 10.2334C2.20273 10.155 2.25006 10.062 2.25006 9.95451C2.25006 9.84514 2.20712 9.76035 2.12123 9.70021C2.03534 9.64007 1.8697 9.58356 1.62431 9.5307C1.16682 9.43225 0.840802 9.29824 0.646239 9.12873C0.451679 8.95737 0.354398 8.70761 0.354398 8.37951C0.354398 8.04771 0.470084 7.76793 0.701453 7.54007C0.934575 7.3122 1.25008 7.19824 1.64797 7.19824C2.3526 7.19824 2.8057 7.49084 3.00727 8.07599ZM5.37355 7.2557L6.49621 10.9881H5.59176L5.37355 10.2197H4.21145L3.98533 10.9881H3.24916L4.39812 7.2557H5.37355ZM4.41389 9.5307H5.17636L4.79513 8.22091L4.41389 9.5307ZM7.73721 10.2498H9.16488V10.9881H6.88536V7.2557H7.73721V10.2498ZM12.1622 7.96662H10.4506V8.73225H11.7967V9.43499H10.4506V10.2498H12.1622V10.9881H9.59608V7.2557H12.1622V7.96662Z" fill="#222222"/>
</g>
<defs>
<clipPath id="clip0_17817_2927">
<rect width="12.9231" height="14" fill="white" transform="translate(0.0385742)"/>
</clipPath>
</defs>
</svg>
