<svg width="14" height="14" viewBox="0 0 14 14" fill="none" xmlns="http://www.w3.org/2000/svg">
<path d="M5.10572 0V0.730625H8.89447V0H9.76947V0.730625H12.3945C12.6156 0.730002 12.8288 0.813128 12.9911 0.963284C13.1534 1.11344 13.2529 1.31949 13.2695 1.54V8.57063C13.2699 8.77507 13.1987 8.9732 13.0682 9.13063L13.0157 9.1875L9.18759 13.0156C9.04224 13.1614 8.85014 13.2512 8.64509 13.2694H2.91822C2.35435 13.2699 1.81206 13.0527 1.40448 12.6631C0.996901 12.2734 0.755526 11.7414 0.730716 11.1781V1.60563C0.730094 1.3845 0.813219 1.17133 0.963376 1.009C1.11353 0.846667 1.31958 0.747209 1.54009 0.730625H4.23072V0H5.10572ZM12.3945 5.10563H1.60572V11.0819C1.60511 11.4167 1.73253 11.7392 1.96189 11.9832C2.19125 12.2272 2.5052 12.3743 2.83947 12.3944H7.73072V9.91813C7.73017 9.35426 7.94738 8.81197 8.33702 8.40439C8.72667 7.99681 9.25865 7.75543 9.82197 7.73063H12.3945V5.10563ZM12.3595 8.60563H9.91822C9.58334 8.60502 9.26091 8.73244 9.01691 8.9618C8.77291 9.19116 8.62581 9.50511 8.60572 9.83937V12.3594L12.3595 8.60563ZM4.23072 1.60563H1.60572V4.23063H12.3945V1.60563H9.76947V2.33187H8.89447V1.60563H5.10572V2.33187H4.23072V1.60563Z" fill="#222222"/>
</svg>
