<svg width="16" height="16" viewBox="0 0 16 16" fill="none" xmlns="http://www.w3.org/2000/svg">
<path d="M10.5471 9.41248L9.72339 8.48368C9.55932 8.29941 9.28765 8.30501 9.11785 8.49648L8.70292 8.96428C8.67672 8.94801 8.64959 8.93095 8.62105 8.91295C8.35899 8.74921 8.00032 8.52481 7.62292 8.09895C7.24512 7.67301 7.04599 7.26875 6.90039 6.97321L6.89959 6.97155L6.89305 6.95828C6.88005 6.93175 6.86739 6.90595 6.85492 6.88135L7.13345 6.56779L7.27039 6.41321C7.44039 6.22145 7.44505 5.9152 7.28139 5.73043L6.45776 4.80151C6.29409 4.617 6.02229 4.62259 5.85225 4.81437L5.62012 5.07761L5.62647 5.08471C5.54863 5.1967 5.48359 5.32586 5.43518 5.46514C5.39057 5.59772 5.36279 5.72424 5.35008 5.85101C5.24133 6.86761 5.65334 7.79675 6.77152 9.05755C8.31712 10.8002 9.56272 10.6685 9.61645 10.6621C9.73345 10.6463 9.84565 10.6148 9.95965 10.5649C10.0821 10.511 10.1966 10.4377 10.2958 10.3502L10.3009 10.3553L10.5361 10.0956C10.7057 9.90388 10.7106 9.59755 10.5471 9.41248Z" fill="#555555"/>
<path fill-rule="evenodd" clip-rule="evenodd" d="M14.6666 7.99992C14.6666 11.6818 11.6818 14.6666 7.99992 14.6666C4.31802 14.6666 1.33325 11.6818 1.33325 7.99992C1.33325 4.31802 4.31802 1.33325 7.99992 1.33325C11.6818 1.33325 14.6666 4.31802 14.6666 7.99992ZM13.3333 7.99992C13.3333 10.9455 10.9455 13.3333 7.99992 13.3333C5.0544 13.3333 2.66659 10.9455 2.66659 7.99992C2.66659 5.0544 5.0544 2.66659 7.99992 2.66659C10.9455 2.66659 13.3333 5.0544 13.3333 7.99992Z" fill="#555555"/>
</svg>
