<svg width="15" height="16" viewBox="0 0 15 16" fill="none" xmlns="http://www.w3.org/2000/svg">
<path d="M8.03457 0V2.12694L10.1889 0.9025L10.7234 1.81556L8.03457 3.34611V7.00361L11.242 5.17222V2.11111H12.3111V4.56528L14.1768 3.49917L14.7113 4.4175L12.8457 5.47833L15 6.70806L14.4654 7.62111L11.7766 6.09056L8.56914 7.91667L11.7766 9.74278L14.4654 8.21222L15 9.12528L12.8457 10.355L14.7113 11.4158L14.1768 12.3342L12.3111 11.2681V13.7222H11.242V10.6611L8.03457 8.82972V12.4872L10.7234 14.0178L10.1889 14.9308L8.03457 13.7064V15.8333H6.96543V13.7064L4.81112 14.9308L4.27655 14.0178L6.96543 12.4872V8.82972L3.75802 10.6611V13.7222H2.68888V11.2681L0.823236 12.3342L0.288667 11.4158L2.15431 10.355L0 9.12528L0.534569 8.21222L3.22345 9.74278L6.43086 7.91667L3.22345 6.09056L0.534569 7.62111L0 6.70806L2.15431 5.47833L0.288667 4.4175L0.823236 3.49917L2.68888 4.56528V2.11111H3.75802V5.17222L6.96543 7.00361V3.34611L4.27655 1.81556L4.81112 0.9025L6.96543 2.12694V0H8.03457Z" fill="#222222"/>
</svg>
