<svg width="16" height="16" viewBox="0 0 16 16" fill="none" xmlns="http://www.w3.org/2000/svg">
<g clip-path="url(#clip0_25047_2931)">
<path fill-rule="evenodd" clip-rule="evenodd" d="M14.1184 8.98258C14.1184 11.6762 10.2002 13.8165 8.52778 14.7304C8.31224 14.848 8.13249 14.9459 8.00072 15.024C7.86895 14.9459 7.68919 14.848 7.47366 14.7304C5.80119 13.8165 1.88308 11.6762 1.88308 8.98259V3.64612L8.00071 1.024L14.1184 3.64612V8.98259L14.1184 8.98258ZM8.00073 0L0.941895 3.02494V8.98259C0.941895 12.2344 5.20354 14.5628 7.02284 15.5567C7.25154 15.6819 7.43695 15.7826 7.56401 15.8588V15.8598C7.69859 15.9407 7.84919 15.9812 8.00072 15.9812C8.15475 15.9812 8.30583 15.9389 8.43743 15.8588C8.56449 15.7826 8.74989 15.6819 8.97859 15.5567C10.7979 14.5628 15.0595 12.2344 15.0595 8.98259V3.02494L8.00071 0H8.00073ZM5.03931 7.23803L4.3739 7.90344L7.05908 10.5896L12.0981 5.55049L11.4327 4.88508L7.05908 9.25779L5.03931 7.23803Z" fill="#222222"/>
</g>
<defs>
<clipPath id="clip0_25047_2931">
<rect width="16" height="16" fill="white"/>
</clipPath>
</defs>
</svg>
