<svg width="32" height="32" viewBox="0 0 32 32" fill="none" xmlns="http://www.w3.org/2000/svg">
<circle cx="16" cy="16" r="16" fill="white"/>
<path d="M16.0576 10.9229H11.5854C11.2465 10.9229 10.9215 11.0516 10.6819 11.2808C10.4422 11.51 10.3076 11.8209 10.3076 12.1451V20.7006C10.3076 21.0248 10.4422 21.3357 10.6819 21.5649C10.9215 21.7941 11.2465 21.9229 11.5854 21.9229H20.5298C20.8687 21.9229 21.1937 21.7941 21.4334 21.5649C21.673 21.3357 21.8076 21.0248 21.8076 20.7006V16.4229" stroke="#222222" stroke-linecap="round" stroke-linejoin="round"/>
<path d="M20.4238 10.4494C20.673 10.2111 21.011 10.0771 21.3635 10.0771C21.7159 10.0771 22.0539 10.2111 22.3031 10.4494C22.5523 10.6878 22.6923 11.0111 22.6923 11.3483C22.6923 11.6854 22.5523 12.0087 22.3031 12.2471L16.3519 17.9395L13.8462 18.5387L14.4726 16.1419L20.4238 10.4494Z" stroke="#222222" stroke-linecap="round" stroke-linejoin="round"/>
</svg>
