<svg width="20" height="18" viewBox="0 0 20 18" fill="none" xmlns="http://www.w3.org/2000/svg">
<path d="M5.49121 0.500977H5.50293C7.07679 0.492697 8.5785 1.16018 9.62695 2.33398L10 2.75195L10.373 2.33398C11.356 1.23348 12.7374 0.577586 14.2031 0.506836L14.4971 0.500977H14.5088C15.824 0.476622 17.0946 0.981749 18.0332 1.90332C18.9717 2.82478 19.5001 4.08513 19.5 5.40039V5.40137C19.4998 7.87592 18.0246 10.1038 16.002 12.1592C14.9971 13.1803 13.8764 14.1397 12.7725 15.0498C11.806 15.8466 10.8422 16.6157 10.001 17.3398C9.1605 16.6097 8.19838 15.8373 7.23145 15.0391C6.12742 14.1276 5.00652 13.1688 4.00098 12.1494C1.9773 10.0978 0.500175 7.87734 0.5 5.40137V5.40039C0.499894 4.08515 1.02829 2.82479 1.9668 1.90332C2.84687 1.03925 4.01834 0.541684 5.24512 0.50293L5.49121 0.500977Z" stroke="#F3F8FF"/>
</svg>
