<svg width="19" height="17" viewBox="0 0 19 17" fill="none" xmlns="http://www.w3.org/2000/svg">
<path d="M5.54883 1.375H5.56641C6.85392 1.36816 8.08266 1.91386 8.94043 2.87402L9.5 3.50098L10.0596 2.87402C10.9173 1.91386 12.1461 1.36816 13.4336 1.375H13.4512C14.5181 1.35524 15.5482 1.76516 16.3096 2.5127C17.071 3.26027 17.5001 4.28251 17.5 5.34961C17.5 7.38795 16.2828 9.26106 14.5283 11.0439C13.6609 11.9254 12.6904 12.7562 11.7266 13.5508C10.9643 14.1792 10.1927 14.7968 9.50195 15.3828C8.81115 14.7919 8.03978 14.1722 7.27637 13.542C6.31217 12.746 5.34178 11.9153 4.47363 11.0352C2.71807 9.25536 1.5 7.38891 1.5 5.34961C1.49984 4.28254 1.929 3.26028 2.69043 2.5127C3.45187 1.76515 4.48194 1.35524 5.54883 1.375Z" fill="black" fill-opacity="0.5" stroke="white" stroke-width="1.5"/>
</svg>
