<svg width="22" height="23" viewBox="0 0 22 23" fill="none" xmlns="http://www.w3.org/2000/svg">
<path d="M19.2502 3.6875H11.0002C10.4939 3.6875 10.0835 4.09791 10.0835 4.60417V6.4375H19.2502V3.6875Z" fill="#374151"/>
<path d="M8.11505 14.3155C8.54217 14.1208 9.58611 14.3155 9.58611 14.3155L12.6231 14.9969C12.6231 14.9969 13.3824 15.2403 14.0942 15.2403C14.806 15.2403 14.3805 16.2144 13.9044 16.5545C13.4283 16.8946 13.0819 16.8762 13.0819 16.8762L10.6301 16.8465C10.6301 16.8465 12.7655 17.2359 13.5722 17.2846C13.9809 17.3093 14.6818 17.0217 15.4652 16.7002C16.2283 16.3871 17.0697 16.0418 17.7956 15.9218C19.2666 15.6784 19.5039 16.9926 19.0293 17.4793C18.5548 17.966 14.7585 19.8156 14.0942 20.059C13.5739 20.2496 12.9446 20.1863 12.2345 20.1149C12.0379 20.0952 11.835 20.0748 11.6266 20.059C10.7974 19.9961 10.1637 19.7947 9.53634 19.5952C8.86392 19.3815 8.19892 19.1701 7.30833 19.1342C7.00959 19.1221 6.31022 19.1591 5.9585 19.1797V15.1186C6.5662 14.9024 7.79701 14.4605 8.11505 14.3155Z" fill="#374151"/>
<path d="M3.20833 14.2295C2.9552 14.2295 2.75 14.4347 2.75 14.6878V19.7274C2.75 19.9805 2.9552 20.1857 3.20833 20.1857H4.58333C4.83647 20.1857 5.04167 19.9805 5.04167 19.7274V14.6878C5.04167 14.4347 4.83647 14.2295 4.58333 14.2295H3.20833Z" fill="#374151"/>
<path d="M10.5418 7.354C10.2887 7.354 10.0835 7.5592 10.0835 7.81234C10.0835 8.06547 10.2887 8.27067 10.5418 8.27067H13.2918C13.545 8.27067 13.7502 8.06547 13.7502 7.81234C13.7502 7.5592 13.545 7.354 13.2918 7.354H10.5418Z" fill="#374151"/>
<path d="M11.9168 9.26611C12.17 9.26611 12.3752 9.47131 12.3752 9.72445V10.6411C12.3752 10.8943 12.17 11.0994 11.9168 11.0994C11.6637 11.0994 11.4585 10.8943 11.4585 10.6411V9.72445C11.4585 9.47131 11.6637 9.26611 11.9168 9.26611Z" fill="#374151"/>
<path d="M13.8054 9.32173C13.6264 9.14276 13.3362 9.14276 13.1572 9.32173C12.9782 9.50071 12.9782 9.79093 13.1572 9.96991L13.8054 10.6181C13.9843 10.7971 14.2746 10.7971 14.4535 10.6181C14.6325 10.4391 14.6325 10.1489 14.4535 9.96991L13.8054 9.32173Z" fill="#374151"/>
<path d="M9.30074 10.6967C9.12176 10.5177 9.12176 10.2275 9.30074 10.0485L9.94891 9.40035C10.1279 9.22137 10.4181 9.22137 10.5971 9.40035C10.7761 9.57933 10.7761 9.86954 10.5971 10.0485L9.94891 10.6967C9.76993 10.8757 9.47972 10.8757 9.30074 10.6967Z" fill="#374151"/>
<path d="M12.3752 12.0164C12.3752 11.7633 12.17 11.5581 11.9168 11.5581C11.6637 11.5581 11.4585 11.7633 11.4585 12.0164V12.9331C11.4585 13.1862 11.6637 13.3914 11.9168 13.3914C12.17 13.3914 12.3752 13.1862 12.3752 12.9331V12.0164Z" fill="#374151"/>
<path d="M14.7617 10.9257C14.9407 10.7468 15.2309 10.7468 15.4099 10.9257L16.058 11.5739C16.237 11.7529 16.237 12.0431 16.058 12.2221C15.879 12.4011 15.5888 12.4011 15.4099 12.2221L14.7617 11.5739C14.5827 11.3949 14.5827 11.1047 14.7617 10.9257Z" fill="#374151"/>
<path d="M7.69673 11.5383C7.51776 11.7172 7.51776 12.0075 7.69673 12.1864C7.87571 12.3654 8.16593 12.3654 8.34491 12.1864L8.99308 11.5383C9.17211 11.3593 9.17211 11.0691 8.99308 10.8901C8.81411 10.7111 8.52393 10.7111 8.34491 10.8901L7.69673 11.5383Z" fill="#374151"/>
</svg>
