<svg width="51" height="52" viewBox="0 0 51 52" fill="none" xmlns="http://www.w3.org/2000/svg">
<path d="M7.37061 43.885C7.37061 44.1303 7.54782 44.3294 7.76644 44.3294H30.0382C30.8104 45.4108 31.766 46.3192 32.8524 46.9961H7.76644C6.23615 46.9961 4.99561 45.6032 4.99561 43.885V18.9961H7.37061V43.885ZM42.9956 28.9983C42.2732 28.4148 41.4748 27.9428 40.6206 27.6037V18.9961H42.9956V28.9983Z" fill="#6A6A6A"/>
<path d="M42.9675 44.2561L49.9976 50.9961M35.8223 46.9816C37.1125 46.9816 38.3901 46.7231 39.582 46.2206C40.7742 45.7186 41.8571 44.9826 42.7696 44.0546C43.6816 43.1266 44.4056 42.0251 44.8993 40.8128C45.393 39.6004 45.6472 38.301 45.6472 36.9888C45.6472 35.6765 45.393 34.3771 44.8993 33.1647C44.4056 31.9524 43.6816 30.8508 42.7696 29.9229C41.8571 28.995 40.7742 28.2589 39.582 27.7567C38.3901 27.2545 37.1125 26.9961 35.8223 26.9961C33.2166 26.9961 30.7177 28.0489 28.8752 29.9229C27.0326 31.7969 25.9976 34.3385 25.9976 36.9888C25.9976 39.639 27.0326 42.1806 28.8752 44.0546C30.7177 45.9286 33.2166 46.9816 35.8223 46.9816Z" stroke="#6A6A6A" stroke-width="2.5"/>
<mask id="path-3-inside-1_25604_3270" fill="white">
<path d="M47.9937 23.998L23.9967 47.995L-0.000178412 23.998L21.1683 2.82956C22.7304 1.26746 25.2631 1.26746 26.8252 2.82956L47.9937 23.998Z"/>
</mask>
<path d="M47.9937 23.998L23.9967 47.995L47.9937 23.998ZM-1.62652 22.3717L19.542 1.20321C22.0023 -1.25709 25.9912 -1.25709 28.4515 1.20321L25.1988 4.4559C24.5349 3.79201 23.4585 3.79201 22.7947 4.4559L1.62617 25.6244L-1.62652 22.3717ZM19.542 1.20321C22.0023 -1.25709 25.9912 -1.25709 28.4515 1.20321L49.62 22.3717L46.3673 25.6244L25.1988 4.4559C24.5349 3.79201 23.4585 3.79201 22.7947 4.4559L19.542 1.20321ZM23.9967 47.995L-0.000178412 23.998L23.9967 47.995Z" fill="#6A6A6A" mask="url(#path-3-inside-1_25604_3270)"/>
</svg>
