<svg width="50" height="50" viewBox="0 0 50 50" fill="none" xmlns="http://www.w3.org/2000/svg">
<path d="M25 3.125C12.9199 3.125 3.125 12.9199 3.125 25C3.125 37.0801 12.9199 46.875 25 46.875C37.0801 46.875 46.875 37.0801 46.875 25C46.875 12.9199 37.0801 3.125 25 3.125ZM34.375 26.1719C34.375 26.3867 34.1992 26.5625 33.9844 26.5625H26.5625V33.9844C26.5625 34.1992 26.3867 34.375 26.1719 34.375H23.8281C23.6133 34.375 23.4375 34.1992 23.4375 33.9844V26.5625H16.0156C15.8008 26.5625 15.625 26.3867 15.625 26.1719V23.8281C15.625 23.6133 15.8008 23.4375 16.0156 23.4375H23.4375V16.0156C23.4375 15.8008 23.6133 15.625 23.8281 15.625H26.1719C26.3867 15.625 26.5625 15.8008 26.5625 16.0156V23.4375H33.9844C34.1992 23.4375 34.375 23.6133 34.375 23.8281V26.1719Z" fill="#0A7CCA"/>
</svg>
