<svg width="21" height="21" viewBox="0 0 21 21" fill="none" xmlns="http://www.w3.org/2000/svg">
<path fill-rule="evenodd" clip-rule="evenodd" d="M7.84402 3.14772C7.63715 2.95076 7.31214 2.95076 7.10525 3.14772L3.16633 6.89772C3.06012 6.99883 3 7.13907 3 7.28571V17.4643C3 17.7601 3.23985 18 3.53571 18H6.40321V15.8571C6.40321 15.2654 6.88291 14.7857 7.47464 14.7857C8.06638 14.7857 8.54607 15.2654 8.54607 15.8571V18H11.4136C11.7094 18 11.9493 17.7601 11.9493 17.4643V7.28571C11.9493 7.13907 11.8892 6.99883 11.783 6.89772L7.84402 3.14772ZM13.4664 9.96429C13.4664 9.66842 13.7062 9.42857 14.0021 9.42857H17.4643C17.7601 9.42857 18 9.66842 18 9.96429V17.4643C18 17.7601 17.7601 18 17.4643 18H14.0021C13.7062 18 13.4664 17.7601 13.4664 17.4643V9.96429ZM5.32789 11.3175C5.32789 10.9476 5.6277 10.6478 5.99754 10.6478H8.95173C9.32157 10.6478 9.62138 10.9476 9.62138 11.3175C9.62138 11.6873 9.32157 11.9871 8.95173 11.9871H5.99754C5.6277 11.9871 5.32789 11.6873 5.32789 11.3175ZM5.99754 7.85425C5.6277 7.85425 5.32789 8.15405 5.32789 8.52389C5.32789 8.89372 5.6277 9.19353 5.99754 9.19353H8.95173C9.32157 9.19353 9.62138 8.89372 9.62138 8.52389C9.62138 8.15405 9.32157 7.85425 8.95173 7.85425H5.99754Z" fill="#26455F"/>
</svg>
