<svg width="19" height="19" viewBox="0 0 19 19" fill="none" xmlns="http://www.w3.org/2000/svg">
<g clip-path="url(#clip0_25224_2297)">
<mask id="mask0_25224_2297" style="mask-type:luminance" maskUnits="userSpaceOnUse" x="1" y="8" width="17" height="11">
<path d="M1.6377 8.18945H17.3618V17.3619C17.3618 17.9951 16.8485 18.5084 16.2153 18.5084H2.78425C2.15102 18.5084 1.6377 17.9951 1.6377 17.3619V8.18945Z" fill="white"/>
</mask>
<g mask="url(#mask0_25224_2297)">
<path d="M18.3444 17.3619C18.3444 18.5379 17.3912 19.4912 16.2151 19.4912H2.7841C1.60811 19.4912 0.654785 18.5379 0.654785 17.3619H2.6203C2.6203 17.4523 2.69363 17.5257 2.7841 17.5257H16.2151C16.3056 17.5257 16.3789 17.4523 16.3789 17.3619H18.3444ZM2.7841 19.4912C1.60811 19.4912 0.654785 18.5379 0.654785 17.3619V8.18945H2.6203V17.3619C2.6203 17.4523 2.69363 17.5257 2.7841 17.5257V19.4912ZM18.3444 8.18945V17.3619C18.3444 18.5379 17.3912 19.4912 16.2151 19.4912V17.5257C16.3056 17.5257 16.3789 17.4523 16.3789 17.3619V8.18945H18.3444Z" fill="#222222"/>
</g>
<mask id="mask1_25224_2297" style="mask-type:luminance" maskUnits="userSpaceOnUse" x="0" y="0" width="19" height="19">
<path d="M18.9944 9.49841L9.49718 18.9956L0 9.49841L8.33898 1.15943C8.97863 0.519775 10.0157 0.519775 10.6554 1.15943L18.9944 9.49841Z" fill="white"/>
</mask>
<g mask="url(#mask1_25224_2297)">
<path d="M-0.694824 8.80383L7.64417 0.464848C8.66759 -0.558595 10.3269 -0.558595 11.3504 0.464848L9.96054 1.85467C9.70468 1.59882 9.28984 1.59882 9.03398 1.85467L0.695006 10.1937L-0.694824 8.80383ZM7.64417 0.464848C8.66759 -0.558595 10.3269 -0.558595 11.3504 0.464848L19.6893 8.80383L18.2995 10.1937L9.96054 1.85467C9.70468 1.59882 9.28984 1.59882 9.03398 1.85467L7.64417 0.464848Z" fill="#222222"/>
</g>
<path d="M9.99155 7.69922H9.00879V14.9061H9.99155V7.69922Z" fill="#222222"/>
<path d="M5.89648 10.8102V11.793H13.1034V10.8102H5.89648Z" fill="#222222"/>
</g>
<defs>
<clipPath id="clip0_25224_2297">
<rect width="19" height="19" fill="white"/>
</clipPath>
</defs>
</svg>
