<svg width="12" height="1" viewBox="0 0 18 17" fill="none" xmlns="http://www.w3.org/2000/svg">
<path d="M6.52344 7.25391L6.53027 7.29102V7.29297C6.53042 7.29372 6.53101 7.29471 6.53125 7.2959C6.53179 7.29861 6.53223 7.30285 6.5332 7.30762C6.53514 7.31714 6.53834 7.33059 6.54199 7.34766C6.54929 7.38178 6.56017 7.4302 6.57422 7.48926C6.6023 7.60727 6.64411 7.77037 6.69922 7.94727C6.75399 8.12304 6.82409 8.31922 6.90918 8.50293C6.97133 8.6371 7.04804 8.77926 7.14258 8.9043L7.24316 9.02246C7.70626 9.50496 8.33773 9.7793 9 9.7793C9.57967 9.7793 10.1359 9.56932 10.5762 9.19336L10.7568 9.02246C11.2194 8.54038 11.4766 7.88978 11.4766 7.21484V6.09375H6.52344V7.25391ZM0.984375 7.21484L0.989258 7.375C1.00863 7.69354 1.08549 8.00593 1.21582 8.2959L1.28613 8.43945C1.48382 8.81561 1.77016 9.13566 2.12012 9.36914L2.14941 9.38965L2.18262 9.4043C2.20515 9.41404 2.22698 9.42706 2.24707 9.44336L2.27539 9.46582L2.30762 9.4834C2.63877 9.66384 3.00522 9.76444 3.37891 9.77734H3.54004C3.91522 9.76503 4.28124 9.66446 4.61133 9.48535L4.75098 9.4043C5.07003 9.20296 5.3388 8.93001 5.54004 8.6084L5.62207 8.46777C5.8294 8.08455 5.93833 7.65279 5.93848 7.21484V6.09375H0.984375V7.21484ZM12.0615 7.21484L12.0664 7.37891C12.0902 7.76018 12.1964 8.13242 12.3779 8.46777C12.5854 8.85102 12.8851 9.17426 13.25 9.4043C13.6149 9.63435 14.0321 9.76345 14.4609 9.77734C14.8899 9.79116 15.3149 9.68887 15.6934 9.48242L15.7246 9.46582L15.752 9.44336C15.7726 9.42678 15.7953 9.41345 15.8184 9.40332L15.8506 9.38867L15.8789 9.36914C16.1854 9.1649 16.4436 8.89471 16.6357 8.57812L16.7139 8.43945C16.9117 8.06326 17.0153 7.64196 17.0156 7.21484V6.09375H12.0615V7.21484ZM1.78418 9.90625L1.63086 9.78613C1.29782 9.52582 1.01864 9.19668 0.810547 8.81934L0.726562 8.65527C0.512359 8.20881 0.400391 7.71549 0.400391 7.21484V5.77148L0.412109 5.68066L0.413086 5.67969L1.65332 1.15332C1.69921 0.988152 1.78199 0.8395 1.89258 0.71875L2.0127 0.607422C2.14067 0.506635 2.28819 0.441026 2.44238 0.414062L2.59863 0.400391H15.4014L15.5576 0.414062C15.6605 0.432053 15.7604 0.467215 15.8535 0.518555L15.9873 0.607422C16.1156 0.708461 16.2194 0.841014 16.2891 0.994141L16.3467 1.15332L17.5879 5.67969L17.5996 5.76953V7.21484C17.5996 7.71549 17.4876 8.2088 17.2734 8.65527C17.0593 9.10159 16.7495 9.48881 16.3691 9.78613L16.2158 9.90625V15.873C16.2158 16.1275 16.1261 16.3688 15.9717 16.5566C15.9516 16.5603 15.9259 16.5673 15.8926 16.5713C15.7703 16.5858 15.5965 16.5951 15.3799 16.5986C14.949 16.6056 14.388 16.5895 13.8164 16.5654C13.2462 16.5414 12.6711 16.509 12.2148 16.4824C12.0259 16.4714 11.8527 16.4633 11.708 16.4551V13.0684H6.75391V16.4541C6.59264 16.4625 6.3944 16.4708 6.17578 16.4824C5.67642 16.509 5.04405 16.5413 4.41602 16.5654C3.78668 16.5896 3.16763 16.6057 2.69238 16.5986C2.45343 16.5951 2.25956 16.5852 2.12305 16.5703C2.08153 16.5658 2.04952 16.5599 2.02539 16.5557C1.87197 16.3681 1.78423 16.1266 1.78418 15.873V9.90625Z" fill="white" stroke="white" stroke-width="0.8"/>
</svg>
