<svg width="21" height="22" viewBox="0 0 21 22" fill="none" xmlns="http://www.w3.org/2000/svg">
<g clip-path="url(#clip0_141_20379)">
<path d="M7.4375 13.4375L4.375 20" stroke="#222222" stroke-width="1.5" stroke-linecap="round" stroke-linejoin="round"/>
<path d="M7 6C7 6 7.875 5.07136 7.875 4.25C7.875 3.08334 7 2.5 7 2.5" stroke="#222222" stroke-width="1.5" stroke-linecap="round" stroke-linejoin="round"/>
<path d="M10.5 6C10.5 6 11.375 5.07136 11.375 4.25C11.375 3.08334 10.5 2.5 10.5 2.5" stroke="#222222" stroke-width="1.5" stroke-linecap="round" stroke-linejoin="round"/>
<path d="M14 6C14 6 14.875 5.07136 14.875 4.25C14.875 3.08334 14 2.5 14 2.5" stroke="#222222" stroke-width="1.5" stroke-linecap="round" stroke-linejoin="round"/>
<path d="M14.4375 16.0625H6.5625" stroke="#222222" stroke-width="1.5" stroke-linejoin="round"/>
<path d="M13.5625 13.4375L15.4 17.375" stroke="#222222" stroke-width="1.5" stroke-linecap="round" stroke-linejoin="round"/>
<path d="M16.1875 20C16.9124 20 17.5 19.4124 17.5 18.6875C17.5 17.9626 16.9124 17.375 16.1875 17.375C15.4626 17.375 14.875 17.9626 14.875 18.6875C14.875 19.4124 15.4626 20 16.1875 20Z" stroke="#222222" stroke-width="1.5" stroke-linecap="round" stroke-linejoin="round"/>
<path d="M10.5001 13.875C13.7061 13.875 16.3368 11.4119 16.6029 8.27477C16.6274 7.98587 16.3901 7.75 16.1001 7.75H4.90009C4.61014 7.75 4.37274 7.98587 4.39725 8.27477C4.66344 11.4119 7.29411 13.875 10.5001 13.875Z" stroke="#222222" stroke-width="1.5"/>
</g>
<defs>
<clipPath id="clip0_141_20379">
<rect width="21" height="21" fill="white" transform="translate(0 0.75)"/>
</clipPath>
</defs>
</svg>
