<svg width="21" height="22" viewBox="0 0 21 22" fill="none" xmlns="http://www.w3.org/2000/svg">
<path d="M15.0938 1.40626C15.4254 1.40532 15.7452 1.53001 15.9887 1.75524C16.2322 1.98048 16.3814 2.28956 16.4062 2.62032V13.2188H19.0312V14.5313H17.7188V19.7813H19.0312V21.0938H1.96875V19.7813H3.28125V14.5313H1.96875V13.2188H4.59375V2.71876C4.59282 2.38706 4.7175 2.06731 4.94274 1.82382C5.16797 1.58032 5.47705 1.43113 5.80781 1.40626H5.90625H15.0938ZM5.90625 14.5313H4.59375V19.7813H5.90625V14.5313ZM8.53125 14.5313H7.21875V19.7813H8.53125V14.5313ZM11.1562 14.5313H9.84375V19.7813H11.1562V14.5313ZM13.7812 14.5313H12.4688V19.7813H13.7812V14.5313ZM16.4062 14.5313H15.0938V19.7813H16.4062V14.5313ZM9.84375 9.28125H5.90625V13.2188H9.84375V9.28125ZM15.0938 9.28125H11.1562V13.2188H15.0938V9.28125ZM9.84375 2.71876H5.90625V7.96875H9.84375V2.71876ZM15.0938 2.71876H11.1562V7.96875H15.0938V2.71876Z" fill="#222222"/>
</svg>
