<svg width="21" height="21" viewBox="0 0 21 21" fill="none" xmlns="http://www.w3.org/2000/svg">
<path d="M18.969 8.24644C18.9506 8.2098 18.9286 8.17507 18.9034 8.14275C18.8843 8.04811 18.8586 7.95491 18.8266 7.86384L18.8128 7.83169L17.0081 3.675C16.957 3.55792 16.8729 3.4583 16.766 3.38835C16.6591 3.31841 16.5341 3.28119 16.4063 3.28125H4.59383C4.46608 3.28119 4.3411 3.31841 4.2342 3.38835C4.1273 3.4583 4.04314 3.55792 3.99205 3.675L2.17423 7.86253C2.00117 8.30175 2.00117 8.79028 2.17423 9.2295C2.34143 9.61172 2.58366 9.95649 2.88655 10.2434C3.18945 10.5303 3.54685 10.7534 3.93758 10.8997V17.7188C3.93758 17.8928 4.00672 18.0597 4.12979 18.1828C4.25286 18.3059 4.41978 18.375 4.59383 18.375H16.4063C16.5804 18.375 16.7473 18.3059 16.8704 18.1828C16.9934 18.0597 17.0626 17.8928 17.0626 17.7188V10.8997C17.4534 10.7536 17.8109 10.5306 18.1139 10.2438C18.4169 9.95704 18.6593 9.61234 18.8266 9.23016C18.8807 9.09211 18.9166 8.94762 18.9335 8.80031C18.9773 8.7154 19.003 8.62238 19.0091 8.52707C19.0152 8.43177 19.0015 8.33623 18.969 8.24644ZM15.7501 17.0625H10.5001H5.25008V11.1562C5.74726 11.1625 6.2398 11.06 6.69322 10.8559C7.14665 10.6519 7.55001 10.3512 7.87508 9.975C8.20385 10.3469 8.60789 10.6447 9.06044 10.8486C9.51298 11.0526 10.0037 11.1581 10.5001 11.1581C10.9965 11.1581 11.4872 11.0526 11.9397 10.8486C12.3923 10.6447 12.7963 10.3469 13.1251 9.975C13.4501 10.3512 13.8535 10.6519 14.3069 10.8559C14.7604 11.06 15.2529 11.1625 15.7501 11.1562V17.0625ZM17.6125 8.72813C17.4445 9.07532 17.1788 9.36588 16.8479 9.56408C16.517 9.76228 16.1355 9.85948 15.7501 9.84375C15.2724 9.88259 14.7986 9.73249 14.4305 9.4257C14.0623 9.11892 13.8293 8.67994 13.7813 8.20312C13.7813 8.02908 13.7122 7.86216 13.5891 7.73909C13.466 7.61602 13.2991 7.54688 13.1251 7.54688C12.951 7.54688 12.7841 7.61602 12.661 7.73909C12.538 7.86216 12.4688 8.02908 12.4688 8.20312C12.4209 8.67994 12.1878 9.11892 11.8197 9.4257C11.4515 9.73249 10.9777 9.88259 10.5001 9.84375C10.0224 9.88259 9.54863 9.73249 9.18048 9.4257C8.81234 9.11892 8.57925 8.67994 8.53133 8.20312C8.53133 8.02908 8.46219 7.86216 8.33912 7.73909C8.21605 7.61602 8.04913 7.54688 7.87508 7.54688C7.70103 7.54688 7.53411 7.61602 7.41104 7.73909C7.28797 7.86216 7.21883 8.02908 7.21883 8.20312C7.1709 8.67994 6.93782 9.11892 6.56967 9.4257C6.20153 9.73249 5.72772 9.88259 5.25008 9.84375C4.8647 9.85948 4.48312 9.76228 4.15225 9.56408C3.82137 9.36588 3.55561 9.07532 3.38764 8.72813C3.34366 8.60709 3.34366 8.47444 3.38764 8.35341L5.02433 4.59375H15.9758L17.602 8.33437C17.6529 8.46006 17.6567 8.59991 17.6125 8.72813Z" fill="#222222"/>
</svg>
