<svg width="24" height="24" viewBox="0 0 24 24" fill="none" xmlns="http://www.w3.org/2000/svg">
<g clip-path="url(#clip0_0_17265)">
<g clip-path="url(#clip1_0_17265)">
<path d="M21.748 9.01758C21.7484 8.94785 21.739 8.87841 21.7199 8.81133L20.3746 4.10508C20.2842 3.79281 20.0952 3.51817 19.8358 3.32217C19.5765 3.12616 19.2606 3.01932 18.9355 3.01758H5.06055C4.73546 3.01932 4.41965 3.12616 4.16028 3.32217C3.90092 3.51817 3.71191 3.79281 3.62149 4.10508L2.27711 8.81133C2.25774 8.87836 2.24796 8.9478 2.24805 9.01758V10.5176C2.24805 11.0997 2.38359 11.6739 2.64395 12.1946C2.9043 12.7153 3.28231 13.1683 3.74805 13.5176V19.5176C3.74805 19.9154 3.90608 20.2969 4.18739 20.5782C4.46869 20.8595 9.60022 20.5176 9.99805 20.5176V17.0176H14.498V20.5176C14.8959 20.5176 19.5274 20.8595 19.8087 20.5782C20.09 20.2969 20.248 19.9154 20.248 19.5176V13.5176C20.7138 13.1683 21.0918 12.7153 21.3521 12.1946C21.6125 11.6739 21.748 11.0997 21.748 10.5176V9.01758ZM8.24805 10.5176C8.24791 10.9045 8.14801 11.2848 7.95798 11.6219C7.76795 11.9589 7.49422 12.2412 7.16323 12.4416C6.83224 12.642 6.45518 12.7536 6.06845 12.7657C5.68173 12.7778 5.29842 12.69 4.95555 12.5107C4.90338 12.4701 4.84599 12.4367 4.78492 12.4113C4.46718 12.2079 4.20569 11.9279 4.0245 11.5969C3.84331 11.266 3.74825 10.8949 3.74805 10.5176V9.76758H8.24805V10.5176ZM14.248 10.5176C14.248 11.1143 14.011 11.6866 13.589 12.1086C13.1671 12.5305 12.5948 12.7676 11.998 12.7676C11.4013 12.7676 10.829 12.5305 10.4071 12.1086C9.9851 11.6866 9.74805 11.1143 9.74805 10.5176V9.76758H14.248V10.5176ZM20.248 10.5176C20.2477 10.8949 20.1525 11.2662 19.9712 11.5971C19.7898 11.928 19.5282 12.208 19.2102 12.4113C19.15 12.4367 19.0933 12.4698 19.0415 12.5098C18.6987 12.6892 18.3153 12.7772 17.9285 12.7653C17.5418 12.7533 17.1646 12.6418 16.8335 12.4415C16.5024 12.2412 16.2286 11.959 16.0384 11.6219C15.8483 11.2849 15.7483 10.9045 15.748 10.5176V9.76758H20.248V10.5176Z" fill="white"/>
</g>
</g>
<defs>
<clipPath id="clip0_0_17265">
<rect width="24" height="24" fill="white"/>
</clipPath>
<clipPath id="clip1_0_17265">
<rect width="24" height="24" fill="white" transform="translate(-0.00195312 0.0175781)"/>
</clipPath>
</defs>
</svg>
