<svg width="19" height="18" viewBox="0 0 19 18" fill="none" xmlns="http://www.w3.org/2000/svg">
<path d="M4.0625 0C4.75408 0.000328273 5.4213 0.255454 5.93666 0.716631C6.45203 1.17781 6.77941 1.8127 6.85625 2.5H8.125V3.75H4.375V2.5H5.59375C5.52087 2.12608 5.3139 1.79167 5.01175 1.55965C4.7096 1.32763 4.3331 1.21398 3.95304 1.24009C3.57298 1.26619 3.21555 1.43025 2.94796 1.7014C2.68038 1.97256 2.52107 2.33213 2.5 2.7125V8.75H18.75V10H17.5V13.125C17.4997 13.7328 17.3221 14.3273 16.9891 14.8357C16.6561 15.3441 16.182 15.7444 15.625 15.9875V17.5H14.375V16.25H4.375V17.5H3.125V15.9875C2.59066 15.7551 2.13193 15.378 1.80061 14.8987C1.46929 14.4194 1.27857 13.857 1.25 13.275V10H0V8.75H1.25V2.8125C1.25 2.06658 1.54632 1.35121 2.07376 0.823762C2.60121 0.296316 3.31658 0 4.0625 0ZM16.25 10H2.5V13.125C2.49993 13.5845 2.66855 14.0279 2.97387 14.3713C3.27918 14.7146 3.69993 14.9339 4.15625 14.9875L4.2625 14.9937L4.375 15H14.375C14.8534 15.0009 15.314 14.8188 15.6626 14.4912C16.0112 14.1635 16.2213 13.715 16.25 13.2375V13.125V10Z" fill="#222222"/>
</svg>
