<svg width="24" height="24" viewBox="0 0 24 24" fill="none" xmlns="http://www.w3.org/2000/svg">
<g clip-path="url(#clip0_0_17339)">
<path d="M21.25 8.99718V9V10.5C21.25 11.0045 21.1325 11.5022 20.9069 11.9534C20.6812 12.4047 20.3536 12.7973 19.95 13.1L19.75 13.25V13.5V19.5C19.75 19.7321 19.6693 19.9559 19.5234 20.1339C19.5064 20.1365 19.4858 20.1393 19.4615 20.142C19.3312 20.1569 19.1446 20.1663 18.9103 20.1699C18.4448 20.1772 17.8384 20.1613 17.2193 20.1362C16.602 20.1112 15.9802 20.0775 15.486 20.0498C15.4173 20.046 15.3504 20.0422 15.2859 20.0386C15.1839 20.0328 15.0879 20.0274 15 20.0226V17V16.5H14.5H10H9.5V17V20.0211C9.40042 20.0261 9.28922 20.0318 9.16863 20.0379C8.59026 20.0675 7.79596 20.1081 7.03259 20.1362C6.35074 20.1612 5.68081 20.1772 5.1671 20.1699C4.90873 20.1662 4.70118 20.1568 4.55547 20.1415C4.52308 20.1381 4.49631 20.1347 4.47462 20.1315C4.32998 19.9539 4.25 19.7311 4.25 19.5V13.5V13.25L4.05 13.1C3.64636 12.7973 3.31875 12.4047 3.09311 11.9534C2.86747 11.5022 2.75 11.0045 2.75 10.5L2.75 9L2.75 8.99936C2.74997 8.97675 2.75314 8.95425 2.75942 8.93253L2.75983 8.93109L4.10371 4.22657C4.10378 4.22631 4.10386 4.22605 4.10393 4.22579C4.16444 4.01748 4.29062 3.83428 4.46369 3.70349C4.63665 3.57278 4.84719 3.50142 5.06397 3.5H18.936C19.1528 3.50142 19.3633 3.57278 19.5363 3.70349C19.7095 3.83435 19.8357 4.01766 19.8962 4.2261C19.8962 4.22626 19.8962 4.22641 19.8963 4.22657L21.2409 8.93035C21.2409 8.93037 21.2409 8.93039 21.2409 8.93041C21.2471 8.95212 21.2501 8.9746 21.25 8.99718ZM19.5824 20.1226C19.5824 20.1226 19.5823 20.1227 19.5823 20.1227L19.5942 20.1189C19.5944 20.1191 19.5907 20.1205 19.5824 20.1226ZM8.75 10.5002V10.5V9.75V9.25H8.25H3.75H3.25V9.75L3.25 10.5L3.25 10.5003C3.25025 10.9614 3.36644 11.415 3.58789 11.8195C3.80934 12.224 4.12894 12.5662 4.51729 12.8148L4.55447 12.8386L4.59523 12.8556C4.61497 12.8638 4.63352 12.8746 4.65037 12.8877L4.68592 12.9153L4.72583 12.9362C5.1449 13.1553 5.61339 13.2627 6.08605 13.2479C6.55871 13.2331 7.01957 13.0966 7.42411 12.8517C7.82866 12.6069 8.16321 12.2618 8.39547 11.8499C8.62773 11.4379 8.74984 10.9731 8.75 10.5002ZM9.75 9.25H9.25V9.75V10.5C9.25 11.2293 9.53973 11.9288 10.0555 12.4445C10.5712 12.9603 11.2707 13.25 12 13.25C12.7293 13.25 13.4288 12.9603 13.9445 12.4445C14.4603 11.9288 14.75 11.2293 14.75 10.5V9.75V9.25H14.25H9.75ZM20.75 10.5004V10.5V9.75V9.25H20.25H15.75H15.25V9.75V10.5V10.5003C15.2503 10.9732 15.3725 11.4381 15.6049 11.85C15.8373 12.262 16.172 12.607 16.5767 12.8518C16.9814 13.0966 17.4423 13.2328 17.9151 13.2475C18.3878 13.2621 18.8563 13.1545 19.2753 12.9352L19.3142 12.9148L19.349 12.888C19.3666 12.8744 19.3858 12.8631 19.4063 12.8545L19.4456 12.838L19.4816 12.815C19.8701 12.5665 20.19 12.2243 20.4116 11.8198C20.6333 11.4153 20.7496 10.9616 20.75 10.5004Z" stroke="#E8E8E8"/>
</g>
<defs>
<clipPath id="clip0_0_17339">
<rect width="24" height="24" fill="white"/>
</clipPath>
</defs>
</svg>
