<svg width="14" height="15" viewBox="0 0 14 15" fill="none" xmlns="http://www.w3.org/2000/svg">
<path d="M7.07436 0.945316C7.39282 0.944536 7.7007 1.06403 7.94061 1.28152L8.00186 1.34512L12.8144 6.34272C13.0504 6.58709 13.1881 6.91558 13.1995 7.26152C13.2109 7.60746 13.0951 7.94494 12.8756 8.20546L12.8144 8.26907L7.92748 13.3484C7.69216 13.5936 7.37584 13.7366 7.04271 13.7484C6.70958 13.7602 6.38461 13.64 6.13373 13.412L6.07248 13.3484L1.25998 8.35084C1.03311 8.117 0.896211 7.80521 0.874983 7.47399L0.870608 7.38313V2.3083C0.870004 1.96054 0.997424 1.6257 1.22678 1.37232C1.45614 1.11894 1.77009 0.966181 2.10436 0.945316H7.06998H7.07436ZM7.07436 1.85397H2.18748C2.08 1.85316 1.97599 1.89348 1.8953 1.96722C1.81461 2.04096 1.76288 2.14296 1.74998 2.25378V7.38313C1.74903 7.48298 1.77978 7.58038 1.83748 7.66027L1.88123 7.7057L6.69373 12.7033C6.76898 12.7801 6.86843 12.8261 6.97375 12.8328C7.07907 12.8394 7.18317 12.8064 7.26686 12.7396L7.31061 12.7033L12.1975 7.62392C12.2726 7.54552 12.3176 7.44134 12.3241 7.33093C12.3305 7.22052 12.2979 7.11146 12.2325 7.02421L12.1975 6.97878L7.38498 1.98118C7.31622 1.91088 7.22701 1.86615 7.13123 1.85397H7.07436ZM3.93748 2.76262C4.28558 2.76262 4.61942 2.90622 4.86556 3.16183C5.1117 3.41744 5.24998 3.76412 5.24998 4.1256C5.24998 4.48709 5.1117 4.83377 4.86556 5.08938C4.61942 5.34499 4.28558 5.48859 3.93748 5.48859C3.58939 5.48859 3.25555 5.34499 3.00941 5.08938C2.76326 4.83377 2.62498 4.48709 2.62498 4.1256C2.62498 3.76412 2.76326 3.41744 3.00941 3.16183C3.25555 2.90622 3.58939 2.76262 3.93748 2.76262ZM3.93748 3.67128C3.82145 3.67128 3.71017 3.71914 3.62812 3.80435C3.54608 3.88955 3.49998 4.00511 3.49998 4.1256C3.49998 4.2461 3.54608 4.36166 3.62812 4.44686C3.71017 4.53207 3.82145 4.57993 3.93748 4.57993C4.05351 4.57993 4.16479 4.53207 4.24684 4.44686C4.32889 4.36166 4.37498 4.2461 4.37498 4.1256C4.37498 4.00511 4.32889 3.88955 4.24684 3.80435C4.16479 3.71914 4.05351 3.67128 3.93748 3.67128Z" fill="#717171"/>
</svg>
