<svg width="18" height="18" viewBox="0 0 18 18" fill="none" xmlns="http://www.w3.org/2000/svg">
<path d="M7.5 2.25H3C2.58525 2.25 2.25 2.58525 2.25 3V7.5C2.25 7.91475 2.58525 8.25 3 8.25H7.5C7.91475 8.25 8.25 7.91475 8.25 7.5V3C8.25 2.58525 7.91475 2.25 7.5 2.25ZM6.75 6.75H3.75V3.75H6.75V6.75ZM15 2.25H10.5C10.0852 2.25 9.75 2.58525 9.75 3V7.5C9.75 7.91475 10.0852 8.25 10.5 8.25H15C15.4148 8.25 15.75 7.91475 15.75 7.5V3C15.75 2.58525 15.4148 2.25 15 2.25ZM14.25 6.75H11.25V3.75H14.25V6.75ZM7.5 9.75H3C2.58525 9.75 2.25 10.0852 2.25 10.5V15C2.25 15.4148 2.58525 15.75 3 15.75H7.5C7.91475 15.75 8.25 15.4148 8.25 15V10.5C8.25 10.0852 7.91475 9.75 7.5 9.75ZM6.75 14.25H3.75V11.25H6.75V14.25ZM12.75 9.75C11.0955 9.75 9.75 11.0955 9.75 12.75C9.75 14.4045 11.0955 15.75 12.75 15.75C14.4045 15.75 15.75 14.4045 15.75 12.75C15.75 11.0955 14.4045 9.75 12.75 9.75ZM12.75 14.25C11.9227 14.25 11.25 13.5773 11.25 12.75C11.25 11.9227 11.9227 11.25 12.75 11.25C13.5773 11.25 14.25 11.9227 14.25 12.75C14.25 13.5773 13.5773 14.25 12.75 14.25Z" fill="#4D8EC4"/>
</svg>
