<svg width="14" height="15" viewBox="0 0 14 15" fill="none" xmlns="http://www.w3.org/2000/svg">
<path d="M13.4167 13.4004H0" stroke="#222222" stroke-miterlimit="10"/>
<path d="M12.8567 6.93201L6.70841 1.33398L0.560059 6.93201" stroke="#222222" stroke-miterlimit="10"/>
<path d="M3.21631 8.65333L2.44157 8.91991C2.33713 8.60353 2.11591 8.44531 1.77792 8.44531C1.41713 8.44531 1.23673 8.56543 1.23673 8.80567C1.23673 8.90137 1.26997 8.98243 1.33643 9.04885C1.40479 9.11527 1.55764 9.17287 1.795 9.22171C2.19187 9.30373 2.4824 9.38671 2.66658 9.47071C2.85078 9.55471 3.00553 9.69043 3.13086 9.87793C3.25808 10.0635 3.3217 10.2715 3.3217 10.502C3.3217 10.8633 3.18592 11.1758 2.91439 11.4395C2.64475 11.7031 2.24409 11.835 1.7124 11.835C1.31364 11.835 0.973743 11.7422 0.692711 11.5567C0.413574 11.3692 0.229384 11.0918 0.140137 10.7246L0.983234 10.5283C1.07818 10.9014 1.34212 11.0879 1.77506 11.0879C1.98394 11.0879 2.13965 11.0469 2.24219 10.9648C2.34473 10.8809 2.396 10.7812 2.396 10.666C2.396 10.5489 2.34948 10.458 2.25643 10.3936C2.16338 10.3291 1.98394 10.2686 1.7181 10.212C1.22249 10.1065 0.869303 9.96289 0.658528 9.78127C0.447754 9.59767 0.342367 9.33007 0.342367 8.97853C0.342367 8.62303 0.467692 8.32327 0.718343 8.07913C0.970891 7.83499 1.31269 7.71289 1.74373 7.71289C2.50708 7.71289 2.99794 8.02639 3.21631 8.65333ZM5.77979 7.77445L6.996 11.7734H6.01618L5.77979 10.9502H4.52084L4.27588 11.7734H3.47836L4.72307 7.77445H5.77979ZM4.74015 10.212H5.56616L5.15316 8.80861L4.74015 10.212ZM8.34041 10.9824H9.88706V11.7734H7.41758V7.77445H8.34041V10.9824ZM13.1341 8.53615H11.2799V9.35647H12.7382V10.1094H11.2799V10.9824H13.1341V11.7734H10.3542V7.77445H13.1341V8.53615Z" fill="#222222"/>
</svg>
