<svg width="16" height="16" viewBox="0 0 16 16" fill="none" xmlns="http://www.w3.org/2000/svg">
<path d="M8.38316 9.5C8.77738 9.5 9.15546 9.65708 9.43422 9.93669C9.71298 10.2163 9.86959 10.5955 9.86959 10.9909C9.86959 11.3864 9.71298 11.7656 9.43422 12.0452C9.15546 12.3248 8.77738 12.4819 8.38316 12.4819C7.98893 12.4819 7.61085 12.3248 7.33209 12.0452C7.05333 11.7656 6.89672 11.3864 6.89672 10.9909C6.89672 10.5955 7.05333 10.2163 7.33209 9.93669C7.61085 9.65708 7.98893 9.5 8.38316 9.5ZM8.38316 10.3125C8.20377 10.3125 8.03173 10.384 7.90488 10.5112C7.77803 10.6384 7.70677 10.811 7.70677 10.9909C7.70677 11.1709 7.77803 11.3434 7.90488 11.4707C8.03173 11.5979 8.20377 11.6694 8.38316 11.6694C8.56255 11.6694 8.73459 11.5979 8.86143 11.4707C8.98828 11.3434 9.05954 11.1709 9.05954 10.9909C9.05954 10.811 8.98828 10.6384 8.86143 10.5112C8.73459 10.384 8.56255 10.3125 8.38316 10.3125ZM8.38316 7.33469C9.0588 7.33486 9.72109 7.52338 10.2961 7.87919C10.8711 8.235 11.3363 8.74411 11.6395 9.34969L11.028 9.96313C10.8217 9.42752 10.4587 8.96707 9.98666 8.64235C9.51459 8.31762 8.95557 8.14383 8.38316 8.14383C7.81074 8.14383 7.25173 8.31762 6.77966 8.64235C6.30759 8.96707 5.94457 9.42752 5.73836 9.96313L5.12677 9.34969C5.43006 8.74411 5.89518 8.235 6.4702 7.87919C7.04522 7.52338 7.70752 7.33486 8.38316 7.33469ZM8.38316 5.16938C10.4002 5.16938 12.1782 6.20125 13.2191 7.76938L12.6318 8.35438C12.1844 7.6278 11.5591 7.02804 10.8155 6.61208C10.0719 6.19612 9.2346 5.97776 8.38316 5.97776C7.53172 5.97776 6.69441 6.19612 5.95079 6.61208C5.20717 7.02804 4.58193 7.6278 4.13447 8.35438L3.54719 7.76531C4.0767 6.96525 4.79543 6.30911 5.63926 5.85544C6.48309 5.40177 7.42576 5.16467 8.38316 5.16531V5.16938ZM8.38316 3C10.9956 3 13.3163 4.25937 14.7663 6.20938L14.1871 6.79438C13.5256 5.87006 12.6542 5.11702 11.6449 4.59757C10.6356 4.07812 9.51754 3.80719 8.38316 3.80719C7.24877 3.80719 6.13069 4.07812 5.12142 4.59757C4.11216 5.11702 3.24071 5.87006 2.57918 6.79438L2 6.21344C3.44998 4.26344 5.76671 3.00406 8.38316 3.00406V3Z" fill="#222222"/>
</svg>
