<svg width="16" height="16" viewBox="0 0 16 16" fill="none" xmlns="http://www.w3.org/2000/svg">
<g clip-path="url(#clip0_141_20433)">
<path d="M12.5222 15.1673C11.7688 15.1673 10.9755 14.9873 10.1555 14.6406C9.3555 14.3006 8.54884 13.834 7.76217 13.2673C6.98217 12.694 6.22883 12.054 5.5155 11.354C4.80883 10.6407 4.16883 9.88732 3.60217 9.11398C3.02883 8.31398 2.56883 7.51398 2.24217 6.74065C1.8955 5.91398 1.72217 5.11398 1.72217 4.36065C1.72217 3.84065 1.8155 3.34732 1.9955 2.88732C2.18217 2.41398 2.48217 1.97398 2.88883 1.59398C3.40217 1.08732 3.98883 0.833984 4.6155 0.833984C4.8755 0.833984 5.14217 0.893984 5.36883 1.00065C5.62883 1.12065 5.84883 1.30065 6.00883 1.54065L7.5555 3.72065C7.6955 3.91398 7.80217 4.10065 7.8755 4.28732C7.96217 4.48732 8.00883 4.68732 8.00883 4.88065C8.00883 5.13398 7.9355 5.38065 7.7955 5.61398C7.6955 5.79398 7.54217 5.98732 7.34883 6.18065L6.8955 6.65398C6.90217 6.67398 6.90883 6.68732 6.9155 6.70065C6.9955 6.84065 7.1555 7.08065 7.46217 7.44065C7.78883 7.81398 8.0955 8.15398 8.40217 8.46732C8.7955 8.85398 9.12217 9.16065 9.42883 9.41398C9.80884 9.73398 10.0555 9.89398 10.2022 9.96732L10.1888 10.0007L10.6755 9.52065C10.8822 9.31398 11.0822 9.16065 11.2755 9.06065C11.6422 8.83398 12.1088 8.79398 12.5755 8.98732C12.7488 9.06065 12.9355 9.16065 13.1355 9.30065L15.3488 10.874C15.5955 11.0407 15.7755 11.254 15.8822 11.5073C15.9822 11.7607 16.0288 11.994 16.0288 12.2273C16.0288 12.5473 15.9555 12.8673 15.8155 13.1673C15.6755 13.4673 15.5022 13.7273 15.2822 13.9673C14.9022 14.3873 14.4888 14.6873 14.0088 14.8806C13.5488 15.0673 13.0488 15.1673 12.5222 15.1673ZM4.6155 1.83398C4.24883 1.83398 3.90883 1.99398 3.58217 2.31398C3.2755 2.60065 3.06217 2.91398 2.92883 3.25398C2.78883 3.60065 2.72217 3.96732 2.72217 4.36065C2.72217 4.98065 2.86883 5.65398 3.16217 6.34732C3.46217 7.05398 3.88217 7.78732 4.4155 8.52065C4.94883 9.25398 5.5555 9.96732 6.22217 10.6407C6.88883 11.3007 7.60883 11.914 8.34883 12.454C9.06883 12.9807 9.80884 13.4073 10.5422 13.714C11.6822 14.2007 12.7488 14.314 13.6288 13.9473C13.9688 13.8073 14.2688 13.594 14.5422 13.2873C14.6955 13.1207 14.8155 12.9406 14.9155 12.7273C14.9955 12.5607 15.0355 12.3873 15.0355 12.214C15.0355 12.1073 15.0155 12.0007 14.9622 11.8807C14.9422 11.8407 14.9022 11.7673 14.7755 11.6807L12.5622 10.1073C12.4288 10.014 12.3088 9.94732 12.1955 9.90065C12.0488 9.84065 11.9888 9.78065 11.7622 9.92065C11.6288 9.98732 11.5088 10.0873 11.3755 10.2207L10.8688 10.7207C10.6088 10.974 10.2088 11.034 9.90217 10.9206L9.72217 10.8407C9.44883 10.694 9.12883 10.4673 8.7755 10.1673C8.4555 9.89398 8.10883 9.57398 7.68883 9.16065C7.36217 8.82732 7.0355 8.47398 6.6955 8.08065C6.38217 7.71398 6.1555 7.40065 6.0155 7.14065L5.9355 6.94065C5.8955 6.78732 5.88217 6.70065 5.88217 6.60732C5.88217 6.36732 5.96883 6.15398 6.1355 5.98732L6.6355 5.46732C6.76883 5.33398 6.86883 5.20732 6.9355 5.09398C6.98883 5.00732 7.00883 4.93398 7.00883 4.86732C7.00883 4.81398 6.98883 4.73398 6.9555 4.65398C6.90883 4.54732 6.8355 4.42732 6.74217 4.30065L5.1955 2.11398C5.12883 2.02065 5.04883 1.95398 4.94883 1.90732C4.84217 1.86065 4.72883 1.83398 4.6155 1.83398ZM10.1888 10.0073L10.0822 10.4607L10.2622 9.99398C10.2288 9.98732 10.2022 9.99398 10.1888 10.0073Z" fill="#292D32"/>
</g>
<defs>
<clipPath id="clip0_141_20433">
<rect width="16" height="16" fill="white"/>
</clipPath>
</defs>
</svg>
