<svg width="16" height="16" viewBox="0 0 16 16" fill="none" xmlns="http://www.w3.org/2000/svg">
<path d="M14 3H8.5V2C8.5 1.73478 8.39464 1.48043 8.20711 1.29289C8.01957 1.10536 7.76522 1 7.5 1H1.5V15H2.5V9H7.5V10C7.5 10.2652 7.60536 10.5196 7.79289 10.7071C7.98043 10.8946 8.23478 11 8.5 11H14.06C14.1324 10.9914 14.2021 10.9671 14.2641 10.9287C14.3262 10.8903 14.379 10.8388 14.4191 10.7778C14.4591 10.7168 14.4853 10.6478 14.4958 10.5757C14.5063 10.5035 14.5009 10.4299 14.48 10.36L13.52 7L14.48 3.64C14.5017 3.56548 14.5058 3.48693 14.4919 3.41056C14.478 3.33419 14.4466 3.2621 14.4 3.2C14.3534 3.1379 14.293 3.0875 14.2236 3.05279C14.1542 3.01807 14.0776 3 14 3Z" fill="#6A6A6A"/>
</svg>
