<svg width="16" height="16" viewBox="0 0 16 16" fill="none" xmlns="http://www.w3.org/2000/svg">
<path d="M11.75 3.125C12.1478 3.125 12.5294 3.28304 12.8107 3.56434C13.092 3.84564 13.25 4.22718 13.25 4.625V9.875C13.25 10.2728 13.092 10.6544 12.8107 10.9357C12.5294 11.217 12.1478 11.375 11.75 11.375H9.38L8 13.0625L6.62 11.375H4.25C3.85218 11.375 3.47064 11.217 3.18934 10.9357C2.90804 10.6544 2.75 10.2728 2.75 9.875V4.625C2.75 4.22718 2.90804 3.84564 3.18934 3.56434C3.47064 3.28304 3.85218 3.125 4.25 3.125H11.75Z" stroke="#222222"/>
</svg>
