<svg width="29" height="21" viewBox="0 0 29 21" fill="none" xmlns="http://www.w3.org/2000/svg">
<path fill-rule="evenodd" clip-rule="evenodd" d="M17.885 0C18.2271 0 18.5506 0.152625 18.7643 0.41481L21.1287 3.31578H25.1824C27.0481 3.31578 28.5605 4.80031 28.5605 6.63157V17.6842C28.5605 19.5154 27.0481 21 25.1824 21H3.78777C1.92209 21 0.409668 19.5154 0.409668 17.6842V6.63157C0.409668 4.80031 1.92209 3.31578 3.78777 3.31578H7.84036L10.2059 0.41481C10.4196 0.152625 10.7431 0 11.0852 0H17.885ZM14.4856 5.52637C10.9097 5.52637 8.01086 8.37171 8.01086 11.8816C8.01086 15.3915 10.9097 18.2369 14.4856 18.2369C18.0614 18.2369 20.9602 15.3915 20.9602 11.8816C20.9602 8.37171 18.0614 5.52637 14.4856 5.52637ZM14.4839 7.18457C17.1269 7.18457 19.2695 9.28765 19.2695 11.8819C19.2695 14.4762 17.1269 16.5793 14.4839 16.5793C11.8409 16.5793 9.69825 14.4762 9.69825 11.8819C9.69825 9.28765 11.8409 7.18457 14.4839 7.18457ZM22.3672 5.25C21.9008 5.25 21.5227 5.62113 21.5227 6.07895C21.5227 6.53676 21.9008 6.90789 22.3672 6.90789C22.8337 6.90789 23.2118 6.53676 23.2118 6.07895C23.2118 5.62113 22.8337 5.25 22.3672 5.25ZM5.22651 2C5.53746 2 5.78953 2.24742 5.78953 2.55263V3.10526H3.53746V2.55263C3.53746 2.24742 3.78953 2 4.10048 2H5.22651Z" fill="#717171"/>
</svg>
