<svg width="21" height="21" viewBox="0 0 21 21" fill="none" xmlns="http://www.w3.org/2000/svg">
<path d="M17.4286 1.98242C18.1106 1.98242 18.7646 2.25334 19.2468 2.73558C19.7291 3.21781 20 3.87186 20 4.55385V13.5538C20 14.2358 19.7291 14.8899 19.2468 15.3721C18.7646 15.8544 18.1106 16.1253 17.4286 16.1253H13.3657L11 19.0181L8.63429 16.1253H4.57143C3.88944 16.1253 3.23539 15.8544 2.75315 15.3721C2.27092 14.8899 2 14.2358 2 13.5538V4.55385C2 3.87186 2.27092 3.21781 2.75315 2.73558C3.23539 2.25334 3.88944 1.98242 4.57143 1.98242H17.4286Z" stroke="#222222"/>
<path d="M6 6.82578C6 6.68654 6.05268 6.55301 6.14645 6.45455C6.24021 6.35609 6.36739 6.30078 6.5 6.30078H15.5C15.6326 6.30078 15.7598 6.35609 15.8536 6.45455C15.9473 6.55301 16 6.68654 16 6.82578C16 6.96502 15.9473 7.09856 15.8536 7.19701C15.7598 7.29547 15.6326 7.35078 15.5 7.35078H6.5C6.36739 7.35078 6.24021 7.29547 6.14645 7.19701C6.05268 7.09856 6 6.96502 6 6.82578ZM6 9.45078C6 9.31154 6.05268 9.17801 6.14645 9.07955C6.24021 8.98109 6.36739 8.92578 6.5 8.92578H15.5C15.6326 8.92578 15.7598 8.98109 15.8536 9.07955C15.9473 9.17801 16 9.31154 16 9.45078C16 9.59002 15.9473 9.72356 15.8536 9.82201C15.7598 9.92047 15.6326 9.97578 15.5 9.97578H6.5C6.36739 9.97578 6.24021 9.92047 6.14645 9.82201C6.05268 9.72356 6 9.59002 6 9.45078ZM6 12.0758C6 11.9365 6.05268 11.803 6.14645 11.7046C6.24021 11.6061 6.36739 11.5508 6.5 11.5508H11.5C11.6326 11.5508 11.7598 11.6061 11.8536 11.7046C11.9473 11.803 12 11.9365 12 12.0758C12 12.215 11.9473 12.3486 11.8536 12.447C11.7598 12.5455 11.6326 12.6008 11.5 12.6008H6.5C6.36739 12.6008 6.24021 12.5455 6.14645 12.447C6.05268 12.3486 6 12.215 6 12.0758Z" fill="black"/>
</svg>
