<svg width="22" height="23" viewBox="0 0 22 23" fill="none" xmlns="http://www.w3.org/2000/svg">
<path d="M18.3335 2.00195H7.3335C6.32516 2.00195 5.50016 2.82695 5.50016 3.83529V5.66862H3.66683C2.6585 5.66862 1.8335 6.49362 1.8335 7.50195V20.3353L5.50016 16.6686H14.6668C15.6752 16.6686 16.5002 15.8436 16.5002 14.8353V13.002L20.1668 16.6686V3.83529C20.1668 2.82695 19.3418 2.00195 18.3335 2.00195ZM7.3335 12.0853C6.82795 12.0853 6.41683 11.6742 6.41683 11.1686V3.83529C6.41683 3.32974 6.82795 2.91862 7.3335 2.91862H18.3335C18.839 2.91862 19.2502 3.32974 19.2502 3.83529V14.4558L17.1482 12.3539L16.8797 12.0853H7.3335ZM15.5835 14.8353C15.5835 15.3408 15.1724 15.752 14.6668 15.752H5.12066L4.85208 16.0205L2.75016 18.1225V7.50195C2.75016 6.99641 3.16129 6.58529 3.66683 6.58529H5.50016V11.1686C5.50016 12.177 6.32516 13.002 7.3335 13.002H15.5835V14.8353Z" fill="black"/>
</svg>
