<svg width="12" height="12" viewBox="0 0 12 12" fill="none" xmlns="http://www.w3.org/2000/svg">
<path d="M1.9 7.15789H4.4254L3.92005 8.75279C3.82915 9.04079 3.87505 9.36005 4.0438 9.60637C4.21255 9.85268 4.48615 10 4.7746 10H5.5C5.63365 10 5.7601 9.93747 5.84605 9.82947L7.96105 7.15789H9.1C9.59635 7.15789 10 6.733 10 6.21053V1.94737C10 1.42489 9.59635 1 9.1 1H7.75H3.11185C2.7388 1 2.4004 1.24679 2.269 1.61484L1.02835 5.09689C1.00945 5.14995 1 5.20632 1 5.26316V6.21053C1 6.733 1.40365 7.15789 1.9 7.15789ZM9.1 6.21053H8.2V1.94737H9.1V6.21053ZM1.9 5.34889L3.11185 1.94737H7.3V6.51274L5.2894 9.05263H4.7737L5.4766 6.83437C5.52295 6.68989 5.49955 6.53121 5.41495 6.40758C5.33035 6.28347 5.19445 6.21053 5.05 6.21053H1.9V5.34889Z" fill="black"/>
</svg>
