<svg width="16" height="16" viewBox="0 0 16 16" fill="none" xmlns="http://www.w3.org/2000/svg">
<path d="M11.9728 2C12.2183 2 12.4614 2.0485 12.6882 2.14273C12.915 2.23695 13.121 2.37507 13.2946 2.54918C13.4682 2.72329 13.6059 2.92998 13.6999 3.15747C13.7938 3.38495 13.8421 3.62877 13.8421 3.875C13.8421 6.27125 13.244 8.82125 12.3467 9.3875V13.25H11.5989V9.3875C10.7166 8.8325 10.1259 6.36125 10.1035 4.0025V3.7925C10.1247 3.30966 10.3309 2.85367 10.6792 2.51969C11.0275 2.18571 11.491 1.99953 11.9728 2ZM8.60801 2V8.795C9.47538 9.00125 10.1035 9.92 10.1035 11C10.1035 12.2263 9.28844 13.25 8.23414 13.25C7.17983 13.25 6.3648 12.2263 6.3648 11C6.3648 9.92375 6.9929 9.00125 7.86027 8.795V2H8.60801ZM3 2H3.37387C5.04505 2 5.96477 4.38875 5.99094 8.9375V9.5H3.74773V13.25H3V2ZM8.23414 9.5C7.63595 9.5 7.11254 10.1563 7.11254 11C7.11254 11.8438 7.63595 12.5 8.23414 12.5C8.83233 12.5 9.35574 11.8438 9.35574 11C9.35574 10.1563 8.83233 9.5 8.23414 9.5ZM3.74773 2.84V8.75H5.2432L5.23573 8.39L5.22451 8.03375C5.11983 5.06 4.5852 3.3575 3.82998 2.885L3.78512 2.8625L3.74773 2.84ZM10.8512 3.8075V3.99125C10.8699 5.61125 11.2363 7.415 11.5989 8.2625V2.81375C11.3906 2.88718 11.2085 3.02064 11.0755 3.19742C10.9425 3.3742 10.8645 3.58643 10.8512 3.8075ZM12.3467 2.81375V8.2625C12.7168 7.39625 13.0944 5.525 13.0944 3.875C13.0945 3.64226 13.0227 3.4152 12.8888 3.22513C12.7548 3.03506 12.5654 2.89133 12.3467 2.81375Z" fill="#222222"/>
</svg>
