<svg width="24" height="24" viewBox="0 0 24 24" fill="none" xmlns="http://www.w3.org/2000/svg">
<path d="M2 18.5695C2.1099 18.4097 2.26042 18.3613 2.4526 18.3717C2.64479 18.3821 2.84375 18.3655 3.03802 18.3774C3.18073 18.3863 3.22552 18.3327 3.20677 18.1999C3.2039 18.1545 3.2039 18.1089 3.20677 18.0635V7.91387C3.20677 7.51505 3.28229 7.4406 3.6875 7.4406C4.89844 7.4406 6.10885 7.4406 7.31927 7.4406C7.37632 7.44402 7.43339 7.43409 7.48592 7.41158C7.53846 7.38907 7.58501 7.35462 7.62187 7.31096C8.56979 6.27277 9.52014 5.2372 10.4729 4.20422C10.7266 3.92776 10.876 3.93088 11.1208 4.22036L19.0938 13.6608C19.1276 13.7004 19.1615 13.74 19.1927 13.7816C19.3141 13.9415 19.3036 14.1133 19.1672 14.233C19.0307 14.3528 18.8661 14.3413 18.726 14.1778C18.463 13.8722 18.2052 13.5609 17.9448 13.2542C17.901 13.2021 17.8693 13.1355 17.7937 13.111C17.75 13.173 17.7698 13.2391 17.7698 13.3005C17.7698 14.9208 17.7698 16.5411 17.7651 18.1608C17.7651 18.3248 17.7953 18.3832 17.9734 18.3795C18.5786 18.3665 19.1839 18.3753 19.7891 18.3727C19.851 18.3727 19.9589 18.4113 19.9479 18.2941C19.938 18.1863 20.0297 18.051 19.8583 17.9744C19.2547 17.7058 19.0448 17.3575 19.1089 16.6983C19.1797 15.9663 19.2948 15.2405 19.5385 14.5428C19.6025 14.3375 19.7031 14.1454 19.8354 13.9758C20.0531 13.7155 20.3073 13.7155 20.525 13.9758C20.7198 14.2117 20.8161 14.4965 20.901 14.7834C21.0886 15.4402 21.2087 16.1145 21.2594 16.7957C21.3057 17.3424 21.0464 17.7636 20.5339 17.9562C20.3339 18.0317 20.4099 18.1754 20.4109 18.2931C20.4109 18.4316 20.5391 18.3681 20.6089 18.3696C20.9214 18.3769 21.2339 18.3821 21.5464 18.3696C21.7375 18.3613 21.8885 18.4092 21.999 18.568V18.8023C21.888 18.9585 21.7385 19.0012 21.5464 19.0012C15.1821 18.9987 8.81753 18.9993 2.4526 19.0027C2.2625 19.0027 2.11042 18.9632 2 18.8038V18.5695ZM8.32083 7.43904H9.40937C9.79375 7.43904 9.88125 7.52547 9.88125 7.90762C9.88125 9.2483 9.88125 10.5885 9.88125 11.9286C9.88125 12.0718 9.90469 12.1291 10.0687 12.1286C12.3208 12.1228 14.5729 12.1249 16.8245 12.1233C16.8708 12.1233 16.9286 12.1504 16.9646 12.0937C16.9594 12.0812 16.9531 12.0691 16.9458 12.0577C14.9219 9.67107 12.8991 7.28301 10.8776 4.89357C10.7807 4.77902 10.7391 4.8212 10.662 4.90502C10.0099 5.6138 9.3559 6.32068 8.7 7.02564C8.58281 7.15216 8.46667 7.28284 8.32083 7.43904ZM9.26927 13.2183C9.26927 11.5782 9.26615 9.93817 9.27344 8.29863C9.27344 8.11693 9.2401 8.05965 9.04427 8.0607C7.3842 8.07007 5.72431 8.07007 4.06458 8.0607C3.87448 8.0607 3.81354 8.0961 3.8151 8.30072C3.825 9.78458 3.82031 11.2684 3.82031 12.7518C3.82031 14.5612 3.81944 16.3703 3.81771 18.1791C3.81771 18.3248 3.84635 18.3837 4.00781 18.3779C4.36562 18.3649 4.72448 18.3623 5.08177 18.3779C5.27344 18.3863 5.32865 18.341 5.32812 18.1379C5.32014 15.3399 5.31858 12.5418 5.32344 9.74344C5.32344 9.41335 5.42292 9.31443 5.75521 9.31443H8.17656C8.58906 9.31443 8.66875 9.39305 8.66875 9.8028V17.9833C8.66875 18.3759 8.66875 18.3675 9.06875 18.3785C9.22969 18.3826 9.27396 18.341 9.27344 18.1765C9.26667 16.5239 9.26927 14.8708 9.26927 13.2183ZM12.9062 15.5612C12.9062 16.4333 12.9062 17.3054 12.9031 18.177C12.9031 18.3217 12.9286 18.3779 13.0922 18.3769C14.3877 18.3696 15.6828 18.3696 16.9776 18.3769C17.1089 18.3769 17.1562 18.3498 17.1557 18.2077C17.1509 16.4444 17.1509 14.6811 17.1557 12.9179C17.1557 12.7757 17.1083 12.7481 16.9776 12.7487C15.6821 12.7535 14.387 12.7535 13.0922 12.7487C12.9281 12.7487 12.9021 12.8049 12.9031 12.9491C12.9089 13.8191 12.9062 14.6912 12.9062 15.5612ZM12.3125 15.5612C12.3125 14.6834 12.3125 13.8056 12.3151 12.9278C12.3151 12.8028 12.2984 12.7455 12.1505 12.7471C11.4484 12.7554 10.7443 12.7539 10.0432 12.7471C9.91719 12.7471 9.87865 12.7809 9.87865 12.9095C9.88281 14.6798 9.88281 16.4484 9.87865 18.2155C9.87865 18.3472 9.9224 18.3764 10.0453 18.3753C10.7417 18.3701 11.4375 18.3686 12.1333 18.3753C12.2797 18.3753 12.3172 18.3384 12.3161 18.1926C12.3089 17.3174 12.3125 16.4396 12.3125 15.5612ZM8.05729 12.7497C8.05729 11.8714 8.05729 10.9925 8.05729 10.1141C8.05729 9.98659 8.0375 9.93244 7.89115 9.93452C7.29219 9.94285 6.69323 9.94025 6.09427 9.93452C5.98073 9.93452 5.93802 9.95639 5.93802 10.0829C5.94219 11.8597 5.94219 13.6364 5.93802 15.4128C5.93802 15.5383 5.97969 15.5633 6.09427 15.5623C6.68646 15.5571 7.27917 15.5529 7.87135 15.5623C8.03594 15.5654 8.05937 15.5055 8.05833 15.3628C8.05469 14.496 8.05729 13.6239 8.05729 12.7497ZM5.94271 17.2794C5.94271 17.5855 5.94844 17.8911 5.94271 18.1968C5.93906 18.3254 5.96354 18.3785 6.10938 18.3764C6.70781 18.3681 7.30729 18.3701 7.90573 18.3764C8.02031 18.3764 8.06198 18.3535 8.06198 18.2275C8.05538 17.5958 8.05538 16.9645 8.06198 16.3339C8.06198 16.2073 8.01875 16.1839 7.90573 16.185C7.30677 16.1896 6.70781 16.1922 6.10938 16.185C5.96354 16.185 5.93906 16.237 5.94271 16.3641C5.94844 16.6692 5.94271 16.9753 5.94271 17.2794ZM19.9073 17.5147C19.9151 17.3585 19.9177 17.2351 19.9292 17.1128C19.9406 16.9904 20.0125 16.9045 20.1427 16.9045C20.2729 16.9045 20.3479 16.9826 20.3609 17.1096C20.374 17.2367 20.3776 17.3668 20.3854 17.496C20.6505 17.4022 20.7995 17.1789 20.7828 16.8566C20.7467 16.3245 20.663 15.7967 20.5328 15.2795C20.4615 14.976 20.388 14.6725 20.25 14.3903C20.2281 14.346 20.212 14.2768 20.1521 14.2861C20.1203 14.2913 20.0917 14.3491 20.0724 14.3903C19.9396 14.6678 19.8641 14.963 19.7958 15.2613C19.6729 15.782 19.5646 16.3026 19.5396 16.8373C19.5266 17.118 19.6193 17.3554 19.9073 17.5163V17.5147Z" fill="#222222"/>
</svg>
