<svg width="21" height="25" viewBox="0 0 21 25" fill="none" xmlns="http://www.w3.org/2000/svg">
<path d="M10.4985 16.25L10.4985 0.5M17.9985 8.75L11.0289 15.7197C10.736 16.0126 10.2611 16.0126 9.96821 15.7197L2.99854 8.75" stroke="white" stroke-width="1.7"/>
<mask id="path-2-inside-1_12748_1930" fill="white">
<path d="M0 15.5029H21V21.5029C21 23.1598 19.6569 24.5029 18 24.5029H3C1.34315 24.5029 0 23.1598 0 21.5029L0 15.5029Z"/>
</mask>
<path d="M0 15.5029H21H0ZM22.7 21.5029C22.7 24.0987 20.5957 26.2029 18 26.2029H3C0.404262 26.2029 -1.7 24.0987 -1.7 21.5029H1.7C1.7 22.2209 2.28203 22.8029 3 22.8029H18C18.718 22.8029 19.3 22.2209 19.3 21.5029H22.7ZM3 26.2029C0.404262 26.2029 -1.7 24.0987 -1.7 21.5029V15.5029H1.7V21.5029C1.7 22.2209 2.28203 22.8029 3 22.8029L3 26.2029ZM22.7 15.5029V21.5029C22.7 24.0987 20.5957 26.2029 18 26.2029V22.8029C18.718 22.8029 19.3 22.2209 19.3 21.5029V15.5029H22.7Z" fill="white" mask="url(#path-2-inside-1_12748_1930)"/>
</svg>
