<svg width="14" height="14" viewBox="0 0 14 14" fill="none" xmlns="http://www.w3.org/2000/svg">
<path d="M6.99967 5.83398C6.35801 5.83398 5.83301 6.35898 5.83301 7.00065C5.83301 7.64232 6.35801 8.16732 6.99967 8.16732C7.64134 8.16732 8.16634 7.64232 8.16634 7.00065C8.16634 6.35898 7.64134 5.83398 6.99967 5.83398ZM6.99967 2.33398C6.35801 2.33398 5.83301 2.85898 5.83301 3.50065C5.83301 4.14232 6.35801 4.66732 6.99967 4.66732C7.64134 4.66732 8.16634 4.14232 8.16634 3.50065C8.16634 2.85898 7.64134 2.33398 6.99967 2.33398ZM6.99967 9.33398C6.35801 9.33398 5.83301 9.85898 5.83301 10.5007C5.83301 11.1423 6.35801 11.6673 6.99967 11.6673C7.64134 11.6673 8.16634 11.1423 8.16634 10.5007C8.16634 9.85898 7.64134 9.33398 6.99967 9.33398Z" fill="#555555"/>
</svg>
