<svg width="14" height="14" viewBox="0 0 14 14" fill="none" xmlns="http://www.w3.org/2000/svg">
<path d="M13.7463 6.79929C12.6788 4.00804 9.98375 2.17054 7 2.19679C3.99 2.13554 1.2775 3.98179 0.245 6.80804C0.21 6.93929 0.21 7.07054 0.245 7.19304C1.28625 10.0105 3.99875 11.8568 7 11.8043C9.9925 11.8305 12.6788 9.99304 13.755 7.20179C13.79 7.07054 13.79 6.93054 13.7463 6.79929ZM7 10.5093C4.6375 10.5968 2.4675 9.18804 1.575 7.00054C2.45875 4.80429 4.62875 3.40429 7 3.49179C9.35375 3.43929 11.5062 4.83054 12.4162 7.00054C11.4975 9.17054 9.35375 10.5618 7 10.5093ZM7 4.68179C6.8425 4.68179 6.685 4.69929 6.53625 4.73429C6.76375 5.04054 6.88625 5.40804 6.88625 5.79304C6.8425 6.88679 5.92375 7.72679 4.83 7.68304C4.82125 7.68304 4.80375 7.68304 4.795 7.68304H4.73375C5.10125 8.91679 6.39625 9.61679 7.63 9.24929C8.86375 8.88179 9.56375 7.58679 9.19625 6.35304C8.9075 5.36429 8.015 4.69054 7 4.68179Z" fill="#23262B"/>
</svg>
