<svg width="18" height="19" viewBox="0 0 18 19" fill="none" xmlns="http://www.w3.org/2000/svg">
<path d="M9.64148 0V2.55233L12.2267 1.083L12.8681 2.17867L9.64148 4.01533V8.40433L13.4904 6.20667V2.53333H14.7733V5.47833L17.0121 4.199L17.6536 5.301L15.4148 6.574L18 8.04967L17.3585 9.14533L14.1319 7.30867L10.283 9.5L14.1319 11.6913L17.3585 9.85467L18 10.9503L15.4148 12.426L17.6536 13.699L17.0121 14.801L14.7733 13.5217V16.4667H13.4904V12.7933L9.64148 10.5957V14.9847L12.8681 16.8213L12.2267 17.917L9.64148 16.4477V19H8.35852V16.4477L5.77334 17.917L5.13186 16.8213L8.35852 14.9847V10.5957L4.50962 12.7933V16.4667H3.22666V13.5217L0.987883 14.801L0.346401 13.699L2.58517 12.426L0 10.9503L0.641483 9.85467L3.86814 11.6913L7.71703 9.5L3.86814 7.30867L0.641483 9.14533L0 8.04967L2.58517 6.574L0.346401 5.301L0.987883 4.199L3.22666 5.47833V2.53333H4.50962V6.20667L8.35852 8.40433V4.01533L5.13186 2.17867L5.77334 1.083L8.35852 2.55233V0H9.64148Z" fill="#222222"/>
</svg>
