<svg width="24" height="24" viewBox="0 0 24 24" fill="none" xmlns="http://www.w3.org/2000/svg">
<path d="M2.75 8.39995L2.75 8.39982C2.74978 7.15151 3.2515 5.95552 4.14225 5.08095C5.03301 4.20639 6.238 3.72671 7.48611 3.74982L7.49505 3.74999L7.50398 3.74994C9.00632 3.74196 10.4399 4.37909 11.4406 5.49956L12 6.12582L12.5594 5.49956C13.5601 4.37909 14.9937 3.74196 16.496 3.74994L16.505 3.74999L16.5139 3.74982C17.762 3.72671 18.967 4.2064 19.8577 5.08095C20.7485 5.9555 21.2502 7.1515 21.25 8.39985V8.39995C21.25 10.773 19.8337 12.9394 17.8233 14.9824C16.8278 15.994 15.7154 16.9469 14.613 17.8557C14.2997 18.114 13.9855 18.3701 13.6749 18.6232C13.0944 19.0963 12.5268 19.5588 12.0024 20.0056C11.4518 19.5326 10.8538 19.0437 10.2429 18.5442C9.96049 18.3133 9.67529 18.0801 9.39074 17.8452C8.28813 16.9349 7.1753 15.9831 6.17907 14.9731C4.16742 12.9337 2.75 10.7743 2.75 8.39995Z" fill="black" fill-opacity="0.5" stroke="white" stroke-width="1.5"/>
</svg>
