<svg width="35" height="35" viewBox="0 0 35 35" fill="none" xmlns="http://www.w3.org/2000/svg">
<rect x="0.5" y="0.5" width="34" height="34" rx="17" stroke="white"/>
<path d="M13.2812 17.5H11.4062M13.2812 17.5C13.2812 17.9973 13.4788 18.4742 13.8304 18.8258C14.1821 19.1775 14.659 19.375 15.1562 19.375C15.6535 19.375 16.1304 19.1775 16.4821 18.8258C16.8337 18.4742 17.0312 17.9973 17.0312 17.5M13.2812 17.5C13.2812 17.0027 13.4788 16.5258 13.8304 16.1742C14.1821 15.8225 14.659 15.625 15.1562 15.625C15.6535 15.625 16.1304 15.8225 16.4821 16.1742C16.8337 16.5258 17.0312 17.0027 17.0312 17.5M23.5938 17.5H17.0312M23.5938 12.8125H21.7188M21.7188 12.8125C21.7188 13.3098 21.5212 13.7867 21.1696 14.1383C20.8179 14.49 20.341 14.6875 19.8438 14.6875C19.3465 14.6875 18.8696 14.49 18.5179 14.1383C18.1663 13.7867 17.9688 13.3098 17.9688 12.8125M21.7188 12.8125C21.7188 12.3152 21.5212 11.8383 21.1696 11.4867C20.8179 11.135 20.341 10.9375 19.8438 10.9375C19.3465 10.9375 18.8696 11.135 18.5179 11.4867C18.1663 11.8383 17.9688 12.3152 17.9688 12.8125M17.9688 12.8125H11.4062M23.5938 22.1875H21.7188M21.7188 22.1875C21.7188 22.6848 21.5212 23.1617 21.1696 23.5133C20.8179 23.865 20.341 24.0625 19.8438 24.0625C19.3465 24.0625 18.8696 23.865 18.5179 23.5133C18.1663 23.1617 17.9688 22.6848 17.9688 22.1875M21.7188 22.1875C21.7188 21.6902 21.5212 21.2133 21.1696 20.8617C20.8179 20.51 20.341 20.3125 19.8438 20.3125C19.3465 20.3125 18.8696 20.51 18.5179 20.8617C18.1663 21.2133 17.9688 21.6902 17.9688 22.1875M17.9688 22.1875H11.4062" stroke="white" stroke-width="1.3"/>
<circle cx="28.5" cy="4.5" r="2.5" fill="white"/>
</svg>
