<svg width="24" height="17" viewBox="0 0 24 17" fill="none" xmlns="http://www.w3.org/2000/svg">
<path opacity="0.1" d="M23.0265 13.7728H17.8359C17.5969 13.7728 17.4033 13.5792 17.4033 13.3402V9.87982C17.4033 9.64191 17.598 9.44727 17.8359 9.44727H23.0265C23.2644 9.44727 23.459 9.64191 23.459 9.87982V13.3402C23.459 13.5792 23.2655 13.7728 23.0265 13.7728Z" fill="#222222"/>
<path d="M23.0265 13.7728H17.8359C17.5969 13.7728 17.4033 13.5792 17.4033 13.3402V9.87982C17.4033 9.64191 17.598 9.44727 17.8359 9.44727H23.0265C23.2644 9.44727 23.459 9.64191 23.459 9.87982V13.3402C23.459 13.5792 23.2655 13.7728 23.0265 13.7728Z" stroke="#222222" stroke-width="0.8" stroke-miterlimit="10" stroke-linecap="round" stroke-linejoin="round"/>
<path d="M18.2686 14.6385V13.7734" stroke="#222222" stroke-width="0.8" stroke-miterlimit="10" stroke-linecap="round" stroke-linejoin="round"/>
<path d="M22.5938 14.6385V13.7734" stroke="#222222" stroke-width="0.8" stroke-miterlimit="10" stroke-linecap="round" stroke-linejoin="round"/>
<path d="M19.7822 11.6113H21.0799" stroke="#222222" stroke-width="0.8" stroke-miterlimit="10" stroke-linecap="round" stroke-linejoin="round"/>
<path d="M20.4312 5.12305C18.9175 5.12305 18.9175 6.10602 18.9175 7.2858C18.9175 8.46558 19.8873 9.44855 20.4312 9.44855C20.9751 9.44855 21.9449 8.46558 21.9449 7.2858C21.9449 6.10602 22.0158 5.12305 20.4312 5.12305Z" stroke="#222222" stroke-width="0.8" stroke-miterlimit="10" stroke-linecap="round" stroke-linejoin="round"/>
<path d="M17.6196 4.68983H23.4591L21.2963 0.796875H19.5661L17.6196 4.68983Z" stroke="#222222" stroke-width="0.8" stroke-miterlimit="10" stroke-linecap="round" stroke-linejoin="round"/>
<path d="M12.564 4.31055C12.7895 4.30992 13.0068 4.39467 13.1723 4.54777C13.3378 4.70086 13.4392 4.91095 13.4562 5.13578V8.69985L14.2814 11.1711C14.3031 11.2381 14.3195 11.3067 14.3304 11.3763L14.3438 11.4833L14.3483 11.5904V15.9083H13.4562V15.0162H2.75053V15.9083H1.8584V11.5904C1.8591 11.4836 1.87257 11.3773 1.89854 11.2737L1.92531 11.1711L2.75053 8.69985V5.20269C2.75025 4.98906 2.82663 4.78243 2.96579 4.62036C3.10495 4.45828 3.29764 4.35151 3.50885 4.31947L3.57576 4.31501L3.64267 4.31055H12.564ZM13.4562 12.3398H2.75053V14.124H13.4562V12.3398ZM12.8361 9.66336H3.37503L2.7773 11.4476H13.4383L12.8361 9.66336ZM12.564 5.20269H3.64267V8.77122H4.5348V6.98695C4.53417 6.76149 4.61892 6.54416 4.77202 6.37865C4.92512 6.21313 5.1352 6.11173 5.36003 6.09482H10.7797C11.0052 6.09418 11.2225 6.17894 11.3881 6.33204C11.5536 6.48513 11.655 6.69522 11.6719 6.92004V8.77122H12.564V5.20269ZM7.65727 6.98695H5.42694V8.77122H7.65727V6.98695ZM10.7797 6.98695H8.54941V8.77122H10.7797V6.98695Z" fill="#222222"/>
<path opacity="0.1" d="M2.75488 12.3496H13.4566V14.15H2.75517L2.75488 12.3496Z" fill="#222222"/>
</svg>
