<svg width="16" height="8" viewBox="0 0 16 8" fill="none" xmlns="http://www.w3.org/2000/svg">
<path d="M0 4.16087L0 1.08261C0 0.665217 0.260869 0.317392 0.695652 0.317392C1.13043 0.317392 1.3913 0.665217 1.3913 1.08261L1.3913 3.37826L13.2696 3.37826L11.4957 1.62174C11.2 1.32609 11.2174 0.83913 11.5304 0.526087C11.687 0.369565 11.8957 0.299999 12.1043 0.299999C12.2957 0.299999 12.5043 0.369565 12.6609 0.526087L15.7913 3.60435C15.913 3.74348 16 3.95217 16 4.16087C16 4.36957 15.913 4.56087 15.7739 4.7L12.6609 7.77826C12.3652 8.07391 11.8609 8.07391 11.5652 7.77826C11.2696 7.48261 11.2696 6.99565 11.5826 6.68261L13.3565 4.92609L0.799999 4.92609C0.591304 4.92609 0.365218 4.83913 0.226088 4.7C0.086957 4.56087 0 4.35217 0 4.16087Z" fill="#3A8BCF"/>
</svg>
