<svg width="21" height="21" viewBox="0 0 21 21" fill="none" xmlns="http://www.w3.org/2000/svg">
<path d="M14.6929 3.41482C15.843 3.4784 16.9214 3.99398 17.693 4.84921C18.4647 5.70443 18.867 6.82998 18.8124 7.98057C18.8124 10.6686 16.4919 12.3197 14.265 14.2998C12.067 16.2624 10.8832 17.3352 10.4999 17.5828C10.0825 17.3124 8.62478 15.9877 6.73478 14.2998C4.49828 12.3118 2.1874 10.6449 2.1874 7.98057C2.13277 6.82998 2.53512 5.70443 3.30675 4.84921C4.07839 3.99398 5.15677 3.4784 6.3069 3.41482C6.94403 3.39551 7.57526 3.54185 8.1389 3.83954C8.70253 4.13723 9.17928 4.57608 9.52253 5.11319C10.2575 6.14132 10.38 6.65582 10.5025 6.65582C10.625 6.65582 10.7458 6.14132 11.4738 5.11057C11.8151 4.57097 12.292 4.13038 12.8569 3.83281C13.4218 3.53524 14.0549 3.39111 14.6929 3.41482ZM14.6929 1.66482C13.8983 1.63938 13.1083 1.79351 12.3815 2.11575C11.6548 2.43798 11.0101 2.92001 10.4955 3.52594C9.98135 2.92178 9.338 2.44086 8.613 2.11872C7.88801 1.79659 7.0999 1.64147 6.3069 1.66482C4.69241 1.72795 3.16861 2.4278 2.0687 3.61134C0.968788 4.79487 0.382271 6.36578 0.437401 7.98057C0.437401 11.1393 2.66865 13.0792 4.82553 14.9543C5.07315 15.1696 5.3234 15.3866 5.5719 15.6079L6.47053 16.4112C7.45056 17.3437 8.47801 18.2252 9.54878 19.0519C9.83208 19.2354 10.1624 19.333 10.4999 19.333C10.8374 19.333 11.1677 19.2354 11.451 19.0519C12.5559 18.1999 13.6149 17.2901 14.6238 16.3263L15.4305 15.6053C15.6869 15.3778 15.9468 15.1512 16.2049 14.9281C18.2472 13.1562 20.5624 11.1481 20.5624 7.98057C20.6175 6.36578 20.031 4.79487 18.9311 3.61134C17.8312 2.4278 16.3074 1.72795 14.6929 1.66482Z" fill="#E4E4E4"/>
</svg>
