<svg width="21" height="22" viewBox="0 0 21 22" fill="none" xmlns="http://www.w3.org/2000/svg">
<path d="M16.258 4.35913H8.92816C8.52109 4.35913 8.1617 4.49194 7.95027 4.75757H7.33548C6.85111 4.75757 6.44457 5.15601 6.33487 5.55444H4.47084C3.90227 5.55444 3.19531 5.94398 3.19531 6.51242V6.53062L2.12538 6.64842C2.05923 6.65572 2 6.71177 2 6.77844V7.04526C2 7.1122 2.0595 7.16851 2.12617 7.17529L3.19531 7.28818V7.31687C3.19531 7.88517 3.90227 8.47632 4.47084 8.47632H6.33566C6.44643 8.87476 6.85217 9.27319 7.33548 9.27319H7.95027C8.16184 9.53882 8.52109 9.80444 8.92816 9.80444H11.0312V11.2496C11.0312 11.7463 11.597 12.3279 12.0938 12.3279V15.957C11.9609 16.0116 11.8281 16.1549 11.8281 16.3245V16.5889C11.8322 17.1091 11.8235 17.1091 12.0398 17.1091H15.7287C15.825 17.1091 15.8125 16.8053 15.8125 16.5889V16.3245C15.8125 16.155 15.6797 16.0117 15.5469 15.957V9.80444H16.258C17.7699 9.80444 19 8.59386 19 7.08179C19 5.56972 17.7699 4.35913 16.258 4.35913ZM17.4282 8.47632H14.159C14.0144 8.47632 13.8973 8.35519 13.8973 8.21069C13.8973 8.06619 14.0144 7.94507 14.159 7.94507H17.4282C17.5725 7.94507 17.6898 8.06619 17.6898 8.21069C17.6898 8.35519 17.5725 8.47632 17.4282 8.47632ZM17.4282 7.67944H14.159C14.0144 7.67944 13.8973 7.55832 13.8973 7.41382C13.8973 7.26932 14.0144 7.14819 14.159 7.14819H17.4282C17.5725 7.14819 17.6898 7.26932 17.6898 7.41382C17.6898 7.55832 17.5725 7.67944 17.4282 7.67944ZM17.4282 6.88257H14.159C14.0144 6.88257 13.8973 6.76144 13.8973 6.61694C13.8973 6.47244 14.0144 6.35132 14.159 6.35132H17.4282C17.5725 6.35132 17.6898 6.47244 17.6898 6.61694C17.6898 6.76144 17.5725 6.88257 17.4282 6.88257ZM17.4282 6.08569H14.159C14.0144 6.08569 13.8973 5.96457 13.8973 5.82007C13.8973 5.67557 14.0144 5.55444 14.159 5.55444H17.4282C17.5725 5.55444 17.6898 5.67557 17.6898 5.82007C17.6898 5.96457 17.5725 6.08569 17.4282 6.08569Z" fill="#26455F"/>
</svg>
