<svg width="24" height="24" viewBox="0 0 24 24" fill="none" xmlns="http://www.w3.org/2000/svg">
<g clip-path="url(#clip0_0_17325)">
<g clip-path="url(#clip1_0_17325)">
<path d="M19.4893 21.5H14.4929V14.6451C14.4929 14.1055 14.134 13.605 13.5894 13.4968L13.5652 13.492L13.5408 13.4896L13.431 13.4788L13.4066 13.4764H13.3821H9.71786C9.06275 13.4764 8.60714 14.0432 8.60714 14.6451V21.5H3.61071C3.59563 21.5 3.57305 21.4943 3.54806 21.467C3.52238 21.4388 3.5 21.3922 3.5 21.3314V10.698C3.5 10.4532 3.59281 10.2232 3.7701 10.0465L10.7234 3.82531C11.2085 3.39131 11.8913 3.39158 12.3761 3.82604C12.3762 3.82604 12.3762 3.82605 12.3762 3.82606L19.35 10.0768C19.5038 10.2313 19.6 10.4596 19.6 10.7093V21.3314C19.6 21.3922 19.5776 21.4388 19.5519 21.467C19.5269 21.4943 19.5044 21.5 19.4893 21.5Z" stroke="#E8E8E8"/>
</g>
</g>
<defs>
<clipPath id="clip0_0_17325">
<rect width="24" height="24" fill="white"/>
</clipPath>
<clipPath id="clip1_0_17325">
<rect width="24" height="24" fill="white" transform="translate(-0.00195312 0.0175781)"/>
</clipPath>
</defs>
</svg>
