<svg width="20" height="20" viewBox="0 0 20 20" fill="none" xmlns="http://www.w3.org/2000/svg">
<path d="M18.2007 18.5662H15.4523C15.16 18.5662 14.9229 18.3291 14.9229 18.0368C14.9229 17.7444 15.16 17.5073 15.4523 17.5073H18.2007C18.609 17.5073 18.9411 17.1752 18.9411 16.7669V7.11563C18.9411 6.70734 18.609 6.3752 18.2007 6.3752H5.3876C4.97932 6.3752 4.64717 6.70734 4.64717 7.11563V16.7669C4.64717 17.1752 4.97932 17.5073 5.3876 17.5073L15.4166 17.4998C20.3811 17.4923 16.7909 17.7444 16.7909 18.0368C16.7909 18.3291 16.1256 18.5662 15.8333 18.5662H5.3876C4.39549 18.5662 3.58838 17.759 3.58838 16.767V7.11563C3.58838 6.12352 4.39553 5.31641 5.3876 5.31641H18.2007C19.1928 5.31641 19.9999 6.12356 19.9999 7.11563V16.7669C19.9999 17.759 19.1928 18.5662 18.2007 18.5662Z" fill="#222222"/>
<path d="M7.44756 16.0921C6.939 16.0921 6.52295 15.6761 6.52295 15.1675V8.71562C6.52295 8.20707 6.939 7.79102 7.44756 7.79102C7.95611 7.79102 8.37217 8.20707 8.37217 8.71562V15.1675C8.37217 15.676 7.95604 16.0921 7.44756 16.0921Z" fill="white"/>
<path d="M7.44768 16.6215C6.64588 16.6215 5.99365 15.9693 5.99365 15.1675V8.71566C5.99365 7.91395 6.64588 7.26172 7.44768 7.26172C8.24947 7.26172 8.9017 7.91395 8.9017 8.71566V15.1675C8.90162 15.9693 8.24939 16.6215 7.44768 16.6215ZM7.44768 8.32059C7.22978 8.32059 7.05248 8.49789 7.05248 8.71574V15.1675C7.05248 15.3854 7.22978 15.5627 7.44768 15.5627C7.66557 15.5627 7.84287 15.3854 7.84287 15.1675V8.71566C7.84283 8.49781 7.66557 8.32059 7.44768 8.32059Z" fill="#222222"/>
<path d="M11.7942 16.0921C11.2857 16.0921 10.8696 15.6761 10.8696 15.1675V8.71562C10.8696 8.20707 11.2857 7.79102 11.7942 7.79102C12.3028 7.79102 12.7188 8.20707 12.7188 8.71562V15.1675C12.7188 15.676 12.3028 16.0921 11.7942 16.0921Z" fill="white"/>
<path d="M11.7944 16.6215C10.9926 16.6215 10.3403 15.9693 10.3403 15.1675V8.71566C10.3403 7.91395 10.9926 7.26172 11.7944 7.26172C12.5962 7.26172 13.2484 7.91395 13.2484 8.71566V15.1675C13.2484 15.9693 12.5962 16.6215 11.7944 16.6215ZM11.7944 8.32059C11.5765 8.32059 11.3992 8.49789 11.3992 8.71574V15.1675C11.3992 15.3854 11.5765 15.5627 11.7944 15.5627C12.0122 15.5627 12.1896 15.3854 12.1896 15.1675V8.71566C12.1896 8.49781 12.0122 8.32059 11.7944 8.32059Z" fill="#222222"/>
<path d="M16.1409 16.0921C15.6324 16.0921 15.2163 15.6761 15.2163 15.1675V8.71562C15.2163 8.20707 15.6324 7.79102 16.1409 7.79102C16.6495 7.79102 17.0655 8.20707 17.0655 8.71562V15.1675C17.0654 15.676 16.6494 16.0921 16.1409 16.0921Z" fill="white"/>
<path d="M16.141 16.6215C15.3392 16.6215 14.687 15.9693 14.687 15.1675V8.71566C14.687 7.91395 15.3392 7.26172 16.141 7.26172C16.9428 7.26172 17.5951 7.91395 17.5951 8.71566V15.1675C17.595 15.9693 16.9428 16.6215 16.141 16.6215ZM16.141 8.32059C15.9231 8.32059 15.7458 8.49789 15.7458 8.71574V15.1675C15.7458 15.3854 15.9231 15.5627 16.141 15.5627C16.3589 15.5627 16.5362 15.3854 16.5362 15.1675V8.71566C16.5362 8.49781 16.3589 8.32059 16.141 8.32059Z" fill="#222222"/>
<path d="M4.11785 9.00414H2.27648C1.98414 9.00414 1.74707 8.76711 1.74707 8.47473C1.74707 8.18234 1.98414 7.94531 2.27648 7.94531H4.11785C4.4102 7.94531 4.64727 8.18234 4.64727 8.47473C4.64727 8.76711 4.41023 9.00414 4.11785 9.00414Z" fill="#222222"/>
<path d="M4.11785 15.9397H2.27648C1.98414 15.9397 1.74707 15.7027 1.74707 15.4103C1.74707 15.1179 1.98414 14.8809 2.27648 14.8809H4.11785C4.4102 14.8809 4.64727 15.1179 4.64727 15.4103C4.64727 15.7027 4.41023 15.9397 4.11785 15.9397Z" fill="#222222"/>
<path d="M1.85314 9.825C1.5608 9.825 1.32373 9.58797 1.32373 9.29559V3.63098C1.32373 3.33859 1.5608 3.10156 1.85314 3.10156C2.14549 3.10156 2.38256 3.33859 2.38256 3.63098V9.29559C2.38252 9.58797 2.14545 9.825 1.85314 9.825Z" fill="#222222"/>
<path d="M1.85314 18.5664C1.5608 18.5664 1.32373 18.3294 1.32373 18.037V11.9415C1.32373 11.6491 1.5608 11.4121 1.85314 11.4121C2.14549 11.4121 2.38256 11.6491 2.38256 11.9415V18.037C2.38252 18.3295 2.14545 18.5664 1.85314 18.5664Z" fill="#222222"/>
<path d="M3.17633 1.96289H0.529297V4.82168H3.17633V1.96289Z" fill="white"/>
<path d="M3.17645 5.35117H0.529414C0.23707 5.35117 0 5.11418 0 4.82176V1.96301C0 1.67062 0.23707 1.43359 0.529414 1.43359H3.17645C3.46879 1.43359 3.70586 1.67062 3.70586 1.96301V4.8218C3.70582 5.11418 3.46875 5.35117 3.17645 5.35117ZM1.05883 4.29238H2.64703V2.49238H1.05883V4.29238Z" fill="#222222"/>
</svg>
