<svg width="18" height="18" viewBox="0 0 18 18" fill="none" xmlns="http://www.w3.org/2000/svg">
<path d="M17.8368 8.59574C17.8368 8.59574 12.2112 2.96962 12.2008 2.95977L9.40099 0.15993C9.29102 0.0499609 9.1473 -0.00488281 9.0033 -0.00488281C8.8593 -0.00488281 8.71558 0.0499609 8.60561 0.15993L6.1863 2.81381V1.68909C6.1863 1.3783 5.93458 1.12659 5.6238 1.12659H3.37437C3.06358 1.12659 2.81187 1.3783 2.81187 1.68909V6.18824L0.159116 9.00018C-0.0605399 9.2204 -0.0495712 9.56493 0.170085 9.78431C0.390304 10.0045 0.712054 10.0374 0.932273 9.81721L1.68687 9.00018V16.8738C1.68687 17.4948 2.19058 17.9985 2.81187 17.9985H15.1846C15.8059 17.9985 16.3093 17.4948 16.3093 16.8738V8.65902L17.0504 9.40012C17.2701 9.61977 17.6056 9.60009 17.8258 9.38043C18.0455 9.16049 18.057 8.81568 17.8368 8.59574ZM5.06158 2.25131V3.93852L3.93658 5.06352V2.25131H5.06158ZM10.123 16.8738H7.87352V12.3746H10.123V16.8738ZM15.1846 16.3113C15.1846 16.6221 14.9329 16.8738 14.6221 16.8738H11.248V11.8121C11.248 11.5013 10.9962 11.2496 10.6855 11.2496H7.31102C7.00052 11.2496 6.7488 11.5013 6.7488 11.8121V16.8738H3.37437C3.06358 16.8738 2.81187 16.6221 2.81187 16.3113V7.87546L9.0033 1.35327L15.1846 7.53431V16.3113Z" fill="#231F20"/>
</svg>
