<svg width="24" height="24" viewBox="0 0 24 24" fill="none" xmlns="http://www.w3.org/2000/svg">
<path d="M3.46825 7.78299L11.2725 2.20776C11.4665 2.06912 11.6935 2 11.9206 2C12.1477 2 12.3747 2.06912 12.5687 2.20776L20.3729 7.78299C20.7673 8.06472 20.9345 8.5691 20.7866 9.03071C20.6387 9.49232 20.2095 9.80528 19.7248 9.80528H18.6099V10.4338C18.261 10.1506 17.8875 9.90637 17.495 9.70157V8.69027H19.7248L11.9206 3.11505L4.11637 8.69027H6.34615V18.7257H8.47263C8.67775 19.1182 8.92155 19.4917 9.20475 19.8407H6.34619C5.73039 19.8407 5.2313 19.3416 5.2313 18.7257V9.80532H4.11641C3.63183 9.80532 3.2026 9.49237 3.05466 9.03075C2.90672 8.5691 3.07395 8.06472 3.46825 7.78299Z" fill="white"/>
<g clip-path="url(#clip0_0_17273)">
<path d="M14.4294 17.7965C15.639 17.7965 16.6196 16.8159 16.6196 15.6063C16.6196 14.3966 15.639 13.416 14.4294 13.416C13.2198 13.416 12.2393 14.3966 12.2393 15.6063C12.2393 16.8159 13.2198 17.7965 14.4294 17.7965Z" fill="white"/>
<path fill-rule="evenodd" clip-rule="evenodd" d="M14.4297 20.7173C15.5776 20.7173 16.6371 20.3388 17.4902 19.6998L19.7539 21.9636L20.7863 20.9311L18.5226 18.6673C19.1616 17.8142 19.54 16.7546 19.54 15.6067C19.54 12.7842 17.2521 10.4961 14.4297 10.4961C11.6073 10.4961 9.31934 12.7842 9.31934 15.6067C9.31934 18.4292 11.6073 20.7173 14.4297 20.7173ZM14.4297 19.2571C16.4457 19.2571 18.0799 17.6227 18.0799 15.6067C18.0799 13.5906 16.4457 11.9563 14.4297 11.9563C12.4137 11.9563 10.7794 13.5906 10.7794 15.6067C10.7794 17.6227 12.4137 19.2571 14.4297 19.2571Z" fill="white"/>
</g>
<defs>
<clipPath id="clip0_0_17273">
<rect width="11.6808" height="11.6813" fill="white" transform="translate(9.31934 10.4961)"/>
</clipPath>
</defs>
</svg>
