<svg width="30" height="30" viewBox="0 0 24 24" fill="none" xmlns="http://www.w3.org/2000/svg">
<path d="M11.98 19.0944C11.786 19.0944 11.5937 19.0591 11.403 18.9884C11.2123 18.9184 11.0447 18.8107 10.9 18.6654L9.752 17.6304C7.972 16.0137 6.402 14.4414 5.042 12.9134C3.68067 11.3861 3 9.79839 3 8.15039C3 6.87839 3.432 5.81039 4.296 4.94639C5.16 4.08239 6.228 3.65039 7.5 3.65039C8.22933 3.65039 8.989 3.83472 9.779 4.20339C10.569 4.57206 11.3093 5.26739 12 6.28939C12.6913 5.26739 13.4317 4.57206 14.221 4.20339C15.0103 3.83472 15.77 3.65039 16.5 3.65039C17.772 3.65039 18.84 4.08239 19.704 4.94639C20.568 5.81039 21 6.87839 21 8.15039C21 9.83639 20.2917 11.4571 18.875 13.0124C17.4583 14.5677 15.9077 16.1084 14.223 17.6344L13.081 18.6654C12.9357 18.8107 12.7647 18.9184 12.568 18.9884C12.3713 19.0584 12.1757 19.0937 11.981 19.0944M11.511 7.32739C10.9123 6.36206 10.29 5.67439 9.644 5.26439C8.998 4.85506 8.28333 4.65039 7.5 4.65039C6.5 4.65039 5.66667 4.98372 5 5.65039C4.33333 6.31706 4 7.15039 4 8.15039C4 8.88906 4.209 9.64639 4.627 10.4224C5.045 11.1991 5.60633 11.9944 6.311 12.8084C7.015 13.6217 7.82467 14.4544 8.74 15.3064C9.654 16.1577 10.606 17.0341 11.596 17.9354C11.7113 18.0381 11.846 18.0894 12 18.0894C12.154 18.0894 12.2887 18.0381 12.404 17.9354C13.394 17.0341 14.3463 16.1574 15.261 15.3054C16.1757 14.4547 16.9853 13.6224 17.69 12.8084C18.394 11.9937 18.955 11.1984 19.373 10.4224C19.791 9.64639 20 8.88906 20 8.15039C20 7.15039 19.6667 6.31706 19 5.65039C18.3333 4.98372 17.5 4.65039 16.5 4.65039C15.7167 4.65039 15.002 4.85539 14.356 5.26539C13.7093 5.67472 13.087 6.36206 12.489 7.32739C12.4357 7.41739 12.3643 7.48472 12.275 7.52939C12.1857 7.57406 12.094 7.59639 12 7.59639C11.906 7.59639 11.8143 7.57406 11.725 7.52939C11.6357 7.48472 11.5647 7.41739 11.512 7.32739" fill="black"/>
</svg>
