<svg width="21" height="21" viewBox="0 0 21 21" fill="none" xmlns="http://www.w3.org/2000/svg">
<path d="M10.0835 1.16602C8.31988 1.16602 6.59588 1.68899 5.12948 2.6688C3.66309 3.64861 2.52018 5.04125 1.84527 6.67062C1.17037 8.29999 0.993781 10.0929 1.33785 11.8226C1.68191 13.5524 2.53117 15.1412 3.77823 16.3883C5.0253 17.6353 6.61415 18.4846 8.34388 18.8287C10.0736 19.1727 11.8665 18.9961 13.4959 18.3212C15.1252 17.6463 16.5179 16.5034 17.4977 15.037C18.4775 13.5706 19.0005 11.8466 19.0005 10.083C19.0005 7.71807 18.061 5.45 16.3888 3.77774C14.7165 2.10548 12.4484 1.16602 10.0835 1.16602ZM10.0835 17.8854C8.54034 17.8854 7.03183 17.4278 5.74874 16.5704C4.46564 15.7131 3.46559 14.4945 2.87505 13.0688C2.28451 11.6431 2.13 10.0744 2.43105 8.56084C2.73211 7.04733 3.47521 5.65708 4.56639 4.5659C5.65757 3.47472 7.04782 2.73162 8.56133 2.43056C10.0748 2.1295 11.6436 2.28402 13.0693 2.87456C14.495 3.4651 15.7136 4.46515 16.5709 5.74824C17.4283 7.03134 17.8859 8.53984 17.8859 10.083C17.8859 12.1523 17.0638 14.1369 15.6006 15.6001C14.1374 17.0633 12.1528 17.8854 10.0835 17.8854Z" fill="#222222"/>
<path d="M10.2456 5.024C9.64163 5.01402 9.04291 5.13717 8.49195 5.38472C7.941 5.63227 7.45132 5.99812 7.05773 6.45629C7.00305 6.50697 6.9591 6.5681 6.92846 6.63606C6.89783 6.70403 6.88114 6.77745 6.87939 6.85198C6.87936 6.92074 6.89315 6.98881 6.91996 7.05213C6.94677 7.11546 6.98603 7.17274 7.03543 7.22058C7.08483 7.26841 7.14334 7.30582 7.20749 7.33059C7.27164 7.35535 7.34011 7.36695 7.40884 7.36471C7.55607 7.36106 7.69685 7.30356 7.80453 7.20309C8.1024 6.85403 8.47234 6.57365 8.88892 6.38124C9.3055 6.18882 9.75882 6.08894 10.2177 6.08846C11.5329 6.08846 12.3522 6.93558 12.3522 7.9889V8.01676C12.3522 9.24842 11.3713 9.93392 9.822 10.051C9.75927 10.0534 9.69775 10.069 9.64148 10.0969C9.58521 10.1247 9.53545 10.1641 9.49547 10.2125C9.45548 10.2609 9.42617 10.3172 9.40945 10.3777C9.39273 10.4383 9.38898 10.5016 9.39844 10.5637C9.39844 10.5637 9.39844 11.8566 9.39844 12.0963C9.41231 12.2342 9.47709 12.3621 9.58014 12.4548C9.68319 12.5476 9.81712 12.5986 9.95576 12.5979H10.0171C10.155 12.584 10.2828 12.5192 10.3756 12.4162C10.4683 12.3131 10.5193 12.1792 10.5186 12.0406V10.8925C12.1906 10.6584 13.5448 9.77787 13.5448 7.94989V7.92202C13.5281 6.25009 12.224 5.024 10.2456 5.024Z" fill="#222222"/>
<path d="M9.96129 15.3503C10.346 15.3503 10.6579 15.0384 10.6579 14.6537C10.6579 14.2689 10.346 13.957 9.96129 13.957C9.57654 13.957 9.26465 14.2689 9.26465 14.6537C9.26465 15.0384 9.57654 15.3503 9.96129 15.3503Z" fill="#222222"/>
</svg>
