<svg width="18" height="18" viewBox="0 0 18 18" fill="none" xmlns="http://www.w3.org/2000/svg">
<g clip-path="url(#clip0_5032_2878)">
<path d="M9 1C7.41775 1 5.87103 1.46919 4.55544 2.34824C3.23985 3.22729 2.21447 4.47672 1.60897 5.93853C1.00347 7.40034 0.84504 9.00887 1.15372 10.5607C1.4624 12.1126 2.22433 13.538 3.34315 14.6569C4.46197 15.7757 5.88743 16.5376 7.43928 16.8463C8.99113 17.155 10.5997 16.9965 12.0615 16.391C13.5233 15.7855 14.7727 14.7602 15.6518 13.4446C16.5308 12.129 17 10.5823 17 9C17 6.87827 16.1571 4.84344 14.6569 3.34315C13.1566 1.84285 11.1217 1 9 1ZM9 16C7.61553 16 6.26216 15.5895 5.11101 14.8203C3.95987 14.0511 3.06266 12.9579 2.53285 11.6788C2.00303 10.3997 1.86441 8.99224 2.13451 7.63437C2.4046 6.2765 3.07129 5.02922 4.05026 4.05025C5.02922 3.07128 6.2765 2.4046 7.63437 2.1345C8.99224 1.86441 10.3997 2.00303 11.6788 2.53284C12.9579 3.06266 14.0511 3.95986 14.8203 5.11101C15.5895 6.26215 16 7.61553 16 9C16 10.8565 15.2625 12.637 13.9498 13.9497C12.637 15.2625 10.8565 16 9 16Z" fill="#555555"/>
<path d="M9.145 4.46046C8.60318 4.45151 8.06603 4.562 7.57173 4.78409C7.07743 5.00618 6.63811 5.33441 6.285 5.74546C6.23594 5.79093 6.1965 5.84577 6.16902 5.90675C6.14154 5.96773 6.12657 6.0336 6.125 6.10046C6.12497 6.16216 6.13734 6.22322 6.16139 6.28003C6.18544 6.33684 6.22067 6.38824 6.26499 6.43115C6.30931 6.47407 6.3618 6.50764 6.41936 6.52985C6.47691 6.55207 6.53834 6.56248 6.6 6.56046C6.73209 6.55719 6.85839 6.5056 6.955 6.41546C7.22223 6.10231 7.55414 5.85076 7.92788 5.67813C8.30162 5.5055 8.70832 5.41589 9.12 5.41546C10.3 5.41546 11.035 6.17546 11.035 7.12046V7.14546C11.035 8.25046 10.155 8.86547 8.765 8.97047C8.70872 8.97264 8.65353 8.98667 8.60304 9.01165C8.55256 9.03663 8.50792 9.07199 8.47204 9.11542C8.43617 9.15884 8.40987 9.20935 8.39487 9.26364C8.37987 9.31793 8.37651 9.37478 8.385 9.43047C8.385 9.43047 8.385 10.5905 8.385 10.8055C8.39744 10.9292 8.45556 11.0439 8.54801 11.1271C8.64047 11.2103 8.76062 11.2561 8.885 11.2555H8.94C9.06376 11.243 9.17844 11.1849 9.26165 11.0925C9.34486 11 9.39062 10.8798 9.39 10.7555V9.72547C10.89 9.51547 12.105 8.72546 12.105 7.08546V7.06046C12.09 5.56046 10.92 4.46046 9.145 4.46046Z" fill="#555555"/>
<path d="M8.88989 13.7246C9.23507 13.7246 9.51489 13.4448 9.51489 13.0996C9.51489 12.7544 9.23507 12.4746 8.88989 12.4746C8.54471 12.4746 8.26489 12.7544 8.26489 13.0996C8.26489 13.4448 8.54471 13.7246 8.88989 13.7246Z" fill="#555555"/>
</g>
<defs>
<clipPath id="clip0_5032_2878">
<rect width="18" height="18" fill="white"/>
</clipPath>
</defs>
</svg>
