<svg width="24" height="24" viewBox="0 0 24 24" fill="none" xmlns="http://www.w3.org/2000/svg">
<g clip-path="url(#clip0_0_17269)">
<g clip-path="url(#clip1_0_17269)">
<path d="M12.7099 3.45371L19.693 9.71275C19.952 9.96644 20.1 10.3289 20.1 10.7093V21.3314C20.1 21.7006 19.8266 22 19.4893 22H13.9929V14.6451C13.9929 14.3168 13.7768 14.0438 13.4919 13.9872L13.3821 13.9764H9.71786C9.38057 13.9764 9.10714 14.2758 9.10714 14.6451V22H3.61071C3.27343 22 3 21.7006 3 21.3314V10.698C3 10.3175 3.14802 9.95506 3.42775 9.68193L10.39 3.45268C11.065 2.84872 12.0353 2.84915 12.7099 3.45371Z" fill="white"/>
</g>
</g>
<defs>
<clipPath id="clip0_0_17269">
<rect width="24" height="24" fill="white"/>
</clipPath>
<clipPath id="clip1_0_17269">
<rect width="24" height="24" fill="white" transform="translate(-0.00195312 0.0175781)"/>
</clipPath>
</defs>
</svg>
