<svg width="22" height="23" viewBox="0 0 22 23" fill="none" xmlns="http://www.w3.org/2000/svg">
<path d="M19.2502 3.6875H11.0002C10.4939 3.6875 10.0835 4.09791 10.0835 4.60417V6.4375H19.2502V3.6875Z" fill="#222222"/>
<path d="M8.11505 14.315C8.54217 14.1203 9.58611 14.315 9.58611 14.315L12.6231 14.9965C12.6231 14.9965 13.3824 15.2398 14.0942 15.2398C14.806 15.2398 14.3805 16.2139 13.9044 16.554C13.4283 16.8941 13.0819 16.8757 13.0819 16.8757L10.6301 16.8461C10.6301 16.8461 12.7655 17.2355 13.5722 17.2841C13.9809 17.3088 14.6818 17.0212 15.4652 16.6997C16.2283 16.3866 17.0697 16.0414 17.7956 15.9213C19.2666 15.6779 19.5039 16.9921 19.0293 17.4788C18.5548 17.9655 14.7585 19.8151 14.0942 20.0585C13.5739 20.2491 12.9446 20.1858 12.2345 20.1144C12.0379 20.0947 11.835 20.0743 11.6266 20.0585C10.7974 19.9956 10.1637 19.7942 9.53634 19.5947C8.86392 19.381 8.19892 19.1696 7.30833 19.1337C7.00959 19.1216 6.31022 19.1586 5.9585 19.1792V15.1181C6.5662 14.9019 7.79701 14.46 8.11505 14.315Z" fill="#222222"/>
<path d="M3.20833 14.2285C2.9552 14.2285 2.75 14.4337 2.75 14.6868V19.7264C2.75 19.9795 2.9552 20.1847 3.20833 20.1847H4.58333C4.83647 20.1847 5.04167 19.9795 5.04167 19.7264V14.6868C5.04167 14.4337 4.83647 14.2285 4.58333 14.2285H3.20833Z" fill="#222222"/>
<path d="M10.5418 7.35352C10.2887 7.35352 10.0835 7.55871 10.0835 7.81185C10.0835 8.06499 10.2887 8.27018 10.5418 8.27018H13.2918C13.545 8.27018 13.7502 8.06499 13.7502 7.81185C13.7502 7.55871 13.545 7.35352 13.2918 7.35352H10.5418Z" fill="#222222"/>
<path d="M11.9168 9.26562C12.17 9.26562 12.3752 9.47082 12.3752 9.72396V10.6406C12.3752 10.8938 12.17 11.099 11.9168 11.099C11.6637 11.099 11.4585 10.8938 11.4585 10.6406V9.72396C11.4585 9.47082 11.6637 9.26562 11.9168 9.26562Z" fill="#222222"/>
<path d="M13.8054 9.32173C13.6264 9.14276 13.3362 9.14276 13.1572 9.32173C12.9782 9.50071 12.9782 9.79093 13.1572 9.96991L13.8054 10.6181C13.9843 10.7971 14.2746 10.7971 14.4535 10.6181C14.6325 10.4391 14.6325 10.1489 14.4535 9.96991L13.8054 9.32173Z" fill="#222222"/>
<path d="M9.30074 10.6962C9.12176 10.5172 9.12176 10.227 9.30074 10.048L9.94891 9.39986C10.1279 9.22088 10.4181 9.22088 10.5971 9.39986C10.7761 9.57884 10.7761 9.86906 10.5971 10.048L9.94891 10.6962C9.76993 10.8752 9.47972 10.8752 9.30074 10.6962Z" fill="#222222"/>
<path d="M12.3752 12.0169C12.3752 11.7638 12.17 11.5586 11.9168 11.5586C11.6637 11.5586 11.4585 11.7638 11.4585 12.0169V12.9336C11.4585 13.1867 11.6637 13.3919 11.9168 13.3919C12.17 13.3919 12.3752 13.1867 12.3752 12.9336V12.0169Z" fill="#222222"/>
<path d="M14.7617 10.9252C14.9407 10.7463 15.2309 10.7463 15.4099 10.9252L16.058 11.5734C16.237 11.7524 16.237 12.0426 16.058 12.2216C15.879 12.4006 15.5888 12.4006 15.4099 12.2216L14.7617 11.5734C14.5827 11.3944 14.5827 11.1042 14.7617 10.9252Z" fill="#222222"/>
<path d="M7.69673 11.5383C7.51776 11.7172 7.51776 12.0075 7.69673 12.1864C7.87571 12.3654 8.16593 12.3654 8.34491 12.1864L8.99308 11.5383C9.17211 11.3593 9.17211 11.0691 8.99308 10.8901C8.81411 10.7111 8.52393 10.7111 8.34491 10.8901L7.69673 11.5383Z" fill="#222222"/>
</svg>
