<svg width="18" height="18" viewBox="0 0 18 18" fill="none" xmlns="http://www.w3.org/2000/svg">
<path d="M9 15.7501C12.9375 13.0895 16.875 10.1251 16.875 6.18758C16.8765 5.67009 16.7757 5.1574 16.5783 4.67901C16.381 4.20062 16.091 3.76597 15.725 3.40004C15.3591 3.03411 14.9245 2.74414 14.4461 2.54678C13.9677 2.34943 13.455 2.2486 12.9375 2.25008C11.925 2.25008 10.9238 2.63259 10.1531 3.40321L9 4.55634L7.84688 3.40321C7.482 3.03619 7.04816 2.74493 6.57031 2.54618C6.09246 2.34743 5.58004 2.24512 5.0625 2.24512C4.54497 2.24512 4.03254 2.34743 3.5547 2.54618C3.07685 2.74493 2.64301 3.03619 2.27813 3.40321C1.91201 3.7685 1.62166 4.20252 1.42378 4.68035C1.22589 5.15818 1.12435 5.6704 1.125 6.18758C1.125 10.1251 5.0625 13.0895 9 15.7501Z" stroke="#222222"/>
</svg>
