<svg width="175" height="88" viewBox="0 0 175 88" fill="none" xmlns="http://www.w3.org/2000/svg">
<path d="M171 84.0497L91.4234 5.46109C89.1791 3.24474 85.5699 3.24474 83.3256 5.46109L3.74854 84.0497" stroke="#747F96" stroke-width="7" stroke-miterlimit="10" stroke-linecap="round"/>
<path d="M144.052 57.4369V22.9004" stroke="#747F96" stroke-width="7" stroke-miterlimit="10" stroke-linecap="round"/>
<path d="M84.2719 59.4773H74.7479C73.9113 59.4773 73.2332 58.7992 73.2332 57.9626V48.4386C73.2332 47.6019 73.9113 46.9238 74.7479 46.9238H84.2719C85.1086 46.9238 85.7867 47.6019 85.7867 48.4386V57.9626C85.7867 58.799 85.1086 59.4773 84.2719 59.4773Z" fill="#747F96"/>
<path d="M100.001 59.4773H90.4767C89.64 59.4773 88.9619 58.7992 88.9619 57.9626V48.4386C88.9619 47.6019 89.64 46.9238 90.4767 46.9238H100.001C100.837 46.9238 101.515 47.6019 101.515 48.4386V57.9626C101.515 58.799 100.837 59.4773 100.001 59.4773Z" fill="#747F96"/>
<path d="M100.001 75.2059H90.4767C89.64 75.2059 88.9619 74.5278 88.9619 73.6911V64.1671C88.9619 63.3304 89.64 62.6523 90.4767 62.6523H100.001C100.837 62.6523 101.515 63.3304 101.515 64.1671V73.6911C101.515 74.5275 100.837 75.2059 100.001 75.2059Z" fill="#747F96"/>
<path d="M84.2719 75.2059H74.7479C73.9113 75.2059 73.2332 74.5278 73.2332 73.6911V64.1671C73.2332 63.3304 73.9113 62.6523 74.7479 62.6523H84.2719C85.1086 62.6523 85.7867 63.3304 85.7867 64.1671V73.6911C85.7867 74.5275 85.1086 75.2059 84.2719 75.2059Z" fill="#747F96"/>
</svg>
