<svg width="24" height="24" viewBox="0 0 24 24" fill="none" xmlns="http://www.w3.org/2000/svg">
<path d="M3.46695 7.78295L11.2722 2.20776C11.4662 2.06912 11.6933 2 11.9204 2C12.1475 2 12.3746 2.06912 12.5686 2.20776L20.3739 7.78295C20.7682 8.06467 20.9355 8.56905 20.7876 9.03065C20.6396 9.49226 20.2104 9.80521 19.7257 9.80521H18.6106V10.4337C18.2616 10.1505 17.8881 9.90631 17.4956 9.7015V8.69022H19.7257L11.9204 3.11504L4.11515 8.69022H6.34522V18.7255H8.47198C8.67713 19.118 8.92096 19.4916 9.2042 19.8406H6.34527C5.72938 19.8406 5.23023 19.3414 5.23023 18.7255V9.80526H4.11519C3.63054 9.80526 3.20126 9.49231 3.0533 9.0307C2.90533 8.56905 3.07259 8.06467 3.46695 7.78295Z" fill="#E8E8E8"/>
<path d="M17.8897 19.1948L21.0003 22.177M14.7281 20.4006C15.2989 20.4006 15.8642 20.2863 16.3917 20.0641C16.9191 19.8419 17.3983 19.5162 17.802 19.1056C18.2057 18.695 18.5259 18.2076 18.7443 17.6712C18.9628 17.1347 19.0753 16.5598 19.0753 15.9791C19.0753 15.3985 18.9628 14.8235 18.7443 14.2871C18.5259 13.7506 18.2057 13.2632 17.802 12.8526C17.3983 12.4421 16.9191 12.1164 16.3917 11.8942C15.8642 11.672 15.2989 11.5576 14.7281 11.5576C13.5751 11.5576 12.4694 12.0235 11.6541 12.8526C10.8389 13.6818 10.3809 14.8065 10.3809 15.9791C10.3809 17.1518 10.8389 18.2764 11.6541 19.1056C12.4694 19.9348 13.5751 20.4006 14.7281 20.4006Z" stroke="#E8E8E8"/>
</svg>
