<svg width="18" height="19" viewBox="0 0 18 19" fill="none" xmlns="http://www.w3.org/2000/svg">
<path d="M17.4375 4.125V5.25H16.875V18.1875H13.5V8.0625H4.5V18.1875H1.125V5.25H0.5625V4.125H17.4375ZM8.79187 9.1875L9.33187 9.58125C11.1994 10.9425 12.2231 12.4275 12.3581 14.0419L12.3694 14.1994V14.3175L12.375 14.3962C12.375 16.185 10.8562 17.625 9 17.625C8.15865 17.641 7.34264 17.3367 6.71711 16.7739C6.09157 16.211 5.70321 15.4315 5.63063 14.5931V14.475L5.625 14.3906C5.6564 13.3858 5.97668 12.4113 6.5475 11.5837L6.67125 11.3925L7.05375 10.8413L7.75125 11.2856L8.79187 9.1875ZM15.75 5.25H2.25V17.0625H3.375V8.0625C3.37465 7.79312 3.47096 7.53255 3.64644 7.32817C3.82192 7.12379 4.06492 6.98916 4.33125 6.94875L4.41562 6.94313L4.5 6.9375H13.5C13.7843 6.9367 14.0584 7.04357 14.2671 7.23663C14.4758 7.42969 14.6037 7.69462 14.625 7.97813V17.0625H15.75V5.25ZM9 15.015L8.94375 15.0656C8.60062 15.4313 8.4375 15.7575 8.4375 16.0331C8.4375 16.2694 8.66813 16.5 9 16.5C9.33187 16.5 9.5625 16.275 9.5625 16.0331C9.5625 15.78 9.4275 15.4875 9.135 15.1556L9 15V15.015ZM9.19688 10.8975L8.20125 12.9L7.38 12.3769L7.29563 12.5288C7.0172 13.0036 6.83737 13.5297 6.76687 14.0756L6.75563 14.2387L6.75 14.385V14.4525C6.76687 14.97 6.975 15.4425 7.32937 15.8025C7.40812 15.1613 7.81312 14.5425 8.51062 13.9294L8.64 13.8169L9 13.5188L9.36 13.8169C10.1362 14.4694 10.5919 15.1219 10.6706 15.8025C11.0096 15.4595 11.2151 15.0067 11.25 14.5256L11.2556 14.4019V14.25C11.1994 13.2037 10.6256 12.1687 9.495 11.1562L9.34313 11.0212L9.19688 10.8975ZM17.4375 1.875V3H0.5625V1.875H17.4375Z" fill="#222222"/>
</svg>
