<svg width="24" height="24" viewBox="0 0 24 24" fill="none" xmlns="http://www.w3.org/2000/svg">
<g clip-path="url(#clip0_7880_2972)">
<path d="M11.9915 18.9986H5.65014C5.56627 19.0046 5.48198 18.998 5.40009 18.9789C5.27576 18.9452 5.16767 18.868 5.09553 18.7613C5.0234 18.6546 4.99202 18.5255 5.00712 18.3976C5.02223 18.2697 5.08281 18.1515 5.17781 18.0645C5.27282 17.9775 5.39592 17.9276 5.52467 17.9238C5.67623 17.9184 5.82779 17.918 5.9789 17.9238C6.06031 17.927 6.09179 17.9022 6.081 17.8209C6.07852 17.7818 6.07852 17.7426 6.081 17.7035V5.65658C6.07965 5.19562 6.27214 5 6.72907 5H12.971C13.4172 5 13.6164 5.19967 13.6164 5.64579C13.6164 6.0919 13.6214 6.54521 13.6137 6.99178C13.6115 7.11905 13.6394 7.15772 13.7747 7.15727C14.9301 7.15097 16.0855 7.16626 17.2409 7.14738C17.6771 7.14018 17.9321 7.38213 17.9303 7.84533C17.9186 11.1431 17.9254 14.4408 17.92 17.739C17.92 17.8955 17.9623 17.9405 18.1116 17.9252C18.2346 17.9162 18.3582 17.9162 18.4813 17.9252C18.6198 17.9302 18.7511 17.9886 18.8475 18.0881C18.944 18.1877 18.9983 18.3207 18.9989 18.4593C18.9995 18.5979 18.9465 18.7314 18.851 18.8319C18.7554 18.9323 18.6247 18.9919 18.4862 18.9982C18.3351 19.0054 18.1835 18.9982 18.032 18.9982L11.9915 18.9986Z" fill="#222222"/>
<path d="M7.15523 11.982C7.15523 10.0698 7.15403 8.15751 7.15163 6.24504C7.15163 6.10518 7.18401 6.0728 7.32388 6.07325C9.00621 6.07864 10.6887 6.07864 12.3713 6.07325C12.5116 6.07325 12.5431 6.10698 12.5431 6.24594C12.5386 9.56032 12.5376 12.8747 12.54 16.1891C12.5364 16.2619 12.5394 16.3349 12.549 16.4072C12.5763 16.5342 12.6486 16.647 12.7525 16.725C12.8564 16.803 12.9849 16.841 13.1145 16.8318C13.2441 16.8227 13.366 16.7671 13.4579 16.6753C13.5499 16.5835 13.6056 16.4617 13.6149 16.3321C13.6185 16.2759 13.6149 16.2197 13.6149 16.1639C13.6149 13.5783 13.6137 10.993 13.6113 8.4077C13.6113 8.2602 13.6445 8.22782 13.7912 8.22782C14.7613 8.23546 15.7318 8.23411 16.7019 8.22782C16.8206 8.22782 16.8476 8.25705 16.8476 8.37443C16.844 11.5095 16.844 14.6445 16.8476 17.7793C16.8476 17.898 16.8184 17.925 16.701 17.925C15.0019 17.9205 13.3024 17.9205 11.6027 17.925C11.4835 17.925 11.4557 17.8948 11.4575 17.7779C11.4646 17.3071 11.4615 16.8358 11.4602 16.3649C11.4602 15.9872 11.2425 15.769 10.8665 15.7686C10.1823 15.7686 9.49808 15.7686 8.81387 15.7686C8.44823 15.7686 8.22921 15.9885 8.22921 16.3568C8.22921 16.8335 8.22516 17.3102 8.22921 17.7869C8.22921 17.8957 8.20312 17.9281 8.09429 17.9245C7.83119 17.916 7.56674 17.9142 7.30364 17.9245C7.17726 17.9295 7.14848 17.8948 7.14893 17.7694C7.15553 15.8404 7.15763 13.9113 7.15523 11.982Z" fill="#FEFEFE"/>
<path d="M9.83087 17.9142C9.65997 17.9052 9.4306 17.9983 9.33345 17.8881C9.24935 17.7919 9.30557 17.5679 9.31052 17.4006C9.31591 17.2181 9.23001 16.9734 9.3447 16.8709C9.44499 16.7809 9.6856 16.8426 9.86415 16.8466C10.0355 16.8507 10.2649 16.7719 10.3589 16.8794C10.4434 16.9739 10.3867 17.1992 10.3822 17.3665C10.3769 17.5491 10.4623 17.7946 10.3481 17.8958C10.2505 17.9848 10.0094 17.9142 9.83087 17.9142Z" fill="#FEFEFE"/>
<path d="M8.77036 8.22261C8.59721 8.22261 8.3656 8.29052 8.2671 8.20462C8.15647 8.10614 8.23787 7.86824 8.23382 7.6915C8.22977 7.51476 8.16996 7.28676 8.25721 7.18827C8.3566 7.07764 8.59361 7.15904 8.77081 7.15454C8.94801 7.15005 9.17558 7.09113 9.27407 7.17838C9.38471 7.27777 9.30331 7.51476 9.30735 7.6915C9.3114 7.86824 9.37077 8.09624 9.28397 8.19518C9.18278 8.30941 8.94711 8.21047 8.77036 8.22261Z" fill="#222222"/>
<path d="M10.9159 8.23063C10.7701 8.23063 10.6244 8.22703 10.4787 8.23063C10.4054 8.23332 10.3829 8.21084 10.3838 8.13664C10.388 7.83953 10.388 7.54242 10.3838 7.24531C10.3838 7.172 10.4036 7.14952 10.4778 7.15042C10.7746 7.15431 11.0718 7.15431 11.3692 7.15042C11.4425 7.15042 11.4645 7.1702 11.4636 7.24486C11.4594 7.54167 11.4594 7.83878 11.4636 8.13619C11.4636 8.20949 11.4443 8.23332 11.3696 8.23063C11.219 8.22703 11.0674 8.23063 10.9159 8.23063Z" fill="#222222"/>
<path d="M8.2383 9.82972C8.24685 9.65838 8.1542 9.42902 8.26439 9.33234C8.35973 9.24824 8.58416 9.30445 8.75146 9.30895C8.93405 9.31435 9.17871 9.2289 9.28125 9.34268C9.3712 9.44296 9.30959 9.68356 9.30554 9.8621C9.30194 10.0334 9.38065 10.2628 9.27271 10.3595C9.17916 10.444 8.95339 10.3874 8.78609 10.3829C8.60349 10.3775 8.35838 10.4629 8.25674 10.3487C8.16949 10.2493 8.2383 10.0083 8.2383 9.82972Z" fill="#222222"/>
<path d="M11.4547 9.862C11.4462 10.0333 11.5388 10.2627 11.4287 10.3594C11.3333 10.4435 11.1089 10.3873 10.9416 10.3828C10.759 10.3774 10.5143 10.4628 10.4118 10.349C10.3218 10.2488 10.3835 10.0082 10.3871 9.82962C10.3911 9.65828 10.3124 9.42893 10.4199 9.33224C10.5139 9.2477 10.7397 9.30436 10.907 9.30886C11.0896 9.31425 11.3347 9.22881 11.4363 9.34303C11.5249 9.44242 11.4547 9.68347 11.4547 9.862Z" fill="#222222"/>
<path d="M15.2476 9.31763C15.4189 9.32573 15.6478 9.23354 15.745 9.34327C15.8295 9.43815 15.7733 9.66301 15.7688 9.82985C15.7639 10.0124 15.8489 10.2571 15.7351 10.3601C15.6357 10.45 15.3946 10.3884 15.2161 10.3848C15.0447 10.3812 14.8154 10.4595 14.7187 10.3524C14.6341 10.2589 14.6903 10.0327 14.6948 9.86583C14.6998 9.68325 14.6148 9.4377 14.7286 9.33607C14.8275 9.24568 15.069 9.31763 15.2476 9.31763Z" fill="#222222"/>
<path d="M9.30911 12.0081C9.30911 12.1538 9.30506 12.2995 9.30911 12.4452C9.31225 12.5199 9.28752 12.5401 9.21421 12.5392C8.91738 12.535 8.62025 12.535 8.32282 12.5392C8.24862 12.5392 8.22838 12.5172 8.22928 12.4443C8.23287 12.1472 8.23287 11.8501 8.22928 11.553C8.22928 11.4784 8.25086 11.4581 8.32372 11.459C8.62085 11.4629 8.91798 11.4629 9.21511 11.459C9.28977 11.459 9.3118 11.4806 9.30911 11.5539C9.30551 11.705 9.30911 11.8566 9.30911 12.0081Z" fill="#222222"/>
<path d="M10.9367 12.5378C10.7905 12.5378 10.6448 12.5347 10.4991 12.5378C10.4204 12.5401 10.3794 12.5306 10.3817 12.4321C10.3893 12.1407 10.3875 11.8475 10.3817 11.5579C10.3817 11.472 10.4118 11.4571 10.4878 11.458C10.7793 11.4621 11.0725 11.463 11.3626 11.458C11.448 11.458 11.4629 11.4882 11.462 11.5646C11.4579 11.856 11.457 12.1493 11.462 12.4389C11.462 12.5248 11.4318 12.5414 11.3554 12.5383C11.2182 12.5342 11.0779 12.5378 10.9367 12.5378Z" fill="#222222"/>
<path d="M15.2476 11.4691C15.4189 11.4772 15.6478 11.385 15.745 11.4943C15.8295 11.5896 15.7733 11.814 15.7688 11.9813C15.7639 12.1639 15.8489 12.4086 15.7351 12.5111C15.6357 12.601 15.3946 12.5399 15.2161 12.5363C15.0447 12.5327 14.8154 12.6109 14.7187 12.5039C14.6341 12.4104 14.6903 12.1841 14.6948 12.0173C14.6998 11.8343 14.6148 11.5892 14.7286 11.4875C14.8275 11.399 15.069 11.4691 15.2476 11.4691Z" fill="#222222"/>
<path d="M9.30107 14.1689C9.29252 14.3398 9.38517 14.5691 9.27498 14.6663C9.17964 14.7503 8.95522 14.6941 8.78791 14.6896C8.60532 14.6842 8.36066 14.7697 8.25812 14.6555C8.16817 14.5556 8.22978 14.3146 8.23338 14.1365C8.23698 13.9584 8.15872 13.7353 8.26621 13.6391C8.36021 13.5546 8.58598 13.6112 8.75328 13.6157C8.93588 13.6207 9.18099 13.5357 9.28263 13.6495C9.37123 13.7493 9.30107 13.9903 9.30107 14.1689Z" fill="#222222"/>
<path d="M10.3938 14.1365C10.4019 13.9651 10.3097 13.7362 10.4194 13.6391C10.5148 13.555 10.7397 13.6112 10.9065 13.6157C11.0891 13.6207 11.3338 13.5357 11.4363 13.6495C11.5263 13.7493 11.4651 13.9903 11.461 14.1689C11.4574 14.3402 11.5357 14.5696 11.4287 14.6658C11.3347 14.7503 11.1089 14.6941 10.9416 14.6896C10.759 14.6842 10.5139 14.7697 10.4122 14.6555C10.3236 14.5561 10.3938 14.315 10.3938 14.1365Z" fill="#222222"/>
<path d="M14.7014 14.1369C14.7095 13.9656 14.6173 13.7362 14.7271 13.6391C14.822 13.555 15.0468 13.6112 15.2137 13.6157C15.3967 13.6207 15.6409 13.5357 15.7439 13.6495C15.8339 13.7488 15.7723 13.9899 15.7687 14.1684C15.7651 14.3398 15.8433 14.5691 15.7363 14.6658C15.6427 14.7503 15.4165 14.6941 15.2497 14.6896C15.0671 14.6847 14.8215 14.7692 14.7199 14.6559C14.6313 14.557 14.7014 14.3155 14.7014 14.1369Z" fill="#222222"/>
<path d="M15.2321 15.7758C15.4053 15.7758 15.6391 15.7075 15.7354 15.7938C15.8456 15.8923 15.7646 16.1297 15.7687 16.3069C15.7727 16.4841 15.8321 16.7117 15.7448 16.8097C15.6454 16.9203 15.4084 16.8389 15.2312 16.8434C15.054 16.8479 14.8265 16.9064 14.728 16.8191C14.6178 16.7198 14.6992 16.4828 14.6947 16.3056C14.6902 16.1284 14.6317 15.9008 14.7185 15.8028C14.8184 15.6917 15.0554 15.7821 15.2321 15.7758Z" fill="#222222"/>
</g>
<defs>
<clipPath id="clip0_7880_2972">
<rect width="14" height="14" fill="white" transform="translate(5 5)"/>
</clipPath>
</defs>
</svg>
