<svg width="24" height="24" viewBox="0 0 24 24" fill="none" xmlns="http://www.w3.org/2000/svg">
<g clip-path="url(#clip0_7846_2711)">
<path d="M4.81109 8.58813C4.45124 8.70683 4.11144 8.81788 3.77369 8.92791C3.5146 9.01094 3.41179 8.96 3.3244 8.70784C3.22878 8.43327 3.13573 8.1587 3.04269 7.88362C2.94964 7.60854 3.00053 7.50207 3.27659 7.41089C4.53709 6.99215 5.79776 6.57461 7.0586 6.15825L16.3987 3.05492C16.7334 2.94387 16.8203 2.98615 16.9339 3.32185C17.0233 3.58471 17.1138 3.84756 17.2002 4.11093C17.2783 4.3473 17.2202 4.46395 16.9801 4.54648C16.7036 4.64123 16.4265 4.73445 16.1463 4.82003C16.0435 4.85212 15.9967 4.89542 15.9972 5.01462C16.0013 7.08996 16.0013 9.1653 15.9972 11.2406C15.9972 11.3975 16.0579 11.4103 16.1874 11.4098C17.9815 11.4067 19.7758 11.4067 21.5703 11.4098C21.9394 11.4098 22.001 11.4719 22.001 11.8412V20.5893C22.001 20.9332 21.9342 20.9999 21.5898 20.9999H5.21103C4.87894 20.9999 4.81057 20.9316 4.81057 20.5975V8.58813H4.81109Z" fill="#222222"/>
<path d="M15.4614 5.05762V5.51914C15.4614 7.41771 15.4614 9.31628 15.465 11.2143C15.465 11.3723 15.4275 11.4298 15.2666 11.4094C15.1057 11.3891 14.8867 11.4777 14.7926 11.3712C14.7119 11.2801 14.7633 11.0707 14.7633 10.9128C14.7633 9.87494 14.7633 8.83727 14.7633 7.79977C14.7633 7.51654 14.6847 7.43707 14.4035 7.43707C13.6111 7.43707 12.8191 7.43707 12.0275 7.43707C11.7704 7.43707 11.6861 7.51909 11.6861 7.77787C11.6861 8.92353 11.682 10.0702 11.6892 11.2138C11.6892 11.3738 11.644 11.4258 11.4877 11.4089C11.3728 11.4015 11.2576 11.4015 11.1427 11.4089C10.8991 11.4145 10.8117 11.5027 10.8117 11.7467C10.8117 12.8674 10.8117 13.9881 10.8117 15.1088C10.8117 16.8296 10.8086 18.5509 10.8168 20.2722C10.8168 20.4454 10.768 20.4759 10.6071 20.4729C8.91476 20.4668 7.22245 20.4668 5.53013 20.4729C5.39236 20.4729 5.34763 20.4484 5.34815 20.3002C5.35295 16.3896 5.35295 12.4789 5.34815 8.56796C5.34815 8.46608 5.36049 8.39986 5.48026 8.36012C8.75797 7.27678 12.0348 6.19004 15.3108 5.0999C15.355 5.08462 15.3982 5.07494 15.4614 5.05762Z" fill="white"/>
<path d="M16.4083 11.9445C18.0235 11.9445 19.6392 11.9445 21.2544 11.9414C21.4086 11.9414 21.4688 11.9608 21.4682 12.1401C21.461 14.8542 21.461 17.5683 21.4682 20.2825C21.4682 20.4236 21.4441 20.4801 21.2857 20.4715C21.0171 20.4569 20.7478 20.4574 20.4792 20.473C20.3183 20.4822 20.2977 20.4221 20.2977 20.283C20.3022 18.5367 20.3032 16.7905 20.3008 15.0442C20.3008 14.6601 20.2494 14.6077 19.8577 14.6077H16.5635C16.1913 14.6077 16.1373 14.6622 16.1373 15.0386C16.1373 16.7844 16.1373 18.5306 16.1415 20.2769C16.1415 20.4323 16.1086 20.474 15.9466 20.473C14.473 20.4659 12.9981 20.4659 11.522 20.473C11.3781 20.473 11.3457 20.4389 11.3457 20.2978C11.3502 17.5711 11.3502 14.8444 11.3457 12.1177C11.3457 11.9735 11.3822 11.9424 11.5236 11.9429C13.1521 11.9465 14.7802 11.9445 16.4083 11.9445Z" fill="white"/>
<path d="M16.675 17.7872C16.675 16.9589 16.6786 16.1301 16.672 15.3018C16.672 15.1693 16.7049 15.1357 16.839 15.1367C17.7582 15.1432 18.6773 15.1432 19.5965 15.1367C19.7332 15.1367 19.7646 15.177 19.7641 15.3069C19.76 16.971 19.76 18.635 19.7641 20.2991C19.7641 20.4479 19.7188 20.4728 19.5816 20.4718C18.6693 20.4657 17.7565 20.4657 16.8431 20.4718C16.693 20.4718 16.6699 20.4275 16.6709 20.293C16.6781 19.457 16.675 18.6221 16.675 17.7872Z" fill="white"/>
<path d="M16.6159 4.0698C16.6036 4.13908 16.5301 4.13348 16.4761 4.15131C15.6505 4.42639 14.8246 4.70113 13.9983 4.97553C10.6558 6.08605 7.31436 7.19758 3.97394 8.31013C3.79967 8.36871 3.75135 8.32949 3.7056 8.1675C3.62026 7.86644 3.60844 7.86898 3.90249 7.77118C8.02772 6.39917 12.1531 5.02681 16.2787 3.65412C16.4293 3.60318 16.4926 3.63171 16.5229 3.78148C16.548 3.87935 16.5791 3.97563 16.6159 4.0698Z" fill="white"/>
<path d="M12.2243 9.68302C12.2243 9.16444 12.2279 8.64637 12.2243 8.12779C12.2243 8.01165 12.2433 7.9658 12.3785 7.96784C12.944 7.97599 13.5141 7.97395 14.0816 7.96784C14.1942 7.96784 14.2327 7.98771 14.2322 8.11047C14.2264 9.15986 14.2264 10.2092 14.2322 11.2586C14.2322 11.3906 14.188 11.4114 14.0703 11.4114C13.5156 11.4058 12.9604 11.4043 12.4052 11.4114C12.2674 11.4114 12.2212 11.387 12.2243 11.2388C12.2309 10.7202 12.2243 10.2016 12.2243 9.68302Z" fill="white"/>
<path d="M9.77849 14.1052C9.77849 15.4776 9.77849 16.8503 9.77849 18.2233C9.77849 18.5452 9.70807 18.6181 9.39191 18.6181C8.61944 18.6181 7.84696 18.6181 7.07449 18.6181C6.77119 18.6181 6.69922 18.5478 6.69922 18.2508C6.69922 15.4867 6.69922 12.7225 6.69922 9.9581C6.69922 9.66112 6.77119 9.59133 7.075 9.59082C7.84782 9.59082 8.6203 9.59082 9.39243 9.59082C9.70087 9.59082 9.77849 9.66621 9.77849 9.96829C9.77884 11.3471 9.77884 12.7261 9.77849 14.1052Z" fill="#222222"/>
<path d="M13.6551 16.0681C13.2952 16.0681 12.94 16.0681 12.5822 16.0681C12.3468 16.0681 12.2599 15.982 12.2594 15.7472C12.257 15.032 12.257 14.3169 12.2594 13.602C12.2594 13.3647 12.3426 13.2765 12.5791 13.275C13.307 13.2716 14.0348 13.2716 14.7624 13.275C14.9891 13.275 15.0754 13.3652 15.0765 13.5888C15.0789 14.3101 15.0789 15.0315 15.0765 15.7528C15.0765 15.9851 14.987 16.0666 14.7469 16.0681C14.383 16.0696 14.019 16.0681 13.6551 16.0681Z" fill="#222222"/>
<path d="M8.22494 13.8375C7.93809 13.8375 7.65073 13.8334 7.36336 13.8375C7.26055 13.84 7.23485 13.8059 7.23536 13.7081C7.23981 13.1579 7.23981 12.6078 7.23536 12.0576C7.23536 11.9659 7.26466 11.9399 7.35565 11.9404C7.94889 11.9435 8.54229 11.9435 9.13587 11.9404C9.22224 11.9404 9.24177 11.971 9.24177 12.05C9.23869 12.6067 9.23612 13.163 9.24177 13.7198C9.24177 13.8365 9.19036 13.837 9.104 13.8365C8.81252 13.836 8.51899 13.8375 8.22494 13.8375Z" fill="white"/>
<path d="M8.2445 15.9423C7.95096 15.9423 7.65743 15.9382 7.36441 15.9448C7.2616 15.9448 7.23435 15.9138 7.23538 15.8154C7.23949 15.374 7.23949 14.9315 7.23538 14.4879C7.23538 14.3993 7.2616 14.3667 7.35464 14.3672C7.94856 14.3706 8.54197 14.3706 9.13487 14.3672C9.2202 14.3672 9.24231 14.3983 9.24179 14.4782C9.23871 14.927 9.23665 15.3758 9.24179 15.8246C9.24179 15.9352 9.1945 15.9448 9.10505 15.9433C8.81923 15.9387 8.53238 15.9423 8.2445 15.9423Z" fill="white"/>
<path d="M8.22601 18.0825C7.93916 18.0825 7.65231 18.079 7.36597 18.0825C7.2683 18.0825 7.23386 18.0606 7.2354 17.9577C7.24088 17.5034 7.24088 17.049 7.2354 16.5946C7.2354 16.4927 7.26727 16.4687 7.36495 16.4698C7.95099 16.4738 8.53702 16.4738 9.12306 16.4698C9.212 16.4698 9.24387 16.4901 9.24284 16.5844C9.23804 17.0449 9.23804 17.5056 9.24284 17.9664C9.24284 18.0586 9.21508 18.0841 9.12409 18.0825C8.8249 18.078 8.5252 18.0825 8.22601 18.0825Z" fill="white"/>
<path d="M8.24439 10.1254C8.53741 10.1254 8.83094 10.1284 9.12396 10.1254C9.21238 10.1254 9.24682 10.1432 9.24477 10.24C9.23894 10.5935 9.23894 10.9472 9.24477 11.3011C9.24477 11.403 9.2021 11.4111 9.11985 11.4106C8.5333 11.4106 7.94674 11.4065 7.36019 11.4106C7.25121 11.4106 7.23681 11.3673 7.23784 11.2761C7.24195 10.9415 7.24452 10.6068 7.23784 10.2721C7.23784 10.1575 7.26355 10.1193 7.38487 10.1233C7.66812 10.1315 7.95548 10.1254 8.24439 10.1254Z" fill="white"/>
<path d="M13.6858 13.8084C13.9285 13.8084 14.1716 13.8135 14.4137 13.8058C14.5165 13.8028 14.5412 13.8395 14.5402 13.9352C14.5361 14.429 14.5361 14.9226 14.5402 15.4161C14.5402 15.5032 14.5217 15.5373 14.425 15.5363C13.9206 15.5316 13.4161 15.5316 12.9116 15.5363C12.8175 15.5363 12.7944 15.5068 12.7954 15.4176C12.799 14.924 12.8011 14.4304 12.7954 13.9368C12.7954 13.8206 12.8391 13.8038 12.9399 13.8063C13.1877 13.8125 13.4365 13.8084 13.6858 13.8084Z" fill="white"/>
</g>
<defs>
<clipPath id="clip0_7846_2711">
<rect width="19" height="18" fill="white" transform="translate(3 3)"/>
</clipPath>
</defs>
</svg>
