<svg width="20" height="21" viewBox="0 0 20 21" fill="none" xmlns="http://www.w3.org/2000/svg">
<g clip-path="url(#clip0_141_20331)">
<path d="M0.9375 18.5625H5.3125V12.625H0.9375V18.5625ZM4.12123 15.2422C4.32623 15.2422 4.49247 15.4084 4.49247 15.6134C4.49247 15.8184 4.32623 15.9847 4.12123 15.9847C3.91623 15.9847 3.74998 15.8181 3.74998 15.6131C3.74998 15.4084 3.91623 15.2422 4.12123 15.2422Z" fill="#222222"/>
<path d="M6.25 20.4375V19.5V18.5625V11.6875H5H4.375H4.06252H0V18.5625V19.5V20.4375H0.937516V19.5H5.31252V20.4375H6.25ZM0.937516 18.875H0.625033V18.5625V12.3125H5.62503V18.5625V18.875H5.31255H0.937516Z" fill="#222222"/>
<path d="M7.5 18.5625H11.875V12.625H7.5V18.5625ZM10.9962 15.2422C11.2012 15.2422 11.3675 15.4084 11.3675 15.6134C11.3675 15.8184 11.2012 15.9847 10.9962 15.9847C10.7912 15.9847 10.625 15.8181 10.625 15.6131C10.625 15.4084 10.7912 15.2422 10.9962 15.2422Z" fill="#222222"/>
<path d="M12.8125 20.4375V19.5V18.5625V11.6875H9.0625H8.12498H7.50002H6.5625V18.5625V19.5V20.4375H7.50002V19.5H11.875V20.4375H12.8125ZM7.50002 18.875H7.18753V18.5625V12.3125H12.1875V18.5625V18.875H11.875H7.50002Z" fill="#222222"/>
<path d="M19.0625 15.125H14.0625V18.5625H19.0625V15.125Z" fill="#222222"/>
<path d="M18.75 11.375H17.1875C17.015 11.375 16.875 11.515 16.875 11.6875H16.25C16.25 11.515 16.11 11.375 15.9375 11.375H14.375C14.2025 11.375 14.0625 11.515 14.0625 11.6875H13.125V18.5625V19.5V20.4375H14.0625V19.5H19.0625V20.4375H20V19.5V18.5625V11.6875H19.0625C19.0625 11.515 18.9225 11.375 18.75 11.375ZM17.9296 12.8006C17.9296 13.0056 17.7634 13.1719 17.5584 13.1719C17.3534 13.1719 17.1875 13.0056 17.1875 12.8006C17.1875 12.5957 17.3537 12.4294 17.5587 12.4294C17.7637 12.4294 17.9296 12.5959 17.9296 12.8006ZM18.75 13.875C18.8362 13.875 18.9062 13.945 18.9062 14.0312C18.9062 14.1175 18.8362 14.1875 18.75 14.1875H14.375C14.2887 14.1875 14.2187 14.1175 14.2187 14.0312C14.2187 13.945 14.2887 13.875 14.375 13.875H18.75ZM16.3672 12.8006C16.3672 13.0056 16.2009 13.1719 15.9959 13.1719C15.7909 13.1719 15.625 13.0056 15.625 12.8006C15.625 12.5957 15.7912 12.4294 15.9962 12.4294C16.2012 12.4294 16.3672 12.5959 16.3672 12.8006ZM14.4337 12.4297C14.6387 12.4297 14.805 12.5959 14.805 12.8009C14.805 13.0059 14.6387 13.1722 14.4337 13.1722C14.2287 13.1722 14.0625 13.0056 14.0625 12.8006C14.0625 12.5959 14.2287 12.4297 14.4337 12.4297ZM19.375 18.875H19.0625H14.0625H13.75V18.5625V14.8125H19.375V18.5625L19.375 18.875ZM19.1212 12.4297C19.3262 12.4297 19.4925 12.5959 19.4925 12.8009C19.4925 13.0059 19.3262 13.1722 19.1212 13.1722C18.9162 13.1722 18.75 13.0056 18.75 12.8006C18.75 12.5959 18.9162 12.4297 19.1212 12.4297Z" fill="#222222"/>
<path d="M17.8125 5.12502V1.0625H15V5.12498H14.0625L12.8125 7.3125H20L18.75 5.12498H17.8125V5.12502ZM17.8713 6.6094C17.6663 6.6094 17.5 6.44315 17.5 6.23815C17.5 6.03315 17.6663 5.86691 17.8713 5.86691C18.0762 5.86691 18.2425 6.03315 18.2425 6.23815C18.2422 6.44312 18.076 6.6094 17.8713 6.6094Z" fill="#222222"/>
<path d="M8.12497 10.4375H9.37497C9.54745 10.4375 9.68745 10.2975 9.68745 10.125C9.68745 9.9525 9.54745 9.8125 9.37497 9.8125H7.81248C7.64 9.8125 7.5 9.9525 7.5 10.125V11.375H8.125V10.4375H8.12497Z" fill="#222222"/>
<path d="M4.99998 11.375V10.125C4.99998 9.9525 4.85998 9.8125 4.6875 9.8125H3.12498C2.9525 9.8125 2.8125 9.9525 2.8125 10.125C2.8125 10.2975 2.9525 10.4375 3.12498 10.4375H4.37498V11.375H4.99998Z" fill="#222222"/>
<path d="M6.56245 11.375V9.49998C6.73493 9.49998 6.87493 9.35998 6.87493 9.1875C6.87493 9.01502 6.73493 8.87502 6.56245 8.87502V8.24998C6.56245 8.0775 6.42245 7.9375 6.24997 7.9375C6.07748 7.9375 5.93748 8.0775 5.93748 8.24998V8.87498C5.765 8.87498 5.625 9.01498 5.625 9.18747C5.625 9.35995 5.765 9.49995 5.93748 9.49995V11.375H6.56245V11.375Z" fill="#222222"/>
<path d="M11.5625 4.81218H4.92719C5.35376 4.45032 5.625 3.91123 5.625 3.30842C5.625 2.21904 4.7419 1.33594 3.65252 1.33594C2.56314 1.33594 1.67967 2.21875 1.67967 3.30845C1.67967 3.91159 1.95092 4.45064 2.37748 4.81221H0.625V5.43721H11.5625L11.5625 4.81218ZM2.34376 3.30845C2.34376 2.58659 2.93062 1.9997 3.65252 1.9997C4.37441 1.9997 4.96127 2.58656 4.96127 3.30845C4.96127 4.03035 4.37441 4.61721 3.65252 4.61721C2.93062 4.61721 2.34376 4.02999 2.34376 3.30845Z" fill="#222222"/>
<path d="M3.65249 4.30498C4.2027 4.30498 4.64873 3.85895 4.64873 3.30874C4.64873 2.75853 4.2027 2.3125 3.65249 2.3125C3.10228 2.3125 2.65625 2.75853 2.65625 3.30874C2.65625 3.85895 3.10228 4.30498 3.65249 4.30498Z" fill="#222222"/>
<path d="M6.71874 4.49998H11.0937C11.18 4.49998 11.25 4.42998 11.25 4.34374C11.25 4.2575 11.18 4.1875 11.0937 4.1875H6.71874C6.6325 4.1875 6.5625 4.2575 6.5625 4.34374C6.5625 4.42998 6.6325 4.49998 6.71874 4.49998Z" fill="#222222"/>
<path d="M7.03124 3.87498H10.7812C10.8675 3.87498 10.9375 3.80498 10.9375 3.71874C10.9375 3.6325 10.8675 3.5625 10.7812 3.5625H7.03124C6.945 3.5625 6.875 3.6325 6.875 3.71874C6.875 3.80498 6.945 3.87498 7.03124 3.87498Z" fill="#222222"/>
<path d="M7.03124 3.24998H10.7812C10.8675 3.24998 10.9375 3.17998 10.9375 3.09374C10.9375 3.0075 10.8675 2.9375 10.7812 2.9375H7.03124C6.945 2.9375 6.875 3.0075 6.875 3.09374C6.875 3.17998 6.945 3.24998 7.03124 3.24998Z" fill="#222222"/>
<path d="M7.85876 2.625H9.79752C10.0935 2.625 10.2806 2.20562 10.2806 1.90314C10.2806 1.69314 10.1906 1.375 10.0369 1.375H7.61876C7.465 1.375 7.375 1.69343 7.375 1.90314C7.37562 2.20562 7.56281 2.625 7.85876 2.625Z" fill="#222222"/>
</g>
<defs>
<clipPath id="clip0_141_20331">
<rect width="20" height="20" fill="white" transform="translate(0 0.75)"/>
</clipPath>
</defs>
</svg>
