<svg width="12" height="12" viewBox="0 0 12 12" fill="none" xmlns="http://www.w3.org/2000/svg">
<path d="M10.1 3.84211H7.5746L8.07995 2.24721C8.17085 1.95921 8.12495 1.63995 7.9562 1.39363C7.78745 1.14732 7.51385 1 7.2254 1H6.5C6.36635 1 6.2399 1.06253 6.15395 1.17053L4.03895 3.84211H2.9C2.40365 3.84211 2 4.267 2 4.78947V9.05263C2 9.57511 2.40365 10 2.9 10H4.25H8.88815C9.2612 10 9.5996 9.75321 9.731 9.38516L10.9717 5.90311C10.9906 5.85005 11 5.79368 11 5.73684V4.78947C11 4.267 10.5963 3.84211 10.1 3.84211ZM2.9 4.78947H3.8V9.05263H2.9V4.78947ZM10.1 5.65111L8.88815 9.05263H4.7V4.48726L6.7106 1.94737H7.2263L6.5234 4.16563C6.47705 4.31011 6.50045 4.46879 6.58505 4.59242C6.66965 4.71653 6.80555 4.78947 6.95 4.78947H10.1V5.65111Z" fill="black"/>
</svg>
