<svg width="19" height="18" viewBox="0 0 19 18" fill="none" xmlns="http://www.w3.org/2000/svg">
<g clip-path="url(#clip0_141_20631)">
<path d="M9.06966 10.125C8.50908 10.125 7.9611 9.96005 7.495 9.65101C7.0289 9.34197 6.66562 8.90272 6.4511 8.3888C6.23658 7.87488 6.18045 7.30938 6.28981 6.76381C6.39918 6.21824 6.66912 5.7171 7.0655 5.32376C7.46189 4.93043 7.96691 4.66256 8.51671 4.55404C9.06651 4.44552 9.6364 4.50122 10.1543 4.71409C10.6722 4.92696 11.1149 5.28745 11.4263 5.74996C11.7377 6.21247 11.904 6.75624 11.904 7.3125C11.9031 8.05816 11.6042 8.77304 11.0729 9.3003C10.5415 9.82756 9.8211 10.1242 9.06966 10.125ZM9.06966 5.625C8.73331 5.625 8.40452 5.72397 8.12486 5.9094C7.8452 6.09482 7.62724 6.35837 7.49852 6.66672C7.36981 6.97507 7.33613 7.31437 7.40175 7.64172C7.46737 7.96906 7.62933 8.26974 7.86716 8.50574C8.10499 8.74175 8.40801 8.90246 8.73789 8.96758C9.06777 9.03269 9.4097 8.99927 9.72044 8.87155C10.0312 8.74383 10.2968 8.52753 10.4836 8.25003C10.6705 7.97252 10.7702 7.64626 10.7702 7.3125C10.7697 6.8651 10.5904 6.43616 10.2716 6.1198C9.95279 5.80344 9.52053 5.62549 9.06966 5.625Z" fill="#23262B"/>
<path d="M9.06994 16.875L4.28819 11.2789C4.26104 11.2467 4.09081 11.0249 4.09081 11.0249C3.27391 9.9572 2.83256 8.65305 2.83448 7.3125C2.83448 5.67147 3.49143 4.09766 4.6608 2.93728C5.83018 1.7769 7.4162 1.125 9.06994 1.125C10.7237 1.125 12.3097 1.7769 13.4791 2.93728C14.6485 4.09766 15.3054 5.67147 15.3054 7.3125C15.3074 8.6525 14.8664 9.95615 14.0499 11.0235L14.0491 11.0249C14.0491 11.0249 13.879 11.2467 13.8537 11.2765L9.06994 16.875ZM4.99563 10.3472C4.9962 10.3476 5.12794 10.5205 5.1581 10.5578L9.06994 15.1357L12.9869 10.5513C13.0118 10.5203 13.1447 10.3461 13.145 10.3456C13.8123 9.47322 14.173 8.40776 14.1717 7.3125C14.1717 5.96984 13.6342 4.68217 12.6774 3.73277C11.7207 2.78337 10.423 2.25 9.06994 2.25C7.71688 2.25 6.41923 2.78337 5.46247 3.73277C4.5057 4.68217 3.9682 5.96984 3.9682 7.3125C3.96695 8.40835 4.32786 9.47437 4.99563 10.3472Z" fill="#23262B"/>
</g>
<defs>
<clipPath id="clip0_141_20631">
<rect width="18.1395" height="18" fill="white"/>
</clipPath>
</defs>
</svg>
