<svg width="230" height="49" viewBox="0 0 230 49" fill="none" xmlns="http://www.w3.org/2000/svg">
<path d="M151.081 23.4355H150.869C149.109 23.4355 147.683 24.865 147.683 26.6284C147.683 28.3918 149.109 29.8214 150.869 29.8214H151.081C152.841 29.8214 154.267 28.3918 154.267 26.6284C154.267 24.865 152.841 23.4355 151.081 23.4355Z" fill="#FFD400"/>
<path d="M58.607 0.970703V30.3791H53.3134V0.970703H58.607ZM66.5721 10.1013H72.8995L64.9025 19.0893L73.4584 30.3791H67.9798L61.8252 22.1556L58.607 25.5006V19.0893L67.1405 10.1013H66.5721ZM88.6059 10.1013V10.4934L88.7346 11.6978C87.8293 10.5382 85.2914 9.58598 83.3516 9.58598C77.2368 9.58598 72.8044 13.6864 72.8044 20.2402C72.8044 26.2787 76.896 30.9448 83.3516 30.9448C85.5488 30.9448 88.0022 30.1662 88.9024 28.8722L88.7737 30.1662V30.3846H94.2849V10.1013H88.6059ZM83.6929 25.853C80.9821 25.853 78.4442 23.8701 78.4442 20.2402C78.4442 16.6103 80.9821 14.6778 83.6929 14.6778C86.5324 14.6778 88.8577 16.7896 88.8577 20.2402C88.8577 23.6908 86.5324 25.853 83.6929 25.853ZM96.8619 30.3846V11.3112C99.1033 10.0173 103.15 9.54116 105.643 9.54116C114.257 9.54116 116.878 13.8544 116.923 18.6885C116.968 22.7889 116.968 26.2843 116.923 30.3791H111.327C111.372 26.7101 111.372 23.2594 111.327 19.5904C111.284 16.2239 109.606 14.7562 106.202 14.7562C104.609 14.7562 103.061 15.0139 102.412 15.406V30.3791H96.8563L96.8619 30.3846ZM167.615 31.1185C160.812 31.1185 156.681 26.7157 156.681 20.3298C156.681 13.944 160.857 9.58598 167.615 9.58598C170.885 9.58598 174.032 10.8351 175.927 13.1262L172.523 16.7055C171.147 15.1932 169.639 14.5938 167.615 14.5938C164.73 14.5938 162.232 16.9241 162.232 20.3298C162.232 24.038 164.557 26.1107 167.615 26.1107C169.426 26.1107 171.489 25.4217 172.607 23.9989L175.837 27.6679C173.942 29.9534 171.058 31.1185 167.615 31.1185ZM187.76 9.59155C181.002 9.59155 176.827 13.9944 176.827 20.3298C176.827 26.6652 180.957 31.1185 187.76 31.1185C194.562 31.1185 198.738 26.7157 198.738 20.3298C198.738 13.944 194.517 9.59155 187.76 9.59155ZM187.76 26.0714C184.875 26.0714 182.293 24.1725 182.293 20.3355C182.293 16.4983 185.043 14.5994 187.76 14.5994C190.476 14.5994 193.226 16.4983 193.226 20.3355C193.226 24.1725 190.689 26.0714 187.76 26.0714ZM28.2945 30.3903H22.7384C22.7831 26.7212 22.7831 23.2707 22.7384 19.6016C22.6937 16.2351 21.6597 14.7674 19.6362 14.7674C19.1443 14.7674 18.7699 14.7955 18.3338 14.8683C18.0488 14.913 17.4451 15.0251 16.7073 15.2884C16.6066 15.322 16.506 15.3668 16.411 15.4004C16.7519 16.5151 16.914 17.7307 16.9252 18.9966C16.97 23.097 16.97 26.2899 16.9252 30.3903H11.3692C11.4139 26.7212 11.4139 23.2707 11.3692 19.6016C11.3245 15.9773 10.2905 14.7674 8.26701 14.7674C7.02049 14.7674 6.15969 14.9859 5.55605 15.3724V30.3903H0V11.3168C2.28056 9.97807 4.22014 9.54673 7.70801 9.54673C9.95509 9.54673 11.7214 10.0509 13.0908 10.908C13.7504 10.6391 14.4938 10.3758 15.3266 10.1517C16.2936 9.89405 17.6799 9.52432 19.3735 9.54673C20.6424 9.56357 23.6942 9.60839 25.8295 11.6473C27.6628 13.3951 28.261 16.0614 28.2889 18.9966C28.3336 23.097 28.3336 26.2899 28.2889 30.3903H28.2945ZM228.921 30.3903H223.366C223.411 26.7212 223.411 23.2707 223.366 19.6016C223.321 16.2351 222.287 14.7674 220.263 14.7674C219.771 14.7674 219.397 14.7955 218.961 14.8683C218.676 14.913 218.072 15.0251 217.334 15.2884C217.234 15.322 217.133 15.3668 217.037 15.4004C217.379 16.5151 217.541 17.7307 217.553 18.9966C217.597 23.097 217.597 26.2899 217.553 30.3903H211.996C212.04 26.7212 212.04 23.2707 211.996 19.6016C211.952 15.9773 210.917 14.7674 208.894 14.7674C207.647 14.7674 206.787 14.9859 206.182 15.3724V30.3903H200.627V11.3168C202.908 9.97807 204.847 9.54673 208.335 9.54673C210.582 9.54673 212.349 10.0509 213.718 10.908C214.377 10.6391 215.12 10.3758 215.954 10.1517C216.92 9.89405 218.307 9.52432 220 9.54673C221.269 9.56357 224.321 9.60839 226.456 11.6473C228.289 13.3951 228.888 16.0614 228.916 18.9966C228.96 23.097 228.96 26.2899 228.916 30.3903H228.921ZM125.167 30.3903H119.539V0.970703H125.167V30.3903Z" fill="url(#paint0_linear_3367_1283)"/>
<path d="M41.1773 30.7735C39.5895 30.7735 38.1529 30.5048 36.8675 29.9676C35.5821 29.4047 34.4857 28.65 33.5783 27.7034C32.6711 26.7313 31.9653 25.6311 31.4613 24.4031C30.9824 23.1495 30.7429 21.832 30.7429 20.4505C30.7429 18.5317 31.1589 16.7792 31.9905 15.193C32.8475 13.6068 34.0573 12.3405 35.6199 11.3938C37.2077 10.4216 39.0728 9.93555 41.2152 9.93555C43.3827 9.93555 45.2352 10.4216 46.7727 11.3938C48.3101 12.3405 49.4821 13.6068 50.2885 15.193C51.1203 16.7536 51.5362 18.4421 51.5362 20.2586C51.5362 20.5656 51.5236 20.8853 51.4984 21.2179C51.4732 21.5249 51.4479 21.7808 51.4228 21.9855H36.1114C36.2121 23.0088 36.5021 23.9042 36.9809 24.6718C37.485 25.4394 38.1151 26.0277 38.8711 26.4371C39.6525 26.8207 40.4842 27.0126 41.3664 27.0126C42.3746 27.0126 43.3197 26.7696 44.2018 26.2836C45.1091 25.7719 45.7266 25.1067 46.0543 24.288L50.4019 25.516C49.9231 26.5394 49.2301 27.4476 48.3226 28.2407C47.4405 29.0338 46.3947 29.6606 45.1848 30.1211C43.975 30.5561 42.6392 30.7735 41.1773 30.7735ZM35.998 18.7235H46.3568C46.256 17.7002 45.9661 16.8176 45.4872 16.0756C45.0336 15.3081 44.4287 14.7197 43.6726 14.3103C42.9164 13.8755 42.0722 13.658 41.1396 13.658C40.2322 13.658 39.4005 13.8755 38.6444 14.3103C37.9135 14.7197 37.3086 15.3081 36.8298 16.0756C36.376 16.8176 36.0987 17.7002 35.998 18.7235Z" fill="url(#paint1_linear_3367_1283)"/>
<path d="M130.525 33.2723C130.985 33.3741 131.405 33.4632 131.788 33.5396C132.195 33.6159 132.539 33.6541 132.819 33.6541C133.304 33.6541 133.699 33.5268 134.005 33.2723C134.337 33.0432 134.656 32.6106 134.962 31.9744C135.267 31.3635 135.586 30.4984 135.917 29.3786L128.001 9.375H133.317L138.709 24.1486L143.45 9.375H148.346L139.932 33.3487C139.626 34.2395 139.155 35.041 138.517 35.7537C137.906 36.4917 137.128 37.0644 136.185 37.4716C135.267 37.9042 134.235 38.1205 133.087 38.1205C132.679 38.1205 132.272 38.0823 131.864 38.006C131.456 37.9551 131.01 37.8533 130.525 37.7007V33.2723Z" fill="url(#paint2_linear_3367_1283)"/>
<defs>
<linearGradient id="paint0_linear_3367_1283" x1="0" y1="16.0446" x2="228.949" y2="16.0446" gradientUnits="userSpaceOnUse">
<stop stop-color="#384CFF"/>
<stop offset="1" stop-color="#00A3FF"/>
</linearGradient>
<linearGradient id="paint1_linear_3367_1283" x1="23.4051" y1="19.361" x2="79.9625" y2="25.2329" gradientUnits="userSpaceOnUse">
<stop stop-color="#384CFF"/>
<stop offset="0.503838" stop-color="#236DFF"/>
<stop offset="1" stop-color="#00A3FF"/>
</linearGradient>
<linearGradient id="paint2_linear_3367_1283" x1="45.8349" y1="23.7334" x2="161.394" y2="29.6056" gradientUnits="userSpaceOnUse">
<stop stop-color="#0030BF"/>
<stop offset="0.652188" stop-color="#0077E6"/>
<stop offset="1" stop-color="#00A3FF"/>
</linearGradient>
</defs>
</svg>
