<svg width="21" height="21" viewBox="0 0 21 21" fill="none" xmlns="http://www.w3.org/2000/svg">
<g clip-path="url(#clip0_6123_1405)">
<path fill-rule="evenodd" clip-rule="evenodd" d="M11 1C9.21997 1 7.47992 1.52788 5.99988 2.51681C4.51984 3.50575 3.36627 4.91135 2.68508 6.55589C2.00389 8.20042 1.82567 10.01 2.17294 11.7558C2.52021 13.5016 3.37738 15.1053 4.63605 16.364C5.89472 17.6227 7.49836 18.4798 9.24419 18.8271C10.99 19.1744 12.7996 18.9961 14.4441 18.315C16.0887 17.6338 17.4943 16.4802 18.4832 15.0002C19.4722 13.5201 20 11.78 20 10C19.9973 7.61388 19.0482 5.32626 17.361 3.63902C15.6737 1.95177 13.3861 1.00271 11 1ZM18.7727 9.59091H15.9091C15.7864 6.90318 14.6446 4.15409 12.7345 2.42772C14.3819 2.80504 15.8618 3.70788 16.951 5.00002C18.0402 6.29216 18.6796 7.90351 18.7727 9.59091ZM10.1818 2.63636V9.59091H7.31819C7.43519 7.02591 8.44605 4.06818 10.1818 2.63636ZM10.1818 10.8182V17.3636C8.56714 15.94 7.55096 13.1091 7.31819 10.8182H10.1818ZM11.4091 17.3636V10.8182H14.6741C14.4061 13.1459 13.2058 15.9359 11.4091 17.3636ZM11.4091 9.59091V2.63636C13.3412 4.06409 14.5468 6.99318 14.6818 9.59091H11.4091ZM9.01672 2.49314C7.22327 4.19087 6.203 6.87045 6.09131 9.59091H3.24773C3.33372 7.94935 3.93872 6.3775 4.97553 5.1019C6.01233 3.82629 7.42738 2.91278 9.01672 2.49314ZM3.27105 10.8182H6.086C6.31386 13.3218 7.21919 15.6945 8.95455 17.3636C7.43814 17.0111 6.07197 16.1882 5.05123 15.0127C4.0305 13.8371 3.40742 12.3691 3.27105 10.8182ZM12.6392 17.5968C14.5057 15.8017 15.6659 13.3963 15.9091 10.8182H18.7727C18.5899 12.4484 17.8993 13.9799 16.7987 15.1962C15.6981 16.4126 14.2431 17.2524 12.6392 17.5968Z" fill="#222222"/>
</g>
<defs>
<clipPath id="clip0_6123_1405">
<rect width="18" height="18" fill="white" transform="translate(2 1)"/>
</clipPath>
</defs>
</svg>
