<svg width="24" height="24" viewBox="0 0 24 24" fill="none" xmlns="http://www.w3.org/2000/svg">
<g clip-path="url(#clip0_7846_2759)">
<path d="M4.00907 19.6384C4.07849 19.4934 4.1955 19.4464 4.3515 19.4492C4.72046 19.4554 5.0898 19.4468 5.45915 19.4539C5.57303 19.4562 5.61086 19.4288 5.60813 19.3088C5.59955 18.971 5.60501 18.6324 5.60501 18.2942V4.43519C5.60293 4.37797 5.60397 4.32067 5.60813 4.26356C5.62647 4.09388 5.7111 4.01334 5.88115 4.00122C5.92249 3.99848 5.96422 4.00122 6.00595 4.00122H12.9318C13.2634 4.00122 13.3312 4.07003 13.3312 4.40587C13.3312 5.62843 13.3347 6.85099 13.3269 8.07355C13.3269 8.23814 13.3753 8.26903 13.5274 8.26903C14.7392 8.26317 15.9506 8.26551 17.1623 8.26629C17.2349 8.26529 17.3075 8.26921 17.3796 8.27802C17.432 8.28278 17.4811 8.30622 17.5178 8.34409C17.5545 8.38196 17.5764 8.43175 17.5797 8.48445C17.5866 8.55173 17.5888 8.6194 17.5863 8.68698C17.5863 11.5642 17.5853 14.4413 17.5832 17.318C17.5832 17.449 17.6222 17.5162 17.7361 17.585C18.3628 17.9654 18.6655 18.5327 18.6425 19.2635C18.6374 19.4249 18.6756 19.4656 18.8332 19.4589C19.1027 19.4453 19.3737 19.4589 19.644 19.4531C19.8 19.4492 19.917 19.4973 19.9853 19.6435C19.9853 19.758 20.0297 19.9172 19.9728 19.9742C19.9159 20.0313 19.7563 19.9868 19.6421 19.9868C14.4889 19.9868 9.33551 19.9882 4.18185 19.9911C4.0352 19.9911 3.98099 19.9625 4.00868 19.8147C4.0142 19.7561 4.01433 19.6971 4.00907 19.6384ZM11.1713 16.7843C11.2103 16.7198 11.1947 16.6616 11.1951 16.6068C11.1951 16.0868 11.1951 15.5669 11.1951 15.0465V8.66352C11.1951 8.32885 11.2614 8.26356 11.5976 8.26317C11.9408 8.26317 12.284 8.25613 12.6269 8.26629C12.7665 8.27059 12.8 8.2272 12.7992 8.09114C12.7938 6.96228 12.7938 5.83369 12.7992 4.70535C12.7992 4.556 12.7524 4.52863 12.6155 4.52902C10.5256 4.53293 8.43562 4.53398 6.34565 4.53215C6.10813 4.53215 6.13583 4.50127 6.13583 4.73624C6.13583 9.57356 6.13583 14.4109 6.13583 19.2482C6.13583 19.274 6.13583 19.3002 6.13583 19.3264C6.13583 19.387 6.1214 19.466 6.22202 19.4492C6.30002 19.4363 6.41703 19.5133 6.44316 19.3565C6.47579 19.1668 6.54182 18.9843 6.63817 18.8178C6.66493 18.768 6.67671 18.7115 6.6721 18.6551C6.66703 18.4682 6.66547 18.2806 6.67678 18.0941C6.68536 17.9518 6.7696 17.8665 6.9182 17.8595C7.06679 17.8525 7.16313 17.9197 7.19121 18.0757C7.20681 18.1652 7.23021 18.1793 7.30548 18.1297C7.49487 18.0093 7.70755 17.9305 7.92951 17.8986C7.95977 17.898 7.98868 17.886 8.0104 17.8648C8.03213 17.8437 8.04503 17.8151 8.04651 17.7848C8.07481 17.6154 8.13151 17.452 8.21422 17.3016C8.26155 17.2161 8.28169 17.1181 8.27194 17.0209C8.26343 16.8391 8.26603 16.6569 8.27974 16.4755C8.2891 16.3339 8.38505 16.2663 8.52194 16.2624C8.65884 16.2585 8.75166 16.3124 8.78637 16.4524C8.7969 16.4942 8.78403 16.5462 8.82888 16.5767C9.61672 16.0716 10.5063 16.1885 11.1713 16.7843ZM17.0531 13.0643C17.0531 11.7017 17.0512 10.3388 17.0567 8.9759C17.0567 8.83554 17.0239 8.7941 16.8788 8.79488C15.2257 8.79984 13.5724 8.79984 11.919 8.79488C11.7521 8.79488 11.7259 8.84766 11.7263 8.99741C11.7312 10.8441 11.7323 12.6906 11.7294 14.537C11.7294 15.3972 11.7294 16.2538 11.7294 17.112C11.7294 17.2292 11.7478 17.2531 11.8659 17.2011C12.412 16.961 12.9408 17.015 13.4381 17.3372C13.5305 17.397 13.6007 17.4134 13.706 17.3813C13.9685 17.3004 14.2501 17.2805 14.5052 17.3559C14.8336 17.4458 15.1271 17.6335 15.3468 17.8943C15.3659 17.9174 15.3967 17.9725 15.4303 17.9295C15.529 17.7977 15.7224 17.7488 15.74 17.5424C15.7548 17.372 15.9194 17.264 16.0691 17.3446C16.2189 17.4251 16.3441 17.3806 16.4822 17.3524C16.6145 17.3231 16.7508 17.3164 16.8854 17.3325C17.0223 17.3508 17.059 17.3114 17.0586 17.1698C17.0508 15.7995 17.0531 14.4315 17.0531 13.0631V13.0643ZM12.6159 19.4429C12.435 18.8224 12.5512 18.2751 12.9857 17.8032C13.0457 17.7383 13.02 17.7101 12.9549 17.6808C12.7261 17.5762 12.467 17.5594 12.2267 17.6335C11.9857 17.7019 11.8156 17.8657 11.6467 18.0374C11.465 18.2215 11.2485 18.1648 11.1705 17.9177C11.1522 17.8587 11.144 17.7962 11.1269 17.7363C11.0825 17.5673 11.0032 17.4096 10.894 17.2734C10.7848 17.1372 10.6482 17.0256 10.4931 16.9458C10.2969 16.8396 10.0772 16.7846 9.85423 16.7861C9.63127 16.7876 9.41228 16.8453 9.21751 16.9541C9.02273 17.0629 8.85846 17.2191 8.73988 17.4084C8.6213 17.5977 8.55225 17.8139 8.5391 18.037C8.51609 18.3283 8.46539 18.3689 8.17483 18.3889C7.5898 18.428 7.05353 18.901 6.98372 19.4445L12.6159 19.4429ZM15.6787 19.45C16.4377 19.45 17.1968 19.45 17.956 19.45C18.0383 19.45 18.1011 19.4531 18.1152 19.337C18.185 18.7435 17.8148 18.1297 17.2626 17.9389C16.6179 17.7164 15.9818 17.9389 15.6561 18.5003C15.6362 18.5367 15.6142 18.572 15.5902 18.6059C15.4599 18.7775 15.2489 18.7646 15.1444 18.5789C15.1136 18.5249 15.089 18.4671 15.0598 18.4123C14.7649 17.8587 13.9069 17.7008 13.433 18.1136C13.0992 18.4053 12.9997 18.9073 13.1857 19.328C13.2275 19.4222 13.2809 19.4539 13.3858 19.4535C14.1499 19.4488 14.9143 19.4511 15.6787 19.4511V19.45Z" fill="#222222"/>
<path d="M11.9954 5.59898C11.9954 5.69243 12.0016 5.78626 11.9954 5.87853C11.9821 6.03843 11.8834 6.12679 11.7321 6.1264C11.5808 6.12601 11.4782 6.0357 11.4716 5.87696C11.4638 5.69086 11.4634 5.50398 11.4716 5.31788C11.4714 5.28379 11.4782 5.25003 11.4915 5.21864C11.5048 5.18726 11.5243 5.15891 11.5488 5.13533C11.5734 5.11174 11.6025 5.0934 11.6343 5.08143C11.6661 5.06946 11.7001 5.06411 11.7341 5.0657C11.8787 5.0657 11.9833 5.16345 11.9958 5.31944C12 5.4121 11.9954 5.50593 11.9954 5.59898Z" fill="#222222"/>
<path d="M9.87178 11.9829C9.87178 11.8898 9.86749 11.796 9.87178 11.7033C9.88036 11.5559 9.96772 11.4789 10.1093 11.4637C10.2442 11.4492 10.3616 11.5254 10.3823 11.6591C10.4173 11.8793 10.4173 12.1036 10.3823 12.3238C10.3601 12.4595 10.2442 12.533 10.1093 12.5193C9.97435 12.5056 9.88699 12.4321 9.87529 12.2929C9.8671 12.1901 9.87529 12.0861 9.87529 11.9825L9.87178 11.9829Z" fill="#222222"/>
<path d="M7.19346 5.60285C7.19873 5.70612 7.19873 5.8096 7.19346 5.91288C7.17903 6.05246 7.08776 6.12088 6.95126 6.12596C6.81475 6.13104 6.71218 6.07474 6.69034 5.93556C6.65368 5.71055 6.65368 5.48107 6.69034 5.25606C6.71257 5.12195 6.81904 5.06878 6.9419 5.07035C7.07255 5.0723 7.17591 5.13486 7.19151 5.27717C7.19756 5.38563 7.19795 5.49434 7.19268 5.60285H7.19346Z" fill="#222222"/>
<path d="M9.87282 7.17896C9.87282 7.08552 9.86619 6.99207 9.87282 6.89942C9.87362 6.86808 9.88063 6.83721 9.89344 6.80861C9.90624 6.78001 9.92459 6.75425 9.94742 6.73283C9.97025 6.7114 9.99709 6.69473 10.0264 6.6838C10.0557 6.67287 10.0869 6.66788 10.1181 6.66913C10.2492 6.66913 10.3588 6.7184 10.3806 6.85993C10.4173 7.08481 10.4173 7.31416 10.3806 7.53904C10.3568 7.67979 10.2472 7.72827 10.1146 7.72201C9.98202 7.71576 9.88881 7.64382 9.87555 7.50463C9.8658 7.39712 9.8736 7.28765 9.8736 7.17896H9.87282Z" fill="#222222"/>
<path d="M9.87363 8.79754C9.87363 8.69432 9.86583 8.58993 9.87558 8.4875C9.88884 8.34871 9.97737 8.27677 10.1147 8.27012C10.2519 8.26347 10.3569 8.31235 10.3806 8.4527C10.4187 8.67747 10.4187 8.90705 10.3806 9.13182C10.3584 9.26826 10.2426 9.33746 10.1037 9.32104C9.96489 9.30462 9.88338 9.2319 9.87324 9.09272C9.86622 8.99498 9.87324 8.89723 9.87324 8.79754H9.87363Z" fill="#222222"/>
<path d="M7.19575 10.3935C7.19575 10.4916 7.20043 10.5889 7.19575 10.6883C7.18717 10.838 7.0924 10.9091 6.95355 10.9228C6.92124 10.927 6.88842 10.9245 6.85709 10.9155C6.82576 10.9066 6.79657 10.8914 6.77127 10.8708C6.74597 10.8502 6.7251 10.8247 6.7099 10.7958C6.69471 10.7669 6.68552 10.7353 6.68288 10.7027C6.65616 10.4972 6.65616 10.289 6.68288 10.0834C6.70316 9.93134 6.80379 9.85901 6.95355 9.86565C7.09318 9.87152 7.1821 9.95167 7.19497 10.0979C7.20277 10.196 7.19575 10.2942 7.19575 10.3935Z" fill="#222222"/>
<path d="M7.19344 13.5919C7.19871 13.6953 7.19871 13.7989 7.19344 13.9023C7.17979 14.0419 7.08853 14.1107 6.95202 14.1162C6.81552 14.1217 6.71255 14.0657 6.69032 13.927C6.65368 13.7018 6.65368 13.4722 6.69032 13.2471C6.71216 13.113 6.81825 13.0594 6.9411 13.0606C7.07137 13.0606 7.17511 13.1243 7.1911 13.2666C7.19793 13.3749 7.19871 13.4835 7.19344 13.5919Z" fill="#222222"/>
<path d="M9.87056 15.1765C9.87056 15.0885 9.86627 15.0001 9.87056 14.9126C9.88031 14.7589 9.96767 14.6702 10.1112 14.6592C10.2547 14.6483 10.3682 14.7261 10.3869 14.8731C10.4156 15.0836 10.4156 15.2971 10.3869 15.5076C10.3655 15.657 10.2598 15.7242 10.1069 15.7125C9.96845 15.7019 9.88304 15.6179 9.8729 15.4717C9.86627 15.3739 9.8729 15.2762 9.8729 15.1765H9.87056Z" fill="#222222"/>
<path d="M8.27737 10.3878C8.27737 10.2897 8.26918 10.1904 8.27737 10.0934C8.29219 9.94717 8.38268 9.8678 8.52308 9.86624C8.66349 9.86468 8.76723 9.92528 8.78634 10.0735C8.8156 10.2891 8.8156 10.5076 8.78634 10.7232C8.76606 10.8663 8.6592 10.9238 8.52971 10.9219C8.40023 10.9199 8.29804 10.8562 8.28166 10.7135C8.26918 10.6056 8.26996 10.4965 8.26489 10.3882L8.27737 10.3878Z" fill="#222222"/>
<path d="M8.26489 11.9844C8.26996 11.8808 8.26918 11.7768 8.28127 11.6743C8.29765 11.5324 8.39399 11.4671 8.52698 11.464C8.65998 11.4609 8.7645 11.5179 8.78517 11.6595C8.8179 11.8798 8.8179 12.1038 8.78517 12.3241C8.76489 12.4645 8.66076 12.5231 8.52776 12.5196C8.39477 12.5161 8.29804 12.4508 8.28127 12.31C8.26879 12.2021 8.26996 12.0927 8.26489 11.9844Z" fill="#222222"/>
<path d="M8.27865 13.5904C8.27396 13.4871 8.27474 13.3836 8.28099 13.2803C8.2827 13.249 8.29068 13.2183 8.30445 13.1901C8.31821 13.1619 8.33749 13.1367 8.36113 13.1161C8.38477 13.0955 8.4123 13.0799 8.44208 13.0702C8.47186 13.0604 8.50329 13.0568 8.5345 13.0594C8.66437 13.0657 8.76851 13.1208 8.78723 13.2639C8.81648 13.4797 8.81648 13.6984 8.78723 13.9141C8.76695 14.0619 8.66203 14.1217 8.52085 14.1162C8.37966 14.1108 8.29425 14.04 8.28138 13.9004C8.27124 13.7976 8.27904 13.6955 8.27865 13.5904Z" fill="#222222"/>
<path d="M9.87252 13.5895C9.87252 13.4914 9.86628 13.394 9.87252 13.2947C9.87782 13.2327 9.90524 13.1746 9.94977 13.1311C9.9943 13.0877 10.0529 13.0617 10.115 13.0581C10.177 13.0544 10.2383 13.0733 10.2876 13.1112C10.3369 13.1491 10.3709 13.2036 10.3834 13.2646C10.415 13.4799 10.415 13.6987 10.3834 13.914C10.3628 14.0595 10.2586 14.1212 10.1155 14.1165C10.0842 14.1178 10.053 14.1128 10.0237 14.1017C9.99441 14.0906 9.96762 14.0738 9.94492 14.0522C9.92223 14.0306 9.9041 14.0046 9.89159 13.9758C9.87909 13.9471 9.87247 13.9161 9.87213 13.8847C9.86628 13.787 9.87252 13.688 9.87252 13.5895Z" fill="#222222"/>
<path d="M11.467 7.19275C11.467 7.0997 11.4611 7.00587 11.467 6.91321C11.4674 6.87927 11.4748 6.84578 11.4885 6.81477C11.5023 6.78375 11.5222 6.75587 11.547 6.7328C11.5719 6.70973 11.6011 6.69196 11.633 6.68056C11.6649 6.66917 11.6988 6.66438 11.7326 6.66651C11.8737 6.66846 11.9814 6.7576 11.9888 6.90578C11.9999 7.10215 11.9999 7.29899 11.9888 7.49536C11.9794 7.6451 11.8718 7.72564 11.7255 7.72368C11.5793 7.72173 11.4814 7.63728 11.4689 7.4891C11.4607 7.39175 11.4689 7.29362 11.4689 7.19431L11.467 7.19275Z" fill="#222222"/>
<path d="M9.8738 10.398C9.8738 10.2944 9.866 10.1904 9.87575 10.0876C9.88862 9.94954 9.97482 9.87526 10.1125 9.86705C10.2502 9.85884 10.3555 9.91044 10.3797 10.0488C10.421 10.2784 10.421 10.5136 10.3797 10.7432C10.3555 10.8754 10.2459 10.9266 10.123 10.9219C9.99198 10.9164 9.89252 10.8492 9.8777 10.7084C9.87159 10.605 9.87094 10.5014 9.87575 10.398H9.8738Z" fill="#222222"/>
<path d="M9.87282 5.59473C9.87282 5.4966 9.86619 5.39925 9.87282 5.29994C9.87373 5.26855 9.88081 5.23765 9.89366 5.20901C9.90651 5.18037 9.92488 5.15456 9.94771 5.13305C9.97054 5.11155 9.99738 5.09477 10.0267 5.08369C10.056 5.07261 10.0872 5.06745 10.1185 5.06849C10.2492 5.06849 10.3592 5.12088 10.3806 5.26163C10.4179 5.48659 10.4179 5.71617 10.3806 5.94113C10.356 6.07954 10.2484 6.13193 10.1142 6.1245C9.98007 6.11707 9.88959 6.04318 9.87633 5.90555C9.86619 5.80273 9.87633 5.69834 9.87633 5.59513L9.87282 5.59473Z" fill="#222222"/>
<path d="M8.26489 5.59705C8.26996 5.49071 8.26996 5.38671 8.28049 5.28428C8.29492 5.14119 8.39321 5.0798 8.52347 5.06807C8.5545 5.06437 8.58595 5.06685 8.61602 5.07537C8.64608 5.08389 8.67417 5.09828 8.69867 5.11772C8.72317 5.13716 8.7436 5.16126 8.75878 5.18863C8.77396 5.21601 8.78359 5.24612 8.78712 5.27724C8.81774 5.49275 8.81774 5.71152 8.78712 5.92703C8.76684 6.06661 8.66739 6.12643 8.53244 6.12525C8.3975 6.12408 8.30233 6.05879 8.28322 5.9196C8.26762 5.81248 8.26996 5.70301 8.26489 5.59705Z" fill="#222222"/>
<path d="M8.80853 8.80418C8.80229 8.90623 8.80385 9.01062 8.78785 9.11227C8.7849 9.14343 8.77576 9.17368 8.76097 9.20125C8.74617 9.22881 8.72602 9.25313 8.70171 9.27277C8.67739 9.29241 8.6494 9.30697 8.61939 9.31559C8.58937 9.32422 8.55794 9.32674 8.52693 9.323C8.38731 9.31401 8.29019 9.24481 8.2781 9.09663C8.26016 8.89542 8.26016 8.69301 8.2781 8.4918C8.29215 8.34753 8.38458 8.26895 8.52615 8.26856C8.66773 8.26817 8.76835 8.32877 8.78746 8.47773C8.80229 8.58524 8.80229 8.69432 8.80853 8.80418Z" fill="#222222"/>
<path d="M8.80945 15.1917C8.80243 15.3024 8.80243 15.4064 8.788 15.5084C8.76733 15.6577 8.66514 15.7172 8.52435 15.7137C8.38355 15.7101 8.29502 15.6437 8.28098 15.5029C8.25855 15.2917 8.25855 15.0788 8.28098 14.8676C8.29658 14.7249 8.39798 14.6627 8.52942 14.6612C8.66085 14.6596 8.76343 14.7155 8.78527 14.8586C8.80204 14.9708 8.80243 15.0854 8.80945 15.1917Z" fill="#222222"/>
<path d="M8.27772 7.18788C8.27265 7.08981 8.27265 6.99155 8.27772 6.89348C8.29254 6.75038 8.38693 6.67063 8.52577 6.66711C8.66462 6.66359 8.76758 6.74022 8.7863 6.87979C8.81341 7.09044 8.81341 7.3037 8.7863 7.51434C8.76758 7.66369 8.6654 7.72311 8.52421 7.72233C8.38303 7.72155 8.29683 7.64414 8.27499 7.49831C8.27202 7.48309 8.27019 7.46767 8.26953 7.45217C8.26953 7.36421 8.26953 7.27624 8.26953 7.18827L8.27772 7.18788Z" fill="#222222"/>
<path d="M7.1938 11.9933C7.1938 12.0969 7.20121 12.2013 7.1938 12.3037C7.18054 12.4444 7.08694 12.5133 6.95238 12.5191C6.81783 12.525 6.71252 12.4687 6.69029 12.3291C6.65304 12.104 6.65304 11.8743 6.69029 11.6492C6.71408 11.5096 6.82407 11.4565 6.95589 11.4635C7.08772 11.4705 7.17664 11.5347 7.1899 11.668C7.19653 11.7763 7.19732 11.8849 7.19224 11.9933H7.1938Z" fill="#222222"/>
<path d="M7.19594 8.79664C7.19594 8.89516 7.20101 8.99212 7.19594 9.09143C7.18658 9.24078 7.09259 9.31154 6.95218 9.32288C6.81178 9.33422 6.70686 9.25681 6.68658 9.11762C6.65558 8.9024 6.65558 8.68383 6.68658 8.46861C6.70842 8.31926 6.81568 8.26375 6.95569 8.27C7.09571 8.27626 7.18151 8.3482 7.19399 8.4866C7.20257 8.58903 7.19399 8.69342 7.19399 8.79664H7.19594Z" fill="#222222"/>
<path d="M7.19502 15.1941C7.19502 15.2926 7.20243 15.3915 7.19502 15.4889C7.18137 15.6323 7.08972 15.7121 6.94775 15.7133C6.80579 15.7144 6.70399 15.6542 6.68488 15.5057C6.65875 15.295 6.65875 15.0818 6.68488 14.8711C6.70282 14.7214 6.80696 14.6616 6.9458 14.6592C7.08465 14.6569 7.18449 14.7472 7.19736 14.8993C7.20516 14.997 7.19736 15.0948 7.19736 15.1941H7.19502Z" fill="#222222"/>
<path d="M7.19463 16.7971C7.19463 16.8952 7.20243 16.9945 7.19463 17.0919C7.19315 17.1231 7.18545 17.1537 7.17199 17.182C7.15853 17.2102 7.13958 17.2354 7.11625 17.2562C7.09292 17.2769 7.06568 17.2928 7.03614 17.3029C7.0066 17.3129 6.97536 17.317 6.94424 17.3147C6.81319 17.3116 6.70789 17.2584 6.688 17.1161C6.65543 16.8958 6.65543 16.6718 6.688 16.4515C6.70984 16.3103 6.81475 16.256 6.94814 16.2611C7.08152 16.2661 7.17786 16.331 7.19151 16.4714C7.19775 16.5799 7.19853 16.6886 7.19385 16.7971H7.19463Z" fill="#222222"/>
<path d="M7.19361 7.19995C7.19361 7.30317 7.2018 7.40756 7.19361 7.50999C7.17957 7.65035 7.08714 7.7172 6.95102 7.72151C6.81491 7.72581 6.7096 7.6742 6.68815 7.53228C6.65241 7.30724 6.65347 7.07786 6.69127 6.85316C6.71584 6.71202 6.82778 6.66354 6.95804 6.67058C7.08831 6.67762 7.1784 6.74135 7.19205 6.87506C7.19751 6.98355 7.19751 7.09225 7.19205 7.20074L7.19361 7.19995Z" fill="#222222"/>
<path d="M16.2627 13.0612C16.2564 13.168 16.2576 13.2774 16.2412 13.3842C16.2198 13.5234 16.1242 13.5847 15.9877 13.584C15.8512 13.5832 15.7557 13.5191 15.7377 13.3795C15.7098 13.1637 15.7098 12.9451 15.7377 12.7293C15.7564 12.5866 15.8613 12.5272 15.9916 12.5283C16.1219 12.5295 16.2237 12.5913 16.2416 12.734C16.256 12.8415 16.2564 12.9525 16.2627 13.0612Z" fill="#222222"/>
<path d="M15.717 11.4475C15.7233 11.3412 15.7233 11.2372 15.7377 11.1348C15.758 10.9948 15.8547 10.9315 15.9885 10.9307C16.1223 10.9299 16.2225 10.9917 16.2416 11.1316C16.2695 11.3475 16.2695 11.566 16.2416 11.7818C16.2241 11.9241 16.1227 11.9859 15.9908 11.9867C15.859 11.9875 15.7568 11.9269 15.7377 11.7849C15.7233 11.6731 15.7233 11.5586 15.717 11.4475Z" fill="#222222"/>
<path d="M16.2626 9.85491C16.2564 9.9632 16.2552 10.0723 16.2431 10.1798C16.2271 10.3233 16.1261 10.3811 15.9962 10.3909C15.9652 10.3941 15.9338 10.3911 15.9039 10.382C15.874 10.373 15.8462 10.3581 15.8221 10.3382C15.798 10.3183 15.778 10.2938 15.7634 10.2662C15.7488 10.2385 15.7398 10.2082 15.7369 10.1771C15.7108 9.96623 15.7108 9.75296 15.7369 9.54213C15.7537 9.40177 15.8473 9.33805 15.9838 9.33414C16.1281 9.33023 16.2225 9.40216 16.2431 9.54487C16.2579 9.64652 16.2568 9.75091 16.2626 9.85491Z" fill="#222222"/>
<path d="M15.7173 14.6525C15.7231 14.547 15.722 14.443 15.7364 14.3398C15.7392 14.3086 15.7482 14.2783 15.7627 14.2507C15.7773 14.223 15.7971 14.1985 15.8212 14.1786C15.8452 14.1586 15.8729 14.1436 15.9028 14.1345C15.9326 14.1253 15.9639 14.1221 15.995 14.1251C16.1252 14.1333 16.2263 14.1908 16.243 14.3343C16.2676 14.5452 16.2676 14.7583 16.243 14.9692C16.2259 15.1178 16.126 15.1815 15.9841 15.18C15.8483 15.18 15.7543 15.1151 15.7364 14.9743C15.7231 14.8688 15.7235 14.7593 15.7173 14.6525Z" fill="#222222"/>
<path d="M15.7178 16.2364C15.7232 16.139 15.724 16.0409 15.7349 15.9432C15.7513 15.7938 15.848 15.7266 15.9892 15.7266C16.1304 15.7266 16.2291 15.7926 16.2451 15.942C16.2667 16.1478 16.2667 16.3554 16.2451 16.5613C16.2299 16.711 16.1308 16.7783 15.9904 16.7783C15.85 16.7783 15.7509 16.7122 15.7353 16.5625C15.724 16.4557 15.7232 16.347 15.7178 16.2364Z" fill="#222222"/>
<path d="M13.0569 13.0607C13.0569 13.1538 13.0624 13.2476 13.0569 13.3403C13.046 13.492 12.9528 13.5796 12.8077 13.5846C12.6626 13.5897 12.5487 13.5123 12.5386 13.3634C12.5246 13.1568 12.5246 12.9495 12.5386 12.7429C12.548 12.6064 12.6654 12.5236 12.7984 12.5255C12.864 12.5235 12.9278 12.5476 12.9758 12.5926C13.0238 12.6376 13.0522 12.6997 13.0546 12.7656C13.062 12.8633 13.0546 12.961 13.0546 13.0607H13.0569Z" fill="#222222"/>
<path d="M13.0571 11.4469C13.0571 11.5451 13.0625 11.6424 13.0571 11.7421C13.0569 11.7747 13.0503 11.807 13.0377 11.8371C13.0251 11.8671 13.0067 11.8944 12.9835 11.9173C12.9604 11.9402 12.933 11.9583 12.9028 11.9706C12.8727 11.9829 12.8404 11.9891 12.8078 11.9888C12.669 11.9951 12.5473 11.9083 12.5383 11.7652C12.5249 11.5585 12.5257 11.3512 12.5407 11.1447C12.5516 10.9981 12.6694 10.9211 12.8137 10.9305C12.8768 10.9303 12.9374 10.9551 12.9825 10.9993C13.0276 11.0435 13.0535 11.1038 13.0547 11.167C13.0621 11.2597 13.0547 11.3535 13.0547 11.4469H13.0571Z" fill="#222222"/>
<path d="M13.0566 14.6512C13.0566 14.7497 13.0624 14.8486 13.0566 14.9464C13.0563 14.9776 13.0499 15.0085 13.0377 15.0373C13.0254 15.066 13.0076 15.0921 12.9853 15.1139C12.9629 15.1357 12.9365 15.1529 12.9075 15.1644C12.8785 15.1759 12.8475 15.1815 12.8164 15.1809C12.665 15.1895 12.5523 15.1176 12.541 14.9698C12.5264 14.7634 12.5264 14.5562 12.541 14.3497C12.55 14.2047 12.6697 14.1191 12.8093 14.1253C12.875 14.1248 12.9382 14.1504 12.985 14.1965C13.0319 14.2426 13.0586 14.3054 13.0593 14.3712C13.0621 14.4643 13.057 14.5581 13.0566 14.6512Z" fill="#222222"/>
<path d="M14.6514 11.4601C14.6514 11.5586 14.658 11.6575 14.6514 11.7553C14.6496 11.8186 14.6231 11.8786 14.5776 11.9225C14.5321 11.9664 14.4712 11.9906 14.408 11.9899C14.2738 11.9969 14.1615 11.9199 14.1416 11.7826C14.11 11.5675 14.11 11.3488 14.1416 11.1336C14.1635 10.9866 14.2692 10.9272 14.4103 10.9319C14.5515 10.9366 14.635 11.0218 14.6529 11.1665C14.6529 11.1817 14.6564 11.1974 14.6568 11.2126C14.6568 11.2955 14.6568 11.3784 14.6568 11.4613L14.6514 11.4601Z" fill="#222222"/>
<path d="M14.6517 9.85685C14.6517 9.95499 14.6583 10.0523 14.6517 10.1516C14.6396 10.3002 14.5394 10.3952 14.3974 10.3905C14.2554 10.3858 14.1544 10.3225 14.1381 10.1735C14.1115 9.96286 14.1115 9.74967 14.1381 9.53899C14.1587 9.39199 14.2605 9.33061 14.4033 9.33413C14.546 9.33765 14.6373 9.41897 14.6486 9.56167C14.6572 9.65941 14.6486 9.75716 14.6486 9.85685H14.6517Z" fill="#222222"/>
<path d="M13.0559 9.86017C13.0559 9.95869 13.0625 10.0576 13.0559 10.1553C13.0528 10.2183 13.0258 10.2776 12.9805 10.3212C12.9352 10.3648 12.8749 10.3894 12.8121 10.3899C12.6803 10.3985 12.5601 10.3192 12.5426 10.1843C12.5141 9.96836 12.5141 9.74963 12.5426 9.53371C12.5617 9.38983 12.6678 9.32689 12.8117 9.33236C12.843 9.33132 12.8741 9.33649 12.9034 9.34758C12.9326 9.35868 12.9594 9.37547 12.9821 9.39699C13.0048 9.41851 13.0231 9.44433 13.0358 9.47296C13.0485 9.5016 13.0555 9.53247 13.0562 9.56381C13.0625 9.66273 13.0562 9.76164 13.0559 9.86017Z" fill="#222222"/>
<path d="M14.6518 13.0544C14.6518 13.153 14.6581 13.2499 14.6518 13.3492C14.6401 13.4955 14.5516 13.5787 14.412 13.5838C14.2723 13.5889 14.1639 13.5306 14.1425 13.384C14.1093 13.1637 14.1101 12.9395 14.1448 12.7194C14.1674 12.5786 14.2766 12.5239 14.4069 12.5286C14.5372 12.5333 14.6366 12.6021 14.6491 12.744C14.6584 12.8468 14.651 12.9508 14.651 13.0544H14.6518Z" fill="#222222"/>
<path d="M14.6526 14.66C14.6526 14.753 14.6569 14.8464 14.6526 14.9395C14.6448 15.0845 14.566 15.1678 14.4186 15.1803C14.2645 15.1932 14.1608 15.126 14.1393 14.9759C14.1066 14.7608 14.1066 14.5419 14.1393 14.3269C14.1433 14.2952 14.1538 14.2648 14.1699 14.2374C14.1861 14.2099 14.2077 14.1861 14.2333 14.1673C14.259 14.1485 14.2882 14.1351 14.3192 14.128C14.3501 14.1209 14.3822 14.1202 14.4135 14.1259C14.5457 14.1404 14.6397 14.2064 14.6502 14.348C14.658 14.4508 14.6502 14.5548 14.6502 14.6584L14.6526 14.66Z" fill="#222222"/>
<path d="M13.0577 16.2463C13.0577 16.3393 13.062 16.4328 13.0577 16.5258C13.0487 16.6853 12.9536 16.7784 12.8038 16.7823C12.6541 16.7862 12.5476 16.7041 12.5378 16.5567C12.5242 16.3553 12.5242 16.1532 12.5378 15.9519C12.5484 15.7955 12.6634 15.7173 12.819 15.7286C12.9629 15.7388 13.0491 15.8271 13.0581 15.9824C13.062 16.0699 13.0577 16.1591 13.0577 16.2463Z" fill="#222222"/>
<path d="M14.6521 16.2623C14.6521 16.3558 14.6564 16.4492 14.6521 16.5419C14.644 16.6885 14.5593 16.767 14.4158 16.78C14.2723 16.7929 14.1603 16.7197 14.1393 16.5708C14.1098 16.3604 14.1098 16.147 14.1393 15.9366C14.1603 15.7873 14.266 15.7161 14.4166 15.729C14.5613 15.7415 14.644 15.8213 14.6506 15.9675C14.6564 16.0657 14.6525 16.1642 14.6521 16.2623Z" fill="#222222"/>
</g>
<defs>
<clipPath id="clip0_7846_2759">
<rect width="16" height="16" fill="white" transform="translate(4 4)"/>
</clipPath>
</defs>
</svg>
