<svg width="13" height="13" viewBox="0 0 13 13" fill="none" xmlns="http://www.w3.org/2000/svg">
<g clip-path="url(#clip0_4247_1315)">
<path d="M1.625 5.41602C1.625 9.20768 6.5 12.4577 6.5 12.4577C6.5 12.4577 11.375 9.20768 11.375 5.41602C11.375 4.12309 10.8614 2.88311 9.94715 1.96887C9.03291 1.05463 7.79293 0.541016 6.5 0.541016C5.20707 0.541016 3.96709 1.05463 3.05285 1.96887C2.13861 2.88311 1.625 4.12309 1.625 5.41602Z" stroke="#4D8EC4" stroke-width="1.5" stroke-linecap="round" stroke-linejoin="round"/>
<path d="M6.5 7.04102C5.60254 7.04102 4.875 6.31348 4.875 5.41602C4.875 4.51855 5.60254 3.79102 6.5 3.79102C7.39746 3.79102 8.125 4.51855 8.125 5.41602C8.125 6.31348 7.39746 7.04102 6.5 7.04102Z" stroke="#4D8EC4" stroke-width="1.5" stroke-linecap="round" stroke-linejoin="round"/>
</g>
<defs>
<clipPath id="clip0_4247_1315">
<rect width="13" height="13" fill="white" transform="matrix(-1 0 0 1 13 0)"/>
</clipPath>
</defs>
</svg>
