<svg width="21" height="14" viewBox="0 0 21 14" fill="none" xmlns="http://www.w3.org/2000/svg">
<path d="M1.43795 8.08696C1.6782 8.08696 1.87302 7.90079 1.87302 7.6221C1.87302 7.23731 1.43795 6.96069 1.43795 6.96069C1.43795 6.96069 1.00293 7.23731 1.00293 7.6221C1.00293 7.90079 1.19775 8.08696 1.43795 8.08696Z" fill="#26455F"/>
<path d="M20.0427 9.19752C19.9848 8.61969 19.8028 8.19847 19.5619 8.19847C19.321 8.19847 19.139 8.61969 19.081 9.19752H18.1238C18.1238 10.1865 18.5871 11.0164 19.2125 11.2454C19.1549 11.7881 18.6946 12.2123 18.1369 12.2123C17.5403 12.2123 17.0549 11.7269 17.0549 11.1305V7.48884C17.0549 6.51405 16.2619 5.72095 15.287 5.72095C14.3121 5.72095 13.519 6.51399 13.519 7.48884V7.98208H13.3074C13.3059 7.98208 13.3044 7.98186 13.303 7.98186C13.3016 7.98186 13.3001 7.98208 13.2987 7.98208H7.70121C7.69976 7.98208 7.69831 7.98186 7.69691 7.98186C7.69551 7.98186 7.69406 7.98208 7.69261 7.98208H7.48091V7.48884C7.48091 6.51405 6.68781 5.72095 5.7129 5.72095C4.73805 5.72095 3.94495 6.51399 3.94495 7.48884V11.1305C3.94495 11.727 3.45953 12.2123 2.86299 12.2123C2.30539 12.2123 1.84506 11.7881 1.78745 11.2454C2.41283 11.0163 2.87617 10.1865 2.87617 9.19752H1.91898C1.86104 8.61969 1.67901 8.19847 1.43814 8.19847C1.19722 8.19847 1.01525 8.61969 0.957253 9.19752H0C0 10.1921 0.468821 11.0255 1.0995 11.2491C1.16085 12.1688 1.92803 12.8984 2.86299 12.8984C3.83789 12.8984 4.63105 12.1053 4.63105 11.1305V7.48884C4.63105 6.8923 5.11641 6.40705 5.7129 6.40705C6.3095 6.40705 6.7948 6.89236 6.7948 7.48884V7.98208H6.01505C5.80319 7.98208 5.63149 8.15378 5.63149 8.36564C5.63149 11.0502 7.81541 13.2341 10.5 13.2341C13.1845 13.2341 15.3685 11.0502 15.3685 8.36564C15.3685 8.15378 15.1968 7.98208 14.9849 7.98208H14.2051V7.48884C14.2051 6.8923 14.6906 6.40705 15.2871 6.40705C15.8836 6.40705 16.3689 6.89236 16.3689 7.48884V11.1305C16.3689 12.1053 17.162 12.8984 18.137 12.8984C19.0719 12.8984 19.8392 12.1688 19.9006 11.2491C20.5312 11.0255 21 10.1921 21 9.19752H20.0427Z" fill="#26455F"/>
<path d="M19.5618 8.08696C19.802 8.08696 19.9968 7.90079 19.9968 7.6221C19.9968 7.23731 19.5618 6.96069 19.5618 6.96069C19.5618 6.96069 19.1267 7.23731 19.1267 7.6221C19.1267 7.90079 19.3215 8.08696 19.5618 8.08696Z" fill="#26455F"/>
<path d="M9.51604 3.62153C9.31825 3.5456 9.09644 3.64443 9.02045 3.84222C8.94452 4.04001 9.04336 4.26187 9.24115 4.3378C9.2864 4.35518 9.33278 4.36295 9.37859 4.36295C9.5328 4.36295 9.67806 4.26964 9.73673 4.11711C9.81272 3.91882 9.71382 3.69701 9.51604 3.62153Z" fill="#26455F"/>
<path d="M8.12043 7.26163C8.16513 7.27901 8.2115 7.28733 8.25726 7.28733C8.41152 7.28733 8.55729 7.19347 8.6154 7.04094C8.69138 6.84315 8.59249 6.62134 8.39465 6.54535C8.19692 6.46943 7.97511 6.56826 7.89918 6.76605C7.82369 6.96384 7.92203 7.18565 8.12043 7.26163Z" fill="#26455F"/>
<path d="M8.68083 5.80003C8.72614 5.81679 8.77251 5.82517 8.81771 5.82517C8.97192 5.82517 9.11774 5.7313 9.17641 5.57877C9.25239 5.38099 9.15345 5.15918 8.95571 5.08319C8.75737 5.00726 8.53556 5.1061 8.46019 5.30444C8.3842 5.50223 8.48298 5.72348 8.68083 5.80003Z" fill="#26455F"/>
<path d="M9.93915 2.90135C10.0934 2.90135 10.2392 2.80748 10.2973 2.65495C10.3732 2.45717 10.2744 2.23535 10.0766 2.15937C9.87881 2.08344 9.657 2.18228 9.58096 2.38006C9.50553 2.57785 9.60448 2.79966 9.80227 2.87565C9.84741 2.89297 9.89384 2.90135 9.93915 2.90135Z" fill="#26455F"/>
<path d="M11.1977 2.87567C11.3955 2.79968 11.4944 2.57787 11.4184 2.38009C11.3429 2.1823 11.1206 2.08341 10.9234 2.15939C10.725 2.23538 10.6267 2.45719 10.7022 2.65497C10.7608 2.8075 10.906 2.90137 11.0602 2.90137C11.1061 2.90137 11.1524 2.89299 11.1977 2.87567Z" fill="#26455F"/>
<path d="M11.8237 5.57899C11.8824 5.73152 12.0276 5.82538 12.1818 5.82538C12.2276 5.82538 12.274 5.817 12.3193 5.79968C12.517 5.72426 12.616 5.50244 12.54 5.30466C12.464 5.10687 12.2422 5.00798 12.0444 5.08341C11.8466 5.15939 11.7477 5.3812 11.8237 5.57899Z" fill="#26455F"/>
<path d="M12.3845 7.04096C12.4426 7.19349 12.5884 7.28736 12.7426 7.28736C12.7879 7.28736 12.8342 7.27903 12.8795 7.26165C13.0773 7.18567 13.1761 6.96386 13.1002 6.76607C13.0248 6.56829 12.8029 6.46939 12.6052 6.54538C12.4074 6.62136 12.3085 6.84317 12.3845 7.04096Z" fill="#26455F"/>
<path d="M11.6213 4.3632C11.6671 4.3632 11.7135 4.35538 11.7582 4.33806C11.9565 4.26213 12.0554 4.04026 11.9794 3.84248C11.9035 3.64469 11.6817 3.54585 11.4839 3.62123C11.286 3.69721 11.1872 3.91902 11.2626 4.11681C11.3213 4.2699 11.4671 4.3632 11.6213 4.3632Z" fill="#26455F"/>
<path d="M10.5 6.57349C10.2882 6.57349 10.1167 6.74501 10.1167 6.95677C10.1167 7.16852 10.2882 7.34061 10.5 7.34061C10.7117 7.34061 10.8832 7.16852 10.8832 6.95677C10.8832 6.74507 10.7117 6.57349 10.5 6.57349Z" fill="#26455F"/>
<path d="M10.5 3.6228C10.2882 3.6228 10.1167 3.79433 10.1167 4.00608C10.1167 4.21784 10.2882 4.38987 10.5 4.38987C10.7117 4.38987 10.8832 4.21784 10.8832 4.00608C10.8832 3.79433 10.7117 3.6228 10.5 3.6228Z" fill="#26455F"/>
<path d="M10.5 5.0979C10.2882 5.0979 10.1167 5.26993 10.1167 5.48168C10.1167 5.69344 10.2882 5.86497 10.5 5.86497C10.7117 5.86497 10.8832 5.69344 10.8832 5.48168C10.8832 5.26993 10.7117 5.0979 10.5 5.0979Z" fill="#26455F"/>
<path d="M10.4999 2.11112C11.3918 2.11112 12.1151 1.16599 12.1151 0H8.88477C8.88471 1.16599 9.60791 2.11112 10.4999 2.11112Z" fill="#26455F"/>
</svg>
