<svg width="21" height="21" viewBox="0 0 21 21" fill="none" xmlns="http://www.w3.org/2000/svg">
<path d="M4.75453 19H11.7456C12.0545 18.9996 12.3507 18.8768 12.5691 18.6583C12.7876 18.4399 12.9104 18.1437 12.9108 17.8348V16.0871H11.7456V17.8348H4.75453V3.85268H11.7456V5.60045H12.9108V3.85268C12.9104 3.54376 12.7876 3.2476 12.5691 3.02916C12.3507 2.81073 12.0545 2.68785 11.7456 2.6875H4.75453C4.44562 2.68785 4.14946 2.81073 3.93102 3.02916C3.71258 3.2476 3.58971 3.54376 3.58936 3.85268V17.8348C3.58971 18.1437 3.71258 18.4399 3.93102 18.6583C4.14946 18.8768 4.44562 18.9996 4.75453 19Z" fill="#222222"/>
<path d="M13.2523 13.5149L15.3414 11.4258H7.08496V10.2606H15.3414L13.2523 8.17144L14.076 7.34766L17.5716 10.8432L14.076 14.3387L13.2523 13.5149Z" fill="#222222"/>
</svg>
