<svg width="21" height="21" viewBox="0 0 21 21" fill="none" xmlns="http://www.w3.org/2000/svg">
<path d="M16.622 7.75902C16.3883 7.75902 16.1568 7.80509 15.9408 7.89459C15.7248 7.98408 15.5286 8.11525 15.3634 8.28061C15.1981 8.44597 15.0671 8.64227 14.9777 8.85829C14.8883 9.07431 14.8424 9.30583 14.8426 9.5396V12.2541H6.15851V9.5385C6.1583 9.20454 6.06412 8.87738 5.88673 8.59442C5.70934 8.31147 5.45591 8.08414 5.15541 7.93843C4.85492 7.79273 4.51948 7.73452 4.18746 7.77048C3.85544 7.80643 3.54024 7.93509 3.2779 8.14174C3.01556 8.3484 2.81666 8.6247 2.70396 8.93907C2.59125 9.25344 2.56929 9.59318 2.64057 9.91944C2.71186 10.2457 2.87351 10.5453 3.10706 10.784C3.34061 11.0228 3.63662 11.1909 3.96124 11.2693V16.3911C3.96153 16.5303 4.01694 16.6636 4.11534 16.762C4.21373 16.8604 4.34709 16.9158 4.48624 16.9161H16.5137C16.6529 16.9158 16.7862 16.8604 16.8846 16.762C16.983 16.6636 17.0384 16.5303 17.0387 16.3911V11.2693C17.4629 11.1681 17.8352 10.9145 18.0848 10.5569C18.3344 10.1993 18.444 9.7624 18.3927 9.32929C18.3414 8.89618 18.1329 8.49698 17.8066 8.20751C17.4804 7.91803 17.0582 7.75843 16.622 7.75902ZM15.4516 6.77092C15.5338 6.73621 15.6175 6.70523 15.7025 6.67808V5.16055C15.7019 4.83603 15.5728 4.52493 15.3436 4.29525C15.1143 4.06557 14.8035 3.93598 14.4789 3.93481H6.52324C6.19853 3.93569 5.88738 4.06515 5.65788 4.29486C5.42837 4.52457 5.2992 4.83584 5.29861 5.16055V6.67808C5.3836 6.70523 5.46732 6.73621 5.54951 6.77092C6.09377 7.00076 6.55814 7.38603 6.88449 7.87852C7.21085 8.371 7.38469 8.9488 7.38424 9.5396V11.0284H13.6168V9.5396C13.6168 8.9489 13.7908 8.37128 14.1171 7.87888C14.4434 7.38648 14.9076 7.00112 15.4516 6.77092Z" fill="#26455F"/>
</svg>
