<svg width="85" height="25" viewBox="0 0 85 25" fill="none" xmlns="http://www.w3.org/2000/svg">
<rect y="3.78516" width="85" height="18" rx="9" fill="#FDE470"/>
<path d="M33 3.78602L37.0013 3.78602L25.156 21.7848L20.6641 21.783L33 3.78602Z" fill="#FCF5C2"/>
<path d="M39 3.78602L43.0013 3.78602L31.156 21.7848L26.6641 21.783L39 3.78602Z" fill="#FCF5C2"/>
<path d="M16.3887 12.5703H14.5771L14.5674 11.6768H16.1494C16.4163 11.6768 16.6426 11.6377 16.8281 11.5596C17.0169 11.4782 17.1602 11.3626 17.2578 11.2129C17.3555 11.0599 17.4043 10.876 17.4043 10.6611C17.4043 10.4235 17.3587 10.2298 17.2676 10.0801C17.1764 9.93034 17.0365 9.82129 16.8477 9.75293C16.6621 9.68457 16.4245 9.65039 16.1348 9.65039H14.9482V15.7832H13.7227V8.67383H16.1348C16.5254 8.67383 16.8737 8.71126 17.1797 8.78613C17.4889 8.861 17.751 8.97819 17.9658 9.1377C18.1839 9.29395 18.3483 9.49251 18.459 9.7334C18.5729 9.97428 18.6299 10.2607 18.6299 10.5928C18.6299 10.8857 18.5599 11.1543 18.4199 11.3984C18.2799 11.6393 18.0732 11.8363 17.7998 11.9893C17.5264 12.1423 17.1862 12.2334 16.7793 12.2627L16.3887 12.5703ZM16.335 15.7832H14.1914L14.7432 14.8115H16.335C16.6117 14.8115 16.8428 14.766 17.0283 14.6748C17.2139 14.5804 17.3522 14.4518 17.4434 14.2891C17.5378 14.123 17.585 13.9294 17.585 13.708C17.585 13.4769 17.5443 13.2767 17.4629 13.1074C17.3815 12.9349 17.2529 12.8031 17.0771 12.7119C16.9014 12.6175 16.6719 12.5703 16.3887 12.5703H15.0117L15.0215 11.6768H16.8135L17.0918 12.0137C17.4824 12.0267 17.8031 12.113 18.0537 12.2725C18.3076 12.432 18.4964 12.6387 18.6201 12.8926C18.7438 13.1465 18.8057 13.4199 18.8057 13.7129C18.8057 14.1654 18.7064 14.5446 18.5078 14.8506C18.3125 15.1566 18.0309 15.3893 17.6631 15.5488C17.2952 15.7051 16.8525 15.7832 16.335 15.7832ZM21.1836 10.5V15.7832H20.002V10.5H21.1836ZM19.9238 9.11328C19.9238 8.93424 19.9824 8.78613 20.0996 8.66895C20.2201 8.5485 20.3861 8.48828 20.5977 8.48828C20.806 8.48828 20.9704 8.5485 21.0908 8.66895C21.2113 8.78613 21.2715 8.93424 21.2715 9.11328C21.2715 9.28906 21.2113 9.43555 21.0908 9.55273C20.9704 9.66992 20.806 9.72852 20.5977 9.72852C20.3861 9.72852 20.2201 9.66992 20.0996 9.55273C19.9824 9.43555 19.9238 9.28906 19.9238 9.11328ZM26.5596 14.8457V15.7832H22.624V14.8457H26.5596ZM26.4521 11.2324L23.0244 15.7832H22.2627V15.0264L25.6709 10.5H26.4521V11.2324ZM25.998 10.5V11.4375H22.3213V10.5H25.998ZM28.6689 11.6279V15.7832H27.4922V10.5H28.6006L28.6689 11.6279ZM28.459 12.9463L28.0781 12.9414C28.0814 12.5671 28.1335 12.2236 28.2344 11.9111C28.3385 11.5986 28.4818 11.3301 28.6641 11.1055C28.8496 10.8809 29.071 10.7083 29.3281 10.5879C29.5853 10.4642 29.8717 10.4023 30.1875 10.4023C30.4414 10.4023 30.6709 10.4382 30.876 10.5098C31.0843 10.5781 31.2617 10.6904 31.4082 10.8467C31.5579 11.0029 31.6719 11.2064 31.75 11.457C31.8281 11.7044 31.8672 12.0088 31.8672 12.3701V15.7832H30.6855V12.3652C30.6855 12.1113 30.6481 11.9111 30.5732 11.7646C30.5016 11.6149 30.3958 11.5091 30.2559 11.4473C30.1191 11.3822 29.9482 11.3496 29.7432 11.3496C29.5413 11.3496 29.3607 11.3919 29.2012 11.4766C29.0417 11.5612 28.9066 11.6768 28.7959 11.8232C28.6885 11.9697 28.6055 12.139 28.5469 12.3311C28.4883 12.5231 28.459 12.7282 28.459 12.9463ZM35.3975 15.8809C35.0068 15.8809 34.6536 15.8174 34.3379 15.6904C34.0254 15.5602 33.7585 15.3796 33.5371 15.1484C33.319 14.9173 33.1514 14.6455 33.0342 14.333C32.917 14.0205 32.8584 13.6836 32.8584 13.3223V13.127C32.8584 12.7135 32.9186 12.3392 33.0391 12.0039C33.1595 11.6686 33.3271 11.3822 33.542 11.1445C33.7568 10.9036 34.0107 10.7197 34.3037 10.5928C34.5967 10.4658 34.9141 10.4023 35.2559 10.4023C35.6335 10.4023 35.9639 10.4658 36.2471 10.5928C36.5303 10.7197 36.7646 10.8988 36.9502 11.1299C37.139 11.3577 37.279 11.6296 37.3701 11.9453C37.4645 12.2611 37.5117 12.6094 37.5117 12.9902V13.4932H33.4297V12.6484H36.3496V12.5557C36.3431 12.3441 36.3008 12.1455 36.2227 11.96C36.1478 11.7744 36.0322 11.6247 35.876 11.5107C35.7197 11.3968 35.5114 11.3398 35.251 11.3398C35.0557 11.3398 34.8815 11.3822 34.7285 11.4668C34.5788 11.5482 34.4535 11.667 34.3525 11.8232C34.2516 11.9795 34.1735 12.1683 34.1182 12.3896C34.0661 12.6077 34.04 12.8535 34.04 13.127V13.3223C34.04 13.5534 34.071 13.7682 34.1328 13.9668C34.1979 14.1621 34.2923 14.333 34.416 14.4795C34.5397 14.626 34.6895 14.7415 34.8652 14.8262C35.041 14.9076 35.2412 14.9482 35.4658 14.9482C35.749 14.9482 36.0013 14.8913 36.2227 14.7773C36.444 14.6634 36.6361 14.5023 36.7988 14.2939L37.4189 14.8945C37.305 15.0605 37.1569 15.2201 36.9746 15.373C36.7923 15.5228 36.5693 15.6449 36.3057 15.7393C36.0452 15.8337 35.7425 15.8809 35.3975 15.8809ZM41.3936 14.3525C41.3936 14.2354 41.3643 14.1296 41.3057 14.0352C41.2471 13.9375 41.1348 13.8496 40.9688 13.7715C40.806 13.6934 40.5651 13.6217 40.2461 13.5566C39.9661 13.4948 39.709 13.4215 39.4746 13.3369C39.2435 13.249 39.0449 13.1432 38.8789 13.0195C38.7129 12.8958 38.5843 12.7493 38.4932 12.5801C38.402 12.4108 38.3564 12.2155 38.3564 11.9941C38.3564 11.7793 38.4036 11.5758 38.498 11.3838C38.5924 11.1917 38.7275 11.0225 38.9033 10.876C39.0791 10.7295 39.2923 10.6139 39.543 10.5293C39.7969 10.4447 40.0801 10.4023 40.3926 10.4023C40.8353 10.4023 41.2145 10.4772 41.5303 10.627C41.8493 10.7734 42.0934 10.9736 42.2627 11.2275C42.432 11.4782 42.5166 11.7614 42.5166 12.0771H41.3398C41.3398 11.9372 41.304 11.807 41.2324 11.6865C41.1641 11.5628 41.0599 11.4635 40.9199 11.3887C40.7799 11.3105 40.6042 11.2715 40.3926 11.2715C40.1908 11.2715 40.0231 11.304 39.8896 11.3691C39.7594 11.431 39.6618 11.5124 39.5967 11.6133C39.5348 11.7142 39.5039 11.8249 39.5039 11.9453C39.5039 12.0332 39.5202 12.113 39.5527 12.1846C39.5885 12.2529 39.6471 12.3164 39.7285 12.375C39.8099 12.4303 39.9206 12.4824 40.0605 12.5312C40.2038 12.5801 40.3828 12.6273 40.5977 12.6729C41.0013 12.7575 41.348 12.8665 41.6377 13C41.9307 13.1302 42.1553 13.2995 42.3115 13.5078C42.4678 13.7129 42.5459 13.9733 42.5459 14.2891C42.5459 14.5234 42.4954 14.7383 42.3945 14.9336C42.2969 15.1257 42.1536 15.2933 41.9648 15.4365C41.776 15.5765 41.5498 15.6855 41.2861 15.7637C41.0257 15.8418 40.7327 15.8809 40.4072 15.8809C39.9287 15.8809 39.5234 15.7962 39.1914 15.627C38.8594 15.4544 38.6071 15.2347 38.4346 14.9678C38.2653 14.6976 38.1807 14.4176 38.1807 14.1279H39.3184C39.3314 14.346 39.3916 14.5202 39.499 14.6504C39.6097 14.7773 39.7464 14.8701 39.9092 14.9287C40.0752 14.984 40.2461 15.0117 40.4219 15.0117C40.6335 15.0117 40.8109 14.984 40.9541 14.9287C41.0973 14.8701 41.2064 14.792 41.2812 14.6943C41.3561 14.5934 41.3936 14.4795 41.3936 14.3525ZM47.2285 8.2832V15.7832H46.0566V8.2832H47.2285ZM47.0234 12.9463L46.6426 12.9414C46.6458 12.5768 46.6963 12.2399 46.7939 11.9307C46.8949 11.6214 47.0348 11.3529 47.2139 11.125C47.3962 10.8939 47.6143 10.7165 47.8682 10.5928C48.1221 10.4658 48.4036 10.4023 48.7129 10.4023C48.9733 10.4023 49.2077 10.4382 49.416 10.5098C49.6276 10.5814 49.8099 10.6969 49.9629 10.8564C50.1159 11.0127 50.2314 11.2178 50.3096 11.4717C50.391 11.7223 50.4316 12.0283 50.4316 12.3896V15.7832H49.25V12.3799C49.25 12.126 49.2126 11.9242 49.1377 11.7744C49.0661 11.6247 48.9603 11.5173 48.8203 11.4521C48.6803 11.3838 48.5094 11.3496 48.3076 11.3496C48.096 11.3496 47.9089 11.3919 47.7461 11.4766C47.5866 11.5612 47.4531 11.6768 47.3457 11.8232C47.2383 11.9697 47.1569 12.139 47.1016 12.3311C47.0495 12.5231 47.0234 12.7282 47.0234 12.9463ZM54.6016 14.7236V12.2041C54.6016 12.0153 54.5674 11.8525 54.499 11.7158C54.4307 11.5791 54.3265 11.4733 54.1865 11.3984C54.0498 11.3236 53.8773 11.2861 53.6689 11.2861C53.4769 11.2861 53.3109 11.3187 53.1709 11.3838C53.0309 11.4489 52.9219 11.5368 52.8438 11.6475C52.7656 11.7581 52.7266 11.8835 52.7266 12.0234H51.5547C51.5547 11.8151 51.6051 11.6133 51.7061 11.418C51.807 11.2227 51.9535 11.0485 52.1455 10.8955C52.3376 10.7425 52.5671 10.6221 52.834 10.5342C53.1009 10.4463 53.4004 10.4023 53.7324 10.4023C54.1296 10.4023 54.4811 10.4691 54.7871 10.6025C55.0964 10.736 55.3389 10.9378 55.5146 11.208C55.6937 11.4749 55.7832 11.8102 55.7832 12.2139V14.5625C55.7832 14.8034 55.7995 15.0199 55.832 15.2119C55.8678 15.4007 55.9183 15.5651 55.9834 15.7051V15.7832H54.7773C54.722 15.6562 54.6781 15.4951 54.6455 15.2998C54.6162 15.1012 54.6016 14.9092 54.6016 14.7236ZM54.7725 12.5703L54.7822 13.2979H53.9375C53.7194 13.2979 53.5273 13.319 53.3613 13.3613C53.1953 13.4004 53.057 13.459 52.9463 13.5371C52.8356 13.6152 52.7526 13.7096 52.6973 13.8203C52.6419 13.931 52.6143 14.0563 52.6143 14.1963C52.6143 14.3363 52.6468 14.4648 52.7119 14.582C52.777 14.696 52.8714 14.7855 52.9951 14.8506C53.1221 14.9157 53.2751 14.9482 53.4541 14.9482C53.695 14.9482 53.9049 14.8994 54.084 14.8018C54.2663 14.7008 54.4095 14.5788 54.5137 14.4355C54.6178 14.2891 54.6732 14.1507 54.6797 14.0205L55.0605 14.543C55.0215 14.6764 54.9548 14.8197 54.8604 14.9727C54.766 15.1257 54.6423 15.2721 54.4893 15.4121C54.3395 15.5488 54.1589 15.6611 53.9473 15.749C53.7389 15.8369 53.498 15.8809 53.2246 15.8809C52.8796 15.8809 52.5719 15.8125 52.3018 15.6758C52.0316 15.5358 51.82 15.3486 51.667 15.1143C51.514 14.8766 51.4375 14.6081 51.4375 14.3086C51.4375 14.0286 51.4896 13.7812 51.5938 13.5664C51.7012 13.3483 51.8574 13.166 52.0625 13.0195C52.2708 12.873 52.5247 12.7624 52.8242 12.6875C53.1237 12.6094 53.4655 12.5703 53.8496 12.5703H54.7725ZM59.9775 14.3525C59.9775 14.2354 59.9482 14.1296 59.8896 14.0352C59.8311 13.9375 59.7188 13.8496 59.5527 13.7715C59.39 13.6934 59.1491 13.6217 58.8301 13.5566C58.5501 13.4948 58.293 13.4215 58.0586 13.3369C57.8275 13.249 57.6289 13.1432 57.4629 13.0195C57.2969 12.8958 57.1683 12.7493 57.0771 12.5801C56.986 12.4108 56.9404 12.2155 56.9404 11.9941C56.9404 11.7793 56.9876 11.5758 57.082 11.3838C57.1764 11.1917 57.3115 11.0225 57.4873 10.876C57.6631 10.7295 57.8763 10.6139 58.127 10.5293C58.3809 10.4447 58.6641 10.4023 58.9766 10.4023C59.4193 10.4023 59.7985 10.4772 60.1143 10.627C60.4333 10.7734 60.6774 10.9736 60.8467 11.2275C61.016 11.4782 61.1006 11.7614 61.1006 12.0771H59.9238C59.9238 11.9372 59.888 11.807 59.8164 11.6865C59.748 11.5628 59.6439 11.4635 59.5039 11.3887C59.3639 11.3105 59.1882 11.2715 58.9766 11.2715C58.7747 11.2715 58.6071 11.304 58.4736 11.3691C58.3434 11.431 58.2458 11.5124 58.1807 11.6133C58.1188 11.7142 58.0879 11.8249 58.0879 11.9453C58.0879 12.0332 58.1042 12.113 58.1367 12.1846C58.1725 12.2529 58.2311 12.3164 58.3125 12.375C58.3939 12.4303 58.5046 12.4824 58.6445 12.5312C58.7878 12.5801 58.9668 12.6273 59.1816 12.6729C59.5853 12.7575 59.932 12.8665 60.2217 13C60.5146 13.1302 60.7393 13.2995 60.8955 13.5078C61.0518 13.7129 61.1299 13.9733 61.1299 14.2891C61.1299 14.5234 61.0794 14.7383 60.9785 14.9336C60.8809 15.1257 60.7376 15.2933 60.5488 15.4365C60.36 15.5765 60.1338 15.6855 59.8701 15.7637C59.6097 15.8418 59.3167 15.8809 58.9912 15.8809C58.5127 15.8809 58.1074 15.7962 57.7754 15.627C57.4434 15.4544 57.1911 15.2347 57.0186 14.9678C56.8493 14.6976 56.7646 14.4176 56.7646 14.1279H57.9023C57.9154 14.346 57.9756 14.5202 58.083 14.6504C58.1937 14.7773 58.3304 14.8701 58.4932 14.9287C58.6592 14.984 58.8301 15.0117 59.0059 15.0117C59.2174 15.0117 59.3949 14.984 59.5381 14.9287C59.6813 14.8701 59.7904 14.792 59.8652 14.6943C59.9401 14.5934 59.9775 14.4795 59.9775 14.3525ZM65.1387 14.7236V12.2041C65.1387 12.0153 65.1045 11.8525 65.0361 11.7158C64.9678 11.5791 64.8636 11.4733 64.7236 11.3984C64.5869 11.3236 64.4144 11.2861 64.2061 11.2861C64.014 11.2861 63.848 11.3187 63.708 11.3838C63.568 11.4489 63.459 11.5368 63.3809 11.6475C63.3027 11.7581 63.2637 11.8835 63.2637 12.0234H62.0918C62.0918 11.8151 62.1423 11.6133 62.2432 11.418C62.3441 11.2227 62.4906 11.0485 62.6826 10.8955C62.8747 10.7425 63.1042 10.6221 63.3711 10.5342C63.638 10.4463 63.9375 10.4023 64.2695 10.4023C64.6667 10.4023 65.0182 10.4691 65.3242 10.6025C65.6335 10.736 65.876 10.9378 66.0518 11.208C66.2308 11.4749 66.3203 11.8102 66.3203 12.2139V14.5625C66.3203 14.8034 66.3366 15.0199 66.3691 15.2119C66.4049 15.4007 66.4554 15.5651 66.5205 15.7051V15.7832H65.3145C65.2591 15.6562 65.2152 15.4951 65.1826 15.2998C65.1533 15.1012 65.1387 14.9092 65.1387 14.7236ZM65.3096 12.5703L65.3193 13.2979H64.4746C64.2565 13.2979 64.0645 13.319 63.8984 13.3613C63.7324 13.4004 63.5941 13.459 63.4834 13.5371C63.3727 13.6152 63.2897 13.7096 63.2344 13.8203C63.179 13.931 63.1514 14.0563 63.1514 14.1963C63.1514 14.3363 63.1839 14.4648 63.249 14.582C63.3141 14.696 63.4085 14.7855 63.5322 14.8506C63.6592 14.9157 63.8122 14.9482 63.9912 14.9482C64.2321 14.9482 64.4421 14.8994 64.6211 14.8018C64.8034 14.7008 64.9466 14.5788 65.0508 14.4355C65.1549 14.2891 65.2103 14.1507 65.2168 14.0205L65.5977 14.543C65.5586 14.6764 65.4919 14.8197 65.3975 14.9727C65.3031 15.1257 65.1794 15.2721 65.0264 15.4121C64.8766 15.5488 64.696 15.6611 64.4844 15.749C64.276 15.8369 64.0352 15.8809 63.7617 15.8809C63.4167 15.8809 63.109 15.8125 62.8389 15.6758C62.5687 15.5358 62.3571 15.3486 62.2041 15.1143C62.0511 14.8766 61.9746 14.6081 61.9746 14.3086C61.9746 14.0286 62.0267 13.7812 62.1309 13.5664C62.2383 13.3483 62.3945 13.166 62.5996 13.0195C62.8079 12.873 63.0618 12.7624 63.3613 12.6875C63.6608 12.6094 64.0026 12.5703 64.3867 12.5703H65.3096ZM68.7324 11.5156V17.8145H67.5557V10.5H68.6396L68.7324 11.5156ZM72.1748 13.0928V13.1953C72.1748 13.5794 72.1292 13.9359 72.0381 14.2646C71.9502 14.5902 71.8184 14.875 71.6426 15.1191C71.4701 15.36 71.2568 15.5472 71.0029 15.6807C70.749 15.8141 70.4561 15.8809 70.124 15.8809C69.7952 15.8809 69.5072 15.8206 69.2598 15.7002C69.0156 15.5765 68.8089 15.4023 68.6396 15.1777C68.4704 14.9531 68.3337 14.6895 68.2295 14.3867C68.1286 14.0807 68.057 13.7454 68.0146 13.3809V12.9854C68.057 12.598 68.1286 12.2464 68.2295 11.9307C68.3337 11.6149 68.4704 11.3431 68.6396 11.1152C68.8089 10.8874 69.0156 10.7116 69.2598 10.5879C69.5039 10.4642 69.7887 10.4023 70.1143 10.4023C70.4463 10.4023 70.7409 10.4674 70.998 10.5977C71.2552 10.7246 71.4717 10.9069 71.6475 11.1445C71.8232 11.3789 71.9551 11.6621 72.043 11.9941C72.1309 12.3229 72.1748 12.6891 72.1748 13.0928ZM70.998 13.1953V13.0928C70.998 12.8486 70.9753 12.6224 70.9297 12.4141C70.8841 12.2025 70.8125 12.0169 70.7148 11.8574C70.6172 11.6979 70.4919 11.5742 70.3389 11.4863C70.1891 11.3952 70.0085 11.3496 69.7969 11.3496C69.5885 11.3496 69.4095 11.3854 69.2598 11.457C69.11 11.5254 68.9847 11.6214 68.8838 11.7451C68.7829 11.8688 68.7048 12.0137 68.6494 12.1797C68.5941 12.3424 68.555 12.5199 68.5322 12.7119V13.6592C68.5713 13.8936 68.638 14.1084 68.7324 14.3037C68.8268 14.499 68.9603 14.6553 69.1328 14.7725C69.3086 14.8864 69.5332 14.9434 69.8066 14.9434C70.0182 14.9434 70.1989 14.8978 70.3486 14.8066C70.4984 14.7155 70.6204 14.5902 70.7148 14.4307C70.8125 14.2679 70.8841 14.0807 70.9297 13.8691C70.9753 13.6576 70.998 13.4329 70.998 13.1953Z" fill="#CE9730"/>
</svg>
