<svg width="13" height="13" viewBox="0 0 13 13" fill="none" xmlns="http://www.w3.org/2000/svg">
<path d="M12.5734 1.54812C12.5268 1.3382 12.3988 1.15532 12.2176 1.03957C12.0364 0.923827 11.8166 0.884648 11.6066 0.930625L8.52719 1.61719L4.46469 0.804688L1.04406 1.56437C0.863124 1.60344 0.70107 1.70342 0.584982 1.84761C0.468894 1.99179 0.405804 2.17145 0.406252 2.35656V11.2738C0.406249 11.3339 0.413063 11.3939 0.426565 11.4525C0.473203 11.6624 0.601162 11.8453 0.782399 11.9611C0.963636 12.0768 1.18337 12.116 1.39344 12.07L4.47282 11.3834L8.53531 12.1959L11.9559 11.4362C12.1369 11.3972 12.2989 11.2972 12.415 11.153C12.5311 11.0088 12.5942 10.8292 12.5938 10.6441V1.72688C12.5937 1.66672 12.5868 1.60677 12.5734 1.54812ZM4.875 1.71469L8.125 2.36469V11.2859L4.875 10.6359V1.71469ZM1.21875 11.2738V2.35656L4.0625 1.72688V10.6441L1.21875 11.2738ZM11.7813 10.6441L8.9375 11.2738V2.35656L11.7813 1.72688V10.6441Z" fill="#4D8EC4"/>
<line x1="2.5" y1="4" x2="2.5" y2="9" stroke="#4D8EC4"/>
<line x1="6.5" y1="4" x2="6.5" y2="9" stroke="#4D8EC4"/>
<line x1="10.5" y1="4" x2="10.5" y2="9" stroke="#4D8EC4"/>
</svg>
