<svg width="40" height="40" viewBox="0 0 40 40" fill="none" xmlns="http://www.w3.org/2000/svg">
<g clip-path="url(#clip0_4285_1298)">
<path d="M19.9998 1.66621C16.3739 1.66621 12.8293 2.74144 9.81439 4.75593C6.79949 6.77042 4.44966 9.6337 3.06205 12.9837C1.67445 16.3337 1.31139 20.0199 2.01878 23.5762C2.72618 27.1325 4.47226 30.3992 7.03622 32.9632C9.60018 35.5271 12.8669 37.2732 16.4232 37.9806C19.9795 38.688 23.6657 38.3249 27.0157 36.9373C30.3657 35.5497 33.229 33.1999 35.2435 30.185C37.2579 27.1701 38.3332 23.6255 38.3332 19.9995C38.3442 17.5889 37.8775 15.1999 36.9601 12.9706C36.0427 10.7414 34.6927 8.71593 32.9881 7.01132C31.2835 5.30671 29.258 3.95671 27.0287 3.03928C24.7995 2.12185 22.4105 1.65517 19.9998 1.66621ZM19.9998 8.33287C21.3184 8.33287 22.6073 8.72387 23.7036 9.45641C24.8 10.189 25.6545 11.2301 26.159 12.4483C26.6636 13.6665 26.7956 15.0069 26.5384 16.3001C26.2812 17.5933 25.6462 18.7812 24.7139 19.7136C23.7815 20.6459 22.5937 21.2809 21.3004 21.5381C20.0072 21.7953 18.6668 21.6633 17.4486 21.1587C16.2304 20.6542 15.1893 19.7997 14.4567 18.7033C13.7242 17.607 13.3332 16.3181 13.3332 14.9995C13.3332 13.2314 14.0356 11.5357 15.2858 10.2855C16.536 9.03525 18.2317 8.33287 19.9998 8.33287ZM19.9998 34.9995C16.2317 34.9755 12.6075 33.5495 9.83318 30.9995C12.9568 29.3023 16.4453 28.3873 19.9998 28.3329C23.5544 28.3873 27.0429 29.3023 30.1665 30.9995C27.3922 33.5495 23.768 34.9755 19.9998 34.9995Z" fill="#7E8C90"/>
</g>
<defs>
<clipPath id="clip0_4285_1298">
<rect width="40" height="40" fill="white"/>
</clipPath>
</defs>
</svg>
