<svg width="51" height="51" viewBox="0 0 51 51" fill="none" xmlns="http://www.w3.org/2000/svg">
<path fill-rule="evenodd" clip-rule="evenodd" d="M44.0457 23.3744L48.2405 19.1244C40.4172 11.1981 29.6366 8.18063 19.5061 9.96563L24.9174 15.4481C31.8388 15.4056 38.7812 18.0406 44.0457 23.3744ZM39.8509 27.6244C37.5857 25.3294 34.901 23.6931 32.0486 22.6731L38.3827 29.0906L39.8509 27.6244ZM18.8769 36.1244L25.1691 42.4994L31.4613 36.1244C28.0006 32.5969 22.3586 32.5969 18.8769 36.1244ZM7.1524 3.48438L4.19506 6.48062L10.5921 12.9619C7.52993 14.5131 4.65649 16.5531 2.09766 19.1244L6.29246 23.3744C8.87227 20.7606 11.8506 18.7844 15.0386 17.4669L19.7368 22.2269C16.339 23.1406 13.151 24.9469 10.4873 27.6244L14.6821 31.8744C17.5136 29.0056 21.205 27.5394 24.9384 27.4969L39.788 42.5419L42.7453 39.5456L7.1524 3.48438Z" fill="white"/>
</svg>
