<svg width="21" height="22" viewBox="0 0 21 22" fill="none" xmlns="http://www.w3.org/2000/svg">
<path fill-rule="evenodd" clip-rule="evenodd" d="M4 4.84127C4 3.95367 4.71954 3.23413 5.60714 3.23413H15.25C16.1376 3.23413 16.8571 3.95367 16.8571 4.84127V5.89256H4V4.84127ZM4 7.23184V16.627C4 17.5146 4.71954 18.2341 5.60714 18.2341H15.25C16.1376 18.2341 16.8571 17.5146 16.8571 16.627V7.23184H4ZM6.56338 12.3413C6.56338 12.1275 6.5808 11.9175 6.61437 11.7126C6.61592 11.702 6.6177 11.6915 6.61967 11.6811C6.65686 11.4653 6.71198 11.2554 6.78352 11.0529C7.31375 9.55279 8.74437 8.47608 10.4285 8.47608C12.5632 8.47608 14.2937 10.2066 14.2937 12.3413C14.2937 14.4759 12.5632 16.2065 10.4285 16.2065C8.29388 16.2065 6.56338 14.4759 6.56338 12.3413ZM7.75243 12.0203C7.79572 11.7623 8.0191 11.5733 8.28076 11.5733H8.65988C9.47915 11.5733 9.95948 11.7731 10.3913 11.9528L10.4557 11.9796C10.8596 12.1468 11.2673 12.3044 12.0745 12.3044H12.6067C12.7643 12.3044 12.9139 12.3738 13.0157 12.494C13.1175 12.6143 13.1611 12.7733 13.1351 12.9287C12.9185 14.2198 11.7965 15.2036 10.4437 15.2036C8.93654 15.2036 7.71472 13.9817 7.71472 12.4745C7.71472 12.3202 7.72759 12.1684 7.75243 12.0203Z" fill="#26455F"/>
</svg>
