<svg width="70" height="23" viewBox="0 0 70 23" fill="none" xmlns="http://www.w3.org/2000/svg">
<path d="M3.35938 4.6748H1.55762L1.54785 3.91797H3.18359C3.45378 3.91797 3.68978 3.8724 3.8916 3.78125C4.09342 3.6901 4.24967 3.5599 4.36035 3.39062C4.47428 3.2181 4.53125 3.01302 4.53125 2.77539C4.53125 2.51497 4.48079 2.30339 4.37988 2.14062C4.28223 1.97461 4.13086 1.85417 3.92578 1.7793C3.72396 1.70117 3.4668 1.66211 3.1543 1.66211H1.76758V8H0.825195V0.890625H3.1543C3.51888 0.890625 3.8444 0.92806 4.13086 1.00293C4.41732 1.07454 4.65983 1.18848 4.8584 1.34473C5.06022 1.49772 5.21322 1.69303 5.31738 1.93066C5.42155 2.16829 5.47363 2.45312 5.47363 2.78516C5.47363 3.07812 5.39876 3.34342 5.24902 3.58105C5.09928 3.81543 4.89095 4.00749 4.62402 4.15723C4.36035 4.30697 4.05111 4.40299 3.69629 4.44531L3.35938 4.6748ZM3.31543 8H1.18652L1.71875 7.2334H3.31543C3.61491 7.2334 3.86882 7.18132 4.07715 7.07715C4.28874 6.97298 4.44987 6.8265 4.56055 6.6377C4.67122 6.44564 4.72656 6.2194 4.72656 5.95898C4.72656 5.69531 4.67936 5.46745 4.58496 5.27539C4.49056 5.08333 4.34245 4.93522 4.14062 4.83105C3.9388 4.72689 3.67839 4.6748 3.35938 4.6748H2.0166L2.02637 3.91797H3.8623L4.0625 4.19141C4.4043 4.2207 4.69401 4.31836 4.93164 4.48438C5.16927 4.64714 5.34993 4.85547 5.47363 5.10938C5.60059 5.36328 5.66406 5.64323 5.66406 5.94922C5.66406 6.39193 5.56641 6.76628 5.37109 7.07227C5.17904 7.375 4.90723 7.60612 4.55566 7.76562C4.2041 7.92188 3.79069 8 3.31543 8ZM9.11133 8.09766C8.74349 8.09766 8.40983 8.03581 8.11035 7.91211C7.81413 7.78516 7.55859 7.60775 7.34375 7.37988C7.13216 7.15202 6.9694 6.88184 6.85547 6.56934C6.74154 6.25684 6.68457 5.91504 6.68457 5.54395V5.33887C6.68457 4.90918 6.74805 4.52669 6.875 4.19141C7.00195 3.85286 7.17448 3.56641 7.39258 3.33203C7.61068 3.09766 7.85807 2.92025 8.13477 2.7998C8.41146 2.67936 8.69792 2.61914 8.99414 2.61914C9.37174 2.61914 9.69727 2.68424 9.9707 2.81445C10.2474 2.94466 10.4736 3.12695 10.6494 3.36133C10.8252 3.59245 10.9554 3.86589 11.04 4.18164C11.1247 4.49414 11.167 4.83594 11.167 5.20703V5.6123H7.22168V4.875H10.2637V4.80664C10.2507 4.57227 10.2018 4.3444 10.1172 4.12305C10.0358 3.90169 9.9056 3.7194 9.72656 3.57617C9.54753 3.43294 9.30339 3.36133 8.99414 3.36133C8.78906 3.36133 8.60026 3.40527 8.42773 3.49316C8.25521 3.5778 8.1071 3.70475 7.9834 3.87402C7.8597 4.04329 7.76367 4.25 7.69531 4.49414C7.62695 4.73828 7.59277 5.01986 7.59277 5.33887V5.54395C7.59277 5.7946 7.62695 6.0306 7.69531 6.25195C7.76693 6.47005 7.86947 6.66211 8.00293 6.82812C8.13965 6.99414 8.30404 7.12435 8.49609 7.21875C8.69141 7.31315 8.91276 7.36035 9.16016 7.36035C9.47917 7.36035 9.74935 7.29525 9.9707 7.16504C10.1921 7.03483 10.3857 6.86068 10.5518 6.64258L11.0986 7.07715C10.9847 7.24967 10.8398 7.41406 10.6641 7.57031C10.4883 7.72656 10.2718 7.85352 10.0146 7.95117C9.76074 8.04883 9.45964 8.09766 9.11133 8.09766ZM13.6377 7.45312L15.1074 2.7168H16.0742L13.9551 8.81543C13.9062 8.94564 13.8411 9.08561 13.7598 9.23535C13.6816 9.38835 13.5807 9.5332 13.457 9.66992C13.3333 9.80664 13.1836 9.91732 13.0078 10.002C12.8353 10.0898 12.6286 10.1338 12.3877 10.1338C12.3161 10.1338 12.2249 10.124 12.1143 10.1045C12.0036 10.085 11.9255 10.0687 11.8799 10.0557L11.875 9.32324C11.901 9.3265 11.9417 9.32975 11.9971 9.33301C12.0557 9.33952 12.0964 9.34277 12.1191 9.34277C12.3242 9.34277 12.4984 9.3151 12.6416 9.25977C12.7848 9.20768 12.9053 9.11816 13.0029 8.99121C13.1038 8.86751 13.1901 8.69661 13.2617 8.47852L13.6377 7.45312ZM12.5586 2.7168L13.9307 6.81836L14.165 7.77051L13.5156 8.10254L11.5723 2.7168H12.5586ZM13.4473 1.93555L14.3945 0.5H15.4834L14.1748 1.93555H13.4473ZM17.8711 0.5V8H16.9629V0.5H17.8711ZM21.5137 8.09766C21.1458 8.09766 20.8122 8.03581 20.5127 7.91211C20.2165 7.78516 19.9609 7.60775 19.7461 7.37988C19.5345 7.15202 19.3717 6.88184 19.2578 6.56934C19.1439 6.25684 19.0869 5.91504 19.0869 5.54395V5.33887C19.0869 4.90918 19.1504 4.52669 19.2773 4.19141C19.4043 3.85286 19.5768 3.56641 19.7949 3.33203C20.013 3.09766 20.2604 2.92025 20.5371 2.7998C20.8138 2.67936 21.1003 2.61914 21.3965 2.61914C21.7741 2.61914 22.0996 2.68424 22.373 2.81445C22.6497 2.94466 22.876 3.12695 23.0518 3.36133C23.2275 3.59245 23.3577 3.86589 23.4424 4.18164C23.527 4.49414 23.5693 4.83594 23.5693 5.20703V5.6123H19.624V4.875H22.666V4.80664C22.653 4.57227 22.6042 4.3444 22.5195 4.12305C22.4382 3.90169 22.3079 3.7194 22.1289 3.57617C21.9499 3.43294 21.7057 3.36133 21.3965 3.36133C21.1914 3.36133 21.0026 3.40527 20.8301 3.49316C20.6576 3.5778 20.5094 3.70475 20.3857 3.87402C20.262 4.04329 20.166 4.25 20.0977 4.49414C20.0293 4.73828 19.9951 5.01986 19.9951 5.33887V5.54395C19.9951 5.7946 20.0293 6.0306 20.0977 6.25195C20.1693 6.47005 20.2718 6.66211 20.4053 6.82812C20.542 6.99414 20.7064 7.12435 20.8984 7.21875C21.0938 7.31315 21.3151 7.36035 21.5625 7.36035C21.8815 7.36035 22.1517 7.29525 22.373 7.16504C22.5944 7.03483 22.7881 6.86068 22.9541 6.64258L23.501 7.07715C23.387 7.24967 23.2422 7.41406 23.0664 7.57031C22.8906 7.72656 22.6742 7.85352 22.417 7.95117C22.1631 8.04883 21.862 8.09766 21.5137 8.09766ZM25.5322 0.5V8H24.624V0.5H25.5322ZM28.7598 2.7168L26.4551 5.18262L25.166 6.52051L25.0928 5.55859L26.0156 4.45508L27.6562 2.7168H28.7598ZM27.9346 8L26.0498 5.48047L26.5186 4.6748L28.999 8H27.9346ZM30.6738 2.7168V8H29.7656V2.7168H30.6738ZM29.6973 1.31543C29.6973 1.16895 29.7412 1.04525 29.8291 0.944336C29.9202 0.843424 30.0537 0.792969 30.2295 0.792969C30.402 0.792969 30.5339 0.843424 30.625 0.944336C30.7194 1.04525 30.7666 1.16895 30.7666 1.31543C30.7666 1.4554 30.7194 1.57585 30.625 1.67676C30.5339 1.77441 30.402 1.82324 30.2295 1.82324C30.0537 1.82324 29.9202 1.77441 29.8291 1.67676C29.7412 1.57585 29.6973 1.4554 29.6973 1.31543ZM2.17285 19.4531L3.64258 14.7168H4.60938L2.49023 20.8154C2.44141 20.9456 2.3763 21.0856 2.29492 21.2354C2.2168 21.3883 2.11589 21.5332 1.99219 21.6699C1.86849 21.8066 1.71875 21.9173 1.54297 22.002C1.37044 22.0898 1.16374 22.1338 0.922852 22.1338C0.851237 22.1338 0.760091 22.124 0.649414 22.1045C0.538737 22.085 0.460612 22.0687 0.415039 22.0557L0.410156 21.3232C0.436198 21.3265 0.476888 21.3298 0.532227 21.333C0.59082 21.3395 0.63151 21.3428 0.654297 21.3428C0.859375 21.3428 1.03353 21.3151 1.17676 21.2598C1.31999 21.2077 1.44043 21.1182 1.53809 20.9912C1.639 20.8675 1.72526 20.6966 1.79688 20.4785L2.17285 19.4531ZM1.09375 14.7168L2.46582 18.8184L2.7002 19.7705L2.05078 20.1025L0.107422 14.7168H1.09375ZM8.50098 18.5986C8.50098 18.4684 8.47168 18.348 8.41309 18.2373C8.35775 18.1234 8.24219 18.0208 8.06641 17.9297C7.89388 17.8353 7.63346 17.7539 7.28516 17.6855C6.99219 17.6237 6.72689 17.5505 6.48926 17.4658C6.25488 17.3812 6.05469 17.2786 5.88867 17.1582C5.72591 17.0378 5.60059 16.8962 5.5127 16.7334C5.4248 16.5706 5.38086 16.3802 5.38086 16.1621C5.38086 15.9538 5.42643 15.7568 5.51758 15.5713C5.61198 15.3857 5.74382 15.2214 5.91309 15.0781C6.08561 14.9349 6.29232 14.8226 6.5332 14.7412C6.77409 14.6598 7.04264 14.6191 7.33887 14.6191C7.76204 14.6191 8.12337 14.694 8.42285 14.8438C8.72233 14.9935 8.95182 15.1937 9.11133 15.4443C9.27083 15.6917 9.35059 15.9668 9.35059 16.2695H8.44727C8.44727 16.123 8.40332 15.9814 8.31543 15.8447C8.23079 15.7048 8.10547 15.5892 7.93945 15.498C7.77669 15.4069 7.5765 15.3613 7.33887 15.3613C7.08822 15.3613 6.88477 15.4004 6.72852 15.4785C6.57552 15.5534 6.46322 15.6494 6.3916 15.7666C6.32324 15.8838 6.28906 16.0075 6.28906 16.1377C6.28906 16.2354 6.30534 16.3232 6.33789 16.4014C6.3737 16.4762 6.43555 16.5462 6.52344 16.6113C6.61133 16.6732 6.73503 16.7318 6.89453 16.7871C7.05404 16.8424 7.25749 16.8978 7.50488 16.9531C7.93783 17.0508 8.29427 17.168 8.57422 17.3047C8.85417 17.4414 9.0625 17.609 9.19922 17.8076C9.33594 18.0062 9.4043 18.2471 9.4043 18.5303C9.4043 18.7614 9.35547 18.973 9.25781 19.165C9.16341 19.3571 9.02507 19.5231 8.84277 19.6631C8.66374 19.7998 8.44889 19.9072 8.19824 19.9854C7.95085 20.0602 7.67253 20.0977 7.36328 20.0977C6.89779 20.0977 6.50391 20.0146 6.18164 19.8486C5.85938 19.6826 5.61523 19.4678 5.44922 19.2041C5.2832 18.9404 5.2002 18.6621 5.2002 18.3691H6.1084C6.12142 18.6165 6.19303 18.8135 6.32324 18.96C6.45345 19.1032 6.61296 19.2057 6.80176 19.2676C6.99056 19.3262 7.17773 19.3555 7.36328 19.3555C7.61068 19.3555 7.81738 19.3229 7.9834 19.2578C8.15267 19.1927 8.28125 19.1032 8.36914 18.9893C8.45703 18.8753 8.50098 18.7451 8.50098 18.5986ZM7.18262 20.0488H7.83203L7.77344 20.3076C7.96224 20.3402 8.13314 20.4183 8.28613 20.542C8.44238 20.6657 8.52051 20.8691 8.52051 21.1523C8.52051 21.3053 8.48796 21.4437 8.42285 21.5674C8.361 21.6943 8.26823 21.8018 8.14453 21.8896C8.02083 21.9808 7.86621 22.0508 7.68066 22.0996C7.49837 22.1484 7.28516 22.1729 7.04102 22.1729L7.00684 21.6504C7.15658 21.6504 7.29167 21.6341 7.41211 21.6016C7.53581 21.569 7.63346 21.5169 7.70508 21.4453C7.77995 21.3737 7.81738 21.2809 7.81738 21.167C7.81738 21.0596 7.78971 20.9749 7.73438 20.9131C7.67904 20.8512 7.59277 20.804 7.47559 20.7715C7.36165 20.7422 7.21354 20.721 7.03125 20.708L7.18262 20.0488ZM12.0752 19.4531L13.5449 14.7168H14.5117L12.3926 20.8154C12.3438 20.9456 12.2786 21.0856 12.1973 21.2354C12.1191 21.3883 12.0182 21.5332 11.8945 21.6699C11.7708 21.8066 11.6211 21.9173 11.4453 22.002C11.2728 22.0898 11.0661 22.1338 10.8252 22.1338C10.7536 22.1338 10.6624 22.124 10.5518 22.1045C10.4411 22.085 10.363 22.0687 10.3174 22.0557L10.3125 21.3232C10.3385 21.3265 10.3792 21.3298 10.4346 21.333C10.4932 21.3395 10.5339 21.3428 10.5566 21.3428C10.7617 21.3428 10.9359 21.3151 11.0791 21.2598C11.2223 21.2077 11.3428 21.1182 11.4404 20.9912C11.5413 20.8675 11.6276 20.6966 11.6992 20.4785L12.0752 19.4531ZM10.9961 14.7168L12.3682 18.8184L12.6025 19.7705L11.9531 20.1025L10.0098 14.7168H10.9961ZM16.2354 12.5V20H15.3271V12.5H16.2354ZM19.4629 14.7168L17.1582 17.1826L15.8691 18.5205L15.7959 17.5586L16.7188 16.4551L18.3594 14.7168H19.4629ZM18.6377 20L16.7529 17.4805L17.2217 16.6748L19.7021 20H18.6377ZM21.377 12.5V20H20.4688V12.5H21.377ZM25.9424 19.0967V16.377C25.9424 16.1686 25.9001 15.988 25.8154 15.835C25.734 15.6787 25.6104 15.5583 25.4443 15.4736C25.2783 15.389 25.0732 15.3467 24.8291 15.3467C24.6012 15.3467 24.401 15.3857 24.2285 15.4639C24.0592 15.542 23.9258 15.6445 23.8281 15.7715C23.7337 15.8984 23.6865 16.0352 23.6865 16.1816H22.7832C22.7832 15.9928 22.832 15.8057 22.9297 15.6201C23.0273 15.4346 23.1673 15.2669 23.3496 15.1172C23.5352 14.9642 23.7565 14.8438 24.0137 14.7559C24.2741 14.6647 24.5638 14.6191 24.8828 14.6191C25.2669 14.6191 25.6055 14.6842 25.8984 14.8145C26.1947 14.9447 26.4258 15.1416 26.5918 15.4053C26.7611 15.6657 26.8457 15.9928 26.8457 16.3867V18.8477C26.8457 19.0234 26.8604 19.2106 26.8896 19.4092C26.9222 19.6077 26.9694 19.7786 27.0312 19.9219V20H26.0889C26.0433 19.8958 26.0075 19.7575 25.9814 19.585C25.9554 19.4092 25.9424 19.2464 25.9424 19.0967ZM26.0986 16.7969L26.1084 17.4316H25.1953C24.9382 17.4316 24.7087 17.4528 24.5068 17.4951C24.305 17.5342 24.1357 17.5944 23.999 17.6758C23.8623 17.7572 23.7581 17.8597 23.6865 17.9834C23.6149 18.1038 23.5791 18.2454 23.5791 18.4082C23.5791 18.5742 23.6165 18.7256 23.6914 18.8623C23.7663 18.999 23.8786 19.1081 24.0283 19.1895C24.1813 19.2676 24.3685 19.3066 24.5898 19.3066C24.8665 19.3066 25.1107 19.248 25.3223 19.1309C25.5339 19.0137 25.7015 18.8704 25.8252 18.7012C25.9521 18.5319 26.0205 18.3675 26.0303 18.208L26.416 18.6426C26.3932 18.7793 26.3314 18.9307 26.2305 19.0967C26.1296 19.2627 25.9945 19.4222 25.8252 19.5752C25.6592 19.7249 25.4606 19.8503 25.2295 19.9512C25.0016 20.0488 24.7445 20.0977 24.458 20.0977C24.0999 20.0977 23.7858 20.0277 23.5156 19.8877C23.2487 19.7477 23.0404 19.5605 22.8906 19.3262C22.7441 19.0885 22.6709 18.8232 22.6709 18.5303C22.6709 18.2471 22.7262 17.998 22.8369 17.7832C22.9476 17.5651 23.1071 17.3844 23.3154 17.2412C23.5238 17.0947 23.7744 16.984 24.0674 16.9092C24.3604 16.8343 24.6875 16.7969 25.0488 16.7969H26.0986ZM29.1699 15.8447V20H28.2666V14.7168H29.1211L29.1699 15.8447ZM28.9551 17.1582L28.5791 17.1436C28.5824 16.7822 28.6361 16.4486 28.7402 16.1426C28.8444 15.8333 28.9909 15.5648 29.1797 15.3369C29.3685 15.109 29.5931 14.9333 29.8535 14.8096C30.1172 14.6826 30.4085 14.6191 30.7275 14.6191C30.988 14.6191 31.2223 14.6549 31.4307 14.7266C31.639 14.7949 31.8164 14.9056 31.9629 15.0586C32.1126 15.2116 32.2266 15.4102 32.3047 15.6543C32.3828 15.8952 32.4219 16.1898 32.4219 16.5381V20H31.5137V16.5283C31.5137 16.2516 31.473 16.0303 31.3916 15.8643C31.3102 15.695 31.1914 15.5729 31.0352 15.498C30.8789 15.4199 30.6868 15.3809 30.459 15.3809C30.2344 15.3809 30.0293 15.4281 29.8438 15.5225C29.6615 15.6169 29.5036 15.7471 29.3701 15.9131C29.2399 16.0791 29.1374 16.2695 29.0625 16.4844C28.9909 16.696 28.9551 16.9206 28.9551 17.1582ZM37.124 18.9746V12.5H38.0322V20H37.2021L37.124 18.9746ZM33.5693 17.417V17.3145C33.5693 16.9108 33.6182 16.5446 33.7158 16.2158C33.8167 15.8838 33.9583 15.599 34.1406 15.3613C34.3262 15.1237 34.5459 14.9414 34.7998 14.8145C35.057 14.6842 35.3434 14.6191 35.6592 14.6191C35.9912 14.6191 36.2809 14.6777 36.5283 14.7949C36.779 14.9089 36.9906 15.0765 37.1631 15.2979C37.3389 15.516 37.4772 15.7796 37.5781 16.0889C37.679 16.3981 37.749 16.748 37.7881 17.1387V17.5879C37.7523 17.9753 37.6823 18.3236 37.5781 18.6328C37.4772 18.9421 37.3389 19.2057 37.1631 19.4238C36.9906 19.6419 36.779 19.8096 36.5283 19.9268C36.2777 20.0407 35.9847 20.0977 35.6494 20.0977C35.3402 20.0977 35.057 20.0309 34.7998 19.8975C34.5459 19.764 34.3262 19.5768 34.1406 19.3359C33.9583 19.0951 33.8167 18.8118 33.7158 18.4863C33.6182 18.1576 33.5693 17.8011 33.5693 17.417ZM34.4775 17.3145V17.417C34.4775 17.6807 34.5036 17.9281 34.5557 18.1592C34.611 18.3903 34.6956 18.5938 34.8096 18.7695C34.9235 18.9453 35.0684 19.0837 35.2441 19.1846C35.4199 19.2822 35.6299 19.3311 35.874 19.3311C36.1735 19.3311 36.4193 19.2676 36.6113 19.1406C36.8066 19.0137 36.9629 18.846 37.0801 18.6377C37.1973 18.4294 37.2884 18.2031 37.3535 17.959V16.7822C37.3145 16.6032 37.2575 16.4307 37.1826 16.2646C37.111 16.0954 37.0166 15.9456 36.8994 15.8154C36.7855 15.682 36.6439 15.5762 36.4746 15.498C36.3086 15.4199 36.1117 15.3809 35.8838 15.3809C35.6364 15.3809 35.4232 15.4329 35.2441 15.5371C35.0684 15.638 34.9235 15.778 34.8096 15.957C34.6956 16.1328 34.611 16.3379 34.5557 16.5723C34.5036 16.8034 34.4775 17.0508 34.4775 17.3145ZM40.9229 19.4531L42.3926 14.7168H43.3594L41.2402 20.8154C41.1914 20.9456 41.1263 21.0856 41.0449 21.2354C40.9668 21.3883 40.8659 21.5332 40.7422 21.6699C40.6185 21.8066 40.4688 21.9173 40.293 22.002C40.1204 22.0898 39.9137 22.1338 39.6729 22.1338C39.6012 22.1338 39.5101 22.124 39.3994 22.1045C39.2887 22.085 39.2106 22.0687 39.165 22.0557L39.1602 21.3232C39.1862 21.3265 39.2269 21.3298 39.2822 21.333C39.3408 21.3395 39.3815 21.3428 39.4043 21.3428C39.6094 21.3428 39.7835 21.3151 39.9268 21.2598C40.07 21.2077 40.1904 21.1182 40.2881 20.9912C40.389 20.8675 40.4753 20.6966 40.5469 20.4785L40.9229 19.4531ZM39.8438 14.7168L41.2158 18.8184L41.4502 19.7705L40.8008 20.1025L38.8574 14.7168H39.8438ZM45.0781 15.5469V20H44.1748V14.7168H45.0537L45.0781 15.5469ZM46.7285 14.6875L46.7236 15.5273C46.6488 15.5111 46.5771 15.5013 46.5088 15.498C46.4437 15.4915 46.3688 15.4883 46.2842 15.4883C46.0758 15.4883 45.8919 15.5208 45.7324 15.5859C45.5729 15.651 45.4378 15.7422 45.3271 15.8594C45.2165 15.9766 45.1286 16.1165 45.0635 16.2793C45.0016 16.4388 44.9609 16.6146 44.9414 16.8066L44.6875 16.9531C44.6875 16.6341 44.7184 16.3346 44.7803 16.0547C44.8454 15.7747 44.9447 15.5273 45.0781 15.3125C45.2116 15.0944 45.3809 14.9251 45.5859 14.8047C45.7943 14.681 46.0417 14.6191 46.3281 14.6191C46.3932 14.6191 46.4681 14.6273 46.5527 14.6436C46.6374 14.6566 46.696 14.6712 46.7285 14.6875ZM49.1357 19.4531L50.6055 14.7168H51.5723L49.4531 20.8154C49.4043 20.9456 49.3392 21.0856 49.2578 21.2354C49.1797 21.3883 49.0788 21.5332 48.9551 21.6699C48.8314 21.8066 48.6816 21.9173 48.5059 22.002C48.3333 22.0898 48.1266 22.1338 47.8857 22.1338C47.8141 22.1338 47.723 22.124 47.6123 22.1045C47.5016 22.085 47.4235 22.0687 47.3779 22.0557L47.373 21.3232C47.3991 21.3265 47.4398 21.3298 47.4951 21.333C47.5537 21.3395 47.5944 21.3428 47.6172 21.3428C47.8223 21.3428 47.9964 21.3151 48.1396 21.2598C48.2829 21.2077 48.4033 21.1182 48.501 20.9912C48.6019 20.8675 48.6882 20.6966 48.7598 20.4785L49.1357 19.4531ZM48.0566 14.7168L49.4287 18.8184L49.6631 19.7705L49.0137 20.1025L47.0703 14.7168H48.0566ZM52.4121 14.7168H53.3203V20.6299C53.3203 20.9521 53.2682 21.2256 53.1641 21.4502C53.0632 21.6748 52.9102 21.8441 52.7051 21.958C52.5033 22.0752 52.2477 22.1338 51.9385 22.1338C51.8571 22.1338 51.7627 22.1257 51.6553 22.1094C51.5446 22.0931 51.4518 22.0736 51.377 22.0508L51.3818 21.3232C51.4437 21.3363 51.5137 21.346 51.5918 21.3525C51.6699 21.3623 51.7383 21.3672 51.7969 21.3672C51.9303 21.3672 52.0426 21.3428 52.1338 21.2939C52.2249 21.2451 52.2933 21.167 52.3389 21.0596C52.3877 20.9521 52.4121 20.8089 52.4121 20.6299V14.7168ZM52.3193 13.3154C52.3193 13.1689 52.3649 13.0452 52.4561 12.9443C52.5472 12.8434 52.679 12.793 52.8516 12.793C53.0273 12.793 53.1608 12.8434 53.252 12.9443C53.3431 13.0452 53.3887 13.1689 53.3887 13.3154C53.3887 13.4554 53.3431 13.5758 53.252 13.6768C53.1608 13.7744 53.0273 13.8232 52.8516 13.8232C52.679 13.8232 52.5472 13.7744 52.4561 13.6768C52.3649 13.5758 52.3193 13.4554 52.3193 13.3154ZM56.2646 19.4531L57.7344 14.7168H58.7012L56.582 20.8154C56.5332 20.9456 56.4681 21.0856 56.3867 21.2354C56.3086 21.3883 56.2077 21.5332 56.084 21.6699C55.9603 21.8066 55.8105 21.9173 55.6348 22.002C55.4622 22.0898 55.2555 22.1338 55.0146 22.1338C54.943 22.1338 54.8519 22.124 54.7412 22.1045C54.6305 22.085 54.5524 22.0687 54.5068 22.0557L54.502 21.3232C54.528 21.3265 54.5687 21.3298 54.624 21.333C54.6826 21.3395 54.7233 21.3428 54.7461 21.3428C54.9512 21.3428 55.1253 21.3151 55.2686 21.2598C55.4118 21.2077 55.5322 21.1182 55.6299 20.9912C55.7308 20.8675 55.8171 20.6966 55.8887 20.4785L56.2646 19.4531ZM55.1855 14.7168L56.5576 18.8184L56.792 19.7705L56.1426 20.1025L54.1992 14.7168H55.1855ZM60.498 12.5V20H59.5898V12.5H60.498ZM65.0635 19.0967V16.377C65.0635 16.1686 65.0212 15.988 64.9365 15.835C64.8551 15.6787 64.7314 15.5583 64.5654 15.4736C64.3994 15.389 64.1943 15.3467 63.9502 15.3467C63.7223 15.3467 63.5221 15.3857 63.3496 15.4639C63.1803 15.542 63.0469 15.6445 62.9492 15.7715C62.8548 15.8984 62.8076 16.0352 62.8076 16.1816H61.9043C61.9043 15.9928 61.9531 15.8057 62.0508 15.6201C62.1484 15.4346 62.2884 15.2669 62.4707 15.1172C62.6562 14.9642 62.8776 14.8438 63.1348 14.7559C63.3952 14.6647 63.6849 14.6191 64.0039 14.6191C64.388 14.6191 64.7266 14.6842 65.0195 14.8145C65.3158 14.9447 65.5469 15.1416 65.7129 15.4053C65.8822 15.6657 65.9668 15.9928 65.9668 16.3867V18.8477C65.9668 19.0234 65.9814 19.2106 66.0107 19.4092C66.0433 19.6077 66.0905 19.7786 66.1523 19.9219V20H65.21C65.1644 19.8958 65.1286 19.7575 65.1025 19.585C65.0765 19.4092 65.0635 19.2464 65.0635 19.0967ZM65.2197 16.7969L65.2295 17.4316H64.3164C64.0592 17.4316 63.8298 17.4528 63.6279 17.4951C63.4261 17.5342 63.2568 17.5944 63.1201 17.6758C62.9834 17.7572 62.8792 17.8597 62.8076 17.9834C62.736 18.1038 62.7002 18.2454 62.7002 18.4082C62.7002 18.5742 62.7376 18.7256 62.8125 18.8623C62.8874 18.999 62.9997 19.1081 63.1494 19.1895C63.3024 19.2676 63.4896 19.3066 63.7109 19.3066C63.9876 19.3066 64.2318 19.248 64.4434 19.1309C64.6549 19.0137 64.8226 18.8704 64.9463 18.7012C65.0732 18.5319 65.1416 18.3675 65.1514 18.208L65.5371 18.6426C65.5143 18.7793 65.4525 18.9307 65.3516 19.0967C65.2507 19.2627 65.1156 19.4222 64.9463 19.5752C64.7803 19.7249 64.5817 19.8503 64.3506 19.9512C64.1227 20.0488 63.8656 20.0977 63.5791 20.0977C63.221 20.0977 62.9069 20.0277 62.6367 19.8877C62.3698 19.7477 62.1615 19.5605 62.0117 19.3262C61.8652 19.0885 61.792 18.8232 61.792 18.5303C61.792 18.2471 61.8473 17.998 61.958 17.7832C62.0687 17.5651 62.2282 17.3844 62.4365 17.2412C62.6449 17.0947 62.8955 16.984 63.1885 16.9092C63.4814 16.8343 63.8086 16.7969 64.1699 16.7969H65.2197ZM68.291 15.5469V20H67.3877V14.7168H68.2666L68.291 15.5469ZM69.9414 14.6875L69.9365 15.5273C69.8617 15.5111 69.79 15.5013 69.7217 15.498C69.6566 15.4915 69.5817 15.4883 69.4971 15.4883C69.2887 15.4883 69.1048 15.5208 68.9453 15.5859C68.7858 15.651 68.6507 15.7422 68.54 15.8594C68.4294 15.9766 68.3415 16.1165 68.2764 16.2793C68.2145 16.4388 68.1738 16.6146 68.1543 16.8066L67.9004 16.9531C67.9004 16.6341 67.9313 16.3346 67.9932 16.0547C68.0583 15.7747 68.1576 15.5273 68.291 15.3125C68.4245 15.0944 68.5938 14.9251 68.7988 14.8047C69.0072 14.681 69.2546 14.6191 69.541 14.6191C69.6061 14.6191 69.681 14.6273 69.7656 14.6436C69.8503 14.6566 69.9089 14.6712 69.9414 14.6875Z" fill="#535B5D"/>
</svg>
