<svg width="24" height="24" viewBox="0 0 24 24" fill="none" xmlns="http://www.w3.org/2000/svg">
<g clip-path="url(#clip0_7846_2924)">
<path d="M7.42546 15.512H7.74886H10.6966H11.02C11.1849 15.512 11.3185 15.3694 11.3185 15.1936C11.3185 15.0177 11.1849 14.8752 11.02 14.8752H10.9951V11.3428C10.9951 11.167 10.8615 11.0244 10.6966 11.0244H7.74886C7.58401 11.0244 7.45035 11.167 7.45035 11.3428V14.8752H7.42546C7.26061 14.8752 7.12695 15.0177 7.12695 15.1936C7.12695 15.3694 7.26061 15.512 7.42546 15.512ZM10.3981 11.6612V12.9498H8.04736V11.6612H10.3981ZM8.04736 13.5866H10.3981V14.8752H8.04736V13.5866Z" fill="#222222"/>
<path d="M13.6314 14.9685C13.5758 14.9092 13.4989 14.875 13.4206 14.875C13.3418 14.875 13.265 14.9092 13.2094 14.9685C13.1538 15.0278 13.1221 15.1098 13.1221 15.1934C13.1221 15.2774 13.1538 15.3594 13.2094 15.4187C13.265 15.478 13.3418 15.5118 13.4206 15.5118C13.4989 15.5118 13.5758 15.478 13.6314 15.4187C13.687 15.3594 13.7191 15.2774 13.7191 15.1934C13.7191 15.1099 13.687 15.0279 13.6314 14.9685Z" fill="#222222"/>
<path d="M19.7015 18.6932H19.3657V10.2883L19.5306 10.3763C19.5728 10.3988 19.6185 10.41 19.6642 10.41C19.7187 10.41 19.7732 10.394 19.8211 10.3625C19.9091 10.3044 19.9627 10.2019 19.9627 10.0916V8.81257C19.9627 8.69201 19.8988 8.58176 19.7978 8.52783L18.4577 7.81249V5.30343C18.4577 5.12759 18.3241 4.98503 18.1592 4.98503H16.0914C15.9266 4.98503 15.7929 5.12759 15.7929 5.30343V6.39004L12.6336 4.70359C12.5495 4.6587 12.4505 4.6587 12.3664 4.70359L5.20224 8.52779C5.10116 8.58176 5.03731 8.69197 5.03731 8.81257V10.0916C5.03731 10.2019 5.0909 10.3044 5.17892 10.3625C5.26694 10.4205 5.37687 10.4257 5.4694 10.3764L5.63433 10.2883V18.6932H5.29851C5.13366 18.6932 5 18.8358 5 19.0116C5 19.1875 5.13366 19.33 5.29851 19.33H19.7015C19.8663 19.33 20 19.1875 20 19.0116C20 18.8358 19.8663 18.6932 19.7015 18.6932ZM12.7985 11.6616H16.0821V18.6932H12.7985V11.6616ZM16.6791 16.7661H18.7687V18.6932H16.6791V16.7661ZM16.3899 5.62184H17.8607V7.4938L16.3899 6.70873V5.62184ZM5.63433 9.00927L12.5 5.34439L19.3657 9.00927V9.57615L12.6336 5.9826C12.5495 5.9377 12.4505 5.9377 12.3664 5.9826L5.63433 9.57615V9.00927ZM12.5 6.6234L18.7687 9.96958V16.1293H16.6791V11.3432C16.6791 11.1674 16.5454 11.0248 16.3806 11.0248H12.5C12.3351 11.0248 12.2015 11.1674 12.2015 11.3432V16.1293H6.23134V9.96954L12.5 6.6234ZM6.23134 16.7661H12.2015V18.6932H6.23134V16.7661Z" fill="#222222"/>
</g>
<defs>
<clipPath id="clip0_7846_2924">
<rect width="15" height="16" fill="white" transform="translate(5 4)"/>
</clipPath>
</defs>
</svg>
