<svg width="21" height="21" viewBox="0 0 21 21" fill="none" xmlns="http://www.w3.org/2000/svg">
<path d="M17 3C17.663 3 18.2989 3.26339 18.7678 3.73223C19.2366 4.20107 19.5 4.83696 19.5 5.5V14.25C19.5 14.913 19.2366 15.5489 18.7678 16.0178C18.2989 16.4866 17.663 16.75 17 16.75H13.05H10.75H8.45H4.5C3.83696 16.75 3.20107 16.4866 2.73223 16.0178C2.26339 15.5489 2 14.913 2 14.25V5.5C2 4.83696 2.26339 4.20107 2.73223 3.73223C3.20107 3.26339 3.83696 3 4.5 3H17Z" stroke="#222222"/>
<path fill-rule="evenodd" clip-rule="evenodd" d="M14.75 6.625C14.75 6.90114 14.5261 7.125 14.25 7.125H7.25C6.97386 7.125 6.75 6.90114 6.75 6.625C6.75 6.34886 6.97386 6.125 7.25 6.125H14.25C14.5261 6.125 14.75 6.34886 14.75 6.625Z" fill="black"/>
<path fill-rule="evenodd" clip-rule="evenodd" d="M14.75 9.625C14.75 9.90114 14.5261 10.125 14.25 10.125H7.25C6.97386 10.125 6.75 9.90114 6.75 9.625C6.75 9.34886 6.97386 9.125 7.25 9.125H14.25C14.5261 9.125 14.75 9.34886 14.75 9.625Z" fill="black"/>
<path fill-rule="evenodd" clip-rule="evenodd" d="M14.75 12.625C14.75 12.9011 14.5261 13.125 14.25 13.125H7.25C6.97386 13.125 6.75 12.9011 6.75 12.625C6.75 12.3489 6.97386 12.125 7.25 12.125H14.25C14.5261 12.125 14.75 12.3489 14.75 12.625Z" fill="black"/>
</svg>
