<svg width="16" height="16" viewBox="0 0 16 16" fill="none" xmlns="http://www.w3.org/2000/svg">
<path d="M7.71929 8.0377C9.47851 8.0377 10.9046 6.61157 10.9046 4.85235C10.9046 3.09312 9.47851 1.66699 7.71929 1.66699C5.96007 1.66699 4.53394 3.09312 4.53394 4.85235C4.53394 6.61157 5.96007 8.0377 7.71929 8.0377Z" stroke="#374151" stroke-linecap="round" stroke-linejoin="round"/>
<path fill-rule="evenodd" clip-rule="evenodd" d="M2.66676 12.4677C2.6659 12.2438 2.71598 12.0226 2.81321 11.8209C3.11832 11.2107 3.97873 10.8873 4.69269 10.7408C5.2076 10.6309 5.72962 10.5575 6.25486 10.5211C7.22728 10.4357 8.20535 10.4357 9.17781 10.5211C9.70301 10.5579 10.225 10.6313 10.74 10.7408C11.4539 10.8873 12.3143 11.1801 12.6195 11.8209C12.815 12.2321 12.815 12.7095 12.6195 13.1207C12.3143 13.7614 11.4539 14.0543 10.74 14.1947C10.2257 14.3091 9.70348 14.3845 9.17781 14.4204C8.38635 14.4875 7.59115 14.4997 6.79795 14.4571C6.61489 14.4571 6.43793 14.4571 6.25486 14.4204C5.73117 14.385 5.21096 14.3095 4.69879 14.1947C3.97873 14.0543 3.12443 13.7614 2.81321 13.1207C2.71648 12.9166 2.66645 12.6935 2.66676 12.4677Z" stroke="#374151" stroke-linecap="round" stroke-linejoin="round"/>
</svg>
