<svg width="16" height="16" viewBox="0 0 16 16" fill="none" xmlns="http://www.w3.org/2000/svg">
<path d="M8.08512 1C8.44908 0.999146 8.80094 1.13065 9.07512 1.37L9.14512 1.44L14.6451 6.94C14.9149 7.20894 15.0723 7.57045 15.0853 7.95117C15.0983 8.33189 14.9659 8.70329 14.7151 8.99L14.6451 9.06L9.06012 14.65C8.79118 14.9198 8.42967 15.0772 8.04895 15.0902C7.66824 15.1032 7.29683 14.9708 7.01012 14.72L6.94012 14.65L1.44012 9.15C1.18083 8.89265 1.02438 8.54952 1.00012 8.185L0.99512 8.085V2.5C0.99443 2.11729 1.14005 1.74879 1.40218 1.46994C1.6643 1.19108 2.0231 1.02297 2.40512 1H8.08012H8.08512ZM8.08512 2H2.50012C2.37728 1.99912 2.25841 2.04348 2.16619 2.12463C2.07397 2.20579 2.01486 2.31805 2.00012 2.44V8.085C1.99903 8.1949 2.03417 8.30209 2.10012 8.39L2.15012 8.44L7.65012 13.94C7.73612 14.0245 7.84977 14.0751 7.97014 14.0825C8.09051 14.0898 8.20947 14.0534 8.30512 13.98L8.35512 13.94L13.9401 8.35C14.026 8.26372 14.0774 8.14907 14.0848 8.02756C14.0922 7.90605 14.0549 7.78603 13.9801 7.69L13.9401 7.64L8.44012 2.14C8.36154 2.06263 8.25958 2.01341 8.15012 2H8.08512ZM4.50012 3C4.89794 3 5.27948 3.15804 5.56078 3.43934C5.84208 3.72065 6.00012 4.10218 6.00012 4.5C6.00012 4.89783 5.84208 5.27936 5.56078 5.56066C5.27948 5.84197 4.89794 6 4.50012 6C4.10229 6 3.72076 5.84197 3.43946 5.56066C3.15815 5.27936 3.00012 4.89783 3.00012 4.5C3.00012 4.10218 3.15815 3.72065 3.43946 3.43934C3.72076 3.15804 4.10229 3 4.50012 3ZM4.50012 4C4.36751 4 4.24033 4.05268 4.14657 4.14645C4.0528 4.24022 4.00012 4.3674 4.00012 4.5C4.00012 4.63261 4.0528 4.75979 4.14657 4.85356C4.24033 4.94733 4.36751 5 4.50012 5C4.63273 5 4.7599 4.94733 4.85367 4.85356C4.94744 4.75979 5.00012 4.63261 5.00012 4.5C5.00012 4.3674 4.94744 4.24022 4.85367 4.14645C4.7599 4.05268 4.63273 4 4.50012 4Z" fill="#222222"/>
</svg>
