<svg width="24" height="25" viewBox="0 0 24 25" fill="none" xmlns="http://www.w3.org/2000/svg">
<path fill-rule="evenodd" clip-rule="evenodd" d="M14.0036 16.6031C13.3152 17.505 10.8457 17.5479 10.0108 16.6738C9.22888 17.5719 6.52573 17.6742 5.64404 15.9563L6.16952 15.3803C6.95394 16.5917 9.01541 16.7218 9.93625 15.3803C9.99454 15.3738 10.0532 15.3703 10.1118 15.3702C10.7106 16.3807 12.4032 16.5816 13.3607 15.9197C13.3506 14.6287 13.3203 10.7408 13.3203 10.4376C13.3203 7.88981 16.7826 8.05402 16.583 10.6776L15.8125 10.7445C15.8125 9.40054 14.3838 9.47002 14.3826 10.449C14.3826 10.7142 14.4091 14.5517 14.4179 15.7024C15.3956 16.5146 17.0314 16.401 17.8562 15.4094L18.3615 15.8654C17.5253 17.63 15.0028 17.5757 14.0036 16.6031ZM11.8095 13.8734C11.0377 13.8633 9.85794 13.8658 9.18594 13.8734C9.19352 14.5972 9.19983 15.1365 9.19983 15.1365L8.15141 15.4447C8.15141 15.4447 8.1072 10.8266 8.1072 10.4439C8.1072 7.89612 11.6049 8.01738 11.4053 10.5248L10.6007 10.6814C10.6007 9.24391 9.15815 9.53065 9.15815 10.4288C9.15815 10.9631 9.16573 11.9572 9.17583 12.8944L12.748 12.854C12.748 12.854 12.9438 13.886 11.8095 13.8734ZM9.93625 17.5492C9.99454 17.5423 10.0531 17.5386 10.1118 17.5378C10.8419 18.7643 13.1977 18.801 13.8647 17.5302H14.0832C14.9674 18.705 16.9278 18.6974 17.8562 17.582L18.3615 18.038C17.5303 19.8064 15.0078 19.7483 14.0087 18.7757C13.3203 19.6776 10.8508 19.7193 10.0158 18.8464C9.23394 19.7445 6.53078 19.8456 5.6491 18.129L6.16952 17.5492C6.95394 18.7643 9.01541 18.8944 9.93625 17.5492Z" fill="#222222"/>
</svg>
