<svg width="21" height="21" viewBox="0 0 21 21" fill="none" xmlns="http://www.w3.org/2000/svg">
<g clip-path="url(#clip0_12794_1979)">
<path fill-rule="evenodd" clip-rule="evenodd" d="M19.6 10.5C19.6 5.47421 15.5259 1.4 10.5 1.4V0C16.2989 0 21 4.701 21 10.5C21 13.5426 19.7051 16.2831 17.6386 18.2H21V19.6H15.4V14H16.8V17.0667C18.5266 15.4098 19.6 13.0804 19.6 10.5ZM3.36133 2.8H0V1.4H5.6V7H4.2V3.93337C2.47339 5.5902 1.4 7.91959 1.4 10.5C1.4 15.5259 5.47421 19.6 10.5 19.6V21C4.701 21 0 16.2989 0 10.5C0 7.45738 1.29479 4.71685 3.36133 2.8Z" fill="white"/>
</g>
<defs>
<clipPath id="clip0_12794_1979">
<rect width="21" height="21" fill="white"/>
</clipPath>
</defs>
</svg>
