<svg width="16" height="16" viewBox="0 0 16 16" fill="none" xmlns="http://www.w3.org/2000/svg">
<path d="M11.2904 2H5.21507C4.89292 2.00036 4.58408 2.12888 4.35628 2.35736C4.12849 2.58585 4.00036 2.89563 4 3.21875V13.375C4.00024 13.5904 4.08566 13.7969 4.23752 13.9493C4.38938 14.1016 4.59528 14.1873 4.81005 14.1875H11.6954C11.9102 14.1873 12.1161 14.1016 12.268 13.9493C12.4198 13.7969 12.5052 13.5904 12.5055 13.375V3.21875C12.5051 2.89563 12.377 2.58585 12.1492 2.35736C11.9214 2.12888 11.6126 2.00036 11.2904 2ZM11.6954 13.375H4.81005V7.6875H11.6954V13.375ZM11.6954 6.875H4.81005V3.21875C4.81017 3.11105 4.85289 3.00779 4.92881 2.93163C5.00474 2.85547 5.10769 2.81263 5.21507 2.8125H11.2904C11.3978 2.81263 11.5007 2.85547 11.5767 2.93163C11.6526 3.00779 11.6953 3.11105 11.6954 3.21875V6.875Z" fill="#222222"/>
<path d="M6.22801 8.70312H5.41797V11.1406H6.22801V8.70312Z" fill="#222222"/>
<path d="M6.22801 4.23438H5.41797V5.85938H6.22801V4.23438Z" fill="#222222"/>
</svg>
