<svg width="14" height="14" viewBox="0 0 14 14" fill="none" xmlns="http://www.w3.org/2000/svg">
<path d="M13 2H7.5V1C7.5 0.734784 7.39464 0.48043 7.20711 0.292893C7.01957 0.105357 6.76522 0 6.5 0H0.5V14H1.5V8H6.5V9C6.5 9.26522 6.60536 9.51957 6.79289 9.70711C6.98043 9.89464 7.23478 10 7.5 10H13.06C13.1324 9.9914 13.2021 9.96705 13.2641 9.92867C13.3262 9.89029 13.379 9.8388 13.4191 9.77782C13.4591 9.71684 13.4853 9.64784 13.4958 9.57566C13.5063 9.50348 13.5009 9.42987 13.48 9.36L12.52 6L13.48 2.64C13.5017 2.56548 13.5058 2.48693 13.4919 2.41056C13.478 2.33419 13.4466 2.2621 13.4 2.2C13.3534 2.1379 13.293 2.0875 13.2236 2.05279C13.1542 2.01807 13.0776 2 13 2Z" fill="#6A6A6A"/>
</svg>
