<svg width="23" height="22" viewBox="0 0 23 22" fill="none" xmlns="http://www.w3.org/2000/svg">
<path d="M14.7932 14.4375L21.133 20.625M9.15783 16.5C10.1754 16.5 11.183 16.3044 12.1231 15.9243C13.0632 15.5443 13.9174 14.9872 14.637 14.285C15.3565 13.5828 15.9273 12.7491 16.3167 11.8315C16.7061 10.914 16.9065 9.93062 16.9065 8.9375C16.9065 7.94438 16.7061 6.96098 16.3167 6.04346C15.9273 5.12593 15.3565 4.29225 14.637 3.59C13.9174 2.88776 13.0632 2.33071 12.1231 1.95066C11.183 1.57061 10.1754 1.375 9.15783 1.375C7.10276 1.375 5.13186 2.17176 3.67871 3.59001C2.22555 5.00825 1.40918 6.9318 1.40918 8.9375C1.40918 10.9432 2.22555 12.8668 3.67871 14.285C5.13186 15.7032 7.10276 16.5 9.15783 16.5Z" stroke="white" stroke-width="1.5"/>
</svg>
