<svg width="16" height="16" viewBox="0 0 16 16" fill="none" xmlns="http://www.w3.org/2000/svg">
<path d="M4.63265 2C5.08082 2.00021 5.5132 2.16605 5.84717 2.46581C6.18115 2.76558 6.3933 3.17826 6.4431 3.625H7.26529V4.4375H4.83516V3.625H5.62495C5.57772 3.38195 5.4436 3.16458 5.2478 3.01377C5.05199 2.86296 4.808 2.78909 4.56171 2.80606C4.31542 2.82303 4.08379 2.92966 3.91039 3.10591C3.73698 3.28216 3.63374 3.51588 3.62009 3.76313V7.6875H14.1507V8.5H13.3406V10.5312C13.3404 10.9263 13.2254 11.3127 13.0096 11.6432C12.7938 11.9737 12.4865 12.2339 12.1256 12.3919V13.375H11.3155V12.5625H4.83516V13.375H4.02511V12.3919C3.67884 12.2408 3.38157 11.9957 3.16686 11.6841C2.95215 11.3726 2.82856 11.007 2.81005 10.6287V8.5H2V7.6875H2.81005V3.82812C2.81005 3.34328 3.00207 2.87829 3.34387 2.53545C3.68568 2.19261 4.14926 2 4.63265 2ZM12.5306 8.5H3.62009V10.5312C3.62004 10.8299 3.72932 11.1182 3.92717 11.3413C4.12503 11.5645 4.39769 11.707 4.6934 11.7419L4.76225 11.7459L4.83516 11.75H11.3155C11.6255 11.7506 11.924 11.6322 12.1499 11.4193C12.3758 11.2063 12.512 10.9148 12.5306 10.6044V10.5312V8.5Z" fill="#222222"/>
</svg>
