<svg width="22" height="22" viewBox="0 0 22 22" fill="none" xmlns="http://www.w3.org/2000/svg">
<path d="M14.4375 14.4375L20.625 20.625M8.9375 16.5C9.93062 16.5 10.914 16.3044 11.8315 15.9243C12.7491 15.5443 13.5828 14.9872 14.285 14.285C14.9872 13.5828 15.5443 12.7491 15.9243 11.8315C16.3044 10.914 16.5 9.93062 16.5 8.9375C16.5 7.94438 16.3044 6.96098 15.9243 6.04346C15.5443 5.12593 14.9872 4.29225 14.285 3.59C13.5828 2.88776 12.7491 2.33071 11.8315 1.95066C10.914 1.57061 9.93062 1.375 8.9375 1.375C6.9318 1.375 5.00825 2.17176 3.59 3.59001C2.17176 5.00825 1.375 6.9318 1.375 8.9375C1.375 10.9432 2.17176 12.8668 3.59 14.285C5.00825 15.7032 6.9318 16.5 8.9375 16.5Z" stroke="#6A6A6A" stroke-width="2"/>
</svg>
