<svg width="14" height="14" viewBox="0 0 14 14" fill="none" xmlns="http://www.w3.org/2000/svg">
<g clip-path="url(#clip0_141_20467)">
<path d="M13.4165 4.66668H11.3748V0.583324H13.4165C13.5769 0.583324 13.7082 0.452074 13.7082 0.291648C13.7082 0.13125 13.5769 0 13.4165 0H11.0832C11.0744 0 11.0657 0.00292578 11.0569 0.00582422C11.0394 0.00875 11.0219 0.0116484 11.0044 0.0175C10.9753 0.02625 10.9461 0.0408242 10.9199 0.0583242H10.9169C10.9024 0.0670742 10.8878 0.07875 10.8732 0.0903984L8.57193 1.81707C8.56025 1.8229 8.55151 1.83165 8.53986 1.8404L6.22986 3.5729C6.22403 3.57872 6.21528 3.58165 6.20943 3.5904L3.88775 5.33165C3.88483 5.33457 3.879 5.33747 3.87608 5.3404L1.54275 7.0875L0.40818 7.93625C0.279855 8.0325 0.253605 8.21625 0.349855 8.34457C0.446105 8.4729 0.629855 8.49915 0.75818 8.4029L1.45818 7.8779V11.6666H0.58318C0.422754 11.6666 0.291504 11.7979 0.291504 11.9583V13.7083C0.291504 13.8688 0.422754 14 0.58318 14H13.4165C13.5769 14 13.7082 13.8688 13.7082 13.7083V4.95832C13.7082 4.79793 13.5769 4.66668 13.4165 4.66668ZM9.0415 2.19332L10.7915 0.880824V4.66665H10.4998C10.3394 4.66665 10.2082 4.7979 10.2082 4.95832V6.41665H9.04148L9.0415 2.19332ZM6.70815 3.94332L8.45815 2.63082V6.41665H8.16648C8.00605 6.41665 7.8748 6.5479 7.8748 6.70832V7.875H6.70813L6.70815 3.94332ZM4.37483 5.69043L6.12483 4.37793V7.875H5.5415C5.38108 7.875 5.24983 8.00625 5.24983 8.16668V9.91668H4.37483V5.69043ZM2.0415 7.44043L3.7915 6.12793V9.91668H3.20818C3.04775 9.91668 2.9165 10.0479 2.9165 10.2084V11.6667H2.0415V7.44043ZM13.1248 13.4167H0.874828V12.25H3.20815C3.36858 12.25 3.49983 12.1188 3.49983 11.9583V10.5H5.5415C5.70193 10.5 5.83318 10.3688 5.83318 10.2083V8.45832H8.1665C8.32693 8.45832 8.45818 8.32707 8.45818 8.16665V7H10.4998C10.6603 7 10.7915 6.86875 10.7915 6.70832V5.25H13.1248V13.4167Z" fill="#222222"/>
</g>
<defs>
<clipPath id="clip0_141_20467">
<rect width="14" height="14" fill="white"/>
</clipPath>
</defs>
</svg>
