<svg width="18" height="19" viewBox="0 0 18 19" fill="none" xmlns="http://www.w3.org/2000/svg">
<path fill-rule="evenodd" clip-rule="evenodd" d="M15.3921 3.48664C15.1834 3.29358 14.9093 3.1867 14.625 3.1875H3.375L3.29062 3.19313L3.20625 3.19875C2.93992 3.23916 2.69692 3.37379 2.52144 3.57818C2.34596 3.78256 2.24965 4.04312 2.25 4.3125V8.7225L1.20938 11.8388L1.17562 11.9681C1.14287 12.0988 1.12588 12.2328 1.125 12.3675V17.8125H2.25V16.6875H15.75V17.8125H16.875V12.3675L16.8694 12.2325L16.8525 12.0975C16.8387 12.0098 16.818 11.9232 16.7906 11.8388L15.75 8.7225V4.22813C15.7287 3.94462 15.6008 3.6797 15.3921 3.48664ZM2.25 13.3125H15.75V15.5625H2.25V13.3125ZM3.0375 9.9375H14.9681L15.3267 11H2.68156L3.0375 9.9375ZM2.51406 11.5H15.4955L15.7275 12.1875H2.28375L2.51406 11.5ZM3.375 4.3125H14.625V8.8125H13.5V6.47813C13.4787 6.19462 13.3508 5.9297 13.1421 5.73664C12.9334 5.54358 12.6593 5.4367 12.375 5.4375H5.54063C5.25712 5.45883 4.99219 5.5867 4.79913 5.79541C4.60608 6.00413 4.4992 6.27819 4.5 6.5625V8.8125H3.375V4.3125ZM5.625 6.5625H8.4375V8.8125H5.625V6.5625ZM9.5625 6.5625H12.375V8.8125H9.5625V6.5625Z" fill="#222222"/>
</svg>
