<svg width="21" height="22" viewBox="0 0 21 22" fill="none" xmlns="http://www.w3.org/2000/svg">
<g clip-path="url(#clip0_141_20310)">
<path d="M0.703125 0.75V21.75H4.06747H9.87611H11.1237H16.9323H20.2967V0.75H0.703125ZM9.87615 20.5024H5.31509V5.60227H9.87615V20.5024ZM15.6848 20.5024H11.1238V5.60227H15.6848V20.5024ZM19.0492 20.5024H16.9324V4.35466H11.1238H9.87619H4.06751V20.5024H1.9507V1.99757H19.0491V20.5024H19.0492Z" fill="#222222"/>
<path d="M3.63283 11.4863H2.38525V13.9679H3.63283V11.4863Z" fill="#222222"/>
<path d="M7.87771 2.55273H6.33154V3.80031H7.87771V2.55273Z" fill="#222222"/>
<path d="M10.1414 2.55273H8.59521V3.80031H10.1414V2.55273Z" fill="#222222"/>
<path d="M12.4051 2.55273H10.8589V3.80031H12.4051V2.55273Z" fill="#222222"/>
<path d="M14.6687 2.55273H13.1226V3.80031H14.6687V2.55273Z" fill="#222222"/>
</g>
<defs>
<clipPath id="clip0_141_20310">
<rect width="21" height="21" fill="white" transform="translate(0 0.75)"/>
</clipPath>
</defs>
</svg>
