<svg width="14" height="14" viewBox="0 0 14 14" fill="none" xmlns="http://www.w3.org/2000/svg">
<g clip-path="url(#clip0_3207_903)">
<path d="M13.4166 7L11.9933 5.3725L12.1916 3.22L10.0858 2.74167L8.98325 0.875L6.99992 1.72667L5.01659 0.875L3.91409 2.73583L1.80825 3.20833L2.00659 5.36667L0.583252 7L2.00659 8.6275L1.80825 10.7858L3.91409 11.2642L5.01659 13.125L6.99992 12.2675L8.98325 13.1192L10.0858 11.2583L12.1916 10.78L11.9933 8.6275L13.4166 7ZM5.47159 9.33917L4.08325 7.93917C4.02917 7.8852 3.98627 7.8211 3.957 7.75053C3.92773 7.67996 3.91266 7.60431 3.91266 7.52792C3.91266 7.45152 3.92773 7.37587 3.957 7.3053C3.98627 7.23473 4.02917 7.17063 4.08325 7.11667L4.12409 7.07583C4.35159 6.84833 4.72492 6.84833 4.95242 7.07583L5.89159 8.02083L8.89575 5.01083C9.12325 4.78333 9.49658 4.78333 9.72408 5.01083L9.76492 5.05167C9.99242 5.27917 9.99242 5.64667 9.76492 5.87417L6.31158 9.33917C6.07242 9.56667 5.70492 9.56667 5.47159 9.33917Z" fill="#5792E7"/>
</g>
<defs>
<clipPath id="clip0_3207_903">
<rect width="14" height="14" fill="white"/>
</clipPath>
</defs>
</svg>
