<svg width="16" height="16" viewBox="0 0 16 16" fill="none" xmlns="http://www.w3.org/2000/svg">
<path d="M11.838 2C12.1301 2.00102 12.412 2.10752 12.6321 2.3C12.8523 2.49248 12.996 2.75807 13.0369 3.04813C13.2394 4.49437 13.3406 6.04219 13.3406 7.6875C13.3406 9.33281 13.2394 10.8806 13.0369 12.3269C12.9972 12.6048 12.8632 12.8605 12.6573 13.0508C12.4514 13.241 12.1863 13.3541 11.9069 13.3709L11.838 13.375H3.49858C3.20653 13.374 2.92461 13.2675 2.70445 13.075C2.48428 12.8825 2.3406 12.6169 2.29972 12.3269C2.10126 10.8806 2 9.33281 2 7.6875C2 6.04219 2.10126 4.49437 2.30377 3.04813C2.34339 2.77017 2.47748 2.51445 2.68338 2.32422C2.88928 2.13398 3.15435 2.02089 3.43378 2.00406L3.49858 2H11.838ZM11.838 2.8125H3.50668C3.4084 2.81153 3.31313 2.84644 3.23861 2.91072C3.16409 2.975 3.11542 3.06426 3.10166 3.16188C2.9003 4.66184 2.80286 6.17401 2.81005 7.6875C2.81005 9.29625 2.90725 10.8034 3.10571 12.2131C3.11843 12.3015 3.15984 12.3833 3.22354 12.4457C3.28724 12.5081 3.36967 12.5477 3.45808 12.5584L3.50263 12.5625H11.834C11.9322 12.5635 12.0275 12.5286 12.102 12.4643C12.1765 12.4 12.2252 12.3107 12.239 12.2131C12.4334 10.8034 12.5306 9.29625 12.5306 7.6875C12.5306 6.07875 12.4334 4.57156 12.2349 3.16188C12.2215 3.06633 12.1746 2.9787 12.1026 2.91469C12.0306 2.85067 11.9382 2.81445 11.8421 2.8125H11.838ZM7.67032 4.03125C8.63709 4.03125 9.56426 4.41646 10.2479 5.10214C10.9315 5.78782 11.3155 6.7178 11.3155 7.6875C11.3155 8.6572 10.9315 9.58718 10.2479 10.2729C9.56426 10.9585 8.63709 11.3438 7.67032 11.3438C6.70355 11.3438 5.77638 10.9585 5.09277 10.2729C4.40916 9.58718 4.02511 8.6572 4.02511 7.6875C4.02511 6.7178 4.40916 5.78782 5.09277 5.10214C5.77638 4.41646 6.70355 4.03125 7.67032 4.03125ZM5.30498 7.07812C5.16728 7.07812 5.02957 7.08625 4.89186 7.10656C4.75267 7.78148 4.86259 8.48413 5.20116 9.08386C5.53974 9.68358 6.08394 10.1396 6.73256 10.367C7.38118 10.5945 8.09009 10.5779 8.72745 10.3204C9.36482 10.063 9.88727 9.58207 10.1977 8.96719C9.6908 9.00901 9.18079 8.94506 8.6998 8.77934C8.21881 8.61363 7.77727 8.34977 7.403 8.00438L7.30985 7.91094C7.04696 7.64634 6.73447 7.43653 6.39038 7.29359C6.04629 7.15066 5.67741 7.07743 5.30498 7.07812ZM7.67032 4.84375C7.17211 4.84319 6.68254 4.97433 6.25094 5.22395C5.81934 5.47356 5.46094 5.83285 5.21183 6.26562H5.30498C6.22034 6.26562 7.10329 6.60687 7.78372 7.24062L7.88093 7.33813C8.21431 7.67374 8.62622 7.92023 9.07903 8.05506C9.53184 8.1899 10.0111 8.20879 10.4731 8.11C10.5337 7.70546 10.5065 7.29256 10.3935 6.8995C10.2805 6.50643 10.0843 6.14245 9.81822 5.8324C9.55216 5.52235 9.22254 5.27352 8.85186 5.1029C8.48118 4.93228 8.07816 4.84389 7.67032 4.84375ZM4.02511 3.625C4.13253 3.625 4.23555 3.6678 4.31151 3.74399C4.38746 3.82017 4.43014 3.92351 4.43014 4.03125C4.43014 4.13899 4.38746 4.24233 4.31151 4.31851C4.23555 4.3947 4.13253 4.4375 4.02511 4.4375C3.91769 4.4375 3.81468 4.3947 3.73872 4.31851C3.66276 4.24233 3.62009 4.13899 3.62009 4.03125C3.62009 3.92351 3.66276 3.82017 3.73872 3.74399C3.81468 3.6678 3.91769 3.625 4.02511 3.625Z" fill="#222222"/>
</svg>
