<svg width="22" height="23" viewBox="0 0 22 23" fill="none" xmlns="http://www.w3.org/2000/svg">
<path d="M13.75 13.8125V16.5625H14.4349H20.1044H20.7969V13.8125H13.75ZM18.0477 15.1875H16.6241C16.529 15.1875 16.4522 15.1107 16.4522 15.0156C16.4522 14.9208 16.5289 14.8438 16.6241 14.8438H18.0477C18.1428 14.8438 18.2196 14.9208 18.2196 15.0156C18.2196 15.1107 18.1428 15.1875 18.0477 15.1875Z" fill="#222222"/>
<path d="M13.75 10.8906V11.0756V13.4688H20.7969V11.0756V10.8906H13.75ZM18.0477 12.4375H16.6241C16.529 12.4375 16.4522 12.3607 16.4522 12.2656C16.4522 12.1708 16.5289 12.0938 16.6241 12.0938H18.0477C18.1428 12.0938 18.2196 12.1708 18.2196 12.2656C18.2196 12.3607 18.1428 12.4375 18.0477 12.4375Z" fill="#222222"/>
<path fill-rule="evenodd" clip-rule="evenodd" d="M18.6125 1.75C18.6872 1.75006 18.7602 1.77211 18.8225 1.8134C18.8848 1.85468 18.9335 1.91338 18.9626 1.98218L18.9779 2.02785L19.7391 4.69222C19.7538 4.7452 19.7568 4.80074 19.7479 4.85499C19.7391 4.90925 19.7185 4.96094 19.6878 5.00652C19.6571 5.05209 19.6168 5.09046 19.5698 5.119C19.5228 5.14753 19.4702 5.16554 19.4156 5.1718L19.3737 5.17561H18.2319V6.9375H22V7.79688H20.7969V10.5469H13.75V7.79688H2.387L2.41175 16.5625H1.375V7.79688H0V6.9375H11V5.55623C10.9993 5.46272 11.0331 5.37223 11.0949 5.30203C11.1567 5.23183 11.2421 5.18683 11.335 5.17561H11.472L11.0343 4.18599L11.727 3.88149L12.3055 5.17561H13.2837C13.3773 5.17493 13.4677 5.20871 13.5379 5.27048C13.6082 5.33226 13.6532 5.41772 13.6644 5.51056V6.9375H17.4706V5.17561H16.3287C16.2735 5.17577 16.2189 5.16391 16.1687 5.14085C16.1185 5.11779 16.074 5.08409 16.0381 5.04208C16.0023 5.00007 15.976 4.95076 15.9611 4.89757C15.9462 4.84439 15.9431 4.7886 15.9519 4.73409L15.9633 4.69222L16.7246 2.02785C16.745 1.95578 16.7862 1.89134 16.8431 1.84259C16.9 1.79384 16.97 1.76296 17.0443 1.75381L17.09 1.75H18.6125ZM12.9031 6.9375V5.93686H11.7613V6.9375H12.9031ZM18.3232 2.51125H17.3755L16.8312 4.41436H18.8675L18.3232 2.51125ZM16.6241 9.51562H18.0477C18.1428 9.51562 18.2196 9.4388 18.2196 9.34375C18.2196 9.24888 18.1428 9.17188 18.0477 9.17188H16.6241C16.529 9.17188 16.4522 9.24888 16.4522 9.34375C16.4522 9.4388 16.529 9.51562 16.6241 9.51562Z" fill="#222222"/>
</svg>
