<svg width="16" height="14" viewBox="0 0 16 14" fill="none" xmlns="http://www.w3.org/2000/svg">
<path d="M8 13.7501C11.9375 11.0895 15.875 8.12508 15.875 4.18758C15.8765 3.67009 15.7757 3.1574 15.5783 2.67901C15.381 2.20062 15.091 1.76597 14.725 1.40004C14.3591 1.03411 13.9245 0.744137 13.4461 0.546785C12.9677 0.349433 12.455 0.2486 11.9375 0.250085C10.925 0.250085 9.92375 0.632585 9.15313 1.40321L8 2.55634L6.84688 1.40321C6.482 1.03619 6.04816 0.744932 5.57031 0.546183C5.09246 0.347434 4.58004 0.245117 4.0625 0.245117C3.54497 0.245117 3.03254 0.347434 2.5547 0.546183C2.07685 0.744932 1.64301 1.03619 1.27813 1.40321C0.912008 1.7685 0.621664 2.20252 0.423775 2.68035C0.225887 3.15818 0.124352 3.6704 0.125003 4.18758C0.125003 8.12508 4.0625 11.0895 8 13.7501Z" fill="url(#paint0_linear_17817_3346)"/>
<defs>
<linearGradient id="paint0_linear_17817_3346" x1="8.00001" y1="0.245117" x2="8.00001" y2="13.7501" gradientUnits="userSpaceOnUse">
<stop stop-color="#E61E4D"/>
<stop offset="0.796667" stop-color="#D70466"/>
</linearGradient>
</defs>
</svg>
