<svg width="66" height="63" viewBox="0 0 66 63" fill="none" xmlns="http://www.w3.org/2000/svg">
<path fill-rule="evenodd" clip-rule="evenodd" d="M61.6428 58.679H37.2426L49.3167 46.605L60.955 58.2434C61.1558 58.4442 61.3918 58.589 61.6428 58.679ZM62.3333 54.4362V14.679H18.3333V41.053L26.9213 32.465C27.6066 31.7797 28.7878 31.7594 29.5038 32.4753C29.552 32.5236 29.5969 32.5741 29.6387 32.6267C29.6517 32.6389 29.6646 32.6514 29.6773 32.6642L43.8747 46.8615L47.9646 42.7715C48.367 42.3691 48.9298 42.1917 49.4715 42.2503C49.9138 42.2758 50.3523 42.4552 50.6912 42.794L62.3333 54.4362ZM32.0573 58.679H18.3333V46.2164L18.3444 46.2274L28.1998 36.372L41.282 49.4542L32.0573 58.679ZM14.6667 57.3258L11.1445 57.8208C9.12238 58.105 7.25857 56.6979 6.97481 54.6789L0.858253 11.1567C0.574066 9.13464 1.98117 7.27084 4.00023 6.98708L47.5223 0.870464C49.5444 0.586279 51.4082 1.99343 51.692 4.0125L52.6758 11.0123H62.3083C64.3502 11.0123 66 12.6652 66 14.7041V58.6539C66 60.6959 64.3472 62.3457 62.3083 62.3457H18.3584C16.3164 62.3457 14.6667 60.6928 14.6667 58.6539V57.3258ZM14.6667 53.6231L10.6093 54.1933L4.48565 10.6216L48.0574 4.49797L48.973 11.0123H18.3584C16.3195 11.0123 14.6667 12.6622 14.6667 14.7041V53.6231Z" fill="#DADADA"/>
</svg>
