<svg width="13" height="13" viewBox="0 0 13 13" fill="none" xmlns="http://www.w3.org/2000/svg">
<path d="M1.37455 12.1508C0.872715 12.1508 0.456676 11.981 0.12125 11.6414C-0.042567 11.4662 -0.0399543 11.1982 0.126452 11.0364C0.399481 10.7683 0.584082 10.5746 0.68289 10.4552C0.781698 10.3358 0.916918 10.081 1.08594 9.68832C0.565887 8.74628 0.266873 7.6583 0.266873 6.49868C0.266873 2.911 3.11668 0 6.63473 0C10.1502 0.00265851 13 2.91366 13 6.50134C13 10.089 10.1502 13 6.63212 13C5.27222 13 4.01114 12.5648 2.97626 11.8218C2.47702 12.0421 1.94398 12.1508 1.37455 12.1508ZM1.56435 11.1929C2.0064 11.1929 2.41203 11.108 2.79166 10.9408L3.05946 10.8214C3.14787 10.7816 3.24929 10.7922 3.32988 10.8506L3.56911 11.0231C4.46097 11.6626 5.51924 12.0102 6.63473 12.0102C9.58335 12.0102 11.9703 9.57156 11.9703 6.56502C11.9703 3.55849 9.58074 1.11718 6.63473 1.11718C3.68873 1.11718 1.29655 3.55583 1.29655 6.56237C1.29655 7.51235 1.53575 8.42518 1.983 9.23453L2.11041 9.46807C2.152 9.54502 2.1572 9.64053 2.1234 9.72014L2.0168 9.96429C1.82439 10.4127 1.66836 10.71 1.50715 10.9063C1.44996 10.9753 1.37455 11.0576 1.27833 11.1584C1.36414 11.1796 1.45775 11.1929 1.56435 11.1929ZM3.5093 7.73259C3.5093 8.01123 3.38449 8.15187 3.13488 8.15187C2.89045 8.15187 2.76565 8.01123 2.76565 7.7273V5.77424C2.76565 5.64953 2.80204 5.55399 2.86966 5.48236C2.93985 5.4107 3.02825 5.37355 3.13747 5.37355C3.3819 5.37355 3.50669 5.50889 3.50669 5.77956V7.73259H3.5093ZM7.76321 7.76976C7.76321 8.0245 7.63839 8.15187 7.38878 8.15187C7.13917 8.15187 7.01436 8.0245 7.01436 7.76976V6.30497C7.01436 6.09268 6.89995 5.98919 6.67373 5.98919C6.59573 5.98919 6.52293 6.02102 6.45272 6.08473C6.38512 6.14841 6.35391 6.2227 6.35391 6.30497V7.76711C6.35391 8.02184 6.23171 8.14923 5.98469 8.14923C5.73246 8.14923 5.60506 8.02184 5.60506 7.76711V6.27578C5.60506 6.08207 5.51665 5.98653 5.34243 5.98653C5.25403 5.98653 5.16821 6.02368 5.07981 6.09268C4.9914 6.16168 4.9472 6.23597 4.9472 6.31824V7.76445C4.9472 8.01921 4.825 8.14657 4.58318 8.14657C4.32837 8.14657 4.19835 8.01921 4.19835 7.76445V5.7318C4.19835 5.49297 4.32055 5.37089 4.56237 5.37089C4.75479 5.37089 4.87699 5.4505 4.9316 5.61238C5.09282 5.4505 5.29303 5.37089 5.53226 5.37089C5.81047 5.37089 6.02889 5.4797 6.1953 5.69729C6.35911 5.4797 6.60613 5.37089 6.93116 5.37089C7.21456 5.37089 7.42779 5.46111 7.57341 5.63892C7.70081 5.79282 7.76321 6.00246 7.76321 6.26783V7.76976ZM9.40913 8.19699C8.72008 8.19699 8.16365 7.56542 8.16365 6.78527C8.16365 6.00512 8.72008 5.37355 9.40913 5.37355C10.0982 5.37355 10.6546 6.00512 10.6546 6.78527C10.6546 7.56542 10.0982 8.19699 9.40913 8.19699ZM9.40913 7.49113C9.71596 7.49113 9.96298 7.14352 9.96298 6.71361C9.96298 6.28373 9.71596 5.93612 9.40913 5.93612C9.1023 5.93612 8.8553 6.28373 8.8553 6.71361C8.8553 7.14352 9.10491 7.49113 9.40913 7.49113ZM3.18167 5.23026C2.95287 5.23026 2.76565 5.04184 2.76565 4.80567C2.76565 4.57216 2.95025 4.38111 3.18167 4.38111C3.4105 4.38111 3.59771 4.57216 3.59771 4.80567C3.59771 5.03921 3.4105 5.23026 3.18167 5.23026Z" fill="#555555"/>
</svg>
