<svg width="13" height="13" viewBox="0 0 13 13" fill="none" xmlns="http://www.w3.org/2000/svg">
<path d="M10.3275 2.69159C10.3275 3.15348 9.95304 3.52795 9.49115 3.52795C9.02925 3.52795 8.65479 3.15348 8.65479 2.69159C8.65479 2.22968 9.02925 1.85522 9.49115 1.85522C9.95304 1.85522 10.3275 2.22968 10.3275 2.69159Z" fill="#555555"/>
<path fill-rule="evenodd" clip-rule="evenodd" d="M6.18173 9.27288C7.88878 9.27288 9.27264 7.88902 9.27264 6.18197C9.27264 4.47493 7.88878 3.09106 6.18173 3.09106C4.47468 3.09106 3.09082 4.47493 3.09082 6.18197C3.09082 7.88902 4.47468 9.27288 6.18173 9.27288ZM6.18173 8.03652C7.206 8.03652 8.03627 7.20624 8.03627 6.18197C8.03627 5.15771 7.206 4.32743 6.18173 4.32743C5.15746 4.32743 4.32718 5.15771 4.32718 6.18197C4.32718 7.20624 5.15746 8.03652 6.18173 8.03652Z" fill="#555555"/>
<path fill-rule="evenodd" clip-rule="evenodd" d="M0 5.93455C0 3.85727 1.47386e-07 2.8186 0.404266 2.0252C0.759869 1.32729 1.32729 0.759869 2.0252 0.404266C2.8186 1.47386e-07 3.85727 0 5.93455 0H6.42909C8.50637 0 9.54504 1.47386e-07 10.3384 0.404266C11.0363 0.759869 11.6038 1.32729 11.9593 2.0252C12.3636 2.8186 12.3636 3.85727 12.3636 5.93455V6.42909C12.3636 8.50637 12.3636 9.54504 11.9593 10.3384C11.6038 11.0363 11.0363 11.6038 10.3384 11.9593C9.54504 12.3636 8.50637 12.3636 6.42909 12.3636H5.93455C3.85727 12.3636 2.8186 12.3636 2.0252 11.9593C1.32729 11.6038 0.759869 11.0363 0.404266 10.3384C1.47386e-07 9.54504 0 8.50637 0 6.42909V5.93455ZM5.93455 1.23636H6.42909C7.48816 1.23636 8.20803 1.23733 8.76452 1.28279C9.3066 1.32708 9.5838 1.40735 9.77716 1.50587C10.2424 1.74295 10.6207 2.12122 10.8577 2.58647C10.9563 2.77984 11.0366 3.05703 11.0808 3.59912C11.1263 4.1556 11.1273 4.87548 11.1273 5.93455V6.42909C11.1273 7.48816 11.1263 8.20803 11.0808 8.76452C11.0366 9.3066 10.9563 9.5838 10.8577 9.77716C10.6207 10.2424 10.2424 10.6207 9.77716 10.8577C9.5838 10.9563 9.3066 11.0366 8.76452 11.0808C8.20803 11.1263 7.48816 11.1273 6.42909 11.1273H5.93455C4.87548 11.1273 4.1556 11.1263 3.59912 11.0808C3.05703 11.0366 2.77984 10.9563 2.58647 10.8577C2.12122 10.6207 1.74295 10.2424 1.50587 9.77716C1.40735 9.5838 1.32708 9.3066 1.28279 8.76452C1.23733 8.20803 1.23636 7.48816 1.23636 6.42909V5.93455C1.23636 4.87548 1.23733 4.1556 1.28279 3.59912C1.32708 3.05703 1.40735 2.77984 1.50587 2.58647C1.74295 2.12122 2.12122 1.74295 2.58647 1.50587C2.77984 1.40735 3.05703 1.32708 3.59912 1.28279C4.1556 1.23733 4.87548 1.23636 5.93455 1.23636Z" fill="#555555"/>
</svg>
