<svg width="16" height="16" viewBox="0 0 16 16" fill="none" xmlns="http://www.w3.org/2000/svg">
<path d="M12.7535 11.4915L11.0547 9.63388C10.7163 9.26534 10.156 9.27654 9.80576 9.65948L8.94995 10.5951C8.89592 10.5625 8.83995 10.5284 8.7811 10.4924C8.24059 10.1649 7.50084 9.71614 6.72245 8.86441C5.94324 8.01254 5.53252 7.20401 5.23222 6.61294L5.23057 6.60961L5.2171 6.58307C5.19028 6.53 5.16416 6.47841 5.13845 6.42921L5.71292 5.80208L5.99535 5.49294C6.34597 5.1094 6.3556 4.49691 6.01804 4.12736L4.3193 2.26953C3.98173 1.9005 3.42114 1.91169 3.07044 2.29524L2.59167 2.82172L2.60476 2.83593C2.44421 3.05991 2.31007 3.31823 2.21023 3.59679C2.11821 3.86195 2.06092 4.11499 2.03471 4.36853C1.8104 6.40174 2.66018 8.26001 4.96643 10.7816C8.15424 14.267 10.7233 14.0036 10.8341 13.9908C11.0754 13.9592 11.3068 13.8961 11.542 13.7964C11.7944 13.6885 12.0306 13.542 12.2352 13.3669L12.2457 13.3771L12.7308 12.8577C13.0807 12.4743 13.0908 11.8616 12.7535 11.4915Z" fill="#006169"/>
</svg>
