<svg width="17" height="17" viewBox="0 0 17 17" fill="none" xmlns="http://www.w3.org/2000/svg">
<path d="M13.9282 0.944336C14.3417 0.945777 14.7408 1.0961 15.0525 1.36778C15.3642 1.63947 15.5676 2.01433 15.6255 2.42374C15.9122 4.46509 16.0556 6.64979 16.0556 8.97211C16.0556 11.2944 15.9122 13.4791 15.6255 15.5205C15.5694 15.9128 15.3796 16.2738 15.0881 16.5423C14.7966 16.8108 14.4213 16.9704 14.0257 16.9942L13.9282 16.9999H2.12163C1.70815 16.9985 1.30902 16.8481 0.997322 16.5764C0.685623 16.3048 0.48221 15.9299 0.424325 15.5205C0.143353 13.4791 0 11.2944 0 8.97211C0 6.64979 0.143353 4.46509 0.43006 2.42374C0.486153 2.03141 0.675996 1.67048 0.967496 1.40196C1.259 1.13345 1.63427 0.973823 2.02988 0.95007L2.12163 0.944336H13.9282ZM13.9282 2.09116H2.1331C1.99395 2.08979 1.85906 2.13906 1.75356 2.22979C1.64807 2.32052 1.57916 2.44652 1.55968 2.5843C1.2746 4.70147 1.13665 6.83586 1.14683 8.97211C1.14683 11.2428 1.28444 13.3702 1.56542 15.3599C1.58342 15.4847 1.64205 15.6001 1.73223 15.6882C1.82241 15.7763 1.93912 15.8322 2.06429 15.8473L2.12736 15.8531H13.9225C14.0616 15.8544 14.1965 15.8052 14.302 15.7144C14.4075 15.6237 14.4764 15.4977 14.4959 15.3599C14.7711 13.3702 14.9087 11.2428 14.9087 8.97211C14.9087 6.7014 14.7711 4.57404 14.4901 2.5843C14.4711 2.44943 14.4047 2.32575 14.3028 2.2354C14.2008 2.14504 14.0701 2.09391 13.9339 2.09116H13.9282ZM8.02778 3.8114C9.39648 3.8114 10.7091 4.35512 11.677 5.32294C12.6448 6.29076 13.1885 7.60341 13.1885 8.97211C13.1885 10.3408 12.6448 11.6535 11.677 12.6213C10.7091 13.5891 9.39648 14.1328 8.02778 14.1328C6.65907 14.1328 5.34642 13.5891 4.3786 12.6213C3.41078 11.6535 2.86706 10.3408 2.86706 8.97211C2.86706 7.60341 3.41078 6.29076 4.3786 5.32294C5.34642 4.35512 6.65907 3.8114 8.02778 3.8114ZM4.67905 8.11199C4.48409 8.11199 4.28913 8.12346 4.09417 8.15213C3.89711 9.10476 4.05272 10.0965 4.53206 10.943C5.0114 11.7895 5.78185 12.4332 6.70014 12.7542C7.61843 13.0753 8.62207 13.0519 9.52442 12.6885C10.4268 12.325 11.1664 11.6463 11.6059 10.7784C10.8883 10.8374 10.1662 10.7471 9.48528 10.5132C8.80431 10.2793 8.17919 9.90689 7.64933 9.41938L7.51744 9.28749C7.14525 8.91401 6.70285 8.61787 6.2157 8.41612C5.72856 8.21438 5.20631 8.11102 4.67905 8.11199ZM8.02778 4.95822C7.32243 4.95744 6.62933 5.14253 6.01829 5.49486C5.40725 5.84719 4.89984 6.35432 4.54716 6.96517H4.67905C5.97496 6.96517 7.225 7.44684 8.18833 8.34136L8.32595 8.47898C8.79794 8.9527 9.38111 9.3006 10.0222 9.49092C10.6632 9.68124 11.3418 9.7079 11.9958 9.56846C12.0816 8.99746 12.0432 8.41467 11.8832 7.85987C11.7232 7.30507 11.4453 6.79132 11.0687 6.35368C10.692 5.91605 10.2253 5.56483 9.70056 5.32401C9.17576 5.08318 8.60519 4.95842 8.02778 4.95822ZM2.86706 3.23799C3.01914 3.23799 3.16499 3.2984 3.27253 3.40594C3.38006 3.51347 3.44048 3.65932 3.44048 3.8114C3.44048 3.96348 3.38006 4.10933 3.27253 4.21686C3.16499 4.3244 3.01914 4.38481 2.86706 4.38481C2.71499 4.38481 2.56914 4.3244 2.4616 4.21686C2.35406 4.10933 2.29365 3.96348 2.29365 3.8114C2.29365 3.65932 2.35406 3.51347 2.4616 3.40594C2.56914 3.2984 2.71499 3.23799 2.86706 3.23799Z" fill="#222222"/>
</svg>
