<svg width="12" height="12" viewBox="0 0 12 12" fill="none" xmlns="http://www.w3.org/2000/svg">
<g clip-path="url(#clip0_12394_2197)">
<path fill-rule="evenodd" clip-rule="evenodd" d="M6 0C4.81332 0 3.65328 0.35192 2.66659 1.01121C1.67989 1.6705 0.910844 2.60757 0.456719 3.70392C0.00259277 4.80028 -0.116218 6.00666 0.115293 7.17054C0.346805 8.33443 0.918252 9.40354 1.75737 10.2427C2.59648 11.0818 3.66557 11.6532 4.82946 11.8847C5.99335 12.1163 7.19974 11.9974 8.2961 11.5433C9.39245 11.0892 10.3295 10.3201 10.9888 9.33345C11.6481 8.34676 12 7.18669 12 6C11.9982 4.40925 11.3655 2.88417 10.2406 1.75934C9.11582 0.634517 7.59075 0.00180459 6 0ZM11.1818 5.72727H9.27273C9.19091 3.93545 8.42973 2.10272 7.15636 0.951815C8.25457 1.20336 9.24118 1.80525 9.96732 2.66668C10.6935 3.52811 11.1197 4.60234 11.1818 5.72727ZM5.45455 1.09091V5.72727H3.54546C3.62346 4.01727 4.29737 2.04545 5.45455 1.09091ZM5.45455 6.54545V10.9091C4.37809 9.96 3.70064 8.07273 3.54546 6.54545H5.45455ZM6.27273 10.9091V6.54545H8.44937C8.27074 8.09727 7.47055 9.95727 6.27273 10.9091ZM6.27273 5.72727V1.09091C7.56082 2.04273 8.36455 3.99545 8.45455 5.72727H6.27273ZM4.67782 0.995428C3.48218 2.12725 2.802 3.91364 2.72754 5.72727H0.831818C0.889146 4.6329 1.29248 3.585 1.98369 2.7346C2.67489 1.8842 3.61825 1.27519 4.67782 0.995428ZM0.847366 6.54545H2.724C2.87591 8.21454 3.47946 9.79636 4.63637 10.9091C3.62543 10.674 2.71465 10.1255 2.03416 9.34177C1.35366 8.55808 0.93828 7.57937 0.847366 6.54545ZM7.09283 11.0646C8.3371 9.86779 9.11061 8.26423 9.27273 6.54545H11.1818C11.0599 7.63224 10.5996 8.65324 9.86581 9.46416C9.13207 10.2751 8.16205 10.8349 7.09283 11.0646Z" fill="#222222"/>
</g>
<defs>
<clipPath id="clip0_12394_2197">
<rect width="12" height="12" fill="white"/>
</clipPath>
</defs>
</svg>
