<svg width="156" height="25" viewBox="0 0 156 25" fill="none" xmlns="http://www.w3.org/2000/svg">
<path d="M19.1444 10.9242C19.1292 8.94672 18.7193 7.14766 17.482 5.97107C16.0397 4.6009 13.9711 4.57054 13.1134 4.55536C11.9671 4.54017 11.0259 4.78688 10.373 4.96147C9.80751 5.11329 9.30271 5.28788 8.85864 5.47007C7.93254 4.89315 6.73697 4.55536 5.21498 4.55536C2.8542 4.55536 1.54476 4.84761 0 5.74713V18.5986H3.75752V8.47988C4.16364 8.21799 4.74814 8.07376 5.59453 8.07376C6.9647 8.07376 7.66306 8.88599 7.69343 11.3303C7.72379 13.8011 7.72379 16.1278 7.69343 18.5986H11.4509C11.4813 15.8355 11.4813 13.6835 11.4509 10.9242C11.4434 10.0702 11.3333 9.25036 11.1018 8.50265C11.1701 8.47608 11.2346 8.44951 11.3029 8.42674C11.8001 8.25215 12.21 8.17624 12.4036 8.14208C12.6997 8.09274 12.954 8.07756 13.2842 8.07756C14.6543 8.07756 15.3527 9.06438 15.3831 11.3341C15.4134 13.8049 15.4134 16.1316 15.3831 18.6024H19.1406C19.1709 15.8393 19.1709 13.6873 19.1406 10.928L19.1444 10.9242Z" fill="#F6F6F6"/>
<path d="M59.7598 4.97403V5.23971L59.8434 5.97983C59.2361 5.19417 57.5319 4.55273 56.2301 4.55273C52.1271 4.55273 49.1477 7.31963 49.1477 11.749C49.1477 15.8291 51.8956 18.9755 56.2301 18.9755C57.7065 18.9755 59.3537 18.448 59.9572 17.575L59.8737 18.41V18.558H63.5743V4.97403H59.7598ZM56.4654 15.5406C54.6473 15.5406 52.9394 14.2008 52.9394 11.7528C52.9394 9.30467 54.6436 7.99523 56.4654 7.99523C58.3745 7.99523 59.9344 9.42233 59.9344 11.7528C59.9344 14.0832 58.3745 15.5406 56.4654 15.5406Z" fill="#F6F6F6"/>
<path d="M89.5011 24.2354C88.7458 24.0305 88.0133 23.7496 87.3187 23.3928C87.5313 22.3301 87.74 21.2712 87.9526 20.2084C89.9452 21.1535 91.266 21.2977 91.9796 21.2977C92.1086 21.2977 92.2225 21.2977 92.2377 21.2939C93.1789 21.2636 94.3517 21.2218 95.2665 20.383C95.9231 19.7795 96.2571 18.8952 96.2571 17.749V17.1379L96.1584 17.248C95.8851 17.5516 95.5549 17.8021 95.1754 17.9919C94.7199 18.2234 94.2265 18.3904 93.7103 18.4929C93.1941 18.5953 92.6703 18.6485 92.1542 18.6485C90.7992 18.6485 89.6947 18.3714 88.8749 17.8249C88.0551 17.2783 87.4516 16.523 87.0872 15.5779C86.7228 14.6367 86.5369 13.5436 86.5369 12.3404V4.93164H90.3437V11.6003C90.3437 12.0368 90.3703 12.4846 90.4234 12.9249C90.4766 13.3614 90.6018 13.7713 90.7954 14.1395C90.989 14.5076 91.2812 14.8075 91.6646 15.0314C92.0479 15.2553 92.5717 15.3692 93.2207 15.3692C94.0595 15.3692 94.7009 15.1718 95.1184 14.7809C95.5397 14.3862 95.8282 13.8814 95.9762 13.2779C96.128 12.6706 96.2039 12.0254 96.2039 11.3688V4.93164H100.011V16.4737C100.011 17.6958 99.8893 18.8231 99.6502 19.8251C99.4111 20.8271 99.005 21.7 98.4433 22.4136C97.1794 24.0229 95.0843 24.615 93.1144 24.6643C91.8999 24.6947 90.6739 24.5542 89.5011 24.2316V24.2354Z" fill="#F6F6F6"/>
<path d="M65.4722 18.5999V5.74842C66.9752 4.87546 69.6851 4.55664 71.3627 4.55664C77.1357 4.55664 78.8968 7.46398 78.9271 10.7205C78.9575 13.4836 78.9575 15.8368 78.9271 18.5999H75.1734C75.2038 16.129 75.2038 13.8024 75.1734 11.3316C75.143 9.06187 74.0196 8.07505 71.7385 8.07505C70.672 8.07505 69.632 8.24964 69.1993 8.51152V18.5999H65.476H65.4722Z" fill="#F6F6F6"/>
<path d="M105.989 16.6331C105.989 17.8134 105.025 18.7699 103.833 18.7699H103.689C102.497 18.7699 101.533 17.8134 101.533 16.6368C101.533 15.4565 102.497 14.5 103.689 14.5H103.833C105.025 14.5 105.989 15.4565 105.989 16.6331Z" fill="#00BAFC"/>
<path d="M114.187 18.9794C109.56 18.9794 106.748 16.0304 106.748 11.7529C106.748 7.47536 109.591 4.55664 114.187 4.55664C116.415 4.55664 118.552 5.39544 119.842 6.92502L117.527 9.32376C116.589 8.31036 115.565 7.90805 114.187 7.90805C112.225 7.90805 110.524 9.46799 110.524 11.7529C110.524 14.2389 112.107 15.6242 114.187 15.6242C115.417 15.6242 116.825 15.1612 117.584 14.2085L119.781 16.6642C118.491 18.1976 116.529 18.9756 114.187 18.9756V18.9794Z" fill="#F6F6F6"/>
<path d="M127.942 4.55664C123.406 4.55664 120.601 7.50573 120.601 11.7529C120.601 16 123.376 18.9794 127.942 18.9794C132.508 18.9794 135.309 16.0304 135.309 11.7529C135.309 7.47536 132.477 4.55664 127.942 4.55664ZM127.942 15.5977C126.006 15.5977 124.272 14.3262 124.272 11.7529C124.272 9.17953 126.12 7.90805 127.942 7.90805C129.764 7.90805 131.612 9.17953 131.612 11.7529C131.612 14.3262 129.908 15.5977 127.942 15.5977Z" fill="#F6F6F6"/>
<path d="M155.971 10.9242C155.956 8.94672 155.546 7.14766 154.309 5.97107C152.867 4.6009 150.798 4.57054 149.94 4.55536C148.794 4.54017 147.853 4.78688 147.2 4.96147C146.634 5.11329 146.13 5.28788 145.686 5.47007C144.759 4.89315 143.564 4.55536 142.042 4.55536C139.681 4.55536 138.372 4.84761 136.827 5.74713V18.5986H140.584V8.47988C140.991 8.21799 141.575 8.07376 142.421 8.07376C143.792 8.07376 144.49 8.88599 144.52 11.3303C144.551 13.8011 144.551 16.1278 144.52 18.5986H148.278C148.308 15.8355 148.308 13.6835 148.278 10.9242C148.27 10.0702 148.16 9.25036 147.929 8.50265C147.997 8.47608 148.062 8.44951 148.13 8.42674C148.627 8.25215 149.037 8.17624 149.231 8.14208C149.527 8.09274 149.781 8.07756 150.111 8.07756C151.481 8.07756 152.18 9.06438 152.21 11.3341C152.24 13.8049 152.24 16.1316 152.21 18.6024H155.967C155.998 15.8393 155.998 13.6873 155.967 10.928L155.971 10.9242Z" fill="#F6F6F6"/>
<path d="M84.6392 0H80.8438V18.5978H84.6392V0Z" fill="#F6F6F6"/>
<path d="M34.9186 11.7491C34.9186 7.58922 32.3339 4.55664 27.8172 4.55664C23.3006 4.55664 20.6855 7.58922 20.6855 11.7491C20.6855 13.9808 21.4674 15.9317 22.9363 17.2411C24.8833 18.9757 27.1948 18.9794 27.9653 18.9756C28.489 18.9756 31.6621 18.9643 33.6395 16.5731C34.1898 15.9089 34.4897 15.2523 34.6567 14.8044H30.5272C30.4741 14.8803 30.4058 14.9638 30.3185 15.0549C29.5594 15.8406 28.3904 15.814 28.0032 15.8064C27.6351 15.7988 26.2156 15.7647 25.2477 14.6336C24.6898 13.9808 24.5417 13.2597 24.4962 12.9067H34.8882C34.9186 12.5044 34.9186 12.2159 34.9186 11.7491ZM24.5607 10.4206C24.705 8.89107 26.0865 7.84732 27.8172 7.84732C29.548 7.84732 30.8384 8.89107 31.013 10.4206H24.5607Z" fill="#F6F6F6"/>
<path d="M44.2516 10.5704L49.6374 18.5978H45.3599L41.6442 12.9995L40.1943 14.4721V18.5978H36.4368V0H40.1943V10.1491L45.0487 5.01382H49.7209L44.2516 10.5704Z" fill="#F6F6F6"/>
</svg>
