<svg width="80" height="60" viewBox="0 0 80 60" fill="none" xmlns="http://www.w3.org/2000/svg">
<g filter="url(#filter0_d_2713_782)">
<rect x="10" y="9" width="60" height="33" rx="4" fill="url(#paint0_linear_2713_782)" shape-rendering="crispEdges"/>
<rect x="10" y="9" width="60" height="33" rx="4" fill="#FDE470" shape-rendering="crispEdges"/>
<path d="M39.4984 9.00296L43.9999 9.0011L22.5 42L18 42L39.4984 9.00296Z" fill="url(#paint1_linear_2713_782)"/>
<path d="M47.5656 9.04753L52 8.99928L29.5 42L25.5 42L47.5656 9.04753Z" fill="url(#paint2_linear_2713_782)"/>
<mask id="mask0_2713_782" style="mask-type:luminance" maskUnits="userSpaceOnUse" x="17" y="22" width="12" height="19">
<path d="M28.0244 22.3711H17.259V40.6722H28.0244V22.3711Z" fill="white"/>
</mask>
<g mask="url(#mask0_2713_782)">
<path fill-rule="evenodd" clip-rule="evenodd" d="M25.8586 36.9075L25.4801 36.3572L26.4539 35.8965L26.8325 36.4469C27.674 37.6704 27.2663 39.1779 25.9218 39.8139C25.4956 40.0154 25.0071 40.1117 24.5047 40.093L24.323 40.0863L24.2803 39.0885L24.462 39.0952C24.7634 39.1064 25.0566 39.0486 25.3122 38.9277C26.119 38.5461 26.3636 37.6417 25.8586 36.9075Z" fill="#D2921A"/>
<path fill-rule="evenodd" clip-rule="evenodd" d="M21.1145 22.6503C21.322 22.5 21.6368 22.5116 21.8579 22.6779C23.0271 23.557 23.6954 24.5722 23.7441 25.7106C23.7929 26.849 23.2095 27.8177 22.112 28.6127C21.9044 28.763 21.5897 28.7513 21.3685 28.585C20.1994 27.7059 19.531 26.6908 19.4823 25.5524C19.4336 24.414 20.017 23.4453 21.1145 22.6503ZM21.5316 23.725C20.8775 24.3056 20.6018 24.9281 20.6304 25.595C20.6589 26.2619 20.9888 26.9069 21.6948 27.538C22.349 26.9574 22.6246 26.3349 22.5961 25.668C22.5675 25.001 22.2376 24.3561 21.5316 23.725Z" fill="#D2921A"/>
<path fill-rule="evenodd" clip-rule="evenodd" d="M19.8054 36.199C19.6354 36.0125 19.6246 35.7592 19.7791 35.5847C20.6544 34.5964 21.7328 34.0568 23.0171 34.1045C24.3014 34.1522 25.4295 34.7736 26.3923 35.8302C26.5623 36.0167 26.5732 36.2701 26.4186 36.4445C25.5433 37.4328 24.4649 37.9724 23.1807 37.9247C21.8963 37.877 20.7683 37.2556 19.8054 36.199ZM20.9964 35.9365C21.7029 36.6005 22.4147 36.9 23.1379 36.9269C23.8611 36.9537 24.5495 36.7062 25.2013 36.0927C24.4948 35.4287 23.783 35.1292 23.0598 35.1023C22.3366 35.0755 21.6482 35.323 20.9964 35.9365Z" fill="#D2921A"/>
<path fill-rule="evenodd" clip-rule="evenodd" d="M17.4529 31.4896C17.402 31.258 17.54 31.0393 17.7853 30.9627C19.1353 30.5411 20.415 30.589 21.548 31.21C22.6758 31.8282 23.3489 32.8448 23.6353 34.1497C23.6862 34.3813 23.5482 34.6 23.3029 34.6766C21.9529 35.0982 20.6732 35.0504 19.5402 34.4293C18.4124 33.811 17.7393 32.7945 17.4529 31.4896ZM18.6891 31.7877C18.9637 32.6625 19.4477 33.2412 20.0958 33.5965C20.7348 33.9467 21.4861 34.0542 22.3992 33.8516C22.1245 32.9768 21.6406 32.3981 20.9924 32.0428C20.3534 31.6925 19.6021 31.5851 18.6891 31.7877Z" fill="#D2921A"/>
<path fill-rule="evenodd" clip-rule="evenodd" d="M17.9496 26.535C18.0348 26.3125 18.2959 26.1875 18.5705 26.2375C20.0303 26.5038 21.1542 27.1245 21.8292 28.141C22.5016 29.1535 22.5525 30.2931 22.0889 31.5041C22.0038 31.7265 21.7427 31.8516 21.4681 31.8015C20.0083 31.5353 18.8843 30.9145 18.2093 29.8981C17.537 28.8856 17.486 27.746 17.9496 26.535ZM18.9094 27.3233C18.6817 28.1614 18.7992 28.859 19.1931 29.4521C19.5816 30.0372 20.2033 30.4671 21.1292 30.7158C21.3569 29.8777 21.2394 29.1801 20.8455 28.587C20.4569 28.0018 19.8353 27.5719 18.9094 27.3233Z" fill="#D2921A"/>
</g>
<mask id="mask1_2713_782" style="mask-type:luminance" maskUnits="userSpaceOnUse" x="52" y="22" width="12" height="19">
<path d="M52.4346 22.3691H63.2V40.6702H52.4346V22.3691Z" fill="white"/>
</mask>
<g mask="url(#mask1_2713_782)">
<path fill-rule="evenodd" clip-rule="evenodd" d="M54.6005 36.9056L54.9791 36.3552L54.0053 35.8945L53.6267 36.4449C52.7851 37.6685 53.1928 39.1759 54.5374 39.8119C54.9635 40.0135 55.4521 40.1097 55.9544 40.0911L56.1361 40.0843L56.1788 39.0865L55.9972 39.0933C55.6958 39.1044 55.4026 39.0467 55.1469 38.9258C54.3402 38.5441 54.0955 37.6397 54.6005 36.9056Z" fill="#D2921A"/>
<path fill-rule="evenodd" clip-rule="evenodd" d="M59.3446 22.6484C59.1371 22.498 58.8223 22.5097 58.6012 22.676C57.432 23.5551 56.7637 24.5702 56.715 25.7086C56.6662 26.847 57.2496 27.8157 58.3471 28.6107C58.5547 28.7611 58.8695 28.7493 59.0906 28.5831C60.2597 27.704 60.9281 26.6888 60.9768 25.5504C61.0255 24.412 60.4422 23.4433 59.3446 22.6484ZM58.9275 23.723C59.5816 24.3036 59.8573 24.9261 59.8287 25.593C59.8002 26.26 59.4703 26.9049 58.7642 27.536C58.1101 26.9554 57.8345 26.3329 57.863 25.666C57.8916 24.9991 58.2215 24.3541 58.9275 23.723Z" fill="#D2921A"/>
<path fill-rule="evenodd" clip-rule="evenodd" d="M60.6535 36.199C60.8235 36.0125 60.8344 35.7592 60.6799 35.5847C59.8045 34.5964 58.7262 34.0568 57.4419 34.1045C56.1576 34.1522 55.0295 34.7736 54.0666 35.8302C53.8967 36.0167 53.8858 36.2701 54.0403 36.4445C54.9157 37.4328 55.994 37.9724 57.2783 37.9247C58.5626 37.877 59.6907 37.2556 60.6535 36.199ZM59.4625 35.9365C58.7561 36.6005 58.0442 36.9 57.321 36.9269C56.5979 36.9537 55.9094 36.7062 55.2576 36.0927C55.9641 35.4287 56.676 35.1292 57.3991 35.1023C58.1223 35.0755 58.8107 35.323 59.4625 35.9365Z" fill="#D2921A"/>
<path fill-rule="evenodd" clip-rule="evenodd" d="M63.0064 31.4876C63.0573 31.256 62.9193 31.0373 62.674 30.9607C61.324 30.5392 60.0443 30.587 58.9113 31.208C57.7835 31.8263 57.1104 32.8428 56.824 34.1478C56.7731 34.3794 56.9111 34.598 57.1564 34.6747C58.5064 35.0962 59.7861 35.0484 60.9191 34.4273C62.0469 33.8091 62.72 32.7926 63.0064 31.4876ZM61.7702 31.7858C61.4956 32.6605 61.0117 33.2392 60.3635 33.5945C59.7245 33.9448 58.9732 34.0523 58.0602 33.8496C58.3348 32.9749 58.8187 32.3962 59.4669 32.0408C60.1059 31.6906 60.8572 31.5831 61.7702 31.7858Z" fill="#D2921A"/>
<path fill-rule="evenodd" clip-rule="evenodd" d="M62.5096 26.535C62.4244 26.3125 62.1633 26.1875 61.8887 26.2375C60.4289 26.5038 59.305 27.1245 58.63 28.141C57.9577 29.1535 57.9067 30.2931 58.3703 31.5041C58.4554 31.7265 58.7165 31.8516 58.9911 31.8015C60.4509 31.5353 61.5749 30.9145 62.2499 29.8981C62.9222 28.8856 62.9732 27.746 62.5096 26.535ZM61.5499 27.3233C61.7775 28.1614 61.66 28.859 61.2661 29.4521C60.8776 30.0372 60.256 30.4671 59.3301 30.7158C59.1023 29.8777 59.2198 29.1801 59.6137 28.587C60.0023 28.0018 60.6239 27.5719 61.5499 27.3233Z" fill="#D2921A"/>
</g>
<path d="M32.9854 33.5498V35H29.0322V33.5498H32.9854ZM29.7036 27.1797V35H27.8184V27.1797H29.7036ZM37.8945 27.1797H39.7798V32.2876C39.7798 32.8963 39.6527 33.4119 39.3984 33.8345C39.1442 34.2534 38.7879 34.5703 38.3296 34.7852C37.8713 35 37.3324 35.1074 36.7129 35.1074C36.1006 35.1074 35.5617 35 35.0962 34.7852C34.6343 34.5703 34.2726 34.2534 34.0112 33.8345C33.7534 33.4119 33.6245 32.8963 33.6245 32.2876V27.1797H35.5151V32.2876C35.5151 32.6099 35.5617 32.873 35.6548 33.0771C35.7479 33.2777 35.884 33.4245 36.063 33.5176C36.242 33.6107 36.4587 33.6572 36.7129 33.6572C36.9707 33.6572 37.1873 33.6107 37.3628 33.5176C37.5382 33.4245 37.6707 33.2777 37.7603 33.0771C37.8498 32.873 37.8945 32.6099 37.8945 32.2876V27.1797ZM42.605 27.1797L43.8833 29.7793L45.1616 27.1797H47.3101L45.1294 31.0576L47.3691 35H45.1992L43.8833 32.3521L42.5674 35H40.3921L42.6372 31.0576L40.4512 27.1797H42.605ZM53.374 33.5498V35H49.2061V33.5498H53.374ZM49.8774 27.1797V35H47.9922V27.1797H49.8774ZM52.8369 30.2842V31.686H49.2061V30.2842H52.8369ZM53.3901 27.1797V28.6353H49.2061V27.1797H53.3901Z" fill="#D2921A"/>
<path fill-rule="evenodd" clip-rule="evenodd" d="M25.8048 15.19L24.986 17.0349L23.0311 17.2988C22.9933 17.3038 22.9576 17.32 22.9284 17.3457C22.8992 17.3713 22.8776 17.4052 22.8663 17.4434C22.855 17.4815 22.8545 17.5223 22.8647 17.5608C22.8749 17.5992 22.8955 17.6338 22.924 17.6603L24.3714 19.0253L23.9808 21.0718C23.9734 21.111 23.977 21.1515 23.991 21.1886C24.005 21.2256 24.0289 21.2577 24.0599 21.2809C24.0908 21.3041 24.1275 21.3175 24.1655 21.3195C24.2035 21.3215 24.2412 21.312 24.2742 21.2921L25.9832 20.2532L27.6942 21.2921C27.7272 21.312 27.765 21.3215 27.803 21.3195C27.841 21.3175 27.8776 21.3041 27.9086 21.2809C27.9395 21.2577 27.9634 21.2256 27.9774 21.1886C27.9915 21.1515 27.995 21.111 27.9877 21.0718L27.5971 19.0253L29.0444 17.6603C29.0723 17.6336 29.0923 17.599 29.1021 17.5606C29.1119 17.5223 29.111 17.4819 29.0995 17.4441C29.088 17.4063 29.0665 17.3727 29.0374 17.3473C29.0083 17.322 28.9729 17.3058 28.9353 17.3009L26.9805 17.0349L26.1636 15.19C26.1479 15.1537 26.1225 15.123 26.0905 15.1014C26.0585 15.0798 26.0213 15.0684 25.9832 15.0684C25.9452 15.0684 25.908 15.0798 25.876 15.1014C25.844 15.123 25.8186 15.1537 25.8028 15.19H25.8048Z" fill="#D2921A"/>
<path fill-rule="evenodd" clip-rule="evenodd" d="M32.9501 13.6827L32.1432 15.4175L30.217 15.6656C30.1798 15.6702 30.1446 15.6855 30.1158 15.7097C30.087 15.7338 30.0658 15.7657 30.0547 15.8015C30.0435 15.8374 30.043 15.8757 30.0531 15.9119C30.0632 15.9481 30.0835 15.9806 30.1115 16.0055L31.5376 17.289L31.1528 19.2133C31.1455 19.2501 31.149 19.2882 31.1628 19.323C31.1767 19.3579 31.2002 19.388 31.2307 19.4099C31.2612 19.4317 31.2973 19.4443 31.3348 19.4461C31.3722 19.448 31.4094 19.439 31.4419 19.4203L33.1259 18.4436L34.8118 19.4203C34.8443 19.439 34.8815 19.448 34.919 19.4461C34.9564 19.4443 34.9925 19.4317 35.023 19.4099C35.0535 19.388 35.0771 19.3579 35.0909 19.323C35.1047 19.2882 35.1082 19.2501 35.1009 19.2133L34.7161 17.289L36.1422 16.0055C36.1697 15.9803 36.1894 15.9478 36.1991 15.9118C36.2087 15.8758 36.2078 15.8377 36.1965 15.8022C36.1852 15.7666 36.164 15.7351 36.1353 15.7112C36.1066 15.6874 36.0717 15.6722 36.0347 15.6675L34.1085 15.4175L33.3037 13.6827C33.2881 13.6486 33.2631 13.6197 33.2316 13.5994C33.2001 13.5791 33.1634 13.5684 33.1259 13.5684C33.0884 13.5684 33.0517 13.5791 33.0202 13.5994C32.9887 13.6197 32.9637 13.6486 32.9481 13.6827H32.9501Z" fill="#D2921A"/>
<path fill-rule="evenodd" clip-rule="evenodd" d="M39.9501 11.9894L39.1432 13.7241L37.217 13.9722C37.1798 13.9769 37.1446 13.9922 37.1158 14.0163C37.087 14.0404 37.0658 14.0723 37.0547 14.1082C37.0435 14.144 37.043 14.1824 37.0531 14.2185C37.0632 14.2547 37.0835 14.2872 37.1115 14.3122L38.5376 15.5956L38.1528 17.5199C38.1455 17.5567 38.149 17.5948 38.1628 17.6297C38.1767 17.6645 38.2002 17.6947 38.2307 17.7165C38.2612 17.7383 38.2973 17.7509 38.3348 17.7528C38.3722 17.7546 38.4094 17.7457 38.4419 17.727L40.1259 16.7502L41.8118 17.727C41.8443 17.7457 41.8815 17.7546 41.919 17.7528C41.9564 17.7509 41.9925 17.7383 42.023 17.7165C42.0535 17.6947 42.0771 17.6645 42.0909 17.6297C42.1047 17.5948 42.1082 17.5567 42.1009 17.5199L41.7161 15.5956L43.1422 14.3122C43.1697 14.287 43.1894 14.2545 43.1991 14.2184C43.2087 14.1824 43.2078 14.1444 43.1965 14.1088C43.1852 14.0733 43.164 14.0417 43.1353 14.0179C43.1066 13.994 43.0717 13.9788 43.0347 13.9742L41.1085 13.7241L40.3037 11.9894C40.2881 11.9553 40.2631 11.9263 40.2316 11.9061C40.2001 11.8858 40.1634 11.875 40.1259 11.875C40.0884 11.875 40.0517 11.8858 40.0202 11.9061C39.9887 11.9263 39.9637 11.9553 39.9481 11.9894H39.9501Z" fill="#D2921A"/>
<path fill-rule="evenodd" clip-rule="evenodd" d="M46.9494 13.3077L46.1428 15.0421L44.217 15.2901C44.1797 15.2948 44.1446 15.3101 44.1158 15.3342C44.087 15.3583 44.0658 15.3902 44.0547 15.426C44.0435 15.4619 44.043 15.5002 44.0531 15.5364C44.0632 15.5725 44.0834 15.605 44.1115 15.63L45.5373 16.9132L45.1525 18.837C45.1453 18.8738 45.1488 18.9119 45.1626 18.9467C45.1764 18.9816 45.2 19.0117 45.2304 19.0335C45.2609 19.0554 45.297 19.068 45.3345 19.0698C45.3719 19.0717 45.4091 19.0627 45.4416 19.044L47.1252 18.0675L48.8107 19.044C48.8432 19.0627 48.8804 19.0717 48.9179 19.0698C48.9553 19.068 48.9914 19.0554 49.0219 19.0335C49.0524 19.0117 49.0759 18.9816 49.0897 18.9467C49.1036 18.9119 49.107 18.8738 49.0998 18.837L48.715 16.9132L50.1408 15.63C50.1683 15.6048 50.1881 15.5723 50.1977 15.5363C50.2073 15.5002 50.2064 15.4622 50.1951 15.4267C50.1838 15.3911 50.1626 15.3596 50.1339 15.3357C50.1053 15.3119 50.0704 15.2967 50.0334 15.2921L48.1076 15.0421L47.3029 13.3077C47.2874 13.2736 47.2624 13.2447 47.2309 13.2244C47.1993 13.2041 47.1627 13.1934 47.1252 13.1934C47.0877 13.1934 47.051 13.2041 47.0195 13.2244C46.988 13.2447 46.963 13.2736 46.9475 13.3077H46.9494Z" fill="#D2921A"/>
<path fill-rule="evenodd" clip-rule="evenodd" d="M53.9501 15.3761L53.1432 17.1108L51.217 17.3589C51.1798 17.3636 51.1446 17.3789 51.1158 17.403C51.087 17.4271 51.0658 17.459 51.0547 17.4949C51.0435 17.5308 51.043 17.5691 51.0531 17.6053C51.0632 17.6414 51.0835 17.6739 51.1115 17.6989L52.5376 18.9824L52.1528 20.9066C52.1455 20.9434 52.149 20.9815 52.1628 21.0164C52.1767 21.0512 52.2002 21.0814 52.2307 21.1032C52.2612 21.125 52.2973 21.1376 52.3348 21.1395C52.3722 21.1414 52.4094 21.1324 52.4419 21.1137L54.1259 20.1369L55.8118 21.1137C55.8443 21.1324 55.8815 21.1414 55.919 21.1395C55.9564 21.1376 55.9925 21.125 56.023 21.1032C56.0535 21.0814 56.0771 21.0512 56.0909 21.0164C56.1047 20.9815 56.1082 20.9434 56.1009 20.9066L55.7161 18.9824L57.1422 17.6989C57.1697 17.6737 57.1894 17.6412 57.1991 17.6051C57.2087 17.5691 57.2078 17.5311 57.1965 17.4955C57.1852 17.46 57.164 17.4284 57.1353 17.4046C57.1066 17.3807 57.0717 17.3656 57.0347 17.3609L55.1085 17.1108L54.3037 15.3761C54.2881 15.342 54.2631 15.3131 54.2316 15.2928C54.2001 15.2725 54.1634 15.2617 54.1259 15.2617C54.0884 15.2617 54.0517 15.2725 54.0202 15.2928C53.9887 15.3131 53.9637 15.342 53.9481 15.3761H53.9501Z" fill="#D2921A"/>
</g>
<defs>
<filter id="filter0_d_2713_782" x="0" y="0.298828" width="80" height="59.4785" filterUnits="userSpaceOnUse" color-interpolation-filters="sRGB">
<feFlood flood-opacity="0" result="BackgroundImageFix"/>
<feColorMatrix in="SourceAlpha" type="matrix" values="0 0 0 0 0 0 0 0 0 0 0 0 0 0 0 0 0 0 127 0" result="hardAlpha"/>
<feOffset dy="4"/>
<feGaussianBlur stdDeviation="5"/>
<feComposite in2="hardAlpha" operator="out"/>
<feColorMatrix type="matrix" values="0 0 0 0 0 0 0 0 0 0 0 0 0 0 0 0 0 0 0.16 0"/>
<feBlend mode="normal" in2="BackgroundImageFix" result="effect1_dropShadow_2713_782"/>
<feBlend mode="normal" in="SourceGraphic" in2="effect1_dropShadow_2713_782" result="shape"/>
</filter>
<linearGradient id="paint0_linear_2713_782" x1="37.1271" y1="56.9199" x2="64.9966" y2="6.24811" gradientUnits="userSpaceOnUse">
<stop stop-color="#F1F1F1" stop-opacity="0.85"/>
<stop offset="0.11" stop-color="white" stop-opacity="0.85"/>
<stop offset="0.7" stop-color="white" stop-opacity="0.85"/>
<stop offset="0.94" stop-color="#EFEFEF" stop-opacity="0.85"/>
</linearGradient>
<linearGradient id="paint1_linear_2713_782" x1="34.2386" y1="16.6562" x2="38.0701" y2="19.2807" gradientUnits="userSpaceOnUse">
<stop stop-color="#FDE470"/>
<stop offset="1" stop-color="#FFF6BC"/>
</linearGradient>
<linearGradient id="paint2_linear_2713_782" x1="30.3789" y1="33.5936" x2="33.9593" y2="36.0591" gradientUnits="userSpaceOnUse">
<stop stop-color="#FDE470"/>
<stop offset="1" stop-color="#FFF7C3"/>
</linearGradient>
</defs>
</svg>
