<svg width="18" height="18" viewBox="0 0 18 18" fill="none" xmlns="http://www.w3.org/2000/svg">
<g clip-path="url(#clip0_14528_3802)">
<path d="M0.010235 17.5942C0.0883356 17.431 0.219966 17.3782 0.395473 17.3813C0.810547 17.3883 1.22606 17.3787 1.64157 17.3866C1.76969 17.3892 1.81225 17.3584 1.80918 17.2234C1.79953 16.8434 1.80567 16.4625 1.80567 16.082V0.490567C1.80332 0.426188 1.8045 0.361728 1.80918 0.297477C1.8298 0.106587 1.92502 0.01598 2.11632 0.00234495C2.16283 -0.000733925 2.20978 0.00234495 2.25672 0.00234495H10.0484C10.4213 0.00234495 10.4977 0.0797567 10.4977 0.457579C10.4977 1.83296 10.5016 3.20834 10.4928 4.58372C10.4928 4.76889 10.5472 4.80364 10.7184 4.80364C12.0816 4.79704 13.4444 4.79968 14.8077 4.80056C14.8893 4.79943 14.971 4.80384 15.0521 4.81375C15.1111 4.81911 15.1662 4.84547 15.2075 4.88808C15.2488 4.93068 15.2735 4.9867 15.2772 5.04599C15.2849 5.12167 15.2874 5.1978 15.2846 5.27382C15.2846 8.51075 15.2834 11.7474 15.2811 14.9837C15.2811 15.1311 15.325 15.2067 15.4531 15.2841C16.1582 15.7121 16.4987 16.3503 16.4728 17.1724C16.4671 17.354 16.5101 17.3998 16.6874 17.3923C16.9905 17.3769 17.2955 17.3923 17.5995 17.3857C17.7751 17.3813 17.9067 17.4354 17.9835 17.5999C17.9835 17.7288 18.0335 17.9078 17.9694 17.972C17.9054 18.0362 17.7259 17.9861 17.5974 17.9861C11.8001 17.9861 6.00248 17.9877 0.204609 17.9909C0.0396324 17.9909 -0.0213563 17.9588 0.00979619 17.7925C0.0160038 17.7266 0.0161507 17.6602 0.010235 17.5942ZM8.06776 14.3833C8.11164 14.3108 8.09409 14.2452 8.09453 14.1837C8.09453 13.5987 8.09453 13.0137 8.09453 12.4283V5.24743C8.09453 4.87093 8.16912 4.79748 8.54733 4.79704C8.93345 4.79704 9.31957 4.78912 9.70524 4.80056C9.86232 4.80539 9.90006 4.75657 9.89918 4.60351C9.89304 3.33354 9.89304 2.06387 9.89918 0.794496C9.89918 0.626478 9.84653 0.595689 9.69252 0.596129C7.34131 0.600527 4.9901 0.6017 2.63889 0.599647C2.37168 0.599647 2.40283 0.5649 2.40283 0.829244C2.40283 6.27123 2.40283 11.7132 2.40283 17.1552C2.40283 17.1842 2.40283 17.2137 2.40283 17.2432C2.40283 17.3114 2.3866 17.4002 2.4998 17.3813C2.58756 17.3668 2.71919 17.4534 2.74858 17.2771C2.78529 17.0636 2.85958 16.8584 2.96797 16.671C2.99807 16.6149 3.01133 16.5514 3.00614 16.488C3.00044 16.2777 2.99868 16.0666 3.0114 15.8568C3.02106 15.6967 3.11583 15.6008 3.283 15.5929C3.45017 15.585 3.55855 15.6606 3.59014 15.8361C3.60769 15.9369 3.63402 15.9527 3.7187 15.8968C3.93176 15.7614 4.17102 15.6728 4.42073 15.6369C4.45477 15.6363 4.4873 15.6227 4.51174 15.5989C4.53617 15.5752 4.55069 15.543 4.55236 15.5089C4.58419 15.3183 4.64798 15.1345 4.74103 14.9653C4.79427 14.8691 4.81693 14.7589 4.80596 14.6494C4.79638 14.4449 4.79931 14.24 4.81474 14.0359C4.82527 13.8766 4.93321 13.8006 5.08721 13.7962C5.24122 13.7918 5.34565 13.8525 5.3847 14.0099C5.39655 14.057 5.38207 14.1155 5.43252 14.1498C6.31883 13.5815 7.31966 13.713 8.06776 14.3833ZM14.6848 10.1983C14.6848 8.66543 14.6826 7.13215 14.6888 5.59887C14.6888 5.44096 14.6519 5.39434 14.4887 5.39522C12.6289 5.40079 10.769 5.40079 8.90888 5.39522C8.72109 5.39522 8.69169 5.4546 8.69213 5.62306C8.69769 7.70057 8.69886 9.77793 8.69564 11.8551C8.69564 12.8228 8.69564 13.7865 8.69564 14.7519C8.69564 14.8839 8.71626 14.9107 8.84921 14.8522C9.46348 14.5822 10.0585 14.6429 10.6179 15.0053C10.7219 15.0726 10.8008 15.091 10.9193 15.055C11.2146 14.9639 11.5314 14.9415 11.8183 15.0264C12.1879 15.1275 12.5181 15.3387 12.7652 15.6321C12.7867 15.658 12.8214 15.72 12.8591 15.6716C12.9701 15.5234 13.1877 15.4684 13.2075 15.2362C13.2242 15.0444 13.4093 14.923 13.5778 15.0136C13.7463 15.1042 13.8871 15.0541 14.0425 15.0224C14.1914 14.9895 14.3447 14.9819 14.4961 15C14.6502 15.0207 14.6914 14.9762 14.691 14.817C14.6822 13.2754 14.6848 11.7364 14.6848 10.1969V10.1983ZM9.69296 17.3743C9.48937 16.6762 9.62012 16.0605 10.1089 15.5296C10.1765 15.4566 10.1475 15.4249 10.0742 15.3919C9.81689 15.2742 9.52542 15.2553 9.25507 15.3387C8.98391 15.4156 8.79261 15.5999 8.60262 15.793C8.39815 16.0002 8.15464 15.9364 8.06688 15.6584C8.04626 15.592 8.03705 15.5217 8.01774 15.4544C7.96787 15.2642 7.8786 15.0868 7.75576 14.9335C7.63291 14.7803 7.47923 14.6547 7.30475 14.565C7.08405 14.4455 6.83687 14.3837 6.58604 14.3853C6.33521 14.387 6.08885 14.452 5.86972 14.5743C5.6506 14.6967 5.46579 14.8725 5.33239 15.0854C5.19899 15.2984 5.12131 15.5416 5.10652 15.7926C5.08063 16.1203 5.02359 16.166 4.69671 16.1884C4.03856 16.2324 3.43525 16.7646 3.35671 17.376L9.69296 17.3743ZM13.1386 17.3822C13.9924 17.3822 14.8464 17.3822 15.7006 17.3822C15.7931 17.3822 15.8638 17.3857 15.8796 17.2551C15.9581 16.5874 15.5417 15.8968 14.9204 15.6822C14.1952 15.4319 13.4795 15.6822 13.1132 16.3138C13.0907 16.3548 13.066 16.3944 13.039 16.4326C12.8925 16.6256 12.6551 16.6111 12.5375 16.4022C12.5028 16.3415 12.4752 16.2764 12.4423 16.2148C12.1106 15.592 11.1453 15.4143 10.6122 15.8788C10.2366 16.2069 10.1247 16.7717 10.334 17.2449C10.3809 17.3509 10.4411 17.3866 10.5591 17.3861C11.4186 17.3809 12.2786 17.3835 13.1386 17.3835V17.3822Z" fill="#222222"/>
<path d="M8.99469 1.79947C8.99469 1.90459 9.00171 2.01015 8.99469 2.11395C8.97978 2.29385 8.86877 2.39325 8.69853 2.39281C8.52828 2.39237 8.41289 2.29077 8.40543 2.11219C8.39665 1.90283 8.39621 1.69259 8.40543 1.48322C8.40527 1.44487 8.41289 1.40689 8.42783 1.37158C8.44277 1.33628 8.46472 1.30439 8.49234 1.27785C8.51996 1.25132 8.55268 1.23069 8.5885 1.21722C8.62432 1.20376 8.6625 1.19774 8.70072 1.19953C8.8635 1.19953 8.98109 1.30949 8.99513 1.48498C8.99996 1.58922 8.99469 1.69479 8.99469 1.79947Z" fill="#222222"/>
<path d="M6.60566 8.98158C6.60566 8.8769 6.60083 8.77134 6.60566 8.6671C6.61531 8.50128 6.7136 8.41463 6.87287 8.39747C7.02468 8.3812 7.15675 8.46697 7.18001 8.61739C7.21932 8.86508 7.21932 9.11744 7.18001 9.36512C7.155 9.51775 7.02468 9.60044 6.87287 9.58504C6.72106 9.56965 6.62277 9.48696 6.60961 9.33037C6.6004 9.2147 6.60961 9.0977 6.60961 8.98114L6.60566 8.98158Z" fill="#222222"/>
<path d="M3.59255 1.80418C3.59847 1.92037 3.59847 2.03678 3.59255 2.15297C3.57631 2.30999 3.47364 2.38697 3.32007 2.39268C3.16651 2.3984 3.05111 2.33506 3.02654 2.17848C2.98529 1.92534 2.98529 1.66718 3.02654 1.41404C3.05155 1.26317 3.17133 1.20336 3.30954 1.20512C3.45653 1.20731 3.5728 1.27769 3.59035 1.43779C3.59716 1.55981 3.5976 1.68211 3.59167 1.80418H3.59255Z" fill="#222222"/>
<path d="M6.60683 3.57669C6.60683 3.47157 6.59937 3.36645 6.60683 3.26221C6.60773 3.22695 6.61562 3.19223 6.63002 3.16006C6.64443 3.12788 6.66508 3.0989 6.69076 3.07479C6.71644 3.05069 6.74664 3.03194 6.77961 3.01964C6.81258 3.00734 6.84766 3.00173 6.88282 3.00314C7.03024 3.00314 7.15354 3.05856 7.17811 3.21778C7.21935 3.47077 7.21935 3.7288 7.17811 3.98179C7.15134 4.14013 7.02805 4.19467 6.87887 4.18763C6.72969 4.18059 6.62482 4.09966 6.6099 3.94308C6.59893 3.82212 6.60771 3.69897 6.60771 3.57669H6.60683Z" fill="#222222"/>
<path d="M6.60771 5.39772C6.60771 5.2816 6.59893 5.16416 6.6099 5.04892C6.62482 4.89278 6.72442 4.81185 6.87887 4.80437C7.03331 4.7969 7.15134 4.85188 7.17811 5.00978C7.22089 5.26264 7.22089 5.52092 7.17811 5.77378C7.1531 5.92728 7.02278 6.00514 6.86658 5.98666C6.71038 5.96819 6.61868 5.88638 6.60727 5.7298C6.59937 5.61984 6.60727 5.50988 6.60727 5.39772H6.60771Z" fill="#222222"/>
<path d="M3.59513 7.19386C3.59513 7.30426 3.60039 7.41379 3.59513 7.5255C3.58548 7.69396 3.47885 7.77401 3.32265 7.78941C3.2863 7.79405 3.24938 7.79125 3.21414 7.78119C3.17889 7.77112 3.14605 7.754 3.11759 7.73086C3.08913 7.70771 3.06564 7.67902 3.04855 7.64653C3.03146 7.61403 3.02112 7.5784 3.01815 7.54178C2.98809 7.31052 2.98809 7.07633 3.01815 6.84507C3.04096 6.67397 3.15417 6.5926 3.32265 6.60008C3.47973 6.60668 3.57977 6.69685 3.59425 6.86135C3.60303 6.97175 3.59513 7.08215 3.59513 7.19386Z" fill="#222222"/>
<path d="M3.59253 10.7921C3.59846 10.9084 3.59846 11.025 3.59253 11.1413C3.57718 11.2984 3.4745 11.3758 3.32094 11.3819C3.16737 11.3881 3.05153 11.3252 3.02652 11.169C2.9853 10.9158 2.9853 10.6574 3.02652 10.4042C3.05109 10.2533 3.17044 10.193 3.30865 10.1944C3.4552 10.1944 3.57191 10.2661 3.5899 10.4262C3.59758 10.548 3.59846 10.6702 3.59253 10.7921Z" fill="#222222"/>
<path d="M6.6042 12.5752C6.6042 12.4763 6.59937 12.3769 6.6042 12.2783C6.61517 12.1055 6.71345 12.0056 6.87492 11.9933C7.03638 11.981 7.16406 12.0685 7.18512 12.2339C7.21738 12.4708 7.21738 12.7109 7.18512 12.9478C7.16099 13.1158 7.04209 13.1915 6.87009 13.1783C6.71433 13.1664 6.61824 13.0718 6.60683 12.9073C6.59937 12.7974 6.60683 12.6874 6.60683 12.5752H6.6042Z" fill="#222222"/>
<path d="M4.81189 7.18736C4.81189 7.07697 4.80268 6.96525 4.81189 6.85617C4.82857 6.69167 4.93036 6.60238 5.08832 6.60062C5.24627 6.59886 5.36298 6.66703 5.38448 6.83373C5.41739 7.07629 5.41739 7.32219 5.38448 7.56475C5.36167 7.72573 5.24145 7.79039 5.09577 7.78819C4.9501 7.78599 4.83515 7.71429 4.81672 7.55375C4.80268 7.43236 4.80356 7.30964 4.79785 7.18781L4.81189 7.18736Z" fill="#222222"/>
<path d="M4.79785 8.98302C4.80356 8.86647 4.80268 8.74947 4.81628 8.63423C4.83471 8.47457 4.94308 8.40112 5.0927 8.3976C5.24232 8.39408 5.35991 8.4583 5.38317 8.61752C5.41998 8.86539 5.41998 9.11737 5.38317 9.36525C5.36035 9.52315 5.2432 9.58912 5.09358 9.58516C4.94396 9.58121 4.83515 9.50775 4.81628 9.34941C4.80224 9.22802 4.80356 9.10486 4.79785 8.98302Z" fill="#222222"/>
<path d="M4.8132 10.7897C4.80793 10.6734 4.80881 10.557 4.81584 10.4409C4.81777 10.4056 4.82674 10.3711 4.84223 10.3393C4.85771 10.3076 4.8794 10.2793 4.90599 10.2561C4.93259 10.233 4.96356 10.2154 4.99706 10.2044C5.03057 10.1935 5.06592 10.1894 5.10104 10.1924C5.24715 10.1994 5.3643 10.2614 5.38536 10.4224C5.41826 10.6651 5.41826 10.9111 5.38536 11.1538C5.36254 11.3201 5.24451 11.3874 5.08568 11.3812C4.92684 11.3751 4.83075 11.2955 4.81628 11.1385C4.80487 11.0228 4.81364 10.908 4.8132 10.7897Z" fill="#222222"/>
<path d="M6.60653 10.7888C6.60653 10.6784 6.59951 10.5689 6.60653 10.4572C6.61249 10.3873 6.64334 10.322 6.69343 10.2731C6.74352 10.2242 6.8095 10.195 6.8793 10.1909C6.94909 10.1868 7.01803 10.208 7.07349 10.2507C7.12896 10.2934 7.16723 10.3547 7.18131 10.4233C7.21685 10.6655 7.21685 10.9117 7.18131 11.1539C7.15806 11.3175 7.04091 11.387 6.87988 11.3817C6.84469 11.3831 6.80957 11.3775 6.77661 11.365C6.74365 11.3526 6.71351 11.3337 6.68798 11.3093C6.66245 11.285 6.64205 11.2558 6.62798 11.2234C6.61391 11.1911 6.60647 11.1562 6.60609 11.1209C6.59951 11.0109 6.60653 10.8997 6.60653 10.7888Z" fill="#222222"/>
<path d="M8.40014 3.59258C8.40014 3.48789 8.39356 3.38233 8.40014 3.27809C8.40066 3.23991 8.40891 3.20223 8.4244 3.16734C8.43988 3.13246 8.46227 3.10108 8.49021 3.07513C8.51815 3.04918 8.55106 3.02918 8.58694 3.01636C8.62282 3.00354 8.66093 2.99816 8.69894 3.00055C8.85778 3.00275 8.97888 3.10303 8.98721 3.26973C8.99972 3.49065 8.99972 3.7121 8.98721 3.93301C8.97668 4.10147 8.85558 4.19208 8.69105 4.18988C8.52651 4.18768 8.41638 4.09267 8.40234 3.92597C8.39312 3.81645 8.40234 3.70605 8.40234 3.59433L8.40014 3.59258Z" fill="#222222"/>
<path d="M6.60782 7.19883C6.60782 7.08227 6.59904 6.96527 6.61001 6.8496C6.62449 6.69433 6.72146 6.61076 6.87634 6.60153C7.03123 6.59229 7.14969 6.65035 7.1769 6.80605C7.2234 7.06435 7.2234 7.32891 7.1769 7.58721C7.14969 7.73587 7.0264 7.79349 6.88819 7.78821C6.74076 7.78206 6.62888 7.7064 6.6122 7.54806C6.60533 7.43177 6.60459 7.3152 6.61001 7.19883H6.60782Z" fill="#222222"/>
<path d="M6.60683 1.7953C6.60683 1.6849 6.59937 1.57538 6.60683 1.46366C6.60785 1.42834 6.61582 1.39358 6.63028 1.36136C6.64474 1.32914 6.6654 1.3001 6.69108 1.2759C6.71677 1.25171 6.74697 1.23284 6.77994 1.22038C6.81292 1.20791 6.84803 1.2021 6.88325 1.20327C7.03024 1.20327 7.15397 1.26221 7.17811 1.42055C7.22001 1.67364 7.22001 1.93191 7.17811 2.185C7.15046 2.3407 7.02936 2.39964 6.87843 2.39128C6.72749 2.38292 6.6257 2.29979 6.61078 2.14497C6.59937 2.02929 6.61078 1.91185 6.61078 1.79574L6.60683 1.7953Z" fill="#222222"/>
<path d="M4.79785 1.79717C4.80356 1.67754 4.80356 1.56054 4.8154 1.4453C4.83164 1.28432 4.94221 1.21527 5.08875 1.20207C5.12366 1.1979 5.15904 1.20069 5.19286 1.21028C5.22669 1.21986 5.25829 1.23605 5.28585 1.25792C5.31342 1.27979 5.3364 1.3069 5.35347 1.3377C5.37055 1.3685 5.38139 1.40238 5.38536 1.43739C5.4198 1.67983 5.4198 1.92595 5.38536 2.1684C5.36255 2.32542 5.25066 2.39272 5.09885 2.3914C4.94703 2.39008 4.83997 2.31663 4.81847 2.16004C4.80092 2.03953 4.80356 1.91637 4.79785 1.79717Z" fill="#222222"/>
<path d="M5.40947 5.40629C5.40245 5.52109 5.4042 5.63853 5.38621 5.75289C5.38289 5.78794 5.37261 5.82198 5.35597 5.85299C5.33932 5.884 5.31665 5.91136 5.2893 5.93345C5.26194 5.95554 5.23046 5.97193 5.19669 5.98163C5.16292 5.99134 5.12756 5.99417 5.09268 5.98996C4.9356 5.97984 4.82635 5.90199 4.81275 5.73529C4.79256 5.50893 4.79256 5.28122 4.81275 5.05486C4.82854 4.89256 4.93253 4.80415 5.0918 4.80371C5.25107 4.80327 5.36428 4.87145 5.38578 5.03903C5.40245 5.15998 5.40245 5.2827 5.40947 5.40629Z" fill="#222222"/>
<path d="M5.41033 12.591C5.40243 12.7155 5.40243 12.8325 5.38619 12.9473C5.36294 13.1153 5.24798 13.1822 5.08959 13.1782C4.93119 13.1743 4.83159 13.0995 4.8158 12.9412C4.79057 12.7036 4.79057 12.464 4.8158 12.2264C4.83335 12.0659 4.94743 11.9959 5.09529 11.9942C5.24316 11.9924 5.35855 12.0553 5.38312 12.2163C5.40199 12.3425 5.40243 12.4714 5.41033 12.591Z" fill="#222222"/>
<path d="M4.81244 3.58697C4.80673 3.47665 4.80673 3.3661 4.81244 3.25577C4.82911 3.09479 4.93529 3.00507 5.09149 3.00111C5.24769 2.99715 5.36353 3.08336 5.38459 3.24038C5.41508 3.47735 5.41508 3.71727 5.38459 3.95424C5.36353 4.12226 5.24857 4.18911 5.08974 4.18823C4.9309 4.18735 4.83394 4.10027 4.80937 3.93621C4.80602 3.91908 4.80397 3.90174 4.80322 3.88431C4.80322 3.78534 4.80322 3.68638 4.80322 3.58741L4.81244 3.58697Z" fill="#222222"/>
<path d="M3.593 8.99413C3.593 9.11069 3.60133 9.22813 3.593 9.34336C3.57808 9.50171 3.47277 9.57912 3.3214 9.58572C3.17002 9.59231 3.05156 9.52898 3.02655 9.37195C2.98464 9.11872 2.98464 8.8603 3.02655 8.60707C3.05331 8.45005 3.17704 8.39023 3.32535 8.39815C3.47365 8.40607 3.57369 8.4782 3.58861 8.62819C3.59607 8.75003 3.59695 8.87219 3.59124 8.99413H3.593Z" fill="#222222"/>
<path d="M3.59528 5.39768C3.59528 5.50852 3.60099 5.6176 3.59528 5.72932C3.58475 5.89734 3.47901 5.97695 3.32106 5.98971C3.1631 6.00246 3.04507 5.91537 3.02225 5.75879C2.98737 5.51667 2.98737 5.27078 3.02225 5.02866C3.04683 4.86064 3.16749 4.79818 3.325 4.80522C3.48252 4.81225 3.57905 4.89319 3.59309 5.04889C3.60274 5.16413 3.59309 5.28156 3.59309 5.39768H3.59528Z" fill="#222222"/>
<path d="M3.59425 12.5949C3.59425 12.7058 3.60258 12.817 3.59425 12.9266C3.57889 13.088 3.47578 13.1777 3.31607 13.179C3.15636 13.1803 3.04184 13.1126 3.02034 12.9455C2.99094 12.7084 2.99094 12.4686 3.02034 12.2316C3.04052 12.0631 3.15767 11.9959 3.31387 11.9932C3.47007 11.9906 3.5824 12.0922 3.59688 12.2633C3.60565 12.3732 3.59688 12.4832 3.59688 12.5949H3.59425Z" fill="#222222"/>
<path d="M3.59377 14.3973C3.59377 14.5077 3.60255 14.6194 3.59377 14.729C3.59211 14.7641 3.58345 14.7986 3.56831 14.8303C3.55316 14.862 3.53184 14.8904 3.5056 14.9138C3.47935 14.9371 3.44871 14.955 3.41548 14.9663C3.38225 14.9776 3.34709 14.9822 3.31208 14.9797C3.16466 14.9762 3.04619 14.9163 3.02381 14.7562C2.98718 14.5083 2.98718 14.2564 3.02381 14.0085C3.04839 13.8497 3.16641 13.7886 3.31647 13.7943C3.46653 13.8 3.57491 13.873 3.59026 14.0309C3.59729 14.153 3.59817 14.2752 3.5929 14.3973H3.59377Z" fill="#222222"/>
<path d="M3.59257 3.60117C3.59257 3.71729 3.60178 3.83472 3.59257 3.94996C3.57677 4.10786 3.47278 4.18308 3.31965 4.18791C3.16652 4.19275 3.04806 4.13469 3.02392 3.97503C2.98372 3.72186 2.9849 3.46382 3.02743 3.21103C3.05508 3.05225 3.181 2.99771 3.32755 3.00563C3.4741 3.01354 3.57546 3.08524 3.59081 3.23566C3.59696 3.35771 3.59696 3.48 3.59081 3.60205L3.59257 3.60117Z" fill="#222222"/>
<path d="M13.7953 10.1952C13.7882 10.3153 13.7896 10.4385 13.7711 10.5585C13.747 10.7151 13.6395 10.7842 13.4859 10.7833C13.3324 10.7824 13.2249 10.7103 13.2047 10.5533C13.1733 10.3104 13.1733 10.0646 13.2047 9.8218C13.2257 9.66126 13.3438 9.5944 13.4903 9.59572C13.6369 9.59704 13.7514 9.66654 13.7716 9.82708C13.7878 9.94803 13.7882 10.0729 13.7953 10.1952Z" fill="#222222"/>
<path d="M13.1814 8.37933C13.1884 8.25969 13.1884 8.14269 13.2047 8.02746C13.2275 7.86999 13.3363 7.79874 13.4868 7.79786C13.6373 7.79698 13.75 7.86647 13.7715 8.02394C13.8029 8.26674 13.8029 8.51259 13.7715 8.75539C13.7518 8.91549 13.6377 8.98499 13.4894 8.98587C13.3411 8.98675 13.2262 8.91857 13.2047 8.75891C13.1884 8.63312 13.1884 8.50424 13.1814 8.37933Z" fill="#222222"/>
<path d="M13.7951 6.58701C13.7881 6.70885 13.7868 6.83156 13.7732 6.95252C13.7552 7.11394 13.6416 7.17904 13.4955 7.19003C13.4605 7.19361 13.4252 7.19021 13.3916 7.18003C13.358 7.16985 13.3267 7.15309 13.2995 7.13072C13.2724 7.10835 13.25 7.08081 13.2335 7.0497C13.2171 7.01858 13.2069 6.98451 13.2037 6.94944C13.1743 6.71225 13.1743 6.47233 13.2037 6.23514C13.2226 6.07724 13.3279 6.00555 13.4814 6.00115C13.6438 5.99675 13.75 6.07768 13.7732 6.23822C13.7899 6.35258 13.7886 6.47002 13.7951 6.58701Z" fill="#222222"/>
<path d="M13.1819 11.9842C13.1885 11.8655 13.1872 11.7485 13.2034 11.6324C13.2066 11.5973 13.2166 11.5633 13.233 11.5321C13.2494 11.501 13.2717 11.4734 13.2988 11.451C13.3258 11.4286 13.357 11.4117 13.3905 11.4014C13.4241 11.3911 13.4594 11.3875 13.4943 11.3909C13.6408 11.4001 13.7545 11.4648 13.7733 11.6262C13.801 11.8635 13.801 12.1032 13.7733 12.3405C13.754 12.5076 13.6417 12.5793 13.482 12.5776C13.3293 12.5776 13.2236 12.5046 13.2034 12.3462C13.1885 12.2275 13.1889 12.1043 13.1819 11.9842Z" fill="#222222"/>
<path d="M13.1821 13.7669C13.1883 13.6574 13.1891 13.547 13.2014 13.437C13.2199 13.269 13.3287 13.1934 13.4875 13.1934C13.6463 13.1934 13.7574 13.2677 13.7753 13.4357C13.7997 13.6673 13.7997 13.9008 13.7753 14.1324C13.7582 14.3009 13.6468 14.3765 13.4888 14.3765C13.3309 14.3765 13.2194 14.3022 13.2019 14.1337C13.1891 14.0137 13.1883 13.8914 13.1821 13.7669Z" fill="#222222"/>
<path d="M10.189 10.1941C10.189 10.2987 10.1951 10.4043 10.189 10.5086C10.1767 10.6792 10.0718 10.7777 9.90859 10.7835C9.74537 10.7892 9.61725 10.7021 9.60584 10.5345C9.59005 10.3021 9.59005 10.0689 9.60584 9.83648C9.61637 9.68297 9.74844 9.58973 9.89806 9.59193C9.97194 9.58967 10.0437 9.6168 10.0977 9.66739C10.1517 9.71799 10.1836 9.78794 10.1863 9.86199C10.1947 9.97195 10.1863 10.0819 10.1863 10.1941H10.189Z" fill="#222222"/>
<path d="M10.189 8.37877C10.189 8.48917 10.1952 8.59869 10.189 8.71084C10.1888 8.74754 10.1815 8.78384 10.1673 8.81766C10.1531 8.85149 10.1323 8.88217 10.1063 8.90796C10.0803 8.93374 10.0494 8.95412 10.0155 8.96792C9.98155 8.98172 9.94525 8.98867 9.90865 8.98838C9.75245 8.99542 9.61555 8.89778 9.60546 8.7368C9.59032 8.50434 9.5912 8.27111 9.60809 8.03877C9.62038 7.87383 9.75288 7.78718 9.91523 7.79774C9.9862 7.79761 10.0544 7.82542 10.1051 7.87519C10.1558 7.92496 10.185 7.99271 10.1864 8.06384C10.1947 8.16808 10.1864 8.27364 10.1864 8.37877H10.189Z" fill="#222222"/>
<path d="M10.1886 11.9826C10.1886 12.0934 10.1952 12.2047 10.1886 12.3146C10.1883 12.3498 10.1811 12.3846 10.1673 12.4169C10.1535 12.4493 10.1335 12.4786 10.1084 12.5031C10.0832 12.5277 10.0535 12.547 10.0209 12.5599C9.98824 12.5729 9.95338 12.5792 9.9183 12.5786C9.74806 12.5882 9.62126 12.5073 9.60853 12.341C9.59208 12.1088 9.59208 11.8757 9.60853 11.6435C9.61862 11.4803 9.75333 11.3839 9.9104 11.391C9.98426 11.3904 10.0553 11.4192 10.1081 11.4711C10.1608 11.5229 10.1908 11.5936 10.1917 11.6676C10.1947 11.7723 10.189 11.8779 10.1886 11.9826Z" fill="#222222"/>
<path d="M11.9827 8.39334C11.9827 8.50418 11.9902 8.61546 11.9827 8.72542C11.9807 8.79663 11.9509 8.86421 11.8997 8.91358C11.8485 8.96295 11.78 8.99016 11.7089 8.98932C11.558 8.99724 11.4316 8.91059 11.4092 8.75621C11.3737 8.51413 11.3737 8.26815 11.4092 8.02607C11.4338 7.86069 11.5527 7.79384 11.7115 7.79912C11.8704 7.80439 11.9643 7.90028 11.9844 8.06302C11.9844 8.08017 11.9884 8.09777 11.9888 8.11492C11.9888 8.20817 11.9888 8.30141 11.9888 8.39466L11.9827 8.39334Z" fill="#222222"/>
<path d="M11.983 6.59018C11.983 6.70058 11.9905 6.8101 11.983 6.92182C11.9694 7.08896 11.8567 7.19584 11.697 7.19056C11.5373 7.18528 11.4236 7.11403 11.4052 6.94645C11.3754 6.70944 11.3754 6.4696 11.4052 6.23259C11.4284 6.06721 11.543 5.99816 11.7036 6.00211C11.8641 6.00607 11.9668 6.09756 11.9795 6.2581C11.9892 6.36806 11.9795 6.47802 11.9795 6.59018H11.983Z" fill="#222222"/>
<path d="M10.1876 6.59415C10.1876 6.70499 10.1951 6.81627 10.1876 6.92623C10.1842 6.997 10.1538 7.06375 10.1028 7.11282C10.0518 7.16189 9.98407 7.18955 9.91339 7.19014C9.76509 7.19981 9.62995 7.11052 9.6102 6.95878C9.57817 6.71587 9.57817 6.46979 9.6102 6.22689C9.6317 6.06502 9.75105 5.99421 9.91295 6.00037C9.94811 5.9992 9.98316 6.00502 10.0161 6.0175C10.049 6.02998 10.0791 6.04887 10.1046 6.07308C10.1302 6.09729 10.1508 6.12634 10.1651 6.15855C10.1794 6.19076 10.1872 6.2255 10.1881 6.26075C10.1951 6.37203 10.1881 6.48331 10.1876 6.59415Z" fill="#222222"/>
<path d="M11.9832 10.1866C11.9832 10.2975 11.9902 10.4065 11.9832 10.5183C11.97 10.6828 11.8704 10.7764 11.7133 10.7822C11.5563 10.7879 11.4343 10.7223 11.4101 10.5574C11.3728 10.3095 11.3737 10.0573 11.4128 9.80968C11.4382 9.65134 11.5611 9.58976 11.7076 9.59504C11.8542 9.60032 11.9661 9.67773 11.9801 9.83739C11.9906 9.95307 11.9823 10.0701 11.9823 10.1866H11.9832Z" fill="#222222"/>
<path d="M11.984 11.9928C11.984 12.0975 11.9888 12.2026 11.984 12.3073C11.9752 12.4705 11.8866 12.5642 11.7207 12.5782C11.5474 12.5928 11.4307 12.5171 11.4065 12.3482C11.3697 12.1062 11.3697 11.86 11.4065 11.6181C11.4111 11.5825 11.4228 11.5483 11.441 11.5174C11.4592 11.4865 11.4834 11.4597 11.5123 11.4386C11.5412 11.4174 11.574 11.4024 11.6089 11.3944C11.6437 11.3864 11.6798 11.3856 11.715 11.392C11.8637 11.4083 11.9695 11.4826 11.9813 11.6418C11.9901 11.7575 11.9813 11.8745 11.9813 11.9911L11.984 11.9928Z" fill="#222222"/>
<path d="M10.1899 13.7779C10.1899 13.8826 10.1947 13.9877 10.1899 14.0924C10.1798 14.2718 10.0727 14.3765 9.90426 14.3809C9.73578 14.3853 9.61599 14.293 9.60502 14.1271C9.58967 13.9006 9.58967 13.6732 9.60502 13.4467C9.61687 13.2708 9.74631 13.1828 9.92137 13.1956C10.0833 13.207 10.1802 13.3064 10.1903 13.481C10.1947 13.5795 10.1899 13.6798 10.1899 13.7779Z" fill="#222222"/>
<path d="M11.9834 13.796C11.9834 13.9011 11.9882 14.0062 11.9834 14.1104C11.9742 14.2754 11.879 14.3638 11.7175 14.3783C11.5561 14.3928 11.4301 14.3106 11.4064 14.143C11.3733 13.9063 11.3733 13.6662 11.4064 13.4296C11.4301 13.2615 11.549 13.1815 11.7184 13.196C11.8812 13.2101 11.9742 13.2998 11.9817 13.4643C11.9882 13.5747 11.9839 13.6856 11.9834 13.796Z" fill="#222222"/>
</g>
<defs>
<clipPath id="clip0_14528_3802">
<rect width="18" height="18" fill="white"/>
</clipPath>
</defs>
</svg>
