<svg width="48" height="47" viewBox="0 0 48 47" fill="none" xmlns="http://www.w3.org/2000/svg">
<path d="M40.4286 1C42.1714 1 43.8429 1.69089 45.0753 2.92069C46.3077 4.15049 47 5.81845 47 7.55765V30.5094C47 32.2486 46.3077 33.9166 45.0753 35.1464C43.8429 36.3762 42.1714 37.0671 40.4286 37.0671H30.0457L24 44.4444L17.9543 37.0671H7.57143C5.82858 37.0671 4.15711 36.3762 2.92473 35.1464C1.69235 33.9166 1 32.2486 1 30.5094V7.55765C1 5.81845 1.69235 4.15049 2.92473 2.92069C4.15711 1.69089 5.82858 1 7.57143 1H40.4286Z" stroke="#6A6A6A" stroke-width="2"/>
</svg>
