<svg width="26" height="26" viewBox="0 0 26 26" fill="none" xmlns="http://www.w3.org/2000/svg">
<path opacity="0.1" d="M24.0265 17.7728H18.8359C18.5969 17.7728 18.4033 17.5792 18.4033 17.3402V13.8798C18.4033 13.6419 18.598 13.4473 18.8359 13.4473H24.0265C24.2644 13.4473 24.459 13.6419 24.459 13.8798V17.3402C24.459 17.5792 24.2655 17.7728 24.0265 17.7728Z" fill="#222222"/>
<path d="M24.0265 17.7728H18.8359C18.5969 17.7728 18.4033 17.5792 18.4033 17.3402V13.8798C18.4033 13.6419 18.598 13.4473 18.8359 13.4473H24.0265C24.2644 13.4473 24.459 13.6419 24.459 13.8798V17.3402C24.459 17.5792 24.2655 17.7728 24.0265 17.7728Z" stroke="#222222" stroke-width="0.8" stroke-miterlimit="10" stroke-linecap="round" stroke-linejoin="round"/>
<path d="M19.2683 18.6385V17.7734" stroke="#222222" stroke-width="0.8" stroke-miterlimit="10" stroke-linecap="round" stroke-linejoin="round"/>
<path d="M23.594 18.6385V17.7734" stroke="#222222" stroke-width="0.8" stroke-miterlimit="10" stroke-linecap="round" stroke-linejoin="round"/>
<path d="M20.7825 15.6113H22.0801" stroke="#222222" stroke-width="0.8" stroke-miterlimit="10" stroke-linecap="round" stroke-linejoin="round"/>
<path d="M21.4312 9.12305C19.9175 9.12305 19.9175 10.106 19.9175 11.2858C19.9175 12.4656 20.8873 13.4485 21.4312 13.4485C21.9751 13.4485 22.9449 12.4656 22.9449 11.2858C22.9449 10.106 23.0158 9.12305 21.4312 9.12305Z" stroke="#222222" stroke-width="0.8" stroke-miterlimit="10" stroke-linecap="round" stroke-linejoin="round"/>
<path d="M18.6196 8.68983H24.4591L22.2963 4.79688H20.5661L18.6196 8.68983Z" stroke="#222222" stroke-width="0.8" stroke-miterlimit="10" stroke-linecap="round" stroke-linejoin="round"/>
<path d="M13.564 8.30957C13.7895 8.30894 14.0068 8.39369 14.1723 8.54679C14.3378 8.69989 14.4392 8.90997 14.4562 9.1348V12.6989L15.2814 15.1701C15.3031 15.2371 15.3195 15.3057 15.3304 15.3753L15.3438 15.4823L15.3483 15.5894V19.9073H14.4562V19.0152H3.75053V19.9073H2.8584V15.5894C2.8591 15.4826 2.87257 15.3763 2.89854 15.2727L2.92531 15.1701L3.75053 12.6989V9.20171C3.75025 8.98809 3.82663 8.78146 3.96579 8.61938C4.10495 8.4573 4.29764 8.35054 4.50885 8.3185L4.57576 8.31403L4.64267 8.30957H13.564ZM14.4562 16.3388H3.75053V18.1231H14.4562V16.3388ZM13.8361 13.6624H4.37503L3.7773 15.4467H14.4383L13.8361 13.6624ZM13.564 9.20171H4.64267V12.7702H5.5348V10.986C5.53417 10.7605 5.61892 10.5432 5.77202 10.3777C5.92512 10.2122 6.1352 10.1108 6.36003 10.0938H11.7797C12.0052 10.0932 12.2225 10.178 12.3881 10.3311C12.5536 10.4842 12.655 10.6942 12.6719 10.9191V12.7702H13.564V9.20171ZM8.65727 10.986H6.42694V12.7702H8.65727V10.986ZM11.7797 10.986H9.54941V12.7702H11.7797V10.986Z" fill="#222222"/>
<path opacity="0.1" d="M3.75513 16.3486H14.4569V18.149H3.75541L3.75513 16.3486Z" fill="#222222"/>
</svg>
