<svg width="17" height="17" viewBox="0 0 17 17" fill="none" xmlns="http://www.w3.org/2000/svg">
<path d="M1.0625 2.12492C1.06296 2.02532 1.0914 1.92787 1.14458 1.84366C1.19777 1.75946 1.27355 1.6919 1.36328 1.6487C1.45301 1.60549 1.55308 1.58838 1.65207 1.59932C1.75106 1.61025 1.84499 1.64879 1.92312 1.71054L1.97094 1.74773L15.2522 15.029C15.3228 15.0999 15.372 15.1893 15.3941 15.2869C15.4161 15.3845 15.4102 15.4864 15.3769 15.5808C15.3435 15.6752 15.2842 15.7582 15.2058 15.8204C15.1273 15.8825 15.0329 15.9213 14.9334 15.9321L14.875 15.9374H1.59375C1.46323 15.9384 1.33694 15.8912 1.23895 15.805C1.14097 15.7188 1.07816 15.5995 1.0625 15.4699V15.4062V2.12492ZM2.125 3.41054V14.8749H13.5947L11.4219 12.7021L10.4656 13.6584L9.72187 12.904L10.6675 11.9477L9.29688 10.5771L8.34062 11.5334L7.59688 10.779L8.5425 9.82273L7.17188 8.4521L6.21562 9.40835L5.47188 8.65398L6.4175 7.69773L5.04688 6.3271L4.09062 7.28335L3.34688 6.52898L4.2925 5.57273L2.125 3.41054ZM3.71875 9.03117C3.71921 8.93157 3.74765 8.83412 3.80083 8.74991C3.85402 8.66571 3.9298 8.59815 4.01953 8.55495C4.10926 8.51174 4.20933 8.49463 4.30832 8.50557C4.40731 8.5165 4.50124 8.55504 4.57938 8.61679L4.62719 8.65398L8.34594 12.3727C8.41659 12.4436 8.46577 12.533 8.48783 12.6307C8.50989 12.7283 8.50391 12.8302 8.4706 12.9245C8.43729 13.0189 8.378 13.102 8.29955 13.1641C8.2211 13.2263 8.12669 13.265 8.02719 13.2759L7.96875 13.2812H4.25C4.11948 13.2821 3.99319 13.235 3.8952 13.1487C3.79722 13.0625 3.73441 12.9432 3.71875 12.8137V12.7499V9.03117ZM6.53438 0.956165C6.62508 0.865563 6.74549 0.810819 6.8734 0.802031C7.0013 0.793244 7.12807 0.831007 7.23031 0.908353L7.28344 0.950853L15.5178 9.18523C15.5487 9.21717 15.5755 9.25287 15.5975 9.29148L15.6241 9.3446L16.6866 11.7352C16.7275 11.8241 16.7431 11.9225 16.7317 12.0196C16.7203 12.1168 16.6823 12.2089 16.6218 12.2858C16.5614 12.3627 16.4809 12.4215 16.3892 12.4555C16.2975 12.4896 16.1982 12.4977 16.1022 12.479L16.0491 12.463L13.3928 11.6662C13.3311 11.6467 13.2735 11.6161 13.2228 11.5759L13.1697 11.5334L4.94063 3.29367C4.84939 3.20199 4.79474 3.08017 4.78691 2.95107C4.77909 2.82197 4.81863 2.69444 4.89813 2.59242L4.94063 2.53929L6.53438 0.956165ZM4.78125 10.3062V12.2187H6.68313L4.78125 10.3062ZM8.63281 3.79835L7.79344 4.64304L13.8231 10.678L15.2416 11.103L14.6891 9.86523L8.63281 3.79835ZM6.90625 2.0771L6.06687 2.92179L7.03906 3.89398L7.87844 3.0546L6.90625 2.0771Z" fill="#222222"/>
</svg>
