<svg width="13" height="12" viewBox="0 0 13 12" fill="none" xmlns="http://www.w3.org/2000/svg">
<path d="M12.5492 3.89031C12.536 3.86414 12.5203 3.83933 12.5023 3.81625C12.4887 3.74865 12.4703 3.68208 12.4475 3.61703L12.4376 3.59406L11.1485 0.625C11.112 0.541371 11.0519 0.470213 10.9756 0.420253C10.8992 0.370294 10.8099 0.343706 10.7187 0.34375H2.2812C2.18995 0.343706 2.10068 0.370294 2.02432 0.420253C1.94797 0.470213 1.88786 0.541371 1.85136 0.625L0.552919 3.61609C0.4293 3.92982 0.4293 4.27877 0.552919 4.5925C0.672348 4.86552 0.845366 5.11178 1.06172 5.3167C1.27807 5.52162 1.53336 5.68102 1.81245 5.78547V10.6562C1.81245 10.7806 1.86184 10.8998 1.94974 10.9877C2.03765 11.0756 2.15688 11.125 2.2812 11.125H10.7187C10.843 11.125 10.9622 11.0756 11.0502 10.9877C11.1381 10.8998 11.1875 10.7806 11.1875 10.6562V5.78547C11.4666 5.68115 11.722 5.52185 11.9384 5.31701C12.1548 5.11217 12.3279 4.86596 12.4475 4.59297C12.4861 4.49436 12.5118 4.39116 12.5239 4.28594C12.5551 4.22529 12.5735 4.15884 12.5778 4.09077C12.5822 4.02269 12.5724 3.95445 12.5492 3.89031ZM10.25 10.1875H6.49995H2.74995V5.96875C3.10508 5.9732 3.45689 5.89999 3.78077 5.75425C4.10465 5.60851 4.39276 5.39375 4.62495 5.125C4.85979 5.39064 5.14839 5.60334 5.47163 5.74903C5.79488 5.89471 6.14539 5.97005 6.49995 5.97005C6.85451 5.97005 7.20502 5.89471 7.52827 5.74903C7.85151 5.60334 8.14011 5.39064 8.37495 5.125C8.60714 5.39375 8.89526 5.60851 9.21913 5.75425C9.54301 5.89999 9.89482 5.9732 10.25 5.96875V10.1875ZM11.5803 4.23438C11.4603 4.48237 11.2705 4.68991 11.0341 4.83149C10.7978 4.97306 10.5252 5.04249 10.25 5.03125C9.90878 5.05899 9.57034 4.95178 9.30738 4.73264C9.04442 4.51351 8.87793 4.19996 8.8437 3.85938C8.8437 3.73505 8.79432 3.61583 8.70641 3.52792C8.6185 3.44001 8.49927 3.39062 8.37495 3.39062C8.25063 3.39062 8.1314 3.44001 8.04349 3.52792C7.95559 3.61583 7.9062 3.73505 7.9062 3.85938C7.87197 4.19996 7.70548 4.51351 7.44252 4.73264C7.17956 4.95178 6.84112 5.05899 6.49995 5.03125C6.15878 5.05899 5.82034 4.95178 5.55738 4.73264C5.29442 4.51351 5.12793 4.19996 5.0937 3.85938C5.0937 3.73505 5.04431 3.61583 4.95641 3.52792C4.8685 3.44001 4.74927 3.39062 4.62495 3.39062C4.50063 3.39062 4.3814 3.44001 4.29349 3.52792C4.20559 3.61583 4.1562 3.73505 4.1562 3.85938C4.12197 4.19996 3.95548 4.51351 3.69252 4.73264C3.42956 4.95178 3.09112 5.05899 2.74995 5.03125C2.47468 5.04249 2.20213 4.97306 1.96579 4.83149C1.72945 4.68991 1.53962 4.48237 1.41964 4.23438C1.38822 4.14792 1.38822 4.05317 1.41964 3.96672L2.5887 1.28125H10.4112L11.5728 3.95312C11.6091 4.0429 11.6118 4.14279 11.5803 4.23438Z" fill="#717171"/>
</svg>
