<svg width="20" height="18" viewBox="0 0 20 18" fill="none" xmlns="http://www.w3.org/2000/svg">
<path d="M5.48633 0.750977H5.50391C7.00624 0.742998 8.43965 1.3805 9.44043 2.50098L10 3.12695L10.5596 2.50098C11.5604 1.3805 12.9938 0.742998 14.4961 0.750977H14.5137C15.7617 0.727865 16.9667 1.20755 17.8574 2.08203C18.748 2.95649 19.2501 4.1522 19.25 5.40039V5.40137C19.2498 7.77428 17.8335 9.94058 15.8232 11.9834C14.8278 12.9949 13.7155 13.9478 12.6133 14.8564C11.714 15.5978 10.8074 16.3227 10.002 17.0088C9.19665 16.317 8.29097 15.589 7.39062 14.8457C6.28811 13.9355 5.17485 12.9835 4.17871 11.9736C2.1674 9.93449 0.750175 7.77537 0.75 5.40137V5.40039C0.749894 4.15222 1.25192 2.9565 2.14258 2.08203C3.03333 1.20754 4.23827 0.727865 5.48633 0.750977Z" fill="url(#paint0_linear_26784_2071)" stroke="white" stroke-width="1.5"/>
<defs>
<linearGradient id="paint0_linear_26784_2071" x1="10" y1="0" x2="10" y2="18.0009" gradientUnits="userSpaceOnUse">
<stop stop-color="#E61E4D"/>
<stop offset="0.8" stop-color="#D70466"/>
</linearGradient>
</defs>
</svg>
