<svg width="32" height="32" viewBox="0 0 32 32" fill="none" xmlns="http://www.w3.org/2000/svg">
<g clip-path="url(#clip0_17817_3339)">
<path d="M16 32C24.8366 32 32 24.8366 32 16C32 7.16344 24.8366 0 16 0C7.16344 0 0 7.16344 0 16C0 24.8366 7.16344 32 16 32Z" fill="#B5B5B5"/>
<path d="M11.5555 21.111H12.2222V12.4443H11.5555C10.8195 12.4443 10.2222 13.0417 10.2222 13.7777V19.7777C10.2222 20.5137 10.8195 21.111 11.5555 21.111ZM22.2222 12.4443H17.5555L18.3036 10.199C18.5916 9.33566 17.9489 8.44434 17.0388 8.44434H16.8888L13.5555 12.0697V21.111H20.8888L23.4968 15.3803C23.5135 15.305 23.5395 15.187 23.5555 15.111V13.7777C23.5555 13.0417 22.9582 12.4443 22.2222 12.4443Z" fill="white"/>
<g clip-path="url(#clip1_17817_3339)">
<path d="M16 32C24.8366 32 32 24.8366 32 16C32 7.16344 24.8366 0 16 0C7.16344 0 0 7.16344 0 16C0 24.8366 7.16344 32 16 32Z" fill="white"/>
<path d="M16 23.7501C19.9375 21.0895 23.875 18.1251 23.875 14.1876C23.8765 13.6701 23.7757 13.1574 23.5783 12.679C23.381 12.2006 23.091 11.766 22.725 11.4C22.3591 11.0341 21.9245 10.7441 21.4461 10.5468C20.9677 10.3494 20.455 10.2486 19.9375 10.2501C18.925 10.2501 17.9238 10.6326 17.1531 11.4032L16 12.5563L14.8469 11.4032C14.482 11.0362 14.0482 10.7449 13.5703 10.5462C13.0925 10.3474 12.58 10.2451 12.0625 10.2451C11.545 10.2451 11.0325 10.3474 10.5547 10.5462C10.0768 10.7449 9.64301 11.0362 9.27813 11.4032C8.91201 11.7685 8.62166 12.2025 8.42378 12.6804C8.22589 13.1582 8.12435 13.6704 8.125 14.1876C8.125 18.1251 12.0625 21.0895 16 23.7501Z" fill="url(#paint0_linear_17817_3339)"/>
</g>
</g>
<defs>
<linearGradient id="paint0_linear_17817_3339" x1="16" y1="10.2451" x2="16" y2="23.7501" gradientUnits="userSpaceOnUse">
<stop stop-color="#E61E4D"/>
<stop offset="0.796667" stop-color="#D70466"/>
</linearGradient>
<clipPath id="clip0_17817_3339">
<rect width="32" height="32" fill="white"/>
</clipPath>
<clipPath id="clip1_17817_3339">
<rect width="32" height="32" fill="white"/>
</clipPath>
</defs>
</svg>
