<svg width="20" height="20" viewBox="0 0 20 20" fill="none" xmlns="http://www.w3.org/2000/svg">
<path d="M16.1111 3.3335C16.7741 3.3335 17.41 3.59689 17.8789 4.06573C18.3477 4.53457 18.6111 5.17045 18.6111 5.8335V14.5835C18.6111 15.2465 18.3477 15.8824 17.8789 16.3513C17.41 16.8201 16.7741 17.0835 16.1111 17.0835H12.1611H9.86108H7.56108H3.61108C2.94804 17.0835 2.31216 16.8201 1.84332 16.3513C1.37448 15.8824 1.11108 15.2465 1.11108 14.5835V5.8335C1.11108 5.17045 1.37448 4.53457 1.84332 4.06573C2.31216 3.59689 2.94804 3.3335 3.61108 3.3335H16.1111Z" stroke="#3A8BCF"/>
<path d="M12.1533 6.64648L13.3535 7.84863L13.707 8.20117L13.3535 8.55469L12.4404 9.46973L12.0859 9.82324L11.8721 10.0361L8.55371 13.3535L8.40723 13.5H6.5V11.5918L6.64648 11.4453L9.96582 8.12793L10.5322 7.56152L11.4453 6.64648L11.7998 6.29199L12.1533 6.64648Z" stroke="#3A8BCF"/>
</svg>
