<svg width="18" height="18" viewBox="0 0 18 18" fill="none" xmlns="http://www.w3.org/2000/svg">
<path d="M9.00001 1.125H1.82251V16.1925H9.00001V1.125Z" stroke="#222222" stroke-width="1.4" stroke-miterlimit="10"/>
<path d="M16.1775 1.125H9V16.1925H16.1775V1.125Z" stroke="#222222" stroke-width="1.4" stroke-miterlimit="10"/>
<path d="M3.26245 17.6249V16.1924" stroke="#222222" stroke-width="1.4" stroke-miterlimit="10"/>
<path d="M14.7375 17.6249V16.1924" stroke="#222222" stroke-width="1.4" stroke-miterlimit="10"/>
<path fill-rule="evenodd" clip-rule="evenodd" d="M6.75005 9.95625C6.50152 9.95625 6.30005 9.75478 6.30005 9.50625V8.60625C6.30005 8.35772 6.50152 8.15625 6.75005 8.15625C6.99858 8.15625 7.20005 8.35772 7.20005 8.60625V9.50625C7.20005 9.75478 6.99858 9.95625 6.75005 9.95625Z" fill="#222222"/>
<path d="M11.1526 12.6V4.70996M14.0251 4.70996V12.6" stroke="#222222" stroke-width="1.4" stroke-miterlimit="10"/>
<path d="M10.5222 4.55664H14.6566" stroke="#222222"/>
<path d="M10.5222 12.6562H14.6566" stroke="#222222"/>
</svg>
