<svg width="16" height="16" viewBox="0 0 16 16" fill="none" xmlns="http://www.w3.org/2000/svg">
<path d="M12.3334 12.9998H3.66675L1.66675 14.9998V3.6665C1.66675 2.5665 2.56675 1.6665 3.66675 1.6665H12.3334C13.4334 1.6665 14.3334 2.5665 14.3334 3.6665V10.9998C14.3334 12.0998 13.4334 12.9998 12.3334 12.9998Z" fill="#006169"/>
<path d="M8 8.3335C8.55228 8.3335 9 7.88578 9 7.3335C9 6.78121 8.55228 6.3335 8 6.3335C7.44772 6.3335 7 6.78121 7 7.3335C7 7.88578 7.44772 8.3335 8 8.3335Z" fill="white"/>
<path d="M11.3335 8.3335C11.8858 8.3335 12.3335 7.88578 12.3335 7.3335C12.3335 6.78121 11.8858 6.3335 11.3335 6.3335C10.7812 6.3335 10.3335 6.78121 10.3335 7.3335C10.3335 7.88578 10.7812 8.3335 11.3335 8.3335Z" fill="white"/>
<path d="M4.66675 8.3335C5.21903 8.3335 5.66675 7.88578 5.66675 7.3335C5.66675 6.78121 5.21903 6.3335 4.66675 6.3335C4.11446 6.3335 3.66675 6.78121 3.66675 7.3335C3.66675 7.88578 4.11446 8.3335 4.66675 8.3335Z" fill="white"/>
</svg>
