<svg width="19" height="18" viewBox="0 0 19 18" fill="none" xmlns="http://www.w3.org/2000/svg">
<path d="M13.7496 0.5625H5.48251C5.04415 0.563002 4.62389 0.740954 4.31392 1.05731C4.00395 1.37367 3.82959 1.8026 3.8291 2.25V16.3125C3.82943 16.6108 3.94567 16.8967 4.15231 17.1076C4.35896 17.3185 4.63913 17.4372 4.93137 17.4375H14.3007C14.5929 17.4372 14.8731 17.3185 15.0798 17.1076C15.2864 16.8967 15.4026 16.6108 15.403 16.3125V2.25C15.4025 1.8026 15.2281 1.37367 14.9181 1.05731C14.6082 0.740954 14.1879 0.563002 13.7496 0.5625ZM14.3007 16.3125H4.93137V8.4375H14.3007V16.3125ZM14.3007 7.3125H4.93137V2.25C4.93155 2.10087 4.98967 1.9579 5.09299 1.85245C5.19631 1.747 5.33639 1.68768 5.48251 1.6875H13.7496C13.8957 1.68768 14.0358 1.747 14.1391 1.85245C14.2424 1.9579 14.3005 2.10087 14.3007 2.25V7.3125Z" fill="#222222"/>
<path d="M6.86033 9.84375H5.75806V13.2188H6.86033V9.84375Z" fill="#222222"/>
<path d="M6.86033 3.65625H5.75806V5.90625H6.86033V3.65625Z" fill="#222222"/>
</svg>
