<svg width="18" height="18" viewBox="0 0 18 18" fill="none" xmlns="http://www.w3.org/2000/svg">
<path d="M5.0625 16.3125V15.1875H6.1875V14.0625H3.375C2.65003 14.0632 1.9528 13.7839 1.42877 13.283C0.904739 12.782 0.5944 12.098 0.562501 11.3738V4.5C0.561799 3.77503 0.841069 3.0778 1.34204 2.55377C1.84301 2.02974 2.52699 1.7194 3.25125 1.6875H14.625C15.35 1.6868 16.0472 1.96607 16.5712 2.46704C17.0953 2.96801 17.4056 3.65199 17.4375 4.37625V11.25C17.4382 11.975 17.1589 12.6722 16.658 13.1962C16.157 13.7203 15.473 14.0306 14.7488 14.0625H11.8125V15.1875H12.9375V16.3125H5.0625ZM10.6875 14.0625H7.3125V15.1875H10.6875V14.0625ZM14.625 2.8125H3.375C2.94445 2.81173 2.52989 2.97555 2.21618 3.27044C1.90246 3.56533 1.71333 3.96898 1.6875 4.39875V11.25C1.68673 11.6806 1.85055 12.0951 2.14544 12.4088C2.44033 12.7225 2.84398 12.9117 3.27375 12.9375H14.625C15.0556 12.9383 15.4701 12.7745 15.7838 12.4796C16.0975 12.1847 16.2867 11.781 16.3125 11.3513V4.5C16.3133 4.06945 16.1495 3.65489 15.8546 3.34118C15.5597 3.02746 15.156 2.83833 14.7263 2.8125H14.625Z" fill="#222222"/>
</svg>
