<svg width="14" height="16" viewBox="0 0 14 16" fill="none" xmlns="http://www.w3.org/2000/svg">
<path d="M7.62658 1.07324V10.5199C7.62658 11.0203 7.42781 11.5002 7.07399 11.854C6.72017 12.2078 6.24029 12.4066 5.73992 12.4066C5.23954 12.4066 4.75966 12.2078 4.40584 11.854C4.05202 11.5002 3.85325 11.0203 3.85325 10.5199C3.85325 10.0189 4.05181 9.53835 4.40544 9.18347C4.75907 8.82859 5.23893 8.62834 5.73992 8.62658V6.11324C4.5712 6.11324 3.45034 6.57751 2.62393 7.40393C1.79752 8.23034 1.33325 9.35119 1.33325 10.5199C1.33325 11.6886 1.79752 12.8095 2.62393 13.6359C3.45034 14.4623 4.5712 14.9266 5.73992 14.9266C6.90864 14.9266 8.02949 14.4623 8.8559 13.6359C9.68231 12.8095 10.1466 11.6886 10.1466 10.5199V6.11324L10.2799 6.17991C11.0219 6.54753 11.8386 6.73916 12.6666 6.73991V4.21991H12.5933C11.8942 4.04575 11.2735 3.64263 10.8301 3.07479C10.3867 2.50694 10.1461 1.80703 10.1466 1.08658H7.62658V1.07324Z" stroke="#555555" stroke-miterlimit="10"/>
</svg>
