<svg width="60" height="58" viewBox="0 0 60 58" fill="none" xmlns="http://www.w3.org/2000/svg">
<g filter="url(#filter0_d_28016_2977)">
<rect x="10" y="6" width="40" height="37.7143" rx="4" fill="url(#paint0_linear_28016_2977)" shape-rendering="crispEdges"/>
<rect x="10" y="6" width="40" height="37.7143" rx="4" fill="url(#paint1_linear_28016_2977)" shape-rendering="crispEdges"/>
</g>
<path d="M23.2188 33.1709L25.2901 25.5625H27.9766L24.6202 35.5156H22.8838L23.2188 33.1709ZM21.3389 25.5625L23.4102 33.1709L23.7588 35.5156H22.002L18.6661 25.5625H21.3389ZM31.2578 25.5625V35.5156H28.8653V25.5625H31.2578ZM36.918 32.1387H34.4434V30.2861H36.918C37.2552 30.2861 37.5287 30.2292 37.7383 30.1152C37.948 30.0013 38.1006 29.8441 38.1963 29.6436C38.2966 29.4385 38.3467 29.2083 38.3467 28.9531C38.3467 28.6797 38.2966 28.4268 38.1963 28.1943C38.1006 27.9619 37.948 27.7751 37.7383 27.6338C37.5287 27.488 37.2552 27.415 36.918 27.415H35.3457V35.5156H32.9463V25.5625H36.918C37.7155 25.5625 38.4014 25.7083 38.9756 26C39.5544 26.2917 39.9987 26.6927 40.3086 27.2031C40.6185 27.709 40.7735 28.2878 40.7735 28.9395C40.7735 29.582 40.6185 30.1426 40.3086 30.6211C39.9987 31.0996 39.5544 31.4733 38.9756 31.7422C38.4014 32.0065 37.7155 32.1387 36.918 32.1387Z" fill="#F69800"/>
<path d="M30.7148 11.3809C30.7289 11.3809 30.7431 11.385 30.7549 11.3926L30.7822 11.4238L31.7021 13.4072L31.7373 13.4814L31.8193 13.4922L34.0205 13.7783C34.0344 13.7801 34.0478 13.786 34.0586 13.7949C34.0693 13.8039 34.0778 13.8158 34.082 13.8291C34.0862 13.8423 34.0866 13.8567 34.083 13.8701C34.0795 13.8831 34.0723 13.895 34.0625 13.9043L32.4326 15.3711L32.3691 15.4287L32.3857 15.5117L32.8252 17.7109C32.8279 17.7247 32.8265 17.7389 32.8213 17.752C32.8161 17.765 32.8073 17.776 32.7959 17.7842C32.7845 17.7924 32.7709 17.7972 32.7568 17.7979C32.7429 17.7985 32.7289 17.7951 32.7168 17.7881H32.7158L30.79 16.6719L30.7148 16.6289L30.6396 16.6729L28.7158 17.7881C28.7036 17.7951 28.6898 17.7985 28.6758 17.7979C28.6617 17.7972 28.6482 17.7924 28.6367 17.7842C28.6254 17.776 28.6165 17.765 28.6113 17.752L28.6074 17.7109L29.0469 15.5117L29.0645 15.4287L29.001 15.3711L27.3711 13.9043L27.3701 13.9033L27.3477 13.8682C27.344 13.8547 27.3445 13.8405 27.3486 13.8271C27.3528 13.8139 27.3605 13.802 27.3711 13.793C27.3818 13.784 27.3953 13.7782 27.4092 13.7764H27.4102L29.6113 13.4922L29.6934 13.4824L29.7285 13.4072L30.6504 11.4248L30.6533 11.417C30.6591 11.4073 30.6662 11.3987 30.6758 11.3926C30.6875 11.3851 30.7009 11.3809 30.7148 11.3809Z" fill="#F69800" stroke="#F69800" stroke-width="0.3"/>
<path d="M22.6624 13.5801C22.6764 13.5801 22.6906 13.5842 22.7024 13.5918L22.7297 13.623L23.6497 15.6064L23.6848 15.6807L23.7668 15.6914L25.968 15.9775C25.9819 15.9793 25.9954 15.9852 26.0061 15.9941C26.0168 16.0031 26.0253 16.015 26.0295 16.0283C26.0337 16.0416 26.0341 16.0559 26.0305 16.0693C26.027 16.0824 26.0198 16.0942 26.01 16.1035L24.3801 17.5703L24.3167 17.6279L24.3333 17.7109L24.7727 19.9102C24.7754 19.9239 24.774 19.9381 24.7688 19.9512C24.7636 19.9642 24.7548 19.9752 24.7434 19.9834C24.732 19.9916 24.7184 19.9964 24.7043 19.9971C24.6904 19.9977 24.6764 19.9943 24.6643 19.9873H24.6633L22.7375 18.8711L22.6624 18.8281L22.5872 18.8721L20.6633 19.9873C20.6511 19.9943 20.6373 19.9978 20.6233 19.9971L20.5842 19.9834C20.5729 19.9752 20.564 19.9642 20.5588 19.9512L20.5549 19.9102L20.9944 17.7109L21.012 17.6279L20.9485 17.5703L19.3186 16.1035L19.3176 16.1025L19.2952 16.0674C19.2915 16.0539 19.292 16.0397 19.2961 16.0264C19.3003 16.0131 19.308 16.0012 19.3186 15.9922C19.3293 15.9832 19.3428 15.9774 19.3567 15.9756H19.3577L21.5588 15.6914L21.6409 15.6816L21.676 15.6064L22.5979 13.624L22.6008 13.6162C22.6066 13.6065 22.6137 13.598 22.6233 13.5918C22.635 13.5843 22.6485 13.5802 22.6624 13.5801Z" fill="#F69800" stroke="#F69800" stroke-width="0.3"/>
<path d="M38.6624 13.5801C38.6763 13.5801 38.6897 13.5843 38.7014 13.5918C38.7131 13.5993 38.7229 13.6095 38.7288 13.6221V13.623L39.6487 15.6055L39.6838 15.6807L39.7659 15.6914L41.9661 15.9766H41.967C41.9807 15.9783 41.9935 15.9844 42.0042 15.9932C42.0149 16.0021 42.0233 16.0141 42.0276 16.0273C42.0318 16.0406 42.0321 16.0549 42.0286 16.0684C42.0251 16.0814 42.0178 16.0932 42.0081 16.1025L40.3782 17.5693L40.3147 17.627L40.3323 17.71L40.7717 19.9092C40.7743 19.9226 40.7728 19.9365 40.7678 19.9492C40.7626 19.9623 40.7539 19.9742 40.7424 19.9824C40.731 19.9906 40.7174 19.9954 40.7034 19.9961L40.6633 19.9863L38.7375 18.8701L38.6624 18.8271L38.5872 18.8701L36.6624 19.9863C36.6504 19.993 36.637 19.9967 36.6233 19.9961C36.6094 19.9954 36.5956 19.9905 36.5842 19.9824C36.5728 19.9742 36.564 19.9623 36.5588 19.9492C36.5538 19.9364 36.5524 19.9227 36.5549 19.9092L36.9944 17.71L37.011 17.627L36.9475 17.5693L35.3186 16.1025H35.3176C35.3071 16.0932 35.299 16.0809 35.2952 16.0674C35.2914 16.0538 35.292 16.0388 35.2961 16.0254C35.3003 16.0122 35.308 16.0001 35.3186 15.9912C35.3293 15.9822 35.3428 15.9764 35.3567 15.9746H35.3577L37.5588 15.6914L37.6409 15.6807L37.675 15.6055L38.5969 13.624L38.6008 13.6152C38.6065 13.606 38.6132 13.5977 38.6223 13.5918C38.6341 13.5842 38.6483 13.5801 38.6624 13.5801Z" fill="#F69800" stroke="#F69800" stroke-width="0.3"/>
<defs>
<filter id="filter0_d_28016_2977" x="0" y="0" width="60" height="57.7148" filterUnits="userSpaceOnUse" color-interpolation-filters="sRGB">
<feFlood flood-opacity="0" result="BackgroundImageFix"/>
<feColorMatrix in="SourceAlpha" type="matrix" values="0 0 0 0 0 0 0 0 0 0 0 0 0 0 0 0 0 0 127 0" result="hardAlpha"/>
<feOffset dy="4"/>
<feGaussianBlur stdDeviation="5"/>
<feComposite in2="hardAlpha" operator="out"/>
<feColorMatrix type="matrix" values="0 0 0 0 0 0 0 0 0 0 0 0 0 0 0 0 0 0 0.16 0"/>
<feBlend mode="normal" in2="BackgroundImageFix" result="effect1_dropShadow_28016_2977"/>
<feBlend mode="normal" in="SourceGraphic" in2="effect1_dropShadow_28016_2977" result="shape"/>
</filter>
<linearGradient id="paint0_linear_28016_2977" x1="28.0847" y1="60.7656" x2="65.7338" y2="20.8347" gradientUnits="userSpaceOnUse">
<stop stop-color="#F1F1F1" stop-opacity="0.85"/>
<stop offset="0.11" stop-color="white" stop-opacity="0.85"/>
<stop offset="0.7" stop-color="white" stop-opacity="0.85"/>
<stop offset="0.94" stop-color="#EFEFEF" stop-opacity="0.85"/>
</linearGradient>
<linearGradient id="paint1_linear_28016_2977" x1="48.2857" y1="42.5714" x2="12.8571" y2="6" gradientUnits="userSpaceOnUse">
<stop offset="0.272333" stop-color="#FEE53F"/>
<stop offset="0.50002" stop-color="#FFE100" stop-opacity="0.37"/>
<stop offset="0.685146" stop-color="#FEE53F"/>
</linearGradient>
</defs>
</svg>
