<svg width="17" height="13" viewBox="0 0 17 13" fill="none" xmlns="http://www.w3.org/2000/svg">
<path d="M8.5 8.91174C9.02496 8.91174 9.52843 9.1271 9.89963 9.51045C10.2708 9.8938 10.4794 10.4137 10.4794 10.9559C10.4794 11.498 10.2708 12.0179 9.89963 12.4013C9.52843 12.7846 9.02496 13 8.5 13C7.97504 13 7.47157 12.7846 7.10037 12.4013C6.72916 12.0179 6.52062 11.498 6.52062 10.9559C6.52062 10.4137 6.72916 9.8938 7.10037 9.51045C7.47157 9.1271 7.97504 8.91174 8.5 8.91174ZM8.5 10.0257C8.26112 10.0257 8.03202 10.1237 7.86311 10.2981C7.6942 10.4726 7.5993 10.7092 7.5993 10.9559C7.5993 11.2026 7.6942 11.4392 7.86311 11.6136C8.03202 11.788 8.26112 11.886 8.5 11.886C8.73888 11.886 8.96798 11.788 9.13689 11.6136C9.3058 11.4392 9.4007 11.2026 9.4007 10.9559C9.4007 10.7092 9.3058 10.4726 9.13689 10.2981C8.96798 10.1237 8.73888 10.0257 8.5 10.0257ZM8.5 5.94302C9.3997 5.94325 10.2816 6.20171 11.0474 6.68955C11.8131 7.17738 12.4324 7.87539 12.8363 8.70566L12.0219 9.5467C11.7473 8.81237 11.2639 8.18108 10.6353 7.73587C10.0066 7.29065 9.26225 7.05238 8.5 7.05238C7.73775 7.05238 6.99336 7.29065 6.36473 7.73587C5.73611 8.18108 5.25271 8.81237 4.97811 9.5467L4.16371 8.70566C4.56757 7.87539 5.18693 7.17738 5.95265 6.68955C6.71836 6.20171 7.6003 5.94325 8.5 5.94302ZM8.5 2.97429C11.1859 2.97429 13.5536 4.38903 14.9397 6.53899L14.1577 7.34105C13.5618 6.34488 12.7292 5.52259 11.739 4.95229C10.7488 4.38199 9.6338 4.08262 8.5 4.08262C7.3662 4.08262 6.25122 4.38199 5.26099 4.95229C4.27077 5.52259 3.43818 6.34488 2.84232 7.34105L2.06028 6.53342C2.76539 5.43651 3.72248 4.53691 4.84615 3.91491C5.96981 3.29291 7.2251 2.96785 8.5 2.96872V2.97429ZM8.5 0C11.9787 0 15.0692 1.72665 17 4.40017L16.2287 5.20223C15.3478 3.93495 14.1874 2.90251 12.8434 2.19033C11.4994 1.47814 10.0106 1.10668 8.5 1.10668C6.98942 1.10668 5.50055 1.47814 4.15658 2.19033C2.81261 2.90251 1.65216 3.93495 0.771256 5.20223L0 4.40574C1.93084 1.73222 5.01586 0.00556996 8.5 0.00556996V0Z" fill="#222222"/>
</svg>
